%TF.GenerationSoftware,KiCad,Pcbnew,(6.0.5)*%
%TF.CreationDate,2022-10-09T22:16:16+01:00*%
%TF.ProjectId,PicoDrive,5069636f-4472-4697-9665-2e6b69636164,rev?*%
%TF.SameCoordinates,Original*%
%TF.FileFunction,Copper,L2,Bot*%
%TF.FilePolarity,Positive*%
%FSLAX46Y46*%
G04 Gerber Fmt 4.6, Leading zero omitted, Abs format (unit mm)*
G04 Created by KiCad (PCBNEW (6.0.5)) date 2022-10-09 22:16:16*
%MOMM*%
%LPD*%
G01*
G04 APERTURE LIST*
G04 Aperture macros list*
%AMFreePoly0*
4,1,22,0.500000,-0.750000,0.000000,-0.750000,0.000000,-0.745033,-0.079941,-0.743568,-0.215256,-0.701293,-0.333266,-0.622738,-0.424486,-0.514219,-0.481581,-0.384460,-0.499164,-0.250000,-0.500000,-0.250000,-0.500000,0.250000,-0.499164,0.250000,-0.499963,0.256109,-0.478152,0.396186,-0.417904,0.524511,-0.324060,0.630769,-0.204165,0.706417,-0.067858,0.745374,0.000000,0.744959,0.000000,0.750000,
0.500000,0.750000,0.500000,-0.750000,0.500000,-0.750000,$1*%
%AMFreePoly1*
4,1,20,0.000000,0.744959,0.073905,0.744508,0.209726,0.703889,0.328688,0.626782,0.421226,0.519385,0.479903,0.390333,0.500000,0.250000,0.500000,-0.250000,0.499851,-0.262216,0.476331,-0.402017,0.414519,-0.529596,0.319384,-0.634700,0.198574,-0.708877,0.061801,-0.746166,0.000000,-0.745033,0.000000,-0.750000,-0.500000,-0.750000,-0.500000,0.750000,0.000000,0.750000,0.000000,0.744959,
0.000000,0.744959,$1*%
G04 Aperture macros list end*
%TA.AperFunction,SMDPad,CuDef*%
%ADD10R,1.500000X1.500000*%
%TD*%
%TA.AperFunction,ComponentPad*%
%ADD11O,2.000000X0.900000*%
%TD*%
%TA.AperFunction,ComponentPad*%
%ADD12O,1.700000X0.900000*%
%TD*%
%TA.AperFunction,ComponentPad*%
%ADD13C,0.600000*%
%TD*%
%TA.AperFunction,SMDPad,CuDef*%
%ADD14FreePoly0,180.000000*%
%TD*%
%TA.AperFunction,SMDPad,CuDef*%
%ADD15FreePoly1,180.000000*%
%TD*%
%TA.AperFunction,ViaPad*%
%ADD16C,0.500000*%
%TD*%
%TA.AperFunction,Conductor*%
%ADD17C,0.500000*%
%TD*%
%TA.AperFunction,Conductor*%
%ADD18C,0.300000*%
%TD*%
%TA.AperFunction,Conductor*%
%ADD19C,0.200000*%
%TD*%
%TA.AperFunction,Conductor*%
%ADD20C,0.250000*%
%TD*%
G04 APERTURE END LIST*
D10*
%TO.P,TP7,1,1*%
%TO.N,+3V3*%
X148590000Y-57150000D03*
%TD*%
%TO.P,TP2,1,1*%
%TO.N,+BATT*%
X144780000Y-69850000D03*
%TD*%
D11*
%TO.P,P1,S1,SHIELD*%
%TO.N,GND*%
X149250000Y-52830000D03*
D12*
X145080000Y-52830000D03*
D11*
X149250000Y-61470000D03*
D12*
X145080000Y-61470000D03*
%TD*%
D13*
%TO.P,U3,57,GND*%
%TO.N,GND*%
X160533000Y-58298000D03*
X159258000Y-55748000D03*
X157983000Y-58298000D03*
X157983000Y-57023000D03*
X157983000Y-55748000D03*
X159258000Y-58298000D03*
X160533000Y-55748000D03*
X159258000Y-57023000D03*
X160533000Y-57023000D03*
%TD*%
D10*
%TO.P,TP3,1,1*%
%TO.N,GND*%
X144780000Y-55880000D03*
%TD*%
%TO.P,TP5,1,1*%
%TO.N,/IO_1*%
X144780000Y-64135000D03*
%TD*%
D14*
%TO.P,JP1,1,A*%
%TO.N,Net-(JP1-Pad1)*%
X154828000Y-62992000D03*
D15*
%TO.P,JP1,2,B*%
%TO.N,GND*%
X153528000Y-62992000D03*
%TD*%
D10*
%TO.P,TP1,1,1*%
%TO.N,+BATT*%
X144780000Y-67310000D03*
%TD*%
%TO.P,TP4,1,1*%
%TO.N,GND*%
X144780000Y-58420000D03*
%TD*%
%TO.P,TP6,1,1*%
%TO.N,/IO_2*%
X149225000Y-64135000D03*
%TD*%
D16*
%TO.N,GND*%
X142875000Y-68580000D03*
%TO.N,*%
X146685000Y-64770000D03*
X142875000Y-63500000D03*
%TO.N,GND*%
X161163000Y-67945000D03*
X160909000Y-70866000D03*
X162560000Y-66929000D03*
X167513000Y-60198000D03*
X165481000Y-60833000D03*
X161926757Y-65084019D03*
X165735000Y-64135000D03*
%TO.N,+BATT*%
X165735000Y-69850000D03*
X167640000Y-66675000D03*
%TO.N,+3V3*%
X164465000Y-63500000D03*
%TO.N,GND*%
X168910000Y-66040000D03*
%TO.N,+3V3*%
X162851489Y-68669511D03*
X162814000Y-66167000D03*
%TO.N,GND*%
X146050000Y-67691000D03*
%TO.N,+3V3*%
X151736108Y-61619111D03*
%TO.N,Net-(R10-Pad2)*%
X158305500Y-54800500D03*
%TO.N,Net-(R8-Pad2)*%
X157571500Y-54991000D03*
%TO.N,/IO_1*%
X163195000Y-60325000D03*
%TO.N,/IO_2*%
X162560000Y-60706000D03*
%TO.N,GND*%
X167005000Y-57150000D03*
%TO.N,+1V1*%
X161839500Y-56261000D03*
%TO.N,Net-(R10-Pad2)*%
X160020000Y-65405000D03*
%TO.N,+BATT*%
X160655000Y-69850000D03*
%TO.N,Net-(R8-Pad2)*%
X146685000Y-62865000D03*
%TO.N,GND*%
X154178000Y-67437000D03*
X149098000Y-69342000D03*
X154559000Y-69342000D03*
X155956000Y-64262000D03*
X157099000Y-65151000D03*
%TO.N,+3V3*%
X151511000Y-58674000D03*
%TO.N,GND*%
X151638000Y-60071000D03*
X161996056Y-63571056D03*
X170180000Y-71120000D03*
X167640000Y-53975000D03*
X165100000Y-53340000D03*
X162560000Y-52070000D03*
X163195000Y-52705000D03*
X160020000Y-52070000D03*
X155575000Y-53340000D03*
X154940000Y-52070000D03*
X150495000Y-52070000D03*
X151765000Y-64135000D03*
X153670000Y-65405000D03*
X150495000Y-66040000D03*
X147955000Y-66040000D03*
X146050000Y-71120000D03*
X156845000Y-71120000D03*
X158750000Y-64770000D03*
X160020000Y-67310000D03*
X164465000Y-71120000D03*
X167640000Y-71120000D03*
X152273000Y-52070000D03*
X150876000Y-53340000D03*
X152527000Y-57277000D03*
X161747212Y-59486808D03*
%TO.N,Net-(JP1-Pad1)*%
X154477500Y-63306214D03*
%TO.N,+1V1*%
X154813000Y-56642000D03*
X154813000Y-54677500D03*
%TO.N,+3V3*%
X156972000Y-67564000D03*
%TO.N,+BATT*%
X149225000Y-68580000D03*
X149860000Y-68580000D03*
X167640000Y-63246000D03*
%TO.N,USB_DM*%
X151481669Y-57869466D03*
X151892000Y-54864000D03*
%TD*%
D17*
%TO.N,+BATT*%
X165735000Y-69850000D02*
X160655000Y-69850000D01*
X167640000Y-66675000D02*
X167640000Y-69215000D01*
D18*
%TO.N,+3V3*%
X164501947Y-66638053D02*
X164501947Y-63536947D01*
X164501947Y-63536947D02*
X164465000Y-63500000D01*
X164501947Y-66638053D02*
X164501947Y-66076947D01*
X164501947Y-67923479D02*
X164501947Y-66638053D01*
D17*
%TO.N,+BATT*%
X167640000Y-69215000D02*
X167005000Y-69850000D01*
X167640000Y-63246000D02*
X167640000Y-66675000D01*
X167005000Y-69850000D02*
X165735000Y-69850000D01*
D19*
%TO.N,/IO_2*%
X149367127Y-64135000D02*
X149225000Y-64135000D01*
X151186638Y-65954511D02*
X149367127Y-64135000D01*
X160655001Y-63499999D02*
X160655000Y-65547127D01*
X160655000Y-65547127D02*
X160247616Y-65954511D01*
X162560000Y-61595000D02*
X160655001Y-63499999D01*
X160247616Y-65954511D02*
X151186638Y-65954511D01*
X162560000Y-60706000D02*
X162560000Y-61595000D01*
D18*
%TO.N,+3V3*%
X163755915Y-68669511D02*
X163964713Y-68460713D01*
X162851489Y-68669511D02*
X163755915Y-68669511D01*
X163830000Y-68595426D02*
X163964713Y-68460713D01*
X163964713Y-68460713D02*
X164501947Y-67923479D01*
X158077511Y-68669511D02*
X162851489Y-68669511D01*
X156972000Y-67564000D02*
X158077511Y-68669511D01*
X162814000Y-66167000D02*
X164411894Y-66167000D01*
X164411894Y-66167000D02*
X164501947Y-66076947D01*
D17*
%TO.N,+BATT*%
X158115000Y-69850000D02*
X160655000Y-69850000D01*
X156845000Y-68580000D02*
X158115000Y-69850000D01*
X149225000Y-68580000D02*
X156845000Y-68580000D01*
X149860000Y-68580000D02*
X149225000Y-68580000D01*
X149860000Y-68580000D02*
X144780000Y-68580000D01*
%TO.N,+3V3*%
X150876000Y-60759003D02*
X151736108Y-61619111D01*
D20*
%TO.N,Net-(JP1-Pad1)*%
X154513786Y-63306214D02*
X154828000Y-62992000D01*
X154477500Y-63306214D02*
X154513786Y-63306214D01*
X154940000Y-62983761D02*
X154617547Y-63306214D01*
X154617547Y-63306214D02*
X154477500Y-63306214D01*
D19*
%TO.N,Net-(R10-Pad2)*%
X161480500Y-54800500D02*
X158305500Y-54800500D01*
X162560000Y-55880000D02*
X161480500Y-54800500D01*
X162560000Y-57785000D02*
X162560000Y-55880000D01*
X160020000Y-60325000D02*
X162560000Y-57785000D01*
X160020000Y-65405000D02*
X160020000Y-60325000D01*
%TO.N,+1V1*%
X154853489Y-56347511D02*
X154813000Y-56388000D01*
X161752989Y-56347511D02*
X154853489Y-56347511D01*
X161839500Y-56261000D02*
X161752989Y-56347511D01*
%TO.N,Net-(R8-Pad2)*%
X147320000Y-62230000D02*
X146685000Y-62865000D01*
X152400000Y-62230000D02*
X147320000Y-62230000D01*
X153670000Y-60960000D02*
X152400000Y-62230000D01*
X153670000Y-54610000D02*
X153670000Y-60960000D01*
X157571500Y-54991000D02*
X156591000Y-54991000D01*
X155575000Y-53975000D02*
X154305000Y-53975000D01*
X156591000Y-54991000D02*
X155575000Y-53975000D01*
X154305000Y-53975000D02*
X153670000Y-54610000D01*
%TO.N,/IO_1*%
X151130000Y-66675000D02*
X147320000Y-66675000D01*
X151450970Y-66354030D02*
X151130000Y-66675000D01*
X160082129Y-66354030D02*
X151450970Y-66354030D01*
X160413102Y-66354031D02*
X160082129Y-66354030D01*
X160691067Y-66076067D02*
X160413102Y-66354031D01*
X160820486Y-65946647D02*
X160691067Y-66076067D01*
X161054520Y-65405000D02*
X161054519Y-65712614D01*
X161054520Y-63735480D02*
X161054520Y-65405000D01*
X161054519Y-65712614D02*
X160820486Y-65946647D01*
X161925000Y-62865000D02*
X161054520Y-63735480D01*
X163195000Y-60325000D02*
X163195000Y-61595000D01*
X163195000Y-61595000D02*
X161925000Y-62865000D01*
X146050000Y-65405000D02*
X147320000Y-66675000D01*
X144780000Y-64135000D02*
X146050000Y-65405000D01*
D17*
%TO.N,+3V3*%
X150749000Y-59309000D02*
X150876000Y-59309000D01*
X148590000Y-57150000D02*
X150749000Y-59309000D01*
D19*
%TO.N,USB_DM*%
X151892000Y-57459135D02*
X151892000Y-54864000D01*
X151481669Y-57869466D02*
X151892000Y-57459135D01*
%TO.N,+1V1*%
X154813000Y-54677500D02*
X154813000Y-56388000D01*
X154813000Y-56642000D02*
X154813000Y-56388000D01*
D17*
%TO.N,+3V3*%
X151511000Y-58674000D02*
X150876000Y-59309000D01*
X150876000Y-59309000D02*
X150876000Y-60759003D01*
%TO.N,+BATT*%
X144780000Y-67310000D02*
X144780000Y-68580000D01*
X144780000Y-68580000D02*
X144780000Y-69850000D01*
%TD*%
%TA.AperFunction,Conductor*%
%TO.N,GND*%
G36*
X144360434Y-51709502D02*
G01*
X144406927Y-51763158D01*
X144417031Y-51833432D01*
X144387537Y-51898012D01*
X144329992Y-51935734D01*
X144306756Y-51943016D01*
X144295068Y-51948025D01*
X144136021Y-52036187D01*
X144125588Y-52043438D01*
X143987509Y-52161785D01*
X143978756Y-52170976D01*
X143867289Y-52314680D01*
X143860565Y-52325440D01*
X143780268Y-52488625D01*
X143775845Y-52500519D01*
X143760749Y-52558470D01*
X143761183Y-52572564D01*
X143769364Y-52576000D01*
X146389229Y-52576000D01*
X146402760Y-52572027D01*
X146403637Y-52565925D01*
X146347690Y-52413864D01*
X146342123Y-52402451D01*
X146246292Y-52247892D01*
X146238540Y-52237826D01*
X146113592Y-52105697D01*
X146103974Y-52097395D01*
X145955013Y-51993092D01*
X145943916Y-51986890D01*
X145815078Y-51931137D01*
X145760503Y-51885726D01*
X145739143Y-51818019D01*
X145757779Y-51749512D01*
X145810495Y-51701956D01*
X145865118Y-51689500D01*
X148312313Y-51689500D01*
X148380434Y-51709502D01*
X148426927Y-51763158D01*
X148437031Y-51833432D01*
X148407537Y-51898012D01*
X148349992Y-51935734D01*
X148326756Y-51943016D01*
X148315068Y-51948025D01*
X148156021Y-52036187D01*
X148145588Y-52043438D01*
X148007509Y-52161785D01*
X147998756Y-52170976D01*
X147887289Y-52314680D01*
X147880565Y-52325440D01*
X147800268Y-52488625D01*
X147795845Y-52500519D01*
X147780749Y-52558470D01*
X147781183Y-52572564D01*
X147789364Y-52576000D01*
X150709229Y-52576000D01*
X150722760Y-52572027D01*
X150723637Y-52565925D01*
X150667690Y-52413864D01*
X150662123Y-52402451D01*
X150566292Y-52247892D01*
X150558540Y-52237826D01*
X150433592Y-52105697D01*
X150423974Y-52097395D01*
X150275013Y-51993092D01*
X150263916Y-51986890D01*
X150135078Y-51931137D01*
X150080503Y-51885726D01*
X150059143Y-51818019D01*
X150077779Y-51749512D01*
X150130495Y-51701956D01*
X150185118Y-51689500D01*
X174752500Y-51689500D01*
X174820621Y-51709502D01*
X174867114Y-51763158D01*
X174878500Y-51815500D01*
X174878500Y-71374500D01*
X174858498Y-71442621D01*
X174804842Y-71489114D01*
X174752500Y-71500500D01*
X142747500Y-71500500D01*
X142679379Y-71480498D01*
X142632886Y-71426842D01*
X142621500Y-71374500D01*
X142621500Y-69074933D01*
X143775500Y-69074933D01*
X143775501Y-70625066D01*
X143790266Y-70699301D01*
X143846516Y-70783484D01*
X143930699Y-70839734D01*
X144004933Y-70854500D01*
X144779874Y-70854500D01*
X145555066Y-70854499D01*
X145590818Y-70847388D01*
X145617126Y-70842156D01*
X145617128Y-70842155D01*
X145629301Y-70839734D01*
X145639621Y-70832839D01*
X145639622Y-70832838D01*
X145703168Y-70790377D01*
X145713484Y-70783484D01*
X145769734Y-70699301D01*
X145784500Y-70625067D01*
X145784499Y-69210500D01*
X145804501Y-69142379D01*
X145858157Y-69095886D01*
X145910499Y-69084500D01*
X149216992Y-69084500D01*
X149219301Y-69084521D01*
X149287998Y-69085780D01*
X149291779Y-69084749D01*
X149295796Y-69084500D01*
X149851992Y-69084500D01*
X149854301Y-69084521D01*
X149922998Y-69085780D01*
X149926779Y-69084749D01*
X149930796Y-69084500D01*
X156583839Y-69084500D01*
X156651960Y-69104502D01*
X156672934Y-69121405D01*
X157708323Y-70156794D01*
X157715865Y-70166234D01*
X157716245Y-70165911D01*
X157722063Y-70172747D01*
X157726853Y-70180339D01*
X157733581Y-70186281D01*
X157766859Y-70215671D01*
X157772546Y-70221017D01*
X157783880Y-70232351D01*
X157787463Y-70235036D01*
X157787465Y-70235038D01*
X157792155Y-70238553D01*
X157799998Y-70244938D01*
X157835170Y-70276001D01*
X157843292Y-70279814D01*
X157846093Y-70281654D01*
X157860088Y-70290063D01*
X157863051Y-70291685D01*
X157870236Y-70297070D01*
X157878646Y-70300223D01*
X157878648Y-70300224D01*
X157914182Y-70313546D01*
X157923495Y-70317470D01*
X157965982Y-70337417D01*
X157974856Y-70338799D01*
X157978083Y-70339785D01*
X157993846Y-70343920D01*
X157997140Y-70344644D01*
X158005552Y-70347798D01*
X158014510Y-70348464D01*
X158014511Y-70348464D01*
X158052350Y-70351276D01*
X158062374Y-70352426D01*
X158075697Y-70354500D01*
X158091062Y-70354500D01*
X158100399Y-70354846D01*
X158149666Y-70358507D01*
X158158441Y-70356634D01*
X158167137Y-70356041D01*
X158181737Y-70354500D01*
X160646992Y-70354500D01*
X160649301Y-70354521D01*
X160717998Y-70355780D01*
X160721779Y-70354749D01*
X160725796Y-70354500D01*
X165726992Y-70354500D01*
X165729301Y-70354521D01*
X165797998Y-70355780D01*
X165801779Y-70354749D01*
X165805796Y-70354500D01*
X166934376Y-70354500D01*
X166946381Y-70355841D01*
X166946421Y-70355345D01*
X166955368Y-70356065D01*
X166964124Y-70358046D01*
X167017382Y-70354742D01*
X167025184Y-70354500D01*
X167041226Y-70354500D01*
X167045657Y-70353865D01*
X167045662Y-70353865D01*
X167049687Y-70353288D01*
X167051457Y-70353035D01*
X167061514Y-70352004D01*
X167083976Y-70350611D01*
X167099400Y-70349654D01*
X167099402Y-70349654D01*
X167108359Y-70349098D01*
X167116799Y-70346051D01*
X167120089Y-70345370D01*
X167135938Y-70341418D01*
X167139168Y-70340473D01*
X167148052Y-70339201D01*
X167190763Y-70319782D01*
X167200128Y-70315970D01*
X167235837Y-70303078D01*
X167235840Y-70303076D01*
X167244284Y-70300028D01*
X167251533Y-70294732D01*
X167254490Y-70293160D01*
X167268614Y-70284907D01*
X167271437Y-70283102D01*
X167279605Y-70279388D01*
X167286402Y-70273531D01*
X167286404Y-70273530D01*
X167315153Y-70248757D01*
X167323064Y-70242475D01*
X167333944Y-70234527D01*
X167344805Y-70223666D01*
X167351652Y-70217308D01*
X167382282Y-70190916D01*
X167382284Y-70190913D01*
X167389082Y-70185056D01*
X167393965Y-70177523D01*
X167399693Y-70170956D01*
X167408924Y-70159547D01*
X167946794Y-69621676D01*
X167956235Y-69614133D01*
X167955912Y-69613754D01*
X167962745Y-69607938D01*
X167970339Y-69603147D01*
X167976283Y-69596417D01*
X167976285Y-69596415D01*
X168005678Y-69563134D01*
X168011024Y-69557446D01*
X168022351Y-69546119D01*
X168028550Y-69537848D01*
X168034937Y-69530003D01*
X168060057Y-69501560D01*
X168066001Y-69494830D01*
X168069816Y-69486703D01*
X168071669Y-69483883D01*
X168080078Y-69469887D01*
X168081688Y-69466946D01*
X168087071Y-69459764D01*
X168103544Y-69415822D01*
X168107471Y-69406501D01*
X168123602Y-69372144D01*
X168123602Y-69372143D01*
X168127417Y-69364018D01*
X168128798Y-69355147D01*
X168129783Y-69351925D01*
X168133923Y-69336142D01*
X168134645Y-69332858D01*
X168137798Y-69324448D01*
X168141276Y-69277643D01*
X168142430Y-69267595D01*
X168143751Y-69259114D01*
X168143751Y-69259113D01*
X168144500Y-69254303D01*
X168144500Y-69238934D01*
X168144847Y-69229596D01*
X168147843Y-69189284D01*
X168147843Y-69189283D01*
X168148508Y-69180333D01*
X168146635Y-69171558D01*
X168146043Y-69162874D01*
X168144500Y-69148258D01*
X168144500Y-66727913D01*
X168146246Y-66707008D01*
X168146482Y-66705604D01*
X168149536Y-66687453D01*
X168149688Y-66675000D01*
X168145773Y-66647662D01*
X168144500Y-66629801D01*
X168144500Y-63298913D01*
X168146246Y-63278008D01*
X168147567Y-63270155D01*
X168149536Y-63258453D01*
X168149688Y-63246000D01*
X168135942Y-63150014D01*
X168129201Y-63102948D01*
X168069388Y-62971395D01*
X168063530Y-62964596D01*
X168063527Y-62964592D01*
X167980916Y-62868718D01*
X167980913Y-62868716D01*
X167975056Y-62861918D01*
X167887803Y-62805363D01*
X167861324Y-62788200D01*
X167861322Y-62788199D01*
X167853790Y-62783317D01*
X167830538Y-62776363D01*
X167723938Y-62744482D01*
X167723936Y-62744482D01*
X167715337Y-62741910D01*
X167706363Y-62741855D01*
X167706361Y-62741855D01*
X167643082Y-62741469D01*
X167570827Y-62741028D01*
X167562196Y-62743495D01*
X167562194Y-62743495D01*
X167440509Y-62778272D01*
X167440505Y-62778274D01*
X167431879Y-62780739D01*
X167424292Y-62785526D01*
X167424290Y-62785527D01*
X167406118Y-62796993D01*
X167309661Y-62857853D01*
X167213999Y-62966170D01*
X167210185Y-62974293D01*
X167210184Y-62974295D01*
X167197511Y-63001289D01*
X167152583Y-63096982D01*
X167151203Y-63105846D01*
X167151202Y-63105849D01*
X167132589Y-63225395D01*
X167130350Y-63239773D01*
X167131514Y-63248675D01*
X167131514Y-63248678D01*
X167134436Y-63271019D01*
X167135500Y-63287357D01*
X167135500Y-66625946D01*
X167134000Y-66645331D01*
X167130350Y-66668773D01*
X167131514Y-66677675D01*
X167131514Y-66677678D01*
X167134436Y-66700019D01*
X167135500Y-66716357D01*
X167135500Y-68953839D01*
X167115498Y-69021960D01*
X167098595Y-69042934D01*
X166832934Y-69308595D01*
X166770622Y-69342621D01*
X166743839Y-69345500D01*
X165743602Y-69345500D01*
X165742833Y-69345498D01*
X165665827Y-69345028D01*
X165664492Y-69345410D01*
X165663164Y-69345500D01*
X163160809Y-69345500D01*
X163092688Y-69325498D01*
X163046195Y-69271842D01*
X163036091Y-69201568D01*
X163065585Y-69136988D01*
X163094879Y-69112126D01*
X163126619Y-69092637D01*
X163192549Y-69074011D01*
X163819981Y-69074011D01*
X163829413Y-69070946D01*
X163829415Y-69070946D01*
X163841202Y-69067116D01*
X163860428Y-69062500D01*
X163872677Y-69060560D01*
X163882470Y-69059009D01*
X163902354Y-69048877D01*
X163920620Y-69041312D01*
X163932411Y-69037481D01*
X163941844Y-69034416D01*
X163955842Y-69024246D01*
X163959904Y-69021295D01*
X163976761Y-69010965D01*
X163986448Y-69006029D01*
X163996638Y-69000837D01*
X164019426Y-68978049D01*
X164019430Y-68978046D01*
X164273248Y-68724228D01*
X164810482Y-68186993D01*
X164833273Y-68164202D01*
X164843404Y-68144319D01*
X164853731Y-68127466D01*
X164866852Y-68109408D01*
X164873748Y-68088183D01*
X164881314Y-68069917D01*
X164886944Y-68058867D01*
X164891445Y-68050034D01*
X164894936Y-68027992D01*
X164899552Y-68008766D01*
X164903382Y-67996979D01*
X164903382Y-67996977D01*
X164906447Y-67987545D01*
X164906447Y-63774927D01*
X164919055Y-63719989D01*
X164946645Y-63663043D01*
X164946645Y-63663042D01*
X164950560Y-63654962D01*
X164974536Y-63512453D01*
X164974688Y-63500000D01*
X164956182Y-63370780D01*
X164955474Y-63365835D01*
X164955473Y-63365833D01*
X164954201Y-63356948D01*
X164894388Y-63225395D01*
X164888530Y-63218596D01*
X164888527Y-63218592D01*
X164805916Y-63122718D01*
X164805913Y-63122716D01*
X164800056Y-63115918D01*
X164718986Y-63063371D01*
X164686324Y-63042200D01*
X164686322Y-63042199D01*
X164678790Y-63037317D01*
X164661921Y-63032272D01*
X164548938Y-62998482D01*
X164548936Y-62998482D01*
X164540337Y-62995910D01*
X164531363Y-62995855D01*
X164531361Y-62995855D01*
X164468082Y-62995469D01*
X164395827Y-62995028D01*
X164387196Y-62997495D01*
X164387194Y-62997495D01*
X164265509Y-63032272D01*
X164265505Y-63032274D01*
X164256879Y-63034739D01*
X164249292Y-63039526D01*
X164249290Y-63039527D01*
X164142254Y-63107062D01*
X164134661Y-63111853D01*
X164128718Y-63118582D01*
X164128717Y-63118583D01*
X164070906Y-63184042D01*
X164038999Y-63220170D01*
X164035185Y-63228293D01*
X164035184Y-63228295D01*
X164025025Y-63249934D01*
X163977583Y-63350982D01*
X163976203Y-63359846D01*
X163976202Y-63359849D01*
X163964674Y-63433893D01*
X163955350Y-63493773D01*
X163956514Y-63502675D01*
X163956514Y-63502678D01*
X163964970Y-63567338D01*
X163974088Y-63637065D01*
X164032289Y-63769339D01*
X164059208Y-63801363D01*
X164067898Y-63811701D01*
X164096419Y-63876716D01*
X164097447Y-63892776D01*
X164097447Y-65636500D01*
X164077445Y-65704621D01*
X164023789Y-65751114D01*
X163971447Y-65762500D01*
X163154817Y-65762500D01*
X163086287Y-65742233D01*
X163027790Y-65704317D01*
X163010921Y-65699272D01*
X162897938Y-65665482D01*
X162897936Y-65665482D01*
X162889337Y-65662910D01*
X162880363Y-65662855D01*
X162880361Y-65662855D01*
X162817082Y-65662469D01*
X162744827Y-65662028D01*
X162736196Y-65664495D01*
X162736194Y-65664495D01*
X162614509Y-65699272D01*
X162614505Y-65699274D01*
X162605879Y-65701739D01*
X162598292Y-65706526D01*
X162598290Y-65706527D01*
X162491254Y-65774062D01*
X162483661Y-65778853D01*
X162387999Y-65887170D01*
X162384185Y-65895293D01*
X162384184Y-65895295D01*
X162364029Y-65938225D01*
X162326583Y-66017982D01*
X162304350Y-66160773D01*
X162305514Y-66169675D01*
X162305514Y-66169678D01*
X162312880Y-66226005D01*
X162323088Y-66304065D01*
X162381289Y-66436339D01*
X162387063Y-66443208D01*
X162459066Y-66528865D01*
X162474276Y-66546960D01*
X162481747Y-66551933D01*
X162481748Y-66551934D01*
X162587101Y-66622063D01*
X162587103Y-66622064D01*
X162594574Y-66627037D01*
X162603138Y-66629713D01*
X162603141Y-66629714D01*
X162653128Y-66645331D01*
X162732510Y-66670132D01*
X162876998Y-66672780D01*
X162886109Y-66670296D01*
X163007763Y-66637130D01*
X163007765Y-66637129D01*
X163016422Y-66634769D01*
X163089132Y-66590125D01*
X163155060Y-66571500D01*
X163971447Y-66571500D01*
X164039568Y-66591502D01*
X164086061Y-66645158D01*
X164097447Y-66697500D01*
X164097447Y-67703739D01*
X164077445Y-67771860D01*
X164060542Y-67792835D01*
X163701198Y-68152178D01*
X163625269Y-68228107D01*
X163562957Y-68262132D01*
X163536174Y-68265011D01*
X163192306Y-68265011D01*
X163123776Y-68244744D01*
X163065279Y-68206828D01*
X162998957Y-68186993D01*
X162935427Y-68167993D01*
X162935425Y-68167993D01*
X162926826Y-68165421D01*
X162917852Y-68165366D01*
X162917850Y-68165366D01*
X162854571Y-68164980D01*
X162782316Y-68164539D01*
X162773685Y-68167006D01*
X162773683Y-68167006D01*
X162651998Y-68201783D01*
X162651994Y-68201785D01*
X162643368Y-68204250D01*
X162635777Y-68209039D01*
X162635776Y-68209040D01*
X162577874Y-68245573D01*
X162510639Y-68265011D01*
X158297251Y-68265011D01*
X158229130Y-68245009D01*
X158208155Y-68228106D01*
X157500944Y-67520894D01*
X157466919Y-67458582D01*
X157465317Y-67449690D01*
X157461201Y-67420948D01*
X157401388Y-67289395D01*
X157395530Y-67282596D01*
X157395527Y-67282592D01*
X157312916Y-67186718D01*
X157312913Y-67186716D01*
X157307056Y-67179918D01*
X157185790Y-67101317D01*
X157168921Y-67096272D01*
X157055938Y-67062482D01*
X157055936Y-67062482D01*
X157047337Y-67059910D01*
X157038363Y-67059855D01*
X157038361Y-67059855D01*
X156975082Y-67059469D01*
X156902827Y-67059028D01*
X156894196Y-67061495D01*
X156894194Y-67061495D01*
X156772509Y-67096272D01*
X156772505Y-67096274D01*
X156763879Y-67098739D01*
X156641661Y-67175853D01*
X156545999Y-67284170D01*
X156484583Y-67414982D01*
X156462350Y-67557773D01*
X156481088Y-67701065D01*
X156539289Y-67833339D01*
X156545061Y-67840206D01*
X156545065Y-67840212D01*
X156568781Y-67868425D01*
X156597302Y-67933440D01*
X156586146Y-68003555D01*
X156538854Y-68056507D01*
X156472330Y-68075500D01*
X149868602Y-68075500D01*
X149867833Y-68075498D01*
X149790827Y-68075028D01*
X149789492Y-68075410D01*
X149788164Y-68075500D01*
X149233602Y-68075500D01*
X149232833Y-68075498D01*
X149155827Y-68075028D01*
X149154492Y-68075410D01*
X149153164Y-68075500D01*
X145910500Y-68075500D01*
X145842379Y-68055498D01*
X145795886Y-68001842D01*
X145784500Y-67949500D01*
X145784499Y-66541123D01*
X145784499Y-66534934D01*
X145769734Y-66460699D01*
X145747969Y-66428125D01*
X145720377Y-66386832D01*
X145713484Y-66376516D01*
X145629301Y-66320266D01*
X145555067Y-66305500D01*
X144780126Y-66305500D01*
X144004934Y-66305501D01*
X143970851Y-66312280D01*
X143942874Y-66317844D01*
X143942872Y-66317845D01*
X143930699Y-66320266D01*
X143920379Y-66327161D01*
X143920378Y-66327162D01*
X143859985Y-66367516D01*
X143846516Y-66376516D01*
X143790266Y-66460699D01*
X143775500Y-66534933D01*
X143775501Y-68085066D01*
X143778467Y-68099977D01*
X143787287Y-68144322D01*
X143790266Y-68159301D01*
X143846516Y-68243484D01*
X143930699Y-68299734D01*
X144004933Y-68314500D01*
X144149500Y-68314500D01*
X144217621Y-68334502D01*
X144264114Y-68388158D01*
X144275500Y-68440500D01*
X144275500Y-68571398D01*
X144275498Y-68572166D01*
X144275028Y-68649173D01*
X144275410Y-68650508D01*
X144275500Y-68651836D01*
X144275500Y-68719501D01*
X144255498Y-68787622D01*
X144201842Y-68834115D01*
X144149500Y-68845501D01*
X144004934Y-68845501D01*
X143969182Y-68852612D01*
X143942874Y-68857844D01*
X143942872Y-68857845D01*
X143930699Y-68860266D01*
X143920379Y-68867161D01*
X143920378Y-68867162D01*
X143859985Y-68907516D01*
X143846516Y-68916516D01*
X143790266Y-69000699D01*
X143775500Y-69074933D01*
X142621500Y-69074933D01*
X142621500Y-64120764D01*
X142641502Y-64052643D01*
X142695158Y-64006150D01*
X142765432Y-63996046D01*
X142784760Y-64000426D01*
X142784944Y-64000456D01*
X142793510Y-64003132D01*
X142937998Y-64005780D01*
X142953741Y-64001488D01*
X143068763Y-63970130D01*
X143068765Y-63970129D01*
X143077422Y-63967769D01*
X143200572Y-63892154D01*
X143297551Y-63785014D01*
X143360560Y-63654962D01*
X143384536Y-63512453D01*
X143384688Y-63500000D01*
X143366182Y-63370780D01*
X143365474Y-63365835D01*
X143365473Y-63365833D01*
X143364628Y-63359933D01*
X143775500Y-63359933D01*
X143775501Y-64910066D01*
X143790266Y-64984301D01*
X143846516Y-65068484D01*
X143930699Y-65124734D01*
X144004933Y-65139500D01*
X144140404Y-65139500D01*
X145230970Y-65139499D01*
X145299091Y-65159501D01*
X145320065Y-65176404D01*
X147033084Y-66889423D01*
X147045592Y-66904909D01*
X147048526Y-66908134D01*
X147054175Y-66916882D01*
X147062352Y-66923328D01*
X147078430Y-66936003D01*
X147082431Y-66939559D01*
X147082516Y-66939459D01*
X147086473Y-66942812D01*
X147090155Y-66946494D01*
X147104691Y-66956882D01*
X147109378Y-66960401D01*
X147146857Y-66989946D01*
X147154925Y-66992779D01*
X147161885Y-66997753D01*
X147171863Y-67000737D01*
X147207586Y-67011420D01*
X147213235Y-67013256D01*
X147258208Y-67029050D01*
X147263404Y-67029500D01*
X147266109Y-67029500D01*
X147268365Y-67029597D01*
X147268841Y-67029740D01*
X147268839Y-67029786D01*
X147269038Y-67029799D01*
X147274955Y-67031568D01*
X147325124Y-67029597D01*
X147330070Y-67029500D01*
X151078743Y-67029500D01*
X151098537Y-67031606D01*
X151102890Y-67031811D01*
X151113070Y-67034003D01*
X151143740Y-67030373D01*
X151149083Y-67030058D01*
X151149072Y-67029928D01*
X151154252Y-67029500D01*
X151159451Y-67029500D01*
X151164575Y-67028647D01*
X151164588Y-67028646D01*
X151177041Y-67026573D01*
X151182916Y-67025736D01*
X151219929Y-67021355D01*
X151230270Y-67020131D01*
X151237978Y-67016430D01*
X151246417Y-67015025D01*
X151288401Y-66992371D01*
X151293664Y-66989690D01*
X151306557Y-66983499D01*
X151336658Y-66969045D01*
X151340650Y-66965689D01*
X151342597Y-66963742D01*
X151344222Y-66962252D01*
X151344654Y-66962019D01*
X151344687Y-66962055D01*
X151344845Y-66961916D01*
X151350280Y-66958983D01*
X151384346Y-66922131D01*
X151387774Y-66918565D01*
X151560903Y-66745435D01*
X151623215Y-66711410D01*
X151649999Y-66708530D01*
X160025532Y-66708530D01*
X160361844Y-66708531D01*
X160381633Y-66710637D01*
X160385991Y-66710842D01*
X160396171Y-66713034D01*
X160426840Y-66709404D01*
X160432184Y-66709089D01*
X160432173Y-66708959D01*
X160437353Y-66708531D01*
X160442552Y-66708531D01*
X160447676Y-66707678D01*
X160447689Y-66707677D01*
X160460142Y-66705604D01*
X160466017Y-66704767D01*
X160503030Y-66700386D01*
X160513371Y-66699162D01*
X160521079Y-66695461D01*
X160529518Y-66694056D01*
X160571493Y-66671408D01*
X160576762Y-66668723D01*
X160612613Y-66651508D01*
X160612616Y-66651506D01*
X160619759Y-66648076D01*
X160623751Y-66644720D01*
X160625690Y-66642781D01*
X160627321Y-66641285D01*
X160627756Y-66641050D01*
X160627788Y-66641086D01*
X160627943Y-66640949D01*
X160633381Y-66638015D01*
X160667479Y-66601129D01*
X160670882Y-66597590D01*
X160962561Y-66305912D01*
X160962564Y-66305909D01*
X161042467Y-66226005D01*
X161268943Y-65999529D01*
X161284419Y-65987031D01*
X161287654Y-65984087D01*
X161296400Y-65978440D01*
X161315521Y-65954185D01*
X161319081Y-65950180D01*
X161318981Y-65950095D01*
X161322334Y-65946138D01*
X161326014Y-65942458D01*
X161329039Y-65938225D01*
X161336389Y-65927940D01*
X161339955Y-65923190D01*
X161363018Y-65893935D01*
X161363018Y-65893934D01*
X161369464Y-65885758D01*
X161372298Y-65877689D01*
X161377272Y-65870728D01*
X161390939Y-65825030D01*
X161392774Y-65819384D01*
X161405942Y-65781887D01*
X161408569Y-65774407D01*
X161409019Y-65769211D01*
X161409019Y-65766504D01*
X161409116Y-65764249D01*
X161409258Y-65763774D01*
X161409305Y-65763776D01*
X161409318Y-65763576D01*
X161411087Y-65757659D01*
X161409116Y-65707494D01*
X161409019Y-65702547D01*
X161409020Y-65375550D01*
X161409020Y-63934509D01*
X161429022Y-63866388D01*
X161445925Y-63845414D01*
X163409423Y-61881916D01*
X163424909Y-61869408D01*
X163428134Y-61866474D01*
X163436882Y-61860825D01*
X163456003Y-61836570D01*
X163459559Y-61832569D01*
X163459459Y-61832484D01*
X163462812Y-61828527D01*
X163466494Y-61824845D01*
X163476882Y-61810309D01*
X163480401Y-61805622D01*
X163509946Y-61768143D01*
X163512779Y-61760075D01*
X163517753Y-61753115D01*
X163521043Y-61742115D01*
X163531420Y-61707414D01*
X163533256Y-61701765D01*
X163546424Y-61664269D01*
X163549050Y-61656792D01*
X163549500Y-61651596D01*
X163549500Y-61648891D01*
X163549597Y-61646635D01*
X163549740Y-61646159D01*
X163549786Y-61646161D01*
X163549799Y-61645962D01*
X163551568Y-61640045D01*
X163549597Y-61589876D01*
X163549500Y-61584930D01*
X163549500Y-60733752D01*
X163569502Y-60665631D01*
X163582085Y-60649196D01*
X163611526Y-60616670D01*
X163617551Y-60610014D01*
X163662870Y-60516475D01*
X163676645Y-60488043D01*
X163676645Y-60488042D01*
X163680560Y-60479962D01*
X163704536Y-60337453D01*
X163704612Y-60331227D01*
X163704629Y-60329860D01*
X163704629Y-60329856D01*
X163704688Y-60325000D01*
X163689398Y-60218235D01*
X163685474Y-60190835D01*
X163685473Y-60190833D01*
X163684201Y-60181948D01*
X163624388Y-60050395D01*
X163618530Y-60043596D01*
X163618527Y-60043592D01*
X163535916Y-59947718D01*
X163535913Y-59947716D01*
X163530056Y-59940918D01*
X163408790Y-59862317D01*
X163391921Y-59857272D01*
X163278938Y-59823482D01*
X163278936Y-59823482D01*
X163270337Y-59820910D01*
X163261363Y-59820855D01*
X163261361Y-59820855D01*
X163198082Y-59820469D01*
X163125827Y-59820028D01*
X163117196Y-59822495D01*
X163117194Y-59822495D01*
X162995509Y-59857272D01*
X162995505Y-59857274D01*
X162986879Y-59859739D01*
X162979292Y-59864526D01*
X162979290Y-59864527D01*
X162872254Y-59932062D01*
X162864661Y-59936853D01*
X162768999Y-60045170D01*
X162765184Y-60053295D01*
X162765183Y-60053297D01*
X162729484Y-60129334D01*
X162682428Y-60182497D01*
X162614661Y-60201784D01*
X162490827Y-60201028D01*
X162482196Y-60203495D01*
X162482194Y-60203495D01*
X162360509Y-60238272D01*
X162360505Y-60238274D01*
X162351879Y-60240739D01*
X162344292Y-60245526D01*
X162344290Y-60245527D01*
X162237254Y-60313062D01*
X162229661Y-60317853D01*
X162223718Y-60324582D01*
X162223717Y-60324583D01*
X162212351Y-60337453D01*
X162133999Y-60426170D01*
X162130185Y-60434293D01*
X162130184Y-60434295D01*
X162112557Y-60471839D01*
X162072583Y-60556982D01*
X162071203Y-60565846D01*
X162071202Y-60565849D01*
X162052620Y-60685195D01*
X162050350Y-60699773D01*
X162051514Y-60708675D01*
X162051514Y-60708678D01*
X162067261Y-60829092D01*
X162069088Y-60843065D01*
X162127289Y-60975339D01*
X162160846Y-61015259D01*
X162175951Y-61033229D01*
X162204472Y-61098245D01*
X162205500Y-61114305D01*
X162205500Y-61395972D01*
X162185498Y-61464093D01*
X162168595Y-61485067D01*
X160589595Y-63064067D01*
X160527283Y-63098093D01*
X160456468Y-63093028D01*
X160399632Y-63050481D01*
X160374821Y-62983961D01*
X160374500Y-62974972D01*
X160374500Y-60524029D01*
X160394502Y-60455908D01*
X160411405Y-60434934D01*
X162774423Y-58071916D01*
X162789909Y-58059408D01*
X162793134Y-58056474D01*
X162801882Y-58050825D01*
X162821003Y-58026570D01*
X162824559Y-58022569D01*
X162824459Y-58022484D01*
X162827812Y-58018527D01*
X162831494Y-58014845D01*
X162841882Y-58000309D01*
X162845401Y-57995622D01*
X162874946Y-57958143D01*
X162877779Y-57950075D01*
X162882753Y-57943115D01*
X162896413Y-57897440D01*
X162898247Y-57891797D01*
X162911422Y-57854277D01*
X162911423Y-57854273D01*
X162914050Y-57846792D01*
X162914500Y-57841596D01*
X162914500Y-57838889D01*
X162914597Y-57836631D01*
X162914739Y-57836159D01*
X162914785Y-57836161D01*
X162914798Y-57835962D01*
X162916567Y-57830045D01*
X162914597Y-57779890D01*
X162914500Y-57774946D01*
X162914500Y-55931258D01*
X162916606Y-55911464D01*
X162916811Y-55907111D01*
X162919003Y-55896931D01*
X162915373Y-55866262D01*
X162915058Y-55860917D01*
X162914928Y-55860928D01*
X162914500Y-55855750D01*
X162914500Y-55850549D01*
X162911573Y-55832963D01*
X162910736Y-55827086D01*
X162906355Y-55790071D01*
X162905131Y-55779730D01*
X162901430Y-55772022D01*
X162900025Y-55763583D01*
X162877380Y-55721615D01*
X162874684Y-55716324D01*
X162857474Y-55680483D01*
X162857472Y-55680480D01*
X162854045Y-55673343D01*
X162850689Y-55669350D01*
X162848763Y-55667424D01*
X162847250Y-55665774D01*
X162847014Y-55665338D01*
X162847049Y-55665306D01*
X162846916Y-55665155D01*
X162843983Y-55659720D01*
X162807119Y-55625643D01*
X162803553Y-55622214D01*
X161767418Y-54586080D01*
X161754913Y-54570598D01*
X161751977Y-54567371D01*
X161746325Y-54558618D01*
X161722062Y-54539491D01*
X161718067Y-54535941D01*
X161717983Y-54536040D01*
X161714020Y-54532682D01*
X161710344Y-54529006D01*
X161706023Y-54525918D01*
X161695848Y-54518646D01*
X161691105Y-54515085D01*
X161661825Y-54492003D01*
X161661821Y-54492001D01*
X161653643Y-54485554D01*
X161645575Y-54482721D01*
X161638615Y-54477747D01*
X161592914Y-54464080D01*
X161587265Y-54462244D01*
X161549769Y-54449076D01*
X161549770Y-54449076D01*
X161542292Y-54446450D01*
X161537096Y-54446000D01*
X161534391Y-54446000D01*
X161532135Y-54445903D01*
X161531659Y-54445760D01*
X161531661Y-54445714D01*
X161531462Y-54445701D01*
X161525545Y-54443932D01*
X161475911Y-54445882D01*
X161475376Y-54445903D01*
X161470430Y-54446000D01*
X158719765Y-54446000D01*
X158651644Y-54425998D01*
X158643612Y-54419965D01*
X158640556Y-54416418D01*
X158613281Y-54398739D01*
X158526824Y-54342700D01*
X158526822Y-54342699D01*
X158519290Y-54337817D01*
X158501739Y-54332568D01*
X158389438Y-54298982D01*
X158389436Y-54298982D01*
X158380837Y-54296410D01*
X158371863Y-54296355D01*
X158371861Y-54296355D01*
X158308582Y-54295969D01*
X158236327Y-54295528D01*
X158227696Y-54297995D01*
X158227694Y-54297995D01*
X158106009Y-54332772D01*
X158106005Y-54332774D01*
X158097379Y-54335239D01*
X158089792Y-54340026D01*
X158089790Y-54340027D01*
X157982754Y-54407562D01*
X157975161Y-54412353D01*
X157969218Y-54419082D01*
X157969217Y-54419083D01*
X157907814Y-54488609D01*
X157847728Y-54526427D01*
X157777271Y-54525918D01*
X157670672Y-54494038D01*
X157646837Y-54486910D01*
X157637863Y-54486855D01*
X157637861Y-54486855D01*
X157574582Y-54486469D01*
X157502327Y-54486028D01*
X157493696Y-54488495D01*
X157493694Y-54488495D01*
X157372009Y-54523272D01*
X157372005Y-54523274D01*
X157363379Y-54525739D01*
X157355792Y-54530526D01*
X157355790Y-54530527D01*
X157248754Y-54598062D01*
X157241161Y-54602853D01*
X157237388Y-54607125D01*
X157174055Y-54635372D01*
X157157230Y-54636500D01*
X156790030Y-54636500D01*
X156721909Y-54616498D01*
X156700935Y-54599596D01*
X155861916Y-53760578D01*
X155849414Y-53745098D01*
X155846475Y-53741868D01*
X155840825Y-53733118D01*
X155816562Y-53713991D01*
X155812567Y-53710441D01*
X155812483Y-53710540D01*
X155808520Y-53707182D01*
X155804844Y-53703506D01*
X155798069Y-53698664D01*
X155790348Y-53693146D01*
X155785605Y-53689585D01*
X155756325Y-53666503D01*
X155756321Y-53666501D01*
X155748143Y-53660054D01*
X155740075Y-53657221D01*
X155733115Y-53652247D01*
X155687414Y-53638580D01*
X155681765Y-53636744D01*
X155646228Y-53624264D01*
X155636792Y-53620950D01*
X155631596Y-53620500D01*
X155628891Y-53620500D01*
X155626635Y-53620403D01*
X155626159Y-53620260D01*
X155626161Y-53620214D01*
X155625962Y-53620201D01*
X155620045Y-53618432D01*
X155570411Y-53620382D01*
X155569876Y-53620403D01*
X155564930Y-53620500D01*
X154356258Y-53620500D01*
X154336464Y-53618394D01*
X154332111Y-53618189D01*
X154321931Y-53615997D01*
X154297903Y-53618841D01*
X154291262Y-53619627D01*
X154285917Y-53619942D01*
X154285928Y-53620072D01*
X154280750Y-53620500D01*
X154275549Y-53620500D01*
X154257964Y-53623427D01*
X154252087Y-53624264D01*
X154204730Y-53629869D01*
X154197022Y-53633570D01*
X154188583Y-53634975D01*
X154149515Y-53656055D01*
X154146615Y-53657620D01*
X154141324Y-53660316D01*
X154105483Y-53677526D01*
X154105480Y-53677528D01*
X154098343Y-53680955D01*
X154094350Y-53684311D01*
X154092424Y-53686237D01*
X154090774Y-53687750D01*
X154090338Y-53687986D01*
X154090306Y-53687951D01*
X154090155Y-53688084D01*
X154084720Y-53691017D01*
X154077651Y-53698664D01*
X154050655Y-53727868D01*
X154047227Y-53731434D01*
X153455578Y-54323084D01*
X153440098Y-54335586D01*
X153436868Y-54338525D01*
X153428118Y-54344175D01*
X153408991Y-54368438D01*
X153405441Y-54372433D01*
X153405540Y-54372517D01*
X153402182Y-54376480D01*
X153398506Y-54380156D01*
X153395483Y-54384385D01*
X153395483Y-54384386D01*
X153388146Y-54394652D01*
X153384585Y-54399395D01*
X153361503Y-54428675D01*
X153361501Y-54428679D01*
X153355054Y-54436857D01*
X153352221Y-54444925D01*
X153347247Y-54451885D01*
X153344263Y-54461863D01*
X153333580Y-54497586D01*
X153331744Y-54503235D01*
X153315950Y-54548208D01*
X153315500Y-54553404D01*
X153315500Y-54556109D01*
X153315403Y-54558365D01*
X153315260Y-54558841D01*
X153315214Y-54558839D01*
X153315201Y-54559038D01*
X153313432Y-54564955D01*
X153314262Y-54586080D01*
X153315403Y-54615124D01*
X153315500Y-54620070D01*
X153315500Y-60760971D01*
X153295498Y-60829092D01*
X153278600Y-60850061D01*
X152456948Y-61671713D01*
X152394638Y-61705737D01*
X152323823Y-61700673D01*
X152266987Y-61658126D01*
X152243128Y-61600480D01*
X152239143Y-61572655D01*
X152238112Y-61562594D01*
X152235762Y-61524711D01*
X152235762Y-61524709D01*
X152235206Y-61515752D01*
X152232159Y-61507312D01*
X152231478Y-61504022D01*
X152227524Y-61488165D01*
X152226581Y-61484940D01*
X152225309Y-61476059D01*
X152219869Y-61464093D01*
X152205881Y-61433329D01*
X152202077Y-61423986D01*
X152186135Y-61379826D01*
X152180838Y-61372575D01*
X152179251Y-61369591D01*
X152171041Y-61355541D01*
X152169214Y-61352684D01*
X152165496Y-61344506D01*
X152134861Y-61308953D01*
X152128583Y-61301047D01*
X152120635Y-61290167D01*
X152109773Y-61279305D01*
X152103415Y-61272458D01*
X152071164Y-61235029D01*
X152063629Y-61230145D01*
X152057057Y-61224412D01*
X152045653Y-61215185D01*
X151417405Y-60586937D01*
X151383379Y-60524625D01*
X151380500Y-60497842D01*
X151380500Y-59570162D01*
X151400502Y-59502041D01*
X151417404Y-59481067D01*
X151817121Y-59081349D01*
X151825733Y-59073499D01*
X151828924Y-59070850D01*
X151836572Y-59066154D01*
X151875102Y-59023587D01*
X151879422Y-59019048D01*
X151893351Y-59005119D01*
X151897231Y-58999942D01*
X151904642Y-58990952D01*
X151927526Y-58965670D01*
X151933551Y-58959014D01*
X151937465Y-58950935D01*
X151937467Y-58950932D01*
X151938583Y-58948628D01*
X151951149Y-58927999D01*
X151958071Y-58918764D01*
X151973195Y-58878419D01*
X151977772Y-58867741D01*
X151996560Y-58828962D01*
X151998475Y-58817582D01*
X152004748Y-58794252D01*
X152005648Y-58791853D01*
X152005649Y-58791848D01*
X152008798Y-58783448D01*
X152011990Y-58740494D01*
X152013390Y-58728927D01*
X152019729Y-58691247D01*
X152020536Y-58686453D01*
X152020688Y-58674000D01*
X152019999Y-58669186D01*
X152019682Y-58664329D01*
X152019953Y-58664311D01*
X152019711Y-58657224D01*
X152019454Y-58657242D01*
X152018843Y-58648280D01*
X152019508Y-58639333D01*
X152008902Y-58589648D01*
X152007399Y-58581207D01*
X152001474Y-58539836D01*
X152001474Y-58539835D01*
X152000201Y-58530948D01*
X151996487Y-58522778D01*
X151994119Y-58514680D01*
X151991213Y-58506781D01*
X151989339Y-58498006D01*
X151965215Y-58453296D01*
X151961410Y-58445631D01*
X151944104Y-58407569D01*
X151940388Y-58399395D01*
X151934528Y-58392594D01*
X151929983Y-58385487D01*
X151924978Y-58378723D01*
X151920717Y-58370826D01*
X151893653Y-58343429D01*
X151860011Y-58280914D01*
X151865507Y-58210131D01*
X151889877Y-58170327D01*
X151898192Y-58161140D01*
X151898193Y-58161138D01*
X151904220Y-58154480D01*
X151943615Y-58073168D01*
X151963314Y-58032509D01*
X151963314Y-58032508D01*
X151967229Y-58024428D01*
X151982588Y-57933137D01*
X151988701Y-57896804D01*
X152023860Y-57828614D01*
X152106423Y-57746051D01*
X152121909Y-57733543D01*
X152125134Y-57730609D01*
X152133882Y-57724960D01*
X152153003Y-57700705D01*
X152156559Y-57696704D01*
X152156459Y-57696619D01*
X152159812Y-57692662D01*
X152163495Y-57688979D01*
X152173437Y-57675067D01*
X152173866Y-57674466D01*
X152177431Y-57669718D01*
X152200498Y-57640458D01*
X152200499Y-57640456D01*
X152206946Y-57632278D01*
X152209780Y-57624208D01*
X152214753Y-57617249D01*
X152228418Y-57571556D01*
X152230252Y-57565912D01*
X152243423Y-57528407D01*
X152246050Y-57520927D01*
X152246500Y-57515731D01*
X152246500Y-57513024D01*
X152246597Y-57510770D01*
X152246740Y-57510294D01*
X152246786Y-57510296D01*
X152246799Y-57510097D01*
X152248568Y-57504180D01*
X152246597Y-57454011D01*
X152246500Y-57449065D01*
X152246500Y-55272752D01*
X152266502Y-55204631D01*
X152279085Y-55188196D01*
X152308526Y-55155670D01*
X152314551Y-55149014D01*
X152352956Y-55069745D01*
X152373645Y-55027043D01*
X152373645Y-55027042D01*
X152377560Y-55018962D01*
X152401536Y-54876453D01*
X152401688Y-54864000D01*
X152387767Y-54766797D01*
X152382474Y-54729835D01*
X152382473Y-54729833D01*
X152381201Y-54720948D01*
X152321388Y-54589395D01*
X152315530Y-54582596D01*
X152315527Y-54582592D01*
X152232916Y-54486718D01*
X152232913Y-54486716D01*
X152227056Y-54479918D01*
X152143868Y-54425998D01*
X152113324Y-54406200D01*
X152113322Y-54406199D01*
X152105790Y-54401317D01*
X152097170Y-54398739D01*
X151975938Y-54362482D01*
X151975936Y-54362482D01*
X151967337Y-54359910D01*
X151958363Y-54359855D01*
X151958361Y-54359855D01*
X151895082Y-54359469D01*
X151822827Y-54359028D01*
X151814196Y-54361495D01*
X151814194Y-54361495D01*
X151692509Y-54396272D01*
X151692505Y-54396274D01*
X151683879Y-54398739D01*
X151676292Y-54403526D01*
X151676290Y-54403527D01*
X151583230Y-54462244D01*
X151561661Y-54475853D01*
X151555718Y-54482582D01*
X151555717Y-54482583D01*
X151488364Y-54558846D01*
X151465999Y-54584170D01*
X151462185Y-54592293D01*
X151462184Y-54592295D01*
X151448064Y-54622371D01*
X151404583Y-54714982D01*
X151403203Y-54723846D01*
X151403202Y-54723849D01*
X151385033Y-54840543D01*
X151382350Y-54857773D01*
X151383514Y-54866675D01*
X151383514Y-54866678D01*
X151392923Y-54938625D01*
X151401088Y-55001065D01*
X151459289Y-55133339D01*
X151465063Y-55140208D01*
X151507951Y-55191229D01*
X151536472Y-55256245D01*
X151537500Y-55272305D01*
X151537500Y-57238738D01*
X151517498Y-57306859D01*
X151463842Y-57353352D01*
X151428602Y-57363572D01*
X151421471Y-57364549D01*
X151412496Y-57364494D01*
X151403865Y-57366961D01*
X151403863Y-57366961D01*
X151282178Y-57401738D01*
X151282174Y-57401740D01*
X151273548Y-57404205D01*
X151265961Y-57408992D01*
X151265959Y-57408993D01*
X151194610Y-57454011D01*
X151151330Y-57481319D01*
X151145387Y-57488048D01*
X151145386Y-57488049D01*
X151109743Y-57528407D01*
X151055668Y-57589636D01*
X151051854Y-57597759D01*
X151051853Y-57597761D01*
X151032885Y-57638162D01*
X150994252Y-57720448D01*
X150992872Y-57729312D01*
X150992871Y-57729315D01*
X150974580Y-57846792D01*
X150972019Y-57863239D01*
X150973183Y-57872141D01*
X150973183Y-57872144D01*
X150984429Y-57958143D01*
X150990757Y-58006531D01*
X151048958Y-58138805D01*
X151054732Y-58145674D01*
X151104196Y-58204518D01*
X151132717Y-58269534D01*
X151121561Y-58339648D01*
X151096840Y-58374689D01*
X150901595Y-58569934D01*
X150839283Y-58603960D01*
X150768468Y-58598895D01*
X150723405Y-58569934D01*
X149631405Y-57477934D01*
X149597379Y-57415622D01*
X149594500Y-57388839D01*
X149594499Y-56381123D01*
X149594499Y-56374934D01*
X149579734Y-56300699D01*
X149523484Y-56216516D01*
X149439301Y-56160266D01*
X149365067Y-56145500D01*
X148590126Y-56145500D01*
X147814934Y-56145501D01*
X147779182Y-56152612D01*
X147752874Y-56157844D01*
X147752872Y-56157845D01*
X147740699Y-56160266D01*
X147730379Y-56167161D01*
X147730378Y-56167162D01*
X147669985Y-56207516D01*
X147656516Y-56216516D01*
X147600266Y-56300699D01*
X147585500Y-56374933D01*
X147585501Y-57925066D01*
X147600266Y-57999301D01*
X147607161Y-58009621D01*
X147607162Y-58009622D01*
X147618487Y-58026570D01*
X147656516Y-58083484D01*
X147740699Y-58139734D01*
X147814933Y-58154500D01*
X147927922Y-58154500D01*
X148828838Y-58154499D01*
X148896959Y-58174501D01*
X148917933Y-58191404D01*
X150334595Y-59608066D01*
X150368621Y-59670378D01*
X150371500Y-59697161D01*
X150371500Y-60481629D01*
X150351498Y-60549750D01*
X150297842Y-60596243D01*
X150227568Y-60606347D01*
X150195460Y-60597266D01*
X150097024Y-60554669D01*
X150084917Y-60550829D01*
X149905400Y-60513325D01*
X149895848Y-60512085D01*
X149892616Y-60512000D01*
X149358992Y-60512000D01*
X149290871Y-60491998D01*
X149244378Y-60438342D01*
X149234274Y-60368068D01*
X149256286Y-60313010D01*
X149261044Y-60306315D01*
X149261044Y-60306314D01*
X149266020Y-60299313D01*
X149317482Y-60156371D01*
X149318415Y-60143675D01*
X149324664Y-60058569D01*
X149328609Y-60004855D01*
X149298580Y-59855929D01*
X149264361Y-59788770D01*
X149233508Y-59728217D01*
X149233506Y-59728214D01*
X149229608Y-59720564D01*
X149187823Y-59675123D01*
X149132584Y-59615052D01*
X149132583Y-59615051D01*
X149126774Y-59608734D01*
X149058894Y-59566646D01*
X149004956Y-59533203D01*
X149004955Y-59533202D01*
X148997656Y-59528677D01*
X148851765Y-59486291D01*
X148840993Y-59485500D01*
X148731943Y-59485500D01*
X148727697Y-59486082D01*
X148727691Y-59486082D01*
X148648946Y-59496869D01*
X148619482Y-59500905D01*
X148611598Y-59504317D01*
X148611597Y-59504317D01*
X148487936Y-59557831D01*
X148480054Y-59561242D01*
X148473381Y-59566646D01*
X148368661Y-59651445D01*
X148368659Y-59651447D01*
X148361987Y-59656850D01*
X148357013Y-59663849D01*
X148357012Y-59663850D01*
X148346957Y-59677999D01*
X148273980Y-59780687D01*
X148222518Y-59923629D01*
X148221889Y-59932189D01*
X148221889Y-59932191D01*
X148220749Y-59947718D01*
X148211391Y-60075145D01*
X148241420Y-60224071D01*
X148245320Y-60231725D01*
X148306492Y-60351783D01*
X148306494Y-60351786D01*
X148310392Y-60359436D01*
X148316205Y-60365757D01*
X148316206Y-60365759D01*
X148342822Y-60394703D01*
X148374208Y-60458385D01*
X148366182Y-60528927D01*
X148321293Y-60583931D01*
X148311160Y-60590192D01*
X148156021Y-60676187D01*
X148145588Y-60683438D01*
X148007509Y-60801785D01*
X147998756Y-60810976D01*
X147887289Y-60954680D01*
X147880565Y-60965440D01*
X147800268Y-61128625D01*
X147795845Y-61140519D01*
X147780749Y-61198470D01*
X147781183Y-61212564D01*
X147789364Y-61216000D01*
X149378000Y-61216000D01*
X149446121Y-61236002D01*
X149492614Y-61289658D01*
X149504000Y-61342000D01*
X149504000Y-61598000D01*
X149483998Y-61666121D01*
X149430342Y-61712614D01*
X149378000Y-61724000D01*
X147790771Y-61724000D01*
X147777240Y-61727973D01*
X147772655Y-61759864D01*
X147770454Y-61759548D01*
X147769317Y-61789552D01*
X147728698Y-61847781D01*
X147663047Y-61874807D01*
X147649852Y-61875500D01*
X147371258Y-61875500D01*
X147351464Y-61873394D01*
X147347111Y-61873189D01*
X147336931Y-61870997D01*
X147306262Y-61874627D01*
X147300917Y-61874942D01*
X147300928Y-61875072D01*
X147295750Y-61875500D01*
X147290549Y-61875500D01*
X147272964Y-61878427D01*
X147267087Y-61879264D01*
X147219730Y-61884869D01*
X147212022Y-61888570D01*
X147203583Y-61889975D01*
X147161940Y-61912445D01*
X147161615Y-61912620D01*
X147156324Y-61915316D01*
X147120483Y-61932526D01*
X147120480Y-61932528D01*
X147113343Y-61935955D01*
X147109350Y-61939311D01*
X147107424Y-61941237D01*
X147105774Y-61942750D01*
X147105338Y-61942986D01*
X147105306Y-61942951D01*
X147105155Y-61943084D01*
X147099720Y-61946017D01*
X147092651Y-61953664D01*
X147065655Y-61982868D01*
X147062226Y-61986434D01*
X146725415Y-62323245D01*
X146663103Y-62357271D01*
X146635553Y-62360148D01*
X146627584Y-62360100D01*
X146615827Y-62360028D01*
X146607195Y-62362495D01*
X146485509Y-62397272D01*
X146485505Y-62397274D01*
X146476879Y-62399739D01*
X146469292Y-62404526D01*
X146469290Y-62404527D01*
X146432088Y-62428000D01*
X146354661Y-62476853D01*
X146348718Y-62483582D01*
X146348717Y-62483583D01*
X146309953Y-62527475D01*
X146258999Y-62585170D01*
X146197583Y-62715982D01*
X146196203Y-62724846D01*
X146196202Y-62724849D01*
X146186755Y-62785527D01*
X146175350Y-62858773D01*
X146176514Y-62867675D01*
X146176514Y-62867678D01*
X146190545Y-62974972D01*
X146194088Y-63002065D01*
X146252289Y-63134339D01*
X146258063Y-63141208D01*
X146331268Y-63228295D01*
X146345276Y-63244960D01*
X146352747Y-63249933D01*
X146352748Y-63249934D01*
X146458101Y-63320063D01*
X146458103Y-63320064D01*
X146465574Y-63325037D01*
X146474138Y-63327713D01*
X146474141Y-63327714D01*
X146534542Y-63346585D01*
X146603510Y-63368132D01*
X146747998Y-63370780D01*
X146798734Y-63356948D01*
X146878763Y-63335130D01*
X146878765Y-63335129D01*
X146887422Y-63332769D01*
X147010572Y-63257154D01*
X147107551Y-63150014D01*
X147170560Y-63019962D01*
X147192032Y-62892338D01*
X147227191Y-62824148D01*
X147429934Y-62621405D01*
X147492246Y-62587379D01*
X147519029Y-62584500D01*
X152348743Y-62584500D01*
X152368537Y-62586606D01*
X152372890Y-62586811D01*
X152383070Y-62589003D01*
X152413740Y-62585373D01*
X152419083Y-62585058D01*
X152419072Y-62584928D01*
X152424252Y-62584500D01*
X152429451Y-62584500D01*
X152434575Y-62583647D01*
X152434588Y-62583646D01*
X152447041Y-62581573D01*
X152452916Y-62580736D01*
X152489929Y-62576355D01*
X152500270Y-62575131D01*
X152507978Y-62571430D01*
X152516417Y-62570025D01*
X152558401Y-62547371D01*
X152563664Y-62544690D01*
X152571870Y-62540750D01*
X152606658Y-62524045D01*
X152610650Y-62520689D01*
X152612597Y-62518742D01*
X152614222Y-62517252D01*
X152614654Y-62517019D01*
X152614687Y-62517055D01*
X152614845Y-62516916D01*
X152620280Y-62513983D01*
X152654357Y-62477119D01*
X152657786Y-62473553D01*
X153884423Y-61246916D01*
X153899909Y-61234408D01*
X153903134Y-61231474D01*
X153911882Y-61225825D01*
X153931003Y-61201570D01*
X153934559Y-61197569D01*
X153934459Y-61197484D01*
X153937812Y-61193527D01*
X153941494Y-61189845D01*
X153951882Y-61175309D01*
X153955401Y-61170622D01*
X153984946Y-61133143D01*
X153987779Y-61125075D01*
X153992753Y-61118115D01*
X154006420Y-61072414D01*
X154008256Y-61066765D01*
X154021424Y-61029269D01*
X154024050Y-61021792D01*
X154024500Y-61016596D01*
X154024500Y-61013891D01*
X154024597Y-61011635D01*
X154024740Y-61011159D01*
X154024786Y-61011161D01*
X154024799Y-61010962D01*
X154026568Y-61005045D01*
X154024597Y-60954876D01*
X154024500Y-60949930D01*
X154024500Y-59023354D01*
X157622475Y-59023354D01*
X157625258Y-59027073D01*
X157779680Y-59084502D01*
X157793278Y-59087892D01*
X157958990Y-59110004D01*
X157972986Y-59110297D01*
X158139477Y-59095144D01*
X158153204Y-59092327D01*
X158312202Y-59040666D01*
X158324953Y-59034881D01*
X158331769Y-59030818D01*
X158338690Y-59023354D01*
X158897475Y-59023354D01*
X158900258Y-59027073D01*
X159054680Y-59084502D01*
X159068278Y-59087892D01*
X159233990Y-59110004D01*
X159247986Y-59110297D01*
X159414477Y-59095144D01*
X159428204Y-59092327D01*
X159587202Y-59040666D01*
X159599953Y-59034881D01*
X159606769Y-59030818D01*
X159616358Y-59020476D01*
X159612852Y-59012062D01*
X159270812Y-58670022D01*
X159256868Y-58662408D01*
X159255035Y-58662539D01*
X159248421Y-58666790D01*
X158904232Y-59010979D01*
X158897475Y-59023354D01*
X158338690Y-59023354D01*
X158341358Y-59020476D01*
X158337852Y-59012062D01*
X157995812Y-58670022D01*
X157981868Y-58662408D01*
X157980035Y-58662539D01*
X157973421Y-58666790D01*
X157629232Y-59010979D01*
X157622475Y-59023354D01*
X154024500Y-59023354D01*
X154024500Y-58293660D01*
X157170654Y-58293660D01*
X157186968Y-58460047D01*
X157189879Y-58473741D01*
X157242650Y-58632375D01*
X157248524Y-58645088D01*
X157249768Y-58647143D01*
X157260174Y-58656657D01*
X157268794Y-58652995D01*
X157610979Y-58310811D01*
X157618592Y-58296868D01*
X157618461Y-58295034D01*
X157614210Y-58288421D01*
X157270458Y-57944669D01*
X157258083Y-57937912D01*
X157252926Y-57941772D01*
X157252273Y-57943089D01*
X157195096Y-58100180D01*
X157191803Y-58113795D01*
X157170850Y-58279653D01*
X157170654Y-58293660D01*
X154024500Y-58293660D01*
X154024500Y-54809029D01*
X154044502Y-54740908D01*
X154061405Y-54719934D01*
X154100132Y-54681207D01*
X154162444Y-54647181D01*
X154233259Y-54652246D01*
X154290095Y-54694793D01*
X154314163Y-54753964D01*
X154316819Y-54774276D01*
X154322088Y-54814565D01*
X154380289Y-54946839D01*
X154386063Y-54953708D01*
X154428951Y-55004729D01*
X154457472Y-55069745D01*
X154458500Y-55085805D01*
X154458500Y-56233536D01*
X154438498Y-56301657D01*
X154426941Y-56316944D01*
X154386999Y-56362170D01*
X154325583Y-56492982D01*
X154303350Y-56635773D01*
X154304514Y-56644675D01*
X154304514Y-56644678D01*
X154320924Y-56770164D01*
X154322088Y-56779065D01*
X154380289Y-56911339D01*
X154473276Y-57021960D01*
X154480747Y-57026933D01*
X154480748Y-57026934D01*
X154586101Y-57097063D01*
X154586103Y-57097064D01*
X154593574Y-57102037D01*
X154602138Y-57104713D01*
X154602141Y-57104714D01*
X154661145Y-57123148D01*
X154731510Y-57145132D01*
X154875998Y-57147780D01*
X154947216Y-57128364D01*
X155006763Y-57112130D01*
X155006765Y-57112129D01*
X155015422Y-57109769D01*
X155138572Y-57034154D01*
X155235551Y-56927014D01*
X155298560Y-56796962D01*
X155299861Y-56789230D01*
X155339307Y-56730888D01*
X155404558Y-56702909D01*
X155419576Y-56702011D01*
X157066164Y-56702011D01*
X157134285Y-56722013D01*
X157180778Y-56775669D01*
X157191170Y-56843803D01*
X157170850Y-57004653D01*
X157170654Y-57018660D01*
X157186968Y-57185047D01*
X157189879Y-57198741D01*
X157242650Y-57357375D01*
X157248524Y-57370088D01*
X157249768Y-57372143D01*
X157260174Y-57381657D01*
X157268796Y-57377994D01*
X157893905Y-56752885D01*
X157956217Y-56718859D01*
X158027032Y-56723924D01*
X158072095Y-56752885D01*
X158253115Y-56933905D01*
X158287141Y-56996217D01*
X158282076Y-57067032D01*
X158253115Y-57112095D01*
X157717520Y-57647690D01*
X157709908Y-57661630D01*
X157710040Y-57663466D01*
X157714289Y-57670078D01*
X157983000Y-57938790D01*
X158607689Y-58563478D01*
X158621632Y-58571091D01*
X158623467Y-58570960D01*
X158630077Y-58566712D01*
X159168905Y-58027885D01*
X159231217Y-57993860D01*
X159302033Y-57998925D01*
X159347095Y-58027885D01*
X159882692Y-58563481D01*
X159896630Y-58571092D01*
X159898466Y-58570960D01*
X159905078Y-58566711D01*
X160533000Y-57938790D01*
X160798478Y-57673311D01*
X160806091Y-57659368D01*
X160805960Y-57657533D01*
X160801710Y-57650920D01*
X160262885Y-57112095D01*
X160228859Y-57049783D01*
X160233924Y-56978968D01*
X160262885Y-56933905D01*
X160443905Y-56752885D01*
X160506217Y-56718859D01*
X160577032Y-56723924D01*
X160622095Y-56752885D01*
X161245502Y-57376292D01*
X161257879Y-57383050D01*
X161261696Y-57380193D01*
X161318065Y-57231802D01*
X161321549Y-57218233D01*
X161345244Y-57049627D01*
X161345851Y-57041741D01*
X161346058Y-57026962D01*
X161345671Y-57019061D01*
X161325907Y-56842856D01*
X161328912Y-56842519D01*
X161332472Y-56785101D01*
X161374477Y-56727864D01*
X161440759Y-56702423D01*
X161450940Y-56702011D01*
X161554630Y-56702011D01*
X161608875Y-56714286D01*
X161612605Y-56716065D01*
X161620074Y-56721037D01*
X161628636Y-56723712D01*
X161628638Y-56723713D01*
X161656287Y-56732351D01*
X161758010Y-56764132D01*
X161902498Y-56766780D01*
X161972836Y-56747604D01*
X162041922Y-56728769D01*
X162042573Y-56731157D01*
X162099912Y-56724076D01*
X162163893Y-56754850D01*
X162201079Y-56815329D01*
X162205500Y-56848412D01*
X162205500Y-57585972D01*
X162185498Y-57654093D01*
X162168595Y-57675067D01*
X161551365Y-58292297D01*
X161489053Y-58326323D01*
X161418238Y-58321258D01*
X161361402Y-58278711D01*
X161337055Y-58217246D01*
X161326692Y-58124855D01*
X161323590Y-58111202D01*
X161268610Y-57953322D01*
X161265281Y-57946372D01*
X161256605Y-57938659D01*
X161247558Y-57942653D01*
X160533000Y-58657210D01*
X160179235Y-59010976D01*
X160172476Y-59023355D01*
X160175259Y-59027073D01*
X160329680Y-59084502D01*
X160343279Y-59087893D01*
X160454509Y-59102734D01*
X160519386Y-59131570D01*
X160558374Y-59190903D01*
X160559095Y-59261896D01*
X160526940Y-59316722D01*
X159805580Y-60038082D01*
X159790098Y-60050587D01*
X159786871Y-60053523D01*
X159778118Y-60059175D01*
X159758991Y-60083438D01*
X159755441Y-60087433D01*
X159755540Y-60087517D01*
X159752182Y-60091480D01*
X159748506Y-60095156D01*
X159745483Y-60099385D01*
X159745483Y-60099386D01*
X159738146Y-60109652D01*
X159734585Y-60114395D01*
X159711503Y-60143675D01*
X159711501Y-60143679D01*
X159705054Y-60151857D01*
X159702221Y-60159925D01*
X159697247Y-60166885D01*
X159694263Y-60176863D01*
X159683580Y-60212586D01*
X159681744Y-60218235D01*
X159677007Y-60231725D01*
X159665950Y-60263208D01*
X159665500Y-60268404D01*
X159665500Y-60271109D01*
X159665403Y-60273365D01*
X159665260Y-60273841D01*
X159665214Y-60273839D01*
X159665201Y-60274038D01*
X159663432Y-60279955D01*
X159665185Y-60324583D01*
X159665403Y-60330124D01*
X159665500Y-60335070D01*
X159665500Y-64996536D01*
X159645498Y-65064657D01*
X159633941Y-65079944D01*
X159593999Y-65125170D01*
X159532583Y-65255982D01*
X159531203Y-65264846D01*
X159531202Y-65264849D01*
X159513966Y-65375550D01*
X159510350Y-65398773D01*
X159511514Y-65407675D01*
X159511514Y-65407679D01*
X159518052Y-65457674D01*
X159507052Y-65527813D01*
X159459877Y-65580870D01*
X159393116Y-65600011D01*
X151385667Y-65600011D01*
X151317546Y-65580009D01*
X151296572Y-65563106D01*
X150266405Y-64532939D01*
X150232379Y-64470627D01*
X150229500Y-64443844D01*
X150229499Y-63366123D01*
X150229499Y-63359934D01*
X150217576Y-63299987D01*
X153967850Y-63299987D01*
X153969014Y-63308889D01*
X153969014Y-63308892D01*
X153977086Y-63370615D01*
X153986588Y-63443279D01*
X154044789Y-63575553D01*
X154049678Y-63581370D01*
X154068514Y-63647271D01*
X154068514Y-63742000D01*
X154088266Y-63841301D01*
X154144516Y-63925484D01*
X154228699Y-63981734D01*
X154328000Y-64001486D01*
X154818743Y-64001486D01*
X154819513Y-64001488D01*
X154890485Y-64001922D01*
X154890491Y-64001922D01*
X154894971Y-64001949D01*
X154899414Y-64001340D01*
X154899420Y-64001340D01*
X154930016Y-63997148D01*
X154967862Y-63991964D01*
X154972169Y-63990733D01*
X154972174Y-63990732D01*
X155101260Y-63953839D01*
X155101259Y-63953839D01*
X155105571Y-63952607D01*
X155146031Y-63934509D01*
X155168639Y-63924396D01*
X155168640Y-63924396D01*
X155172730Y-63922566D01*
X155293858Y-63846140D01*
X155349888Y-63798455D01*
X155444696Y-63691104D01*
X155474251Y-63646110D01*
X155482624Y-63633364D01*
X155482626Y-63633361D01*
X155485087Y-63629614D01*
X155542377Y-63507593D01*
X155544050Y-63504029D01*
X155544051Y-63504027D01*
X155545956Y-63499969D01*
X155567467Y-63429609D01*
X155589501Y-63288091D01*
X155589567Y-63282759D01*
X155590267Y-63225395D01*
X155590400Y-63214527D01*
X155588550Y-63200379D01*
X155587486Y-63184042D01*
X155587486Y-62810783D01*
X155588553Y-62796993D01*
X155588439Y-62796983D01*
X155588813Y-62792512D01*
X155589501Y-62788091D01*
X155589560Y-62783317D01*
X155590274Y-62724849D01*
X155590400Y-62714527D01*
X155571830Y-62572513D01*
X155570542Y-62567898D01*
X155553249Y-62505964D01*
X155553248Y-62505961D01*
X155552044Y-62501649D01*
X155507202Y-62399739D01*
X155496164Y-62374653D01*
X155496162Y-62374650D01*
X155494361Y-62370556D01*
X155464913Y-62323245D01*
X155457848Y-62311894D01*
X155457844Y-62311888D01*
X155455484Y-62308097D01*
X155452608Y-62304676D01*
X155452604Y-62304670D01*
X155366212Y-62201894D01*
X155366211Y-62201893D01*
X155363327Y-62198462D01*
X155352787Y-62189038D01*
X155311827Y-62152415D01*
X155311822Y-62152411D01*
X155308480Y-62149423D01*
X155304747Y-62146938D01*
X155304743Y-62146935D01*
X155192983Y-62072541D01*
X155192977Y-62072538D01*
X155189255Y-62070060D01*
X155122850Y-62038386D01*
X155118575Y-62037051D01*
X155118569Y-62037048D01*
X154990431Y-61997015D01*
X154990426Y-61997014D01*
X154986144Y-61995676D01*
X154913519Y-61983914D01*
X154786456Y-61981585D01*
X154774794Y-61981371D01*
X154770320Y-61981289D01*
X154765878Y-61981842D01*
X154761398Y-61982079D01*
X154761392Y-61981973D01*
X154752668Y-61982514D01*
X154328000Y-61982514D01*
X154228699Y-62002266D01*
X154144516Y-62058516D01*
X154088266Y-62142699D01*
X154068514Y-62242000D01*
X154068514Y-62668429D01*
X154067491Y-62684398D01*
X154067119Y-62686607D01*
X154063542Y-62726484D01*
X154063391Y-62738826D01*
X154065993Y-62778786D01*
X154066337Y-62781190D01*
X154066338Y-62781197D01*
X154067241Y-62787500D01*
X154068514Y-62805363D01*
X154068514Y-62965117D01*
X154050351Y-63025845D01*
X154051499Y-63026384D01*
X153990083Y-63157196D01*
X153988703Y-63166060D01*
X153988702Y-63166063D01*
X153969817Y-63287357D01*
X153967850Y-63299987D01*
X150217576Y-63299987D01*
X150217156Y-63297874D01*
X150217155Y-63297872D01*
X150214734Y-63285699D01*
X150198799Y-63261850D01*
X150165377Y-63211832D01*
X150158484Y-63201516D01*
X150074301Y-63145266D01*
X150000067Y-63130500D01*
X149225126Y-63130500D01*
X148449934Y-63130501D01*
X148414182Y-63137612D01*
X148387874Y-63142844D01*
X148387872Y-63142845D01*
X148375699Y-63145266D01*
X148365379Y-63152161D01*
X148365378Y-63152162D01*
X148344574Y-63166063D01*
X148291516Y-63201516D01*
X148235266Y-63285699D01*
X148220500Y-63359933D01*
X148220501Y-64910066D01*
X148235266Y-64984301D01*
X148291516Y-65068484D01*
X148375699Y-65124734D01*
X148449933Y-65139500D01*
X148600467Y-65139500D01*
X149818098Y-65139499D01*
X149886219Y-65159501D01*
X149907193Y-65176404D01*
X150836194Y-66105405D01*
X150870220Y-66167717D01*
X150865155Y-66238532D01*
X150822608Y-66295368D01*
X150756088Y-66320179D01*
X150747099Y-66320500D01*
X147519029Y-66320500D01*
X147450908Y-66300498D01*
X147429939Y-66283600D01*
X146636828Y-65490490D01*
X146602805Y-65428180D01*
X146607869Y-65357365D01*
X146650416Y-65300529D01*
X146716936Y-65275718D01*
X146728232Y-65275418D01*
X146739020Y-65275616D01*
X146739024Y-65275616D01*
X146747998Y-65275780D01*
X146788093Y-65264849D01*
X146878763Y-65240130D01*
X146878765Y-65240129D01*
X146887422Y-65237769D01*
X147010572Y-65162154D01*
X147107551Y-65055014D01*
X147141811Y-64984301D01*
X147166645Y-64933043D01*
X147166645Y-64933042D01*
X147170560Y-64924962D01*
X147194536Y-64782453D01*
X147194688Y-64770000D01*
X147174201Y-64626948D01*
X147167748Y-64612754D01*
X147118104Y-64503569D01*
X147114388Y-64495395D01*
X147108530Y-64488596D01*
X147108527Y-64488592D01*
X147025916Y-64392718D01*
X147025913Y-64392716D01*
X147020056Y-64385918D01*
X146898790Y-64307317D01*
X146881921Y-64302272D01*
X146768938Y-64268482D01*
X146768936Y-64268482D01*
X146760337Y-64265910D01*
X146751363Y-64265855D01*
X146751361Y-64265855D01*
X146688082Y-64265469D01*
X146615827Y-64265028D01*
X146607196Y-64267495D01*
X146607194Y-64267495D01*
X146485509Y-64302272D01*
X146485505Y-64302274D01*
X146476879Y-64304739D01*
X146354661Y-64381853D01*
X146258999Y-64490170D01*
X146197583Y-64620982D01*
X146196203Y-64629846D01*
X146196202Y-64629849D01*
X146177784Y-64748140D01*
X146147540Y-64812373D01*
X146087370Y-64850057D01*
X146016378Y-64849229D01*
X145964189Y-64817850D01*
X145821405Y-64675066D01*
X145787379Y-64612754D01*
X145784500Y-64585971D01*
X145784499Y-63366123D01*
X145784499Y-63359934D01*
X145772576Y-63299987D01*
X145772156Y-63297874D01*
X145772155Y-63297872D01*
X145769734Y-63285699D01*
X145753799Y-63261850D01*
X145720377Y-63211832D01*
X145713484Y-63201516D01*
X145629301Y-63145266D01*
X145555067Y-63130500D01*
X144780126Y-63130500D01*
X144004934Y-63130501D01*
X143969182Y-63137612D01*
X143942874Y-63142844D01*
X143942872Y-63142845D01*
X143930699Y-63145266D01*
X143920379Y-63152161D01*
X143920378Y-63152162D01*
X143899574Y-63166063D01*
X143846516Y-63201516D01*
X143790266Y-63285699D01*
X143775500Y-63359933D01*
X143364628Y-63359933D01*
X143364201Y-63356948D01*
X143304388Y-63225395D01*
X143298530Y-63218596D01*
X143298527Y-63218592D01*
X143215916Y-63122718D01*
X143215913Y-63122716D01*
X143210056Y-63115918D01*
X143128986Y-63063371D01*
X143096324Y-63042200D01*
X143096322Y-63042199D01*
X143088790Y-63037317D01*
X143071921Y-63032272D01*
X142958938Y-62998482D01*
X142958936Y-62998482D01*
X142950337Y-62995910D01*
X142941363Y-62995855D01*
X142941361Y-62995855D01*
X142878082Y-62995469D01*
X142805827Y-62995028D01*
X142782121Y-63001803D01*
X142711128Y-63001289D01*
X142651681Y-62962475D01*
X142622656Y-62897682D01*
X142621500Y-62880653D01*
X142621500Y-61734075D01*
X143756363Y-61734075D01*
X143812310Y-61886136D01*
X143817877Y-61897549D01*
X143913708Y-62052108D01*
X143921460Y-62062174D01*
X144046408Y-62194303D01*
X144056026Y-62202605D01*
X144204987Y-62306908D01*
X144216081Y-62313108D01*
X144382980Y-62385332D01*
X144395083Y-62389171D01*
X144574600Y-62426675D01*
X144584152Y-62427915D01*
X144587384Y-62428000D01*
X144807885Y-62428000D01*
X144823124Y-62423525D01*
X144824329Y-62422135D01*
X144826000Y-62414452D01*
X144826000Y-62409885D01*
X145334000Y-62409885D01*
X145338475Y-62425124D01*
X145339865Y-62426329D01*
X145347548Y-62428000D01*
X145525447Y-62428000D01*
X145531822Y-62427677D01*
X145667277Y-62413918D01*
X145679717Y-62411364D01*
X145853244Y-62356984D01*
X145864932Y-62351975D01*
X146023979Y-62263813D01*
X146034412Y-62256562D01*
X146172491Y-62138215D01*
X146181244Y-62129024D01*
X146292711Y-61985320D01*
X146299435Y-61974560D01*
X146379732Y-61811375D01*
X146384155Y-61799481D01*
X146399251Y-61741530D01*
X146398817Y-61727436D01*
X146390636Y-61724000D01*
X145352115Y-61724000D01*
X145336876Y-61728475D01*
X145335671Y-61729865D01*
X145334000Y-61737548D01*
X145334000Y-62409885D01*
X144826000Y-62409885D01*
X144826000Y-61742115D01*
X144821525Y-61726876D01*
X144820135Y-61725671D01*
X144812452Y-61724000D01*
X143770771Y-61724000D01*
X143757240Y-61727973D01*
X143756363Y-61734075D01*
X142621500Y-61734075D01*
X142621500Y-61198470D01*
X143760749Y-61198470D01*
X143761183Y-61212564D01*
X143769364Y-61216000D01*
X144807885Y-61216000D01*
X144823124Y-61211525D01*
X144824329Y-61210135D01*
X144826000Y-61202452D01*
X144826000Y-61197885D01*
X145334000Y-61197885D01*
X145338475Y-61213124D01*
X145339865Y-61214329D01*
X145347548Y-61216000D01*
X146389229Y-61216000D01*
X146402760Y-61212027D01*
X146403637Y-61205925D01*
X146347690Y-61053864D01*
X146342123Y-61042451D01*
X146246292Y-60887892D01*
X146238540Y-60877826D01*
X146113592Y-60745697D01*
X146103974Y-60737395D01*
X145955013Y-60633092D01*
X145943919Y-60626892D01*
X145777020Y-60554668D01*
X145764917Y-60550829D01*
X145585400Y-60513325D01*
X145575848Y-60512085D01*
X145572616Y-60512000D01*
X145352115Y-60512000D01*
X145336876Y-60516475D01*
X145335671Y-60517865D01*
X145334000Y-60525548D01*
X145334000Y-61197885D01*
X144826000Y-61197885D01*
X144826000Y-60530115D01*
X144821525Y-60514876D01*
X144820135Y-60513671D01*
X144812452Y-60512000D01*
X144634553Y-60512000D01*
X144628178Y-60512323D01*
X144492723Y-60526082D01*
X144480283Y-60528636D01*
X144306756Y-60583016D01*
X144295068Y-60588025D01*
X144136021Y-60676187D01*
X144125588Y-60683438D01*
X143987509Y-60801785D01*
X143978756Y-60810976D01*
X143867289Y-60954680D01*
X143860565Y-60965440D01*
X143780268Y-61128625D01*
X143775845Y-61140519D01*
X143760749Y-61198470D01*
X142621500Y-61198470D01*
X142621500Y-59214669D01*
X143522001Y-59214669D01*
X143522371Y-59221490D01*
X143527895Y-59272352D01*
X143531521Y-59287604D01*
X143576676Y-59408054D01*
X143585214Y-59423649D01*
X143661715Y-59525724D01*
X143674276Y-59538285D01*
X143776351Y-59614786D01*
X143791946Y-59623324D01*
X143912394Y-59668478D01*
X143927649Y-59672105D01*
X143978514Y-59677631D01*
X143985328Y-59678000D01*
X144507885Y-59678000D01*
X144523124Y-59673525D01*
X144524329Y-59672135D01*
X144526000Y-59664452D01*
X144526000Y-59659884D01*
X145034000Y-59659884D01*
X145038475Y-59675123D01*
X145039865Y-59676328D01*
X145047548Y-59677999D01*
X145574669Y-59677999D01*
X145581490Y-59677629D01*
X145632352Y-59672105D01*
X145647604Y-59668479D01*
X145768054Y-59623324D01*
X145783649Y-59614786D01*
X145885724Y-59538285D01*
X145898285Y-59525724D01*
X145974786Y-59423649D01*
X145983324Y-59408054D01*
X146028478Y-59287606D01*
X146032105Y-59272351D01*
X146037631Y-59221486D01*
X146038000Y-59214672D01*
X146038000Y-58692115D01*
X146033525Y-58676876D01*
X146032135Y-58675671D01*
X146024452Y-58674000D01*
X145052115Y-58674000D01*
X145036876Y-58678475D01*
X145035671Y-58679865D01*
X145034000Y-58687548D01*
X145034000Y-59659884D01*
X144526000Y-59659884D01*
X144526000Y-58692115D01*
X144521525Y-58676876D01*
X144520135Y-58675671D01*
X144512452Y-58674000D01*
X143540116Y-58674000D01*
X143524877Y-58678475D01*
X143523672Y-58679865D01*
X143522001Y-58687548D01*
X143522001Y-59214669D01*
X142621500Y-59214669D01*
X142621500Y-58147885D01*
X143522000Y-58147885D01*
X143526475Y-58163124D01*
X143527865Y-58164329D01*
X143535548Y-58166000D01*
X144507885Y-58166000D01*
X144523124Y-58161525D01*
X144524329Y-58160135D01*
X144526000Y-58152452D01*
X144526000Y-57162001D01*
X144527202Y-57162001D01*
X144526344Y-57138000D01*
X144526000Y-57138000D01*
X144526000Y-57137999D01*
X145032798Y-57137999D01*
X145033656Y-57162000D01*
X145034000Y-57162000D01*
X145034000Y-57171636D01*
X145034120Y-57174995D01*
X145034000Y-57175547D01*
X145034000Y-58147885D01*
X145038475Y-58163124D01*
X145039865Y-58164329D01*
X145047548Y-58166000D01*
X146019884Y-58166000D01*
X146035123Y-58161525D01*
X146036328Y-58160135D01*
X146037999Y-58152452D01*
X146037999Y-57625331D01*
X146037629Y-57618510D01*
X146032105Y-57567648D01*
X146028479Y-57552396D01*
X145983324Y-57431946D01*
X145974786Y-57416351D01*
X145898285Y-57314276D01*
X145885724Y-57301715D01*
X145817823Y-57250826D01*
X145775308Y-57193967D01*
X145770282Y-57123148D01*
X145804342Y-57060855D01*
X145817823Y-57049174D01*
X145885724Y-56998285D01*
X145898285Y-56985724D01*
X145974786Y-56883649D01*
X145983324Y-56868054D01*
X146028478Y-56747606D01*
X146032105Y-56732351D01*
X146037631Y-56681486D01*
X146038000Y-56674672D01*
X146038000Y-56152115D01*
X146033525Y-56136876D01*
X146032135Y-56135671D01*
X146024452Y-56134000D01*
X145052115Y-56134000D01*
X145036876Y-56138475D01*
X145035671Y-56139865D01*
X145034000Y-56147548D01*
X145034000Y-57137999D01*
X145032798Y-57137999D01*
X144526000Y-57137999D01*
X144526000Y-57128364D01*
X144525880Y-57125005D01*
X144526000Y-57124453D01*
X144526000Y-56152115D01*
X144521525Y-56136876D01*
X144520135Y-56135671D01*
X144512452Y-56134000D01*
X143540116Y-56134000D01*
X143524877Y-56138475D01*
X143523672Y-56139865D01*
X143522001Y-56147548D01*
X143522001Y-56674669D01*
X143522371Y-56681490D01*
X143527895Y-56732352D01*
X143531521Y-56747604D01*
X143576676Y-56868054D01*
X143585214Y-56883649D01*
X143661715Y-56985724D01*
X143674276Y-56998285D01*
X143742177Y-57049174D01*
X143784692Y-57106033D01*
X143789718Y-57176852D01*
X143755658Y-57239145D01*
X143742177Y-57250826D01*
X143674276Y-57301715D01*
X143661715Y-57314276D01*
X143585214Y-57416351D01*
X143576676Y-57431946D01*
X143531522Y-57552394D01*
X143527895Y-57567649D01*
X143522369Y-57618514D01*
X143522000Y-57625328D01*
X143522000Y-58147885D01*
X142621500Y-58147885D01*
X142621500Y-55607885D01*
X143522000Y-55607885D01*
X143526475Y-55623124D01*
X143527865Y-55624329D01*
X143535548Y-55626000D01*
X144507885Y-55626000D01*
X144523124Y-55621525D01*
X144524329Y-55620135D01*
X144526000Y-55612452D01*
X144526000Y-55607885D01*
X145034000Y-55607885D01*
X145038475Y-55623124D01*
X145039865Y-55624329D01*
X145047548Y-55626000D01*
X146019884Y-55626000D01*
X146035123Y-55621525D01*
X146036328Y-55620135D01*
X146037999Y-55612452D01*
X146037999Y-55085331D01*
X146037629Y-55078510D01*
X146032105Y-55027648D01*
X146028479Y-55012396D01*
X145983324Y-54891946D01*
X145974786Y-54876351D01*
X145898285Y-54774276D01*
X145885724Y-54761715D01*
X145783649Y-54685214D01*
X145768054Y-54676676D01*
X145647606Y-54631522D01*
X145632351Y-54627895D01*
X145581486Y-54622369D01*
X145574672Y-54622000D01*
X145052115Y-54622000D01*
X145036876Y-54626475D01*
X145035671Y-54627865D01*
X145034000Y-54635548D01*
X145034000Y-55607885D01*
X144526000Y-55607885D01*
X144526000Y-54640116D01*
X144521525Y-54624877D01*
X144520135Y-54623672D01*
X144512452Y-54622001D01*
X143985331Y-54622001D01*
X143978510Y-54622371D01*
X143927648Y-54627895D01*
X143912396Y-54631521D01*
X143791946Y-54676676D01*
X143776351Y-54685214D01*
X143674276Y-54761715D01*
X143661715Y-54774276D01*
X143585214Y-54876351D01*
X143576676Y-54891946D01*
X143531522Y-55012394D01*
X143527895Y-55027649D01*
X143522369Y-55078514D01*
X143522000Y-55085328D01*
X143522000Y-55607885D01*
X142621500Y-55607885D01*
X142621500Y-53094075D01*
X143756363Y-53094075D01*
X143812310Y-53246136D01*
X143817877Y-53257549D01*
X143913708Y-53412108D01*
X143921460Y-53422174D01*
X144046408Y-53554303D01*
X144056026Y-53562605D01*
X144204987Y-53666908D01*
X144216081Y-53673108D01*
X144382980Y-53745332D01*
X144395083Y-53749171D01*
X144574600Y-53786675D01*
X144584152Y-53787915D01*
X144587384Y-53788000D01*
X144807885Y-53788000D01*
X144823124Y-53783525D01*
X144824329Y-53782135D01*
X144826000Y-53774452D01*
X144826000Y-53769885D01*
X145334000Y-53769885D01*
X145338475Y-53785124D01*
X145339865Y-53786329D01*
X145347548Y-53788000D01*
X145525447Y-53788000D01*
X145531822Y-53787677D01*
X145667277Y-53773918D01*
X145679717Y-53771364D01*
X145853244Y-53716984D01*
X145864932Y-53711975D01*
X146023979Y-53623813D01*
X146034412Y-53616562D01*
X146172491Y-53498215D01*
X146181244Y-53489024D01*
X146292711Y-53345320D01*
X146299435Y-53334560D01*
X146379732Y-53171375D01*
X146384155Y-53159481D01*
X146399251Y-53101530D01*
X146399021Y-53094075D01*
X147776363Y-53094075D01*
X147832310Y-53246136D01*
X147837877Y-53257549D01*
X147933708Y-53412108D01*
X147941460Y-53422174D01*
X148066408Y-53554303D01*
X148076026Y-53562605D01*
X148224987Y-53666908D01*
X148236081Y-53673108D01*
X148300311Y-53700903D01*
X148354885Y-53746314D01*
X148376245Y-53814021D01*
X148357609Y-53882528D01*
X148352980Y-53889524D01*
X148273980Y-54000687D01*
X148222518Y-54143629D01*
X148211391Y-54295145D01*
X148241420Y-54444071D01*
X148250680Y-54462244D01*
X148306492Y-54571783D01*
X148306494Y-54571786D01*
X148310392Y-54579436D01*
X148316205Y-54585757D01*
X148316206Y-54585759D01*
X148400567Y-54677500D01*
X148413226Y-54691266D01*
X148420521Y-54695789D01*
X148420522Y-54695790D01*
X148526848Y-54761715D01*
X148542344Y-54771323D01*
X148688235Y-54813709D01*
X148699007Y-54814500D01*
X148808057Y-54814500D01*
X148812303Y-54813918D01*
X148812309Y-54813918D01*
X148891054Y-54803131D01*
X148920518Y-54799095D01*
X148977871Y-54774276D01*
X149052064Y-54742169D01*
X149052065Y-54742169D01*
X149059946Y-54738758D01*
X149107909Y-54699919D01*
X149171339Y-54648555D01*
X149171341Y-54648553D01*
X149178013Y-54643150D01*
X149183416Y-54635548D01*
X149261044Y-54526315D01*
X149261044Y-54526314D01*
X149266020Y-54519313D01*
X149317482Y-54376371D01*
X149318575Y-54361495D01*
X149327980Y-54233418D01*
X149328609Y-54224855D01*
X149298580Y-54075929D01*
X149245219Y-53971202D01*
X149232115Y-53901426D01*
X149258815Y-53835642D01*
X149316842Y-53794735D01*
X149357486Y-53788000D01*
X149845447Y-53788000D01*
X149851822Y-53787677D01*
X149987277Y-53773918D01*
X149999717Y-53771364D01*
X150173244Y-53716984D01*
X150184932Y-53711975D01*
X150343979Y-53623813D01*
X150354412Y-53616562D01*
X150492491Y-53498215D01*
X150501244Y-53489024D01*
X150612711Y-53345320D01*
X150619435Y-53334560D01*
X150699732Y-53171375D01*
X150704155Y-53159481D01*
X150719251Y-53101530D01*
X150718817Y-53087436D01*
X150710636Y-53084000D01*
X147790771Y-53084000D01*
X147777240Y-53087973D01*
X147776363Y-53094075D01*
X146399021Y-53094075D01*
X146398817Y-53087436D01*
X146390636Y-53084000D01*
X145352115Y-53084000D01*
X145336876Y-53088475D01*
X145335671Y-53089865D01*
X145334000Y-53097548D01*
X145334000Y-53769885D01*
X144826000Y-53769885D01*
X144826000Y-53102115D01*
X144821525Y-53086876D01*
X144820135Y-53085671D01*
X144812452Y-53084000D01*
X143770771Y-53084000D01*
X143757240Y-53087973D01*
X143756363Y-53094075D01*
X142621500Y-53094075D01*
X142621500Y-51815500D01*
X142641502Y-51747379D01*
X142695158Y-51700886D01*
X142747500Y-51689500D01*
X144292313Y-51689500D01*
X144360434Y-51709502D01*
G37*
%TD.AperFunction*%
%TD*%
M02*
