M48
; DRILL file {KiCad (6.0.5)} date Sun Oct  9 22:16:17 2022
; FORMAT={-:-/ absolute / inch / decimal}
; #@! TF.CreationDate,2022-10-09T22:16:17+01:00
; #@! TF.GenerationSoftware,Kicad,Pcbnew,(6.0.5)
; #@! TF.FileFunction,Plated,1,2,PTH
FMAT,2
INCH
; #@! TA.AperFunction,Plated,PTH,ViaDrill
T1C0.0118
; #@! TA.AperFunction,Plated,PTH,ComponentDrill
T2C0.0138
; #@! TA.AperFunction,Plated,PTH,ComponentDrill
T3C0.0236
%
G90
G05
T1
X5.625Y-2.5
X5.625Y-2.7
X5.75Y-2.665
X5.75Y-2.8
X5.775Y-2.475
X5.775Y-2.55
X5.825Y-2.6
X5.87Y-2.73
X5.875Y-2.7
X5.9Y-2.7
X5.925Y-2.05
X5.925Y-2.6
X5.94Y-2.1
X5.9638Y-2.2783
X5.965Y-2.31
X5.97Y-2.365
X5.9739Y-2.4259
X5.975Y-2.525
X5.98Y-2.16
X5.995Y-2.05
X6.005Y-2.255
X6.05Y-2.575
X6.07Y-2.655
X6.0818Y-2.4924
X6.085Y-2.73
X6.095Y-2.1527
X6.095Y-2.23
X6.1Y-2.05
X6.125Y-2.1
X6.14Y-2.53
X6.175Y-2.8
X6.18Y-2.66
X6.185Y-2.565
X6.2036Y-2.165
X6.2325Y-2.1575
X6.25Y-2.55
X6.3Y-2.05
X6.3Y-2.575
X6.3Y-2.65
X6.325Y-2.75
X6.335Y-2.79
X6.345Y-2.675
X6.368Y-2.342
X6.3716Y-2.215
X6.3751Y-2.5624
X6.3778Y-2.5028
X6.4Y-2.05
X6.4Y-2.39
X6.4Y-2.635
X6.41Y-2.605
X6.4115Y-2.7035
X6.425Y-2.075
X6.425Y-2.375
X6.475Y-2.5
X6.475Y-2.8
X6.5Y-2.1
X6.515Y-2.395
X6.525Y-2.525
X6.525Y-2.75
X6.575Y-2.25
X6.595Y-2.37
X6.6Y-2.125
X6.6Y-2.49
X6.6Y-2.625
X6.6Y-2.8
X6.65Y-2.6
X6.7Y-2.8
T2
X6.2198Y-2.1948
X6.2198Y-2.245
X6.2198Y-2.2952
X6.27Y-2.1948
X6.27Y-2.245
X6.27Y-2.2952
X6.3202Y-2.1948
X6.3202Y-2.245
X6.3202Y-2.2952
T3
G00X5.6961Y-2.0799
M15
G01X5.7276Y-2.0799
M16
G05
G00X5.6961Y-2.4201
M15
G01X5.7276Y-2.4201
M16
G05
G00X5.8543Y-2.0799
M15
G01X5.8976Y-2.0799
M16
G05
G00X5.8543Y-2.4201
M15
G01X5.8976Y-2.4201
M16
G05
T0
M30
