%TF.GenerationSoftware,KiCad,Pcbnew,(6.0.5)*%
%TF.CreationDate,2022-10-09T22:16:16+01:00*%
%TF.ProjectId,PicoDrive,5069636f-4472-4697-9665-2e6b69636164,rev?*%
%TF.SameCoordinates,Original*%
%TF.FileFunction,Soldermask,Top*%
%TF.FilePolarity,Negative*%
%FSLAX46Y46*%
G04 Gerber Fmt 4.6, Leading zero omitted, Abs format (unit mm)*
G04 Created by KiCad (PCBNEW (6.0.5)) date 2022-10-09 22:16:16*
%MOMM*%
%LPD*%
G01*
G04 APERTURE LIST*
G04 Aperture macros list*
%AMRoundRect*
0 Rectangle with rounded corners*
0 $1 Rounding radius*
0 $2 $3 $4 $5 $6 $7 $8 $9 X,Y pos of 4 corners*
0 Add a 4 corners polygon primitive as box body*
4,1,4,$2,$3,$4,$5,$6,$7,$8,$9,$2,$3,0*
0 Add four circle primitives for the rounded corners*
1,1,$1+$1,$2,$3*
1,1,$1+$1,$4,$5*
1,1,$1+$1,$6,$7*
1,1,$1+$1,$8,$9*
0 Add four rect primitives between the rounded corners*
20,1,$1+$1,$2,$3,$4,$5,0*
20,1,$1+$1,$4,$5,$6,$7,0*
20,1,$1+$1,$6,$7,$8,$9,0*
20,1,$1+$1,$8,$9,$2,$3,0*%
G04 Aperture macros list end*
%ADD10RoundRect,0.150000X0.625000X-0.150000X0.625000X0.150000X-0.625000X0.150000X-0.625000X-0.150000X0*%
%ADD11RoundRect,0.250000X0.650000X-0.350000X0.650000X0.350000X-0.650000X0.350000X-0.650000X-0.350000X0*%
%ADD12RoundRect,0.250000X-0.650000X0.350000X-0.650000X-0.350000X0.650000X-0.350000X0.650000X0.350000X0*%
%ADD13RoundRect,0.150000X-0.625000X0.150000X-0.625000X-0.150000X0.625000X-0.150000X0.625000X0.150000X0*%
%ADD14R,0.600000X0.450000*%
%ADD15RoundRect,0.135000X-0.135000X-0.185000X0.135000X-0.185000X0.135000X0.185000X-0.135000X0.185000X0*%
%ADD16RoundRect,0.135000X0.135000X0.185000X-0.135000X0.185000X-0.135000X-0.185000X0.135000X-0.185000X0*%
%ADD17RoundRect,0.135000X-0.185000X0.135000X-0.185000X-0.135000X0.185000X-0.135000X0.185000X0.135000X0*%
%ADD18RoundRect,0.135000X0.185000X-0.135000X0.185000X0.135000X-0.185000X0.135000X-0.185000X-0.135000X0*%
%ADD19R,0.250000X0.300000*%
%ADD20R,1.600000X0.200000*%
%ADD21RoundRect,0.218750X0.218750X0.256250X-0.218750X0.256250X-0.218750X-0.256250X0.218750X-0.256250X0*%
%ADD22RoundRect,0.140000X0.140000X0.170000X-0.140000X0.170000X-0.140000X-0.170000X0.140000X-0.170000X0*%
%ADD23RoundRect,0.140000X-0.170000X0.140000X-0.170000X-0.140000X0.170000X-0.140000X0.170000X0.140000X0*%
%ADD24RoundRect,0.140000X0.170000X-0.140000X0.170000X0.140000X-0.170000X0.140000X-0.170000X-0.140000X0*%
%ADD25RoundRect,0.140000X-0.140000X-0.170000X0.140000X-0.170000X0.140000X0.170000X-0.140000X0.170000X0*%
%ADD26RoundRect,0.225000X-0.250000X0.225000X-0.250000X-0.225000X0.250000X-0.225000X0.250000X0.225000X0*%
%ADD27RoundRect,0.225000X0.250000X-0.225000X0.250000X0.225000X-0.250000X0.225000X-0.250000X-0.225000X0*%
%ADD28R,0.900000X1.600000*%
%ADD29R,0.500000X0.250000*%
%ADD30R,1.200000X1.400000*%
%ADD31C,0.600000*%
%ADD32R,1.160000X0.600000*%
%ADD33R,1.160000X0.300000*%
%ADD34O,2.000000X0.900000*%
%ADD35O,1.700000X0.900000*%
%ADD36RoundRect,0.050000X0.050000X-0.387500X0.050000X0.387500X-0.050000X0.387500X-0.050000X-0.387500X0*%
%ADD37RoundRect,0.050000X0.387500X-0.050000X0.387500X0.050000X-0.387500X0.050000X-0.387500X-0.050000X0*%
%ADD38RoundRect,0.144000X1.456000X-1.456000X1.456000X1.456000X-1.456000X1.456000X-1.456000X-1.456000X0*%
%ADD39RoundRect,0.150000X0.587500X0.150000X-0.587500X0.150000X-0.587500X-0.150000X0.587500X-0.150000X0*%
G04 APERTURE END LIST*
D10*
%TO.C,J1*%
X170085000Y-55110000D03*
X170085000Y-54110000D03*
D11*
X173960000Y-56410000D03*
X173960000Y-52810000D03*
%TD*%
D10*
%TO.C,J2*%
X170085000Y-62095000D03*
X170085000Y-61095000D03*
D11*
X173960000Y-63395000D03*
X173960000Y-59795000D03*
%TD*%
D10*
%TO.C,J3*%
X170085000Y-69080000D03*
X170085000Y-68080000D03*
D11*
X173960000Y-70380000D03*
X173960000Y-66780000D03*
%TD*%
D12*
%TO.C,J4*%
X143540000Y-65645000D03*
X143540000Y-70245000D03*
D13*
X147415000Y-68945000D03*
X147415000Y-67945000D03*
X147415000Y-66945000D03*
%TD*%
D14*
%TO.C,D1*%
X149386000Y-63500000D03*
X147286000Y-63500000D03*
%TD*%
D15*
%TO.C,R11*%
X159895000Y-68580000D03*
X158875000Y-68580000D03*
%TD*%
D16*
%TO.C,R10*%
X159895000Y-69723000D03*
X158875000Y-69723000D03*
%TD*%
D17*
%TO.C,R9*%
X144145000Y-64010000D03*
X144145000Y-62990000D03*
%TD*%
D18*
%TO.C,R8*%
X145415000Y-64010000D03*
X145415000Y-62990000D03*
%TD*%
D19*
%TO.C,U1*%
X152158000Y-60763000D03*
X152658000Y-60763000D03*
X153158000Y-60763000D03*
X153658000Y-60763000D03*
X153658000Y-58363000D03*
X153158000Y-58363000D03*
X152658000Y-58363000D03*
X152158000Y-58363000D03*
D20*
X152908000Y-59563000D03*
%TD*%
D17*
%TO.C,R12*%
X167513000Y-52195000D03*
X167513000Y-53215000D03*
%TD*%
D18*
%TO.C,R7*%
X157734000Y-64226500D03*
X157734000Y-63206500D03*
%TD*%
D15*
%TO.C,R6*%
X153926000Y-55118000D03*
X152906000Y-55118000D03*
%TD*%
D18*
%TO.C,R5*%
X151638000Y-56005000D03*
X151638000Y-57025000D03*
%TD*%
D17*
%TO.C,R4*%
X164338000Y-58422000D03*
X164338000Y-57402000D03*
%TD*%
D15*
%TO.C,R3*%
X153668000Y-62865000D03*
X154688000Y-62865000D03*
%TD*%
D16*
%TO.C,R2*%
X150493000Y-62992000D03*
X151513000Y-62992000D03*
%TD*%
D17*
%TO.C,R1*%
X151765000Y-53850000D03*
X151765000Y-52830000D03*
%TD*%
D21*
%TO.C,D3*%
X166014500Y-52451000D03*
X164439500Y-52451000D03*
%TD*%
D22*
%TO.C,C20*%
X164917000Y-70231000D03*
X163957000Y-70231000D03*
%TD*%
D23*
%TO.C,C19*%
X166624000Y-66449000D03*
X166624000Y-67409000D03*
%TD*%
D22*
%TO.C,C18*%
X167612000Y-64135000D03*
X166652000Y-64135000D03*
%TD*%
D23*
%TO.C,C17*%
X161925000Y-68735000D03*
X161925000Y-69695000D03*
%TD*%
D24*
%TO.C,C16*%
X161925000Y-66139000D03*
X161925000Y-65179000D03*
%TD*%
D22*
%TO.C,C15*%
X162461000Y-63500000D03*
X163421000Y-63500000D03*
%TD*%
%TO.C,C14*%
X153190000Y-52578000D03*
X154150000Y-52578000D03*
%TD*%
D25*
%TO.C,C13*%
X162405000Y-61671200D03*
X161445000Y-61671200D03*
%TD*%
%TO.C,C12*%
X161770000Y-52324000D03*
X160810000Y-52324000D03*
%TD*%
D22*
%TO.C,C11*%
X155730000Y-52324000D03*
X156690000Y-52324000D03*
%TD*%
D24*
%TO.C,C10*%
X165354000Y-54130000D03*
X165354000Y-55090000D03*
%TD*%
D23*
%TO.C,C9*%
X156210000Y-63345000D03*
X156210000Y-62385000D03*
%TD*%
D25*
%TO.C,C8*%
X159035500Y-52324000D03*
X158075500Y-52324000D03*
%TD*%
D22*
%TO.C,C7*%
X154150000Y-56642000D03*
X153190000Y-56642000D03*
%TD*%
D24*
%TO.C,C4*%
X164084000Y-54384000D03*
X164084000Y-55344000D03*
%TD*%
D22*
%TO.C,C2*%
X152936000Y-53848000D03*
X153896000Y-53848000D03*
%TD*%
D24*
%TO.C,C6*%
X166497000Y-54130000D03*
X166497000Y-55090000D03*
%TD*%
D23*
%TO.C,C5*%
X164084000Y-60424000D03*
X164084000Y-59464000D03*
%TD*%
D26*
%TO.C,C3*%
X155448000Y-65773000D03*
X155448000Y-67323000D03*
%TD*%
D27*
%TO.C,C1*%
X149606000Y-67323000D03*
X149606000Y-65773000D03*
%TD*%
D14*
%TO.C,D2*%
X151096000Y-68326000D03*
X153196000Y-68326000D03*
%TD*%
D28*
%TO.C,U6*%
X164465000Y-68345000D03*
D29*
X163515000Y-69095000D03*
X163515000Y-68595000D03*
X163515000Y-68095000D03*
X163515000Y-67595000D03*
X165415000Y-67595000D03*
X165415000Y-68095000D03*
X165415000Y-68595000D03*
X165415000Y-69095000D03*
%TD*%
%TO.C,U4*%
X166558000Y-62980000D03*
X166558000Y-62480000D03*
X166558000Y-61980000D03*
X166558000Y-61480000D03*
X164658000Y-61480000D03*
X164658000Y-61980000D03*
X164658000Y-62480000D03*
X164658000Y-62980000D03*
D28*
X165608000Y-62230000D03*
%TD*%
D30*
%TO.C,Y1*%
X165774000Y-58885000D03*
X165774000Y-56685000D03*
X167474000Y-56685000D03*
X167474000Y-58885000D03*
%TD*%
D28*
%TO.C,U5*%
X164465000Y-65405000D03*
D29*
X163515000Y-66155000D03*
X163515000Y-65655000D03*
X163515000Y-65155000D03*
X163515000Y-64655000D03*
X165415000Y-64655000D03*
X165415000Y-65155000D03*
X165415000Y-65655000D03*
X165415000Y-66155000D03*
%TD*%
D31*
%TO.C,P1*%
X148770000Y-54260000D03*
X148770000Y-60040000D03*
D32*
X149830000Y-53950000D03*
X149830000Y-54750000D03*
D33*
X149830000Y-55900000D03*
X149830000Y-56900000D03*
X149830000Y-57400000D03*
X149830000Y-58400000D03*
D32*
X149830000Y-59550000D03*
X149830000Y-60350000D03*
X149830000Y-60350000D03*
X149830000Y-59550000D03*
D33*
X149830000Y-58900000D03*
X149830000Y-57900000D03*
X149830000Y-56400000D03*
X149830000Y-55400000D03*
D32*
X149830000Y-54750000D03*
X149830000Y-53950000D03*
D34*
X149250000Y-52830000D03*
D35*
X145080000Y-52830000D03*
D34*
X149250000Y-61470000D03*
D35*
X145080000Y-61470000D03*
%TD*%
D36*
%TO.C,U3*%
X156658000Y-60460500D03*
X157058000Y-60460500D03*
X157458000Y-60460500D03*
X157858000Y-60460500D03*
X158258000Y-60460500D03*
X158658000Y-60460500D03*
X159058000Y-60460500D03*
X159458000Y-60460500D03*
X159858000Y-60460500D03*
X160258000Y-60460500D03*
X160658000Y-60460500D03*
X161058000Y-60460500D03*
X161458000Y-60460500D03*
X161858000Y-60460500D03*
D37*
X162695500Y-59623000D03*
X162695500Y-59223000D03*
X162695500Y-58823000D03*
X162695500Y-58423000D03*
X162695500Y-58023000D03*
X162695500Y-57623000D03*
X162695500Y-57223000D03*
X162695500Y-56823000D03*
X162695500Y-56423000D03*
X162695500Y-56023000D03*
X162695500Y-55623000D03*
X162695500Y-55223000D03*
X162695500Y-54823000D03*
X162695500Y-54423000D03*
D36*
X161858000Y-53585500D03*
X161458000Y-53585500D03*
X161058000Y-53585500D03*
X160658000Y-53585500D03*
X160258000Y-53585500D03*
X159858000Y-53585500D03*
X159458000Y-53585500D03*
X159058000Y-53585500D03*
X158658000Y-53585500D03*
X158258000Y-53585500D03*
X157858000Y-53585500D03*
X157458000Y-53585500D03*
X157058000Y-53585500D03*
X156658000Y-53585500D03*
D37*
X155820500Y-54423000D03*
X155820500Y-54823000D03*
X155820500Y-55223000D03*
X155820500Y-55623000D03*
X155820500Y-56023000D03*
X155820500Y-56423000D03*
X155820500Y-56823000D03*
X155820500Y-57223000D03*
X155820500Y-57623000D03*
X155820500Y-58023000D03*
X155820500Y-58423000D03*
X155820500Y-58823000D03*
X155820500Y-59223000D03*
X155820500Y-59623000D03*
D38*
X159258000Y-57023000D03*
%TD*%
D39*
%TO.C,U2*%
X151462500Y-65405000D03*
X153337500Y-64455000D03*
X153337500Y-66355000D03*
%TD*%
M02*
