%TF.GenerationSoftware,KiCad,Pcbnew,(6.0.5)*%
%TF.CreationDate,2022-10-09T21:33:59+01:00*%
%TF.ProjectId,PicoDrive,5069636f-4472-4697-9665-2e6b69636164,rev?*%
%TF.SameCoordinates,Original*%
%TF.FileFunction,Copper,L1,Top*%
%TF.FilePolarity,Positive*%
%FSLAX46Y46*%
G04 Gerber Fmt 4.6, Leading zero omitted, Abs format (unit mm)*
G04 Created by KiCad (PCBNEW (6.0.5)) date 2022-10-09 21:33:59*
%MOMM*%
%LPD*%
G01*
G04 APERTURE LIST*
G04 Aperture macros list*
%AMRoundRect*
0 Rectangle with rounded corners*
0 $1 Rounding radius*
0 $2 $3 $4 $5 $6 $7 $8 $9 X,Y pos of 4 corners*
0 Add a 4 corners polygon primitive as box body*
4,1,4,$2,$3,$4,$5,$6,$7,$8,$9,$2,$3,0*
0 Add four circle primitives for the rounded corners*
1,1,$1+$1,$2,$3*
1,1,$1+$1,$4,$5*
1,1,$1+$1,$6,$7*
1,1,$1+$1,$8,$9*
0 Add four rect primitives between the rounded corners*
20,1,$1+$1,$2,$3,$4,$5,0*
20,1,$1+$1,$4,$5,$6,$7,0*
20,1,$1+$1,$6,$7,$8,$9,0*
20,1,$1+$1,$8,$9,$2,$3,0*%
G04 Aperture macros list end*
%TA.AperFunction,SMDPad,CuDef*%
%ADD10R,0.600000X0.450000*%
%TD*%
%TA.AperFunction,SMDPad,CuDef*%
%ADD11RoundRect,0.135000X-0.135000X-0.185000X0.135000X-0.185000X0.135000X0.185000X-0.135000X0.185000X0*%
%TD*%
%TA.AperFunction,SMDPad,CuDef*%
%ADD12RoundRect,0.135000X0.135000X0.185000X-0.135000X0.185000X-0.135000X-0.185000X0.135000X-0.185000X0*%
%TD*%
%TA.AperFunction,SMDPad,CuDef*%
%ADD13RoundRect,0.135000X-0.185000X0.135000X-0.185000X-0.135000X0.185000X-0.135000X0.185000X0.135000X0*%
%TD*%
%TA.AperFunction,SMDPad,CuDef*%
%ADD14RoundRect,0.135000X0.185000X-0.135000X0.185000X0.135000X-0.185000X0.135000X-0.185000X-0.135000X0*%
%TD*%
%TA.AperFunction,SMDPad,CuDef*%
%ADD15R,0.250000X0.300000*%
%TD*%
%TA.AperFunction,SMDPad,CuDef*%
%ADD16R,1.600000X0.200000*%
%TD*%
%TA.AperFunction,SMDPad,CuDef*%
%ADD17RoundRect,0.218750X0.218750X0.256250X-0.218750X0.256250X-0.218750X-0.256250X0.218750X-0.256250X0*%
%TD*%
%TA.AperFunction,SMDPad,CuDef*%
%ADD18RoundRect,0.140000X-0.170000X0.140000X-0.170000X-0.140000X0.170000X-0.140000X0.170000X0.140000X0*%
%TD*%
%TA.AperFunction,SMDPad,CuDef*%
%ADD19RoundRect,0.140000X-0.140000X-0.170000X0.140000X-0.170000X0.140000X0.170000X-0.140000X0.170000X0*%
%TD*%
%TA.AperFunction,SMDPad,CuDef*%
%ADD20RoundRect,0.140000X0.140000X0.170000X-0.140000X0.170000X-0.140000X-0.170000X0.140000X-0.170000X0*%
%TD*%
%TA.AperFunction,SMDPad,CuDef*%
%ADD21RoundRect,0.140000X0.170000X-0.140000X0.170000X0.140000X-0.170000X0.140000X-0.170000X-0.140000X0*%
%TD*%
%TA.AperFunction,SMDPad,CuDef*%
%ADD22RoundRect,0.225000X-0.250000X0.225000X-0.250000X-0.225000X0.250000X-0.225000X0.250000X0.225000X0*%
%TD*%
%TA.AperFunction,SMDPad,CuDef*%
%ADD23RoundRect,0.225000X0.250000X-0.225000X0.250000X0.225000X-0.250000X0.225000X-0.250000X-0.225000X0*%
%TD*%
%TA.AperFunction,SMDPad,CuDef*%
%ADD24R,0.500000X0.250000*%
%TD*%
%TA.AperFunction,SMDPad,CuDef*%
%ADD25R,0.900000X1.600000*%
%TD*%
%TA.AperFunction,SMDPad,CuDef*%
%ADD26R,1.200000X1.400000*%
%TD*%
%TA.AperFunction,SMDPad,CuDef*%
%ADD27R,1.160000X0.600000*%
%TD*%
%TA.AperFunction,SMDPad,CuDef*%
%ADD28R,1.160000X0.300000*%
%TD*%
%TA.AperFunction,ComponentPad*%
%ADD29O,2.000000X0.900000*%
%TD*%
%TA.AperFunction,ComponentPad*%
%ADD30O,1.700000X0.900000*%
%TD*%
%TA.AperFunction,SMDPad,CuDef*%
%ADD31RoundRect,0.050000X0.050000X-0.387500X0.050000X0.387500X-0.050000X0.387500X-0.050000X-0.387500X0*%
%TD*%
%TA.AperFunction,SMDPad,CuDef*%
%ADD32RoundRect,0.050000X0.387500X-0.050000X0.387500X0.050000X-0.387500X0.050000X-0.387500X-0.050000X0*%
%TD*%
%TA.AperFunction,ComponentPad*%
%ADD33C,0.600000*%
%TD*%
%TA.AperFunction,SMDPad,CuDef*%
%ADD34RoundRect,0.144000X1.456000X-1.456000X1.456000X1.456000X-1.456000X1.456000X-1.456000X-1.456000X0*%
%TD*%
%TA.AperFunction,SMDPad,CuDef*%
%ADD35RoundRect,0.250000X-0.650000X0.350000X-0.650000X-0.350000X0.650000X-0.350000X0.650000X0.350000X0*%
%TD*%
%TA.AperFunction,SMDPad,CuDef*%
%ADD36RoundRect,0.150000X-0.625000X0.150000X-0.625000X-0.150000X0.625000X-0.150000X0.625000X0.150000X0*%
%TD*%
%TA.AperFunction,SMDPad,CuDef*%
%ADD37RoundRect,0.150000X0.587500X0.150000X-0.587500X0.150000X-0.587500X-0.150000X0.587500X-0.150000X0*%
%TD*%
%TA.AperFunction,SMDPad,CuDef*%
%ADD38RoundRect,0.250000X0.650000X-0.350000X0.650000X0.350000X-0.650000X0.350000X-0.650000X-0.350000X0*%
%TD*%
%TA.AperFunction,SMDPad,CuDef*%
%ADD39RoundRect,0.150000X0.625000X-0.150000X0.625000X0.150000X-0.625000X0.150000X-0.625000X-0.150000X0*%
%TD*%
%TA.AperFunction,ViaPad*%
%ADD40C,0.500000*%
%TD*%
%TA.AperFunction,Conductor*%
%ADD41C,0.200000*%
%TD*%
%TA.AperFunction,Conductor*%
%ADD42C,0.300000*%
%TD*%
%TA.AperFunction,Conductor*%
%ADD43C,0.500000*%
%TD*%
G04 APERTURE END LIST*
D10*
%TO.P,D1,1,K*%
%TO.N,Net-(C1-Pad1)*%
X149386000Y-63500000D03*
%TO.P,D1,2,A*%
%TO.N,/VBUS*%
X147286000Y-63500000D03*
%TD*%
D11*
%TO.P,R11,1*%
%TO.N,Net-(U3-Pad39)*%
X158875000Y-68580000D03*
%TO.P,R11,2*%
%TO.N,GND*%
X159895000Y-68580000D03*
%TD*%
D12*
%TO.P,R10,2*%
%TO.N,Net-(U3-Pad39)*%
X158875000Y-69723000D03*
%TO.P,R10,1*%
%TO.N,+BATT*%
X159895000Y-69723000D03*
%TD*%
D13*
%TO.P,R9,1*%
%TO.N,Net-(U3-Pad40)*%
X144145000Y-62990000D03*
%TO.P,R9,2*%
%TO.N,GND*%
X144145000Y-64010000D03*
%TD*%
D14*
%TO.P,R8,2*%
%TO.N,Net-(U3-Pad40)*%
X145415000Y-62990000D03*
%TO.P,R8,1*%
%TO.N,/VBUS*%
X145415000Y-64010000D03*
%TD*%
D15*
%TO.P,U1,1,~{CS}*%
%TO.N,QSPI_SS*%
X152158000Y-60763000D03*
%TO.P,U1,2,DO(IO1)*%
%TO.N,QSPI_D1*%
X152658000Y-60763000D03*
%TO.P,U1,3,IO2*%
%TO.N,QSPI_D2*%
X153158000Y-60763000D03*
%TO.P,U1,4,GND*%
%TO.N,GND*%
X153658000Y-60763000D03*
%TO.P,U1,5,DI(IO0)*%
%TO.N,QSPI_D0*%
X153658000Y-58363000D03*
%TO.P,U1,6,CLK*%
%TO.N,QSPI_SCLK*%
X153158000Y-58363000D03*
%TO.P,U1,7,IO3*%
%TO.N,QSPI_D3*%
X152658000Y-58363000D03*
%TO.P,U1,8,VCC*%
%TO.N,+3V3*%
X152158000Y-58363000D03*
D16*
%TO.P,U1,FLAG*%
%TO.N,N/C*%
X152908000Y-59563000D03*
%TD*%
D11*
%TO.P,R12,1*%
%TO.N,Net-(D3-Pad1)*%
X166622000Y-53848000D03*
%TO.P,R12,2*%
%TO.N,GND*%
X167642000Y-53848000D03*
%TD*%
D14*
%TO.P,R7,1*%
%TO.N,/IBUS*%
X157734000Y-64226500D03*
%TO.P,R7,2*%
%TO.N,Net-(R7-Pad2)*%
X157734000Y-63206500D03*
%TD*%
D11*
%TO.P,R6,2*%
%TO.N,Net-(R6-Pad2)*%
X153926000Y-55118000D03*
%TO.P,R6,1*%
%TO.N,USB_DM*%
X152906000Y-55118000D03*
%TD*%
D14*
%TO.P,R5,2*%
%TO.N,Net-(R5-Pad2)*%
X151638000Y-56005000D03*
%TO.P,R5,1*%
%TO.N,USB_DP*%
X151638000Y-57025000D03*
%TD*%
D13*
%TO.P,R4,1*%
%TO.N,Net-(R4-Pad1)*%
X164338000Y-57402000D03*
%TO.P,R4,2*%
%TO.N,Net-(C4-Pad1)*%
X164338000Y-58422000D03*
%TD*%
D11*
%TO.P,R3,1*%
%TO.N,QSPI_SS*%
X153668000Y-62865000D03*
%TO.P,R3,2*%
%TO.N,Net-(JP1-Pad1)*%
X154688000Y-62865000D03*
%TD*%
D12*
%TO.P,R2,2*%
%TO.N,Net-(P1-PadB5)*%
X150493000Y-62992000D03*
%TO.P,R2,1*%
%TO.N,GND*%
X151513000Y-62992000D03*
%TD*%
D13*
%TO.P,R1,2*%
%TO.N,Net-(P1-PadA5)*%
X151765000Y-53850000D03*
%TO.P,R1,1*%
%TO.N,GND*%
X151765000Y-52830000D03*
%TD*%
D17*
%TO.P,D3,1,K*%
%TO.N,Net-(D3-Pad1)*%
X166014500Y-52451000D03*
%TO.P,D3,2,A*%
%TO.N,Net-(D3-Pad2)*%
X164439500Y-52451000D03*
%TD*%
D18*
%TO.P,C20,1*%
%TO.N,+BATT*%
X168656000Y-69751000D03*
%TO.P,C20,2*%
%TO.N,GND*%
X168656000Y-70711000D03*
%TD*%
%TO.P,C19,1*%
%TO.N,+BATT*%
X168783000Y-66322000D03*
%TO.P,C19,2*%
%TO.N,GND*%
X168783000Y-67282000D03*
%TD*%
%TO.P,C18,1*%
%TO.N,+BATT*%
X168656000Y-63020000D03*
%TO.P,C18,2*%
%TO.N,GND*%
X168656000Y-63980000D03*
%TD*%
D19*
%TO.P,C17,1*%
%TO.N,+3V3*%
X165890000Y-70256400D03*
%TO.P,C17,2*%
%TO.N,GND*%
X166850000Y-70256400D03*
%TD*%
D20*
%TO.P,C16,1*%
%TO.N,+3V3*%
X163675000Y-65405000D03*
%TO.P,C16,2*%
%TO.N,GND*%
X162715000Y-65405000D03*
%TD*%
%TO.P,C15,1*%
%TO.N,+3V3*%
X164056000Y-63500000D03*
%TO.P,C15,2*%
%TO.N,GND*%
X163096000Y-63500000D03*
%TD*%
%TO.P,C14,1*%
%TO.N,+3V3*%
X154150000Y-52578000D03*
%TO.P,C14,2*%
%TO.N,GND*%
X153190000Y-52578000D03*
%TD*%
D19*
%TO.P,C13,1*%
%TO.N,+3V3*%
X161826000Y-61722000D03*
%TO.P,C13,2*%
%TO.N,GND*%
X162786000Y-61722000D03*
%TD*%
%TO.P,C12,1*%
%TO.N,+3V3*%
X160810000Y-52324000D03*
%TO.P,C12,2*%
%TO.N,GND*%
X161770000Y-52324000D03*
%TD*%
D20*
%TO.P,C11,1*%
%TO.N,+3V3*%
X156690000Y-52324000D03*
%TO.P,C11,2*%
%TO.N,GND*%
X155730000Y-52324000D03*
%TD*%
D21*
%TO.P,C10,1*%
%TO.N,+3V3*%
X165354000Y-55090000D03*
%TO.P,C10,2*%
%TO.N,GND*%
X165354000Y-54130000D03*
%TD*%
D18*
%TO.P,C9,1*%
%TO.N,+3V3*%
X156210000Y-62385000D03*
%TO.P,C9,2*%
%TO.N,GND*%
X156210000Y-63345000D03*
%TD*%
D19*
%TO.P,C8,1*%
%TO.N,+3V3*%
X158075500Y-52324000D03*
%TO.P,C8,2*%
%TO.N,GND*%
X159035500Y-52324000D03*
%TD*%
D20*
%TO.P,C7,1*%
%TO.N,+1V1*%
X154150000Y-56642000D03*
%TO.P,C7,2*%
%TO.N,GND*%
X153190000Y-56642000D03*
%TD*%
D21*
%TO.P,C6,1*%
%TO.N,+1V1*%
X164084000Y-55344000D03*
%TO.P,C6,2*%
%TO.N,GND*%
X164084000Y-54384000D03*
%TD*%
D20*
%TO.P,C5,1*%
%TO.N,+1V1*%
X153896000Y-53848000D03*
%TO.P,C5,2*%
%TO.N,GND*%
X152936000Y-53848000D03*
%TD*%
D19*
%TO.P,C4,1*%
%TO.N,Net-(C4-Pad1)*%
X166652000Y-55372000D03*
%TO.P,C4,2*%
%TO.N,GND*%
X167612000Y-55372000D03*
%TD*%
D18*
%TO.P,C3,1*%
%TO.N,Net-(C3-Pad1)*%
X164084000Y-60226000D03*
%TO.P,C3,2*%
%TO.N,GND*%
X164084000Y-61186000D03*
%TD*%
D22*
%TO.P,C2,1*%
%TO.N,+3V3*%
X155448000Y-65773000D03*
%TO.P,C2,2*%
%TO.N,GND*%
X155448000Y-67323000D03*
%TD*%
D23*
%TO.P,C1,2*%
%TO.N,GND*%
X149225000Y-65773000D03*
%TO.P,C1,1*%
%TO.N,Net-(C1-Pad1)*%
X149225000Y-67323000D03*
%TD*%
D10*
%TO.P,D2,1,K*%
%TO.N,Net-(C1-Pad1)*%
X152942000Y-68326000D03*
%TO.P,D2,2,A*%
%TO.N,+BATT*%
X150842000Y-68326000D03*
%TD*%
D24*
%TO.P,U6,1,VM*%
%TO.N,+BATT*%
X167320000Y-69095000D03*
%TO.P,U6,2,OUT1*%
%TO.N,/M3+*%
X167320000Y-68595000D03*
%TO.P,U6,3,OUT2*%
%TO.N,/M3-*%
X167320000Y-68095000D03*
%TO.P,U6,4,GND*%
%TO.N,GND*%
X167320000Y-67595000D03*
%TO.P,U6,5,IN2*%
%TO.N,/M3B*%
X165420000Y-67595000D03*
%TO.P,U6,6,IN1*%
%TO.N,/M3A*%
X165420000Y-68095000D03*
%TO.P,U6,7,~{SLEEP}*%
%TO.N,+3V3*%
X165420000Y-68595000D03*
%TO.P,U6,8,VCC*%
X165420000Y-69095000D03*
D25*
%TO.P,U6,9,GND*%
%TO.N,GND*%
X166370000Y-68345000D03*
%TD*%
D24*
%TO.P,U4,1,VM*%
%TO.N,+BATT*%
X167320000Y-62980000D03*
%TO.P,U4,2,OUT1*%
%TO.N,/M1+*%
X167320000Y-62480000D03*
%TO.P,U4,3,OUT2*%
%TO.N,/M1-*%
X167320000Y-61980000D03*
%TO.P,U4,4,GND*%
%TO.N,GND*%
X167320000Y-61480000D03*
%TO.P,U4,5,IN2*%
%TO.N,/M1B*%
X165420000Y-61480000D03*
%TO.P,U4,6,IN1*%
%TO.N,/M1A*%
X165420000Y-61980000D03*
%TO.P,U4,7,~{SLEEP}*%
%TO.N,+3V3*%
X165420000Y-62480000D03*
%TO.P,U4,8,VCC*%
X165420000Y-62980000D03*
D25*
%TO.P,U4,9,GND*%
%TO.N,GND*%
X166370000Y-62230000D03*
%TD*%
D26*
%TO.P,Y1,1,1*%
%TO.N,Net-(C3-Pad1)*%
X167474000Y-59266000D03*
%TO.P,Y1,2,2*%
%TO.N,GND*%
X167474000Y-57066000D03*
%TO.P,Y1,3,3*%
%TO.N,Net-(C4-Pad1)*%
X165774000Y-57066000D03*
%TO.P,Y1,4*%
%TO.N,N/C*%
X165774000Y-59266000D03*
%TD*%
D24*
%TO.P,U5,1,VM*%
%TO.N,+BATT*%
X167320000Y-66155000D03*
%TO.P,U5,2,OUT1*%
%TO.N,/M2+*%
X167320000Y-65655000D03*
%TO.P,U5,3,OUT2*%
%TO.N,/M2-*%
X167320000Y-65155000D03*
%TO.P,U5,4,GND*%
%TO.N,GND*%
X167320000Y-64655000D03*
%TO.P,U5,5,IN2*%
%TO.N,/M2B*%
X165420000Y-64655000D03*
%TO.P,U5,6,IN1*%
%TO.N,/M2A*%
X165420000Y-65155000D03*
%TO.P,U5,7,~{SLEEP}*%
%TO.N,+3V3*%
X165420000Y-65655000D03*
%TO.P,U5,8,VCC*%
X165420000Y-66155000D03*
D25*
%TO.P,U5,9,GND*%
%TO.N,GND*%
X166370000Y-65405000D03*
%TD*%
D27*
%TO.P,P1,A1,GND*%
%TO.N,GND*%
X149830000Y-53950000D03*
%TO.P,P1,A4,VBUS*%
%TO.N,/VBUS*%
X149830000Y-54750000D03*
D28*
%TO.P,P1,A5,CC*%
%TO.N,Net-(P1-PadA5)*%
X149830000Y-55900000D03*
%TO.P,P1,A6,D+*%
%TO.N,USB_DP*%
X149830000Y-56900000D03*
%TO.P,P1,A7,D-*%
%TO.N,USB_DM*%
X149830000Y-57400000D03*
%TO.P,P1,A8*%
%TO.N,N/C*%
X149830000Y-58400000D03*
D27*
%TO.P,P1,A9,VBUS*%
%TO.N,/VBUS*%
X149830000Y-59550000D03*
%TO.P,P1,A12,GND*%
%TO.N,GND*%
X149830000Y-60350000D03*
%TO.P,P1,B1,GND*%
X149830000Y-60350000D03*
%TO.P,P1,B4,VBUS*%
%TO.N,/VBUS*%
X149830000Y-59550000D03*
D28*
%TO.P,P1,B5,VCONN*%
%TO.N,Net-(P1-PadB5)*%
X149830000Y-58900000D03*
%TO.P,P1,B6*%
%TO.N,N/C*%
X149830000Y-57900000D03*
%TO.P,P1,B7*%
X149830000Y-56400000D03*
%TO.P,P1,B8*%
X149830000Y-55400000D03*
D27*
%TO.P,P1,B9,VBUS*%
%TO.N,/VBUS*%
X149830000Y-54750000D03*
%TO.P,P1,B12,GND*%
%TO.N,GND*%
X149830000Y-53950000D03*
D29*
%TO.P,P1,S1,SHIELD*%
X149250000Y-52830000D03*
D30*
X145080000Y-52830000D03*
D29*
X149250000Y-61470000D03*
D30*
X145080000Y-61470000D03*
%TD*%
D31*
%TO.P,U3,1,IOVDD*%
%TO.N,+3V3*%
X156658000Y-60460500D03*
%TO.P,U3,2,GPIO0*%
%TO.N,/IBUS*%
X157058000Y-60460500D03*
%TO.P,U3,3,GPIO1*%
%TO.N,Net-(R7-Pad2)*%
X157458000Y-60460500D03*
%TO.P,U3,4,GPIO2*%
%TO.N,/M3A*%
X157858000Y-60460500D03*
%TO.P,U3,5,GPIO3*%
%TO.N,/M3B*%
X158258000Y-60460500D03*
%TO.P,U3,6,GPIO4*%
%TO.N,/M2A*%
X158658000Y-60460500D03*
%TO.P,U3,7,GPIO5*%
%TO.N,/M2B*%
X159058000Y-60460500D03*
%TO.P,U3,8,GPIO6*%
%TO.N,/M1A*%
X159458000Y-60460500D03*
%TO.P,U3,9,GPIO7*%
%TO.N,/M1B*%
X159858000Y-60460500D03*
%TO.P,U3,10,IOVDD*%
%TO.N,+3V3*%
X160258000Y-60460500D03*
%TO.P,U3,11,GPIO8*%
%TO.N,unconnected-(U3-Pad11)*%
X160658000Y-60460500D03*
%TO.P,U3,12,GPIO9*%
%TO.N,unconnected-(U3-Pad12)*%
X161058000Y-60460500D03*
%TO.P,U3,13,GPIO10*%
%TO.N,unconnected-(U3-Pad13)*%
X161458000Y-60460500D03*
%TO.P,U3,14,GPIO11*%
%TO.N,/IO_2*%
X161858000Y-60460500D03*
D32*
%TO.P,U3,15,GPIO12*%
%TO.N,/IO_1*%
X162695500Y-59623000D03*
%TO.P,U3,16,GPIO13*%
%TO.N,unconnected-(U3-Pad16)*%
X162695500Y-59223000D03*
%TO.P,U3,17,GPIO14*%
%TO.N,unconnected-(U3-Pad17)*%
X162695500Y-58823000D03*
%TO.P,U3,18,GPIO15*%
%TO.N,unconnected-(U3-Pad18)*%
X162695500Y-58423000D03*
%TO.P,U3,19,TESTEN*%
%TO.N,GND*%
X162695500Y-58023000D03*
%TO.P,U3,20,XIN*%
%TO.N,Net-(C3-Pad1)*%
X162695500Y-57623000D03*
%TO.P,U3,21,XOUT*%
%TO.N,Net-(R4-Pad1)*%
X162695500Y-57223000D03*
%TO.P,U3,22,IOVDD*%
%TO.N,+3V3*%
X162695500Y-56823000D03*
%TO.P,U3,23,DVDD*%
%TO.N,+1V1*%
X162695500Y-56423000D03*
%TO.P,U3,24,SWCLK*%
%TO.N,unconnected-(U3-Pad24)*%
X162695500Y-56023000D03*
%TO.P,U3,25,SWD*%
%TO.N,unconnected-(U3-Pad25)*%
X162695500Y-55623000D03*
%TO.P,U3,26,RUN*%
%TO.N,unconnected-(U3-Pad26)*%
X162695500Y-55223000D03*
%TO.P,U3,27,GPIO16*%
%TO.N,unconnected-(U3-Pad27)*%
X162695500Y-54823000D03*
%TO.P,U3,28,GPIO17*%
%TO.N,Net-(D3-Pad2)*%
X162695500Y-54423000D03*
D31*
%TO.P,U3,29,GPIO18*%
%TO.N,unconnected-(U3-Pad29)*%
X161858000Y-53585500D03*
%TO.P,U3,30,GPIO19*%
%TO.N,unconnected-(U3-Pad30)*%
X161458000Y-53585500D03*
%TO.P,U3,31,GPIO20*%
%TO.N,unconnected-(U3-Pad31)*%
X161058000Y-53585500D03*
%TO.P,U3,32,GPIO21*%
%TO.N,unconnected-(U3-Pad32)*%
X160658000Y-53585500D03*
%TO.P,U3,33,IOVDD*%
%TO.N,+3V3*%
X160258000Y-53585500D03*
%TO.P,U3,34,GPIO22*%
%TO.N,unconnected-(U3-Pad34)*%
X159858000Y-53585500D03*
%TO.P,U3,35,GPIO23*%
%TO.N,unconnected-(U3-Pad35)*%
X159458000Y-53585500D03*
%TO.P,U3,36,GPIO24*%
%TO.N,unconnected-(U3-Pad36)*%
X159058000Y-53585500D03*
%TO.P,U3,37,GPIO25*%
%TO.N,unconnected-(U3-Pad37)*%
X158658000Y-53585500D03*
%TO.P,U3,38,GPIO26_ADC0*%
%TO.N,unconnected-(U3-Pad38)*%
X158258000Y-53585500D03*
%TO.P,U3,39,GPIO27_ADC1*%
%TO.N,Net-(U3-Pad39)*%
X157858000Y-53585500D03*
%TO.P,U3,40,GPIO28_ADC2*%
%TO.N,Net-(U3-Pad40)*%
X157458000Y-53585500D03*
%TO.P,U3,41,GPIO29_ADC3*%
%TO.N,unconnected-(U3-Pad41)*%
X157058000Y-53585500D03*
%TO.P,U3,42,IOVDD*%
%TO.N,+3V3*%
X156658000Y-53585500D03*
D32*
%TO.P,U3,43,ADC_AVDD*%
X155820500Y-54423000D03*
%TO.P,U3,44,VREG_IN*%
X155820500Y-54823000D03*
%TO.P,U3,45,VREG_VOUT*%
%TO.N,+1V1*%
X155820500Y-55223000D03*
%TO.P,U3,46,USB_DM*%
%TO.N,Net-(R6-Pad2)*%
X155820500Y-55623000D03*
%TO.P,U3,47,USB_DP*%
%TO.N,Net-(R5-Pad2)*%
X155820500Y-56023000D03*
%TO.P,U3,48,USB_VDD*%
%TO.N,+3V3*%
X155820500Y-56423000D03*
%TO.P,U3,49,IOVDD*%
X155820500Y-56823000D03*
%TO.P,U3,50,DVDD*%
%TO.N,+1V1*%
X155820500Y-57223000D03*
%TO.P,U3,51,QSPI_SD3*%
%TO.N,QSPI_D3*%
X155820500Y-57623000D03*
%TO.P,U3,52,QSPI_SCLK*%
%TO.N,QSPI_SCLK*%
X155820500Y-58023000D03*
%TO.P,U3,53,QSPI_SD0*%
%TO.N,QSPI_D0*%
X155820500Y-58423000D03*
%TO.P,U3,54,QSPI_SD2*%
%TO.N,QSPI_D2*%
X155820500Y-58823000D03*
%TO.P,U3,55,QSPI_SD1*%
%TO.N,QSPI_D1*%
X155820500Y-59223000D03*
%TO.P,U3,56,QSPI_SS*%
%TO.N,QSPI_SS*%
X155820500Y-59623000D03*
D33*
%TO.P,U3,57,GND*%
%TO.N,GND*%
X160533000Y-58298000D03*
X159258000Y-55748000D03*
X157983000Y-58298000D03*
X157983000Y-57023000D03*
D34*
X159258000Y-57023000D03*
D33*
X157983000Y-55748000D03*
X159258000Y-58298000D03*
X160533000Y-55748000D03*
X159258000Y-57023000D03*
X160533000Y-57023000D03*
%TD*%
D35*
%TO.P,J2,MP*%
%TO.N,N/C*%
X173285000Y-59795000D03*
X173285000Y-63395000D03*
D36*
%TO.P,J2,2,Pin_2*%
%TO.N,/M2+*%
X170760000Y-62095000D03*
%TO.P,J2,1,Pin_1*%
%TO.N,/M2-*%
X170760000Y-61095000D03*
%TD*%
D37*
%TO.P,U2,1,GND*%
%TO.N,GND*%
X153337500Y-66355000D03*
%TO.P,U2,2,VO*%
%TO.N,+3V3*%
X153337500Y-64455000D03*
%TO.P,U2,3,VI*%
%TO.N,Net-(C1-Pad1)*%
X151462500Y-65405000D03*
%TD*%
D38*
%TO.P,J4,MP*%
%TO.N,N/C*%
X144215000Y-65645000D03*
X144215000Y-70245000D03*
D39*
%TO.P,J4,3,Pin_3*%
%TO.N,/IBUS*%
X146740000Y-66945000D03*
%TO.P,J4,2,Pin_2*%
%TO.N,GND*%
X146740000Y-67945000D03*
%TO.P,J4,1,Pin_1*%
%TO.N,+3V3*%
X146740000Y-68945000D03*
%TD*%
D36*
%TO.P,J3,1,Pin_1*%
%TO.N,/M3-*%
X170760000Y-67945000D03*
%TO.P,J3,2,Pin_2*%
%TO.N,/M3+*%
X170760000Y-68945000D03*
D35*
%TO.P,J3,MP*%
%TO.N,N/C*%
X173285000Y-70245000D03*
X173285000Y-66645000D03*
%TD*%
%TO.P,J1,MP*%
%TO.N,N/C*%
X173285000Y-56545000D03*
X173285000Y-52945000D03*
D36*
%TO.P,J1,2,Pin_2*%
%TO.N,/M1+*%
X170760000Y-55245000D03*
%TO.P,J1,1,Pin_1*%
%TO.N,/M1-*%
X170760000Y-54245000D03*
%TD*%
D40*
%TO.N,+3V3*%
X164559447Y-66060553D03*
X164458003Y-68595426D03*
X151736108Y-61619111D03*
%TO.N,+BATT*%
X168275000Y-69215000D03*
X167640000Y-66675000D03*
%TO.N,Net-(U3-Pad39)*%
X158305500Y-54800500D03*
%TO.N,Net-(U3-Pad40)*%
X157571500Y-54991000D03*
%TO.N,GND*%
X164338000Y-59309000D03*
%TO.N,/IO_1*%
X163195000Y-60325000D03*
%TO.N,/IO_2*%
X162560000Y-60960000D03*
%TO.N,GND*%
X167005000Y-57848500D03*
%TO.N,+1V1*%
X161839500Y-56261000D03*
%TO.N,Net-(U3-Pad39)*%
X160020000Y-65405000D03*
%TO.N,+BATT*%
X160655000Y-69850000D03*
%TO.N,Net-(U3-Pad40)*%
X146685000Y-62865000D03*
%TO.N,GND*%
X153797000Y-67437000D03*
X149098000Y-69342000D03*
X154559000Y-69342000D03*
X155956000Y-64262000D03*
X157099000Y-65151000D03*
%TO.N,+3V3*%
X151511000Y-58674000D03*
%TO.N,GND*%
X151638000Y-60071000D03*
X162560000Y-63500000D03*
X170180000Y-71120000D03*
X167005000Y-52705000D03*
X167640000Y-54610000D03*
X165100000Y-53340000D03*
X162560000Y-52070000D03*
X163195000Y-52705000D03*
X160020000Y-52070000D03*
X155575000Y-53340000D03*
X154940000Y-52070000D03*
X150495000Y-52070000D03*
X151765000Y-64135000D03*
X153670000Y-65405000D03*
X150495000Y-66040000D03*
X147955000Y-66040000D03*
X146050000Y-71120000D03*
X156845000Y-71120000D03*
X158750000Y-64770000D03*
X162560000Y-67945000D03*
X164465000Y-71120000D03*
X167640000Y-71120000D03*
X166370000Y-67310000D03*
X166370000Y-66675000D03*
X166370000Y-63500000D03*
X166370000Y-64135000D03*
X161925000Y-65405000D03*
X152273000Y-52070000D03*
X150876000Y-53340000D03*
X152527000Y-57277000D03*
X163830000Y-61722000D03*
X161747212Y-59486808D03*
%TO.N,Net-(JP1-Pad1)*%
X154477500Y-63306214D03*
%TO.N,+1V1*%
X154813000Y-56642000D03*
X154813000Y-54677500D03*
%TO.N,+3V3*%
X156972000Y-67564000D03*
%TO.N,+BATT*%
X149352000Y-68580000D03*
X148336000Y-68580000D03*
%TO.N,+3V3*%
X165000000Y-63400000D03*
%TO.N,+BATT*%
X167640000Y-63500000D03*
%TO.N,USB_DM*%
X151481669Y-57869466D03*
X151892000Y-54864000D03*
%TD*%
D41*
%TO.N,+3V3*%
X165420000Y-66155000D02*
X165420000Y-65655000D01*
D42*
X164965000Y-65655000D02*
X164559447Y-66060553D01*
X165420000Y-65655000D02*
X164965000Y-65655000D01*
D41*
X156658000Y-54188006D02*
X156658000Y-53585500D01*
D42*
X156892994Y-54423000D02*
X156658000Y-54188006D01*
X156972000Y-54502006D02*
X156892994Y-54423000D01*
X156972000Y-54864000D02*
X156972000Y-54502006D01*
D43*
X152400000Y-62286172D02*
X151734523Y-61620695D01*
D41*
%TO.N,Net-(JP1-Pad1)*%
X154688000Y-63095714D02*
X154688000Y-62865000D01*
X154477500Y-63306214D02*
X154688000Y-63095714D01*
D42*
%TO.N,/M3-*%
X167320000Y-68095000D02*
X170610000Y-68095000D01*
D43*
%TO.N,+BATT*%
X167854520Y-66254520D02*
X167854520Y-66460480D01*
X167854520Y-66254520D02*
X167320000Y-66254520D01*
X167854520Y-66460480D02*
X167640000Y-66675000D01*
X168762980Y-66254520D02*
X167854520Y-66254520D01*
D42*
X167640000Y-66675000D02*
X167640000Y-66475000D01*
D41*
%TO.N,GND*%
X167474000Y-57379500D02*
X167474000Y-57066000D01*
X167005000Y-57848500D02*
X167474000Y-57379500D01*
%TO.N,+1V1*%
X163414480Y-56422520D02*
X163619225Y-56217775D01*
X162001020Y-56422520D02*
X163414480Y-56422520D01*
X161839500Y-56261000D02*
X162001020Y-56422520D01*
%TO.N,Net-(U3-Pad39)*%
X157858000Y-53585500D02*
X157858000Y-54353000D01*
X157858000Y-54353000D02*
X158305500Y-54800500D01*
%TO.N,Net-(U3-Pad40)*%
X157458000Y-54877500D02*
X157458000Y-53585500D01*
X157571500Y-54991000D02*
X157458000Y-54877500D01*
%TO.N,+3V3*%
X161344000Y-56823000D02*
X161290000Y-56769000D01*
X162695500Y-56823000D02*
X161344000Y-56823000D01*
X161290000Y-56769000D02*
X161290000Y-55372000D01*
X161290000Y-57150000D02*
X161290000Y-56769000D01*
X160290000Y-54372000D02*
X160258000Y-54372000D01*
X161290000Y-55372000D02*
X160290000Y-54372000D01*
X160258000Y-53585500D02*
X160258000Y-54372000D01*
%TO.N,+1V1*%
X163576000Y-56134000D02*
X163287000Y-56423000D01*
X163227295Y-56423000D02*
X162695500Y-56423000D01*
%TO.N,/IO_1*%
X162695500Y-59825500D02*
X163195000Y-60325000D01*
X162695500Y-59623000D02*
X162695500Y-59825500D01*
%TO.N,GND*%
X162786000Y-61722000D02*
X163830000Y-61722000D01*
X163830000Y-61722000D02*
X164084000Y-61468000D01*
X164084000Y-61468000D02*
X164084000Y-61186000D01*
X162715000Y-65405000D02*
X161925000Y-65405000D01*
%TO.N,/IO_2*%
X162560000Y-60960000D02*
X162357500Y-60960000D01*
X162357500Y-60960000D02*
X161858000Y-60460500D01*
%TO.N,Net-(U3-Pad40)*%
X146560000Y-62990000D02*
X145415000Y-62990000D01*
X146685000Y-62865000D02*
X146560000Y-62990000D01*
%TO.N,USB_DM*%
X151481669Y-57869466D02*
X151012203Y-57400000D01*
X151012203Y-57400000D02*
X149830000Y-57400000D01*
%TO.N,GND*%
X143766000Y-64010000D02*
X143383000Y-63627000D01*
X144145000Y-64010000D02*
X143766000Y-64010000D01*
%TO.N,Net-(U3-Pad39)*%
X158875000Y-66550000D02*
X160020000Y-65405000D01*
X158875000Y-68580000D02*
X158875000Y-66550000D01*
X158875000Y-69723000D02*
X158875000Y-68580000D01*
%TO.N,+BATT*%
X160022000Y-69850000D02*
X159895000Y-69723000D01*
X160655000Y-69850000D02*
X160022000Y-69850000D01*
%TO.N,Net-(U3-Pad40)*%
X144145000Y-62990000D02*
X145415000Y-62990000D01*
%TO.N,/VBUS*%
X146776000Y-64010000D02*
X147286000Y-63500000D01*
X145415000Y-64010000D02*
X146776000Y-64010000D01*
D42*
%TO.N,+3V3*%
X151683489Y-58501511D02*
X151511000Y-58674000D01*
D41*
%TO.N,GND*%
X153543000Y-60071000D02*
X151638000Y-60071000D01*
X153670000Y-60198000D02*
X153543000Y-60071000D01*
X164084000Y-54384000D02*
X165100000Y-54384000D01*
X165100000Y-54384000D02*
X165354000Y-54130000D01*
X165354000Y-53594000D02*
X165100000Y-53340000D01*
X165354000Y-54130000D02*
X165354000Y-53594000D01*
X159766000Y-52324000D02*
X160020000Y-52070000D01*
%TO.N,/M3A*%
X157858000Y-61993536D02*
X157858000Y-60460500D01*
X161617386Y-66439519D02*
X160890481Y-65712614D01*
X160890481Y-65026017D02*
X157858000Y-61993536D01*
X164065480Y-66910480D02*
X163594520Y-66439520D01*
X164065480Y-67475486D02*
X164065480Y-66910480D01*
X163594520Y-66439520D02*
X161617386Y-66439519D01*
X164684994Y-68095000D02*
X164065480Y-67475486D01*
X160890481Y-65712614D02*
X160890481Y-65026017D01*
X165420000Y-68095000D02*
X164684994Y-68095000D01*
%TO.N,/M3B*%
X158258000Y-61828530D02*
X158258000Y-60460500D01*
X161290000Y-64860530D02*
X158258000Y-61828530D01*
X163761782Y-66040000D02*
X161782873Y-66040000D01*
X164465000Y-67310000D02*
X164465000Y-66743218D01*
X164465000Y-66743218D02*
X163761782Y-66040000D01*
X164750000Y-67595000D02*
X164465000Y-67310000D01*
X161782873Y-66040000D02*
X161290000Y-65547127D01*
X161290000Y-65547127D02*
X161290000Y-64860530D01*
X165420000Y-67595000D02*
X164750000Y-67595000D01*
D42*
%TO.N,GND*%
X151386000Y-52830000D02*
X150876000Y-53340000D01*
X151765000Y-52830000D02*
X151386000Y-52830000D01*
X150266000Y-53950000D02*
X150876000Y-53340000D01*
X149830000Y-53950000D02*
X150266000Y-53950000D01*
D41*
X153162000Y-56642000D02*
X152527000Y-57277000D01*
X153190000Y-56642000D02*
X153162000Y-56642000D01*
X161798000Y-59436020D02*
X161747212Y-59486808D01*
X161798000Y-58388705D02*
X161798000Y-59436020D01*
X162163705Y-58023000D02*
X161798000Y-58388705D01*
X162695500Y-58023000D02*
X162163705Y-58023000D01*
D43*
%TO.N,Net-(C1-Pad1)*%
X149557500Y-63500000D02*
X150065500Y-64008000D01*
X149386000Y-63500000D02*
X149557500Y-63500000D01*
D42*
%TO.N,/VBUS*%
X147286000Y-60359000D02*
X147286000Y-63500000D01*
X147286000Y-60359000D02*
X148590000Y-59055000D01*
D41*
%TO.N,+1V1*%
X154813000Y-56642000D02*
X154622500Y-56832500D01*
X154622500Y-56832500D02*
X154432000Y-56642000D01*
X154940000Y-57150000D02*
X154622500Y-56832500D01*
X163830000Y-55880000D02*
X163576000Y-56134000D01*
D43*
%TO.N,Net-(C1-Pad1)*%
X151147000Y-67323000D02*
X149225000Y-67323000D01*
X151462500Y-67007500D02*
X151147000Y-67323000D01*
X151462500Y-67007500D02*
X151462500Y-65405000D01*
X152942000Y-68326000D02*
X152781000Y-68326000D01*
X152781000Y-68326000D02*
X151462500Y-67007500D01*
%TO.N,+BATT*%
X150588000Y-68580000D02*
X150842000Y-68326000D01*
X149352000Y-68580000D02*
X150588000Y-68580000D01*
%TO.N,Net-(C1-Pad1)*%
X150065500Y-64008000D02*
X151462500Y-65405000D01*
%TO.N,+3V3*%
X156972000Y-66548000D02*
X156972000Y-67564000D01*
X156972000Y-66548000D02*
X156197000Y-65773000D01*
X155448000Y-65773000D02*
X156197000Y-65773000D01*
X155448000Y-65773000D02*
X155448000Y-65283000D01*
X154620000Y-64455000D02*
X155448000Y-65283000D01*
X153337500Y-64455000D02*
X154620000Y-64455000D01*
X152400000Y-63517500D02*
X153337500Y-64455000D01*
X152400000Y-62286172D02*
X152400000Y-63517500D01*
D42*
X155550480Y-63524520D02*
X154620000Y-64455000D01*
D41*
%TO.N,Net-(P1-PadB5)*%
X150876000Y-62609000D02*
X150493000Y-62992000D01*
X150876000Y-59116978D02*
X150876000Y-62609000D01*
D43*
%TO.N,GND*%
X152938000Y-52830000D02*
X153190000Y-52578000D01*
X151765000Y-52830000D02*
X152938000Y-52830000D01*
X152936000Y-52832000D02*
X153190000Y-52578000D01*
X152936000Y-53848000D02*
X152936000Y-52832000D01*
D41*
%TO.N,/IBUS*%
X145780000Y-66945000D02*
X146740000Y-66945000D01*
X146812000Y-70612000D02*
X145415000Y-69215000D01*
X155956000Y-70612000D02*
X146812000Y-70612000D01*
X157734000Y-68834000D02*
X155956000Y-70612000D01*
X157734000Y-64314000D02*
X157734000Y-68834000D01*
X145415000Y-67310000D02*
X145780000Y-66945000D01*
X157058000Y-63638000D02*
X157734000Y-64314000D01*
X145415000Y-69215000D02*
X145415000Y-67310000D01*
X157058000Y-60460500D02*
X157058000Y-63638000D01*
D42*
%TO.N,+3V3*%
X156972000Y-68580000D02*
X156956574Y-68595426D01*
X156972000Y-68072000D02*
X156972000Y-68580000D01*
X155448000Y-70104000D02*
X154940000Y-70104000D01*
X156956574Y-68595426D02*
X155448000Y-70104000D01*
X156972000Y-68072000D02*
X156972000Y-67564000D01*
X147899000Y-70104000D02*
X154940000Y-70104000D01*
X146740000Y-68945000D02*
X147899000Y-70104000D01*
D43*
X155273000Y-65598000D02*
X155448000Y-65773000D01*
D42*
X155550480Y-63524520D02*
X155550480Y-62205480D01*
D43*
%TO.N,+BATT*%
X148844000Y-68580000D02*
X149352000Y-68580000D01*
X148336000Y-68580000D02*
X148844000Y-68580000D01*
D41*
%TO.N,/VBUS*%
X148590000Y-55626000D02*
X148590000Y-59055000D01*
X148590000Y-55626000D02*
X148590000Y-55245000D01*
X149629511Y-59349511D02*
X148884511Y-59349511D01*
X148884511Y-59349511D02*
X148590000Y-59055000D01*
%TO.N,Net-(P1-PadB5)*%
X150659022Y-58900000D02*
X150876000Y-59116978D01*
X149830000Y-58900000D02*
X150659022Y-58900000D01*
X150340000Y-58900000D02*
X150390489Y-58950489D01*
X149830000Y-58900000D02*
X150340000Y-58900000D01*
D42*
%TO.N,+3V3*%
X151822000Y-58363000D02*
X151683489Y-58501511D01*
X152158000Y-58363000D02*
X151822000Y-58363000D01*
D41*
%TO.N,Net-(P1-PadA5)*%
X151130000Y-55429022D02*
X151130000Y-54572500D01*
X151130000Y-54572500D02*
X151765000Y-53937500D01*
X150659022Y-55900000D02*
X151130000Y-55429022D01*
X149830000Y-55900000D02*
X150659022Y-55900000D01*
%TO.N,+1V1*%
X154813000Y-54677500D02*
X153983500Y-53848000D01*
X154813000Y-54991000D02*
X154813000Y-54677500D01*
X154432000Y-56642000D02*
X153983500Y-56642000D01*
X154940000Y-57150000D02*
X155013000Y-57223000D01*
X155013000Y-57223000D02*
X155820500Y-57223000D01*
%TO.N,/VBUS*%
X148884511Y-54950489D02*
X149629511Y-54950489D01*
X148590000Y-55245000D02*
X148884511Y-54950489D01*
X149629511Y-54950489D02*
X149830000Y-54750000D01*
X149830000Y-59550000D02*
X149629511Y-59349511D01*
D42*
%TO.N,+3V3*%
X156972000Y-59182000D02*
X156972000Y-56896000D01*
X164714282Y-65790718D02*
X164465000Y-66040000D01*
X156972000Y-56896000D02*
X156972000Y-56388000D01*
X156608480Y-59907514D02*
X156608480Y-60460500D01*
X165420000Y-69095000D02*
X165420000Y-69873900D01*
D41*
X160258000Y-52788500D02*
X160722500Y-52324000D01*
D42*
X165420000Y-68595000D02*
X165420000Y-69095000D01*
D41*
X160258000Y-59452000D02*
X160274000Y-59436000D01*
D42*
X164143500Y-63500000D02*
X164900000Y-63500000D01*
D41*
X160258000Y-53585500D02*
X160258000Y-52788500D01*
D42*
X165000000Y-63400000D02*
X165420000Y-62980000D01*
D41*
X156899000Y-56823000D02*
X156972000Y-56896000D01*
X155820500Y-56423000D02*
X156937000Y-56423000D01*
D42*
X156972000Y-56388000D02*
X156972000Y-54864000D01*
D41*
X161036000Y-59436000D02*
X161290000Y-59182000D01*
D42*
X155550480Y-62205480D02*
X155642500Y-62297500D01*
D41*
X160258000Y-61003500D02*
X160976500Y-61722000D01*
D42*
X164715000Y-65655000D02*
X164012500Y-65655000D01*
X165420000Y-69557423D02*
X164458003Y-68595426D01*
D41*
X154237500Y-52891500D02*
X155769000Y-54423000D01*
X162695500Y-56823000D02*
X163822141Y-56823000D01*
D42*
X165420000Y-62480000D02*
X165420000Y-62980000D01*
X160274000Y-59436000D02*
X157226000Y-59436000D01*
D41*
X156658000Y-52443500D02*
X156777500Y-52324000D01*
D42*
X156608480Y-52493020D02*
X156777500Y-52324000D01*
X164900000Y-63500000D02*
X165000000Y-63400000D01*
D41*
X160258000Y-60460500D02*
X160258000Y-59452000D01*
D42*
X157988000Y-52324000D02*
X156777500Y-52324000D01*
D41*
X165354000Y-55291141D02*
X165354000Y-55177500D01*
D42*
X164501947Y-66003053D02*
X164714282Y-65790718D01*
X165420000Y-65655000D02*
X164715000Y-65655000D01*
D41*
X160258000Y-60460500D02*
X160258000Y-61003500D01*
D42*
X155550480Y-62205480D02*
X155550480Y-60965514D01*
X156608480Y-54138486D02*
X156608480Y-52493020D01*
X155820500Y-54423000D02*
X156892994Y-54423000D01*
D41*
X154237500Y-52578000D02*
X154237500Y-52891500D01*
D42*
X157099000Y-59416994D02*
X156608480Y-59907514D01*
D41*
X163822141Y-56823000D02*
X165354000Y-55291141D01*
X161290000Y-59182000D02*
X161290000Y-57150000D01*
X155769000Y-54423000D02*
X155820500Y-54423000D01*
X161738500Y-61722000D02*
X160976500Y-61722000D01*
D42*
X164714282Y-65655000D02*
X164714282Y-65790718D01*
D41*
X155820500Y-56823000D02*
X156899000Y-56823000D01*
D42*
X155820500Y-54423000D02*
X155820500Y-54773480D01*
X165420000Y-69873900D02*
X165420000Y-69557423D01*
D41*
X160274000Y-59436000D02*
X161036000Y-59436000D01*
D42*
X157099000Y-59309000D02*
X156972000Y-59182000D01*
X155550480Y-60965514D02*
X156608480Y-59907514D01*
D41*
X156937000Y-56423000D02*
X156972000Y-56388000D01*
D42*
X155642500Y-62297500D02*
X156210000Y-62297500D01*
X157099000Y-59309000D02*
X157099000Y-59416994D01*
X157226000Y-59436000D02*
X157099000Y-59309000D01*
X165420000Y-69873900D02*
X165802500Y-70256400D01*
X164012500Y-65655000D02*
X163762500Y-65405000D01*
X164714282Y-65655000D02*
X164715000Y-65655000D01*
%TO.N,GND*%
X166745978Y-67595000D02*
X166370000Y-67970978D01*
D41*
X153658000Y-60210000D02*
X153670000Y-60198000D01*
D42*
X164846000Y-60960000D02*
X166624000Y-60960000D01*
X166890000Y-61480000D02*
X166370000Y-62000000D01*
X167320000Y-64655000D02*
X166903489Y-64655000D01*
X167545500Y-67369500D02*
X167320000Y-67595000D01*
X166370000Y-67970978D02*
X166370000Y-68345000D01*
X166370000Y-65405000D02*
X166370000Y-65188489D01*
X165100000Y-54296500D02*
X165354000Y-54042500D01*
X166116000Y-61976000D02*
X166370000Y-62230000D01*
X164846000Y-60960000D02*
X164397500Y-60960000D01*
X167320000Y-67595000D02*
X166745978Y-67595000D01*
X166116000Y-60960000D02*
X166370000Y-61214000D01*
X167907500Y-64067500D02*
X167320000Y-64655000D01*
X168783000Y-67369500D02*
X167545500Y-67369500D01*
X166370000Y-61468000D02*
X166370000Y-61214000D01*
X166370000Y-65188489D02*
X166903489Y-64655000D01*
X166370000Y-61976000D02*
X166370000Y-62230000D01*
X168656000Y-64067500D02*
X167907500Y-64067500D01*
X166370000Y-62000000D02*
X166370000Y-62230000D01*
X164397500Y-60960000D02*
X164084000Y-61273500D01*
X166624000Y-61976000D02*
X166370000Y-62230000D01*
X166624000Y-60960000D02*
X166624000Y-61976000D01*
D41*
X159123000Y-52324000D02*
X159766000Y-52324000D01*
D42*
X166116000Y-60960000D02*
X166116000Y-61976000D01*
X167320000Y-61480000D02*
X166890000Y-61480000D01*
D41*
X153658000Y-60763000D02*
X153658000Y-60210000D01*
D42*
%TO.N,/M1+*%
X169545000Y-60888572D02*
X167953572Y-62480000D01*
X169545000Y-55880000D02*
X169545000Y-60888572D01*
X167953572Y-62480000D02*
X167320000Y-62480000D01*
X170760000Y-55245000D02*
X170180000Y-55245000D01*
X170180000Y-55245000D02*
X169545000Y-55880000D01*
%TO.N,/M1-*%
X168910000Y-55245000D02*
X169910000Y-54245000D01*
X169910000Y-54245000D02*
X170760000Y-54245000D01*
X167320480Y-61980480D02*
X167746664Y-61980480D01*
X167746664Y-61980480D02*
X168910000Y-60817144D01*
X168910000Y-60817144D02*
X168910000Y-55245000D01*
X167320000Y-61980000D02*
X167320480Y-61980480D01*
%TO.N,/M2+*%
X168100450Y-65655000D02*
X168350450Y-65405000D01*
X168783000Y-65405000D02*
X169362429Y-65404999D01*
X168350450Y-65405000D02*
X168783000Y-65405000D01*
X169926000Y-64841427D02*
X169926000Y-62929000D01*
X167390000Y-65655000D02*
X168100450Y-65655000D01*
X169926000Y-62929000D02*
X170760000Y-62095000D01*
X169362429Y-65404999D02*
X169926000Y-64841427D01*
X167320000Y-65655000D02*
X168100449Y-65655000D01*
%TO.N,/M2-*%
X168017000Y-64905480D02*
X169155520Y-64905480D01*
X169426480Y-61713520D02*
X170045000Y-61095000D01*
X169155520Y-64905480D02*
X169426480Y-64634520D01*
X170045000Y-61095000D02*
X170760000Y-61095000D01*
X169426480Y-64634520D02*
X169426480Y-61713520D01*
X167320480Y-65155480D02*
X167767000Y-65155480D01*
X167767000Y-65155480D02*
X168017000Y-64905480D01*
X167320000Y-65155000D02*
X167320480Y-65155480D01*
%TO.N,/M3+*%
X167320000Y-68595000D02*
X168925000Y-68595000D01*
X168925000Y-68595000D02*
X169275000Y-68945000D01*
X170760000Y-68945000D02*
X169275000Y-68945000D01*
%TO.N,/M3-*%
X170610000Y-68095000D02*
X170760000Y-67945000D01*
%TO.N,+BATT*%
X167320000Y-62980000D02*
X168608500Y-62980000D01*
X168608500Y-62980000D02*
X168656000Y-62932500D01*
D43*
X168421560Y-63079520D02*
X167525000Y-63079520D01*
X167640000Y-63500000D02*
X167320000Y-63180000D01*
X168656000Y-69663500D02*
X168187020Y-69194520D01*
X168187020Y-69194520D02*
X167320000Y-69194520D01*
X168060480Y-63079520D02*
X167640000Y-63500000D01*
X168508980Y-63079520D02*
X168060480Y-63079520D01*
X168656000Y-62932500D02*
X168568580Y-62932500D01*
D42*
X167320000Y-69095000D02*
X168087500Y-69095000D01*
D43*
X168656000Y-62932500D02*
X168508980Y-63079520D01*
X168568580Y-62932500D02*
X168421560Y-63079520D01*
X167320000Y-63180000D02*
X167320000Y-63079520D01*
D42*
X168087500Y-69095000D02*
X168656000Y-69663500D01*
D41*
%TO.N,QSPI_SS*%
X152158000Y-61267034D02*
X152379483Y-61488517D01*
X155820500Y-59623000D02*
X155318006Y-59623000D01*
X152379483Y-61488517D02*
X153158005Y-62267039D01*
X153886960Y-62267040D02*
X153632960Y-62267040D01*
X155318006Y-59623000D02*
X154977039Y-59963967D01*
X154157994Y-62267040D02*
X153886960Y-62267040D01*
X154977040Y-61447994D02*
X154157994Y-62267040D01*
X153580500Y-62319500D02*
X153580500Y-62865000D01*
X153632960Y-62267040D02*
X153158005Y-62267039D01*
X154977039Y-59963967D02*
X154977040Y-61447994D01*
X152158000Y-60763000D02*
X152158000Y-61267034D01*
X153632960Y-62267040D02*
X153580500Y-62319500D01*
%TO.N,QSPI_D1*%
X152658000Y-60763000D02*
X152658000Y-61202028D01*
X155153000Y-59223000D02*
X155820500Y-59223000D01*
X153992508Y-61867520D02*
X154577520Y-61282508D01*
X154577519Y-59798481D02*
X155153000Y-59223000D01*
X152658000Y-61202028D02*
X153323492Y-61867520D01*
X153323492Y-61867520D02*
X153992508Y-61867520D01*
X154577520Y-61282508D02*
X154577519Y-59798481D01*
%TO.N,QSPI_D2*%
X155820500Y-58823000D02*
X154918000Y-58823000D01*
X153158000Y-61137022D02*
X153158000Y-60763000D01*
X153827022Y-61468000D02*
X153488978Y-61468000D01*
X154178000Y-59563000D02*
X154178000Y-61117022D01*
X154178000Y-61117022D02*
X153827022Y-61468000D01*
X154918000Y-58823000D02*
X154178000Y-59563000D01*
X153488978Y-61468000D02*
X153158000Y-61137022D01*
%TO.N,QSPI_D0*%
X153673000Y-58423000D02*
X153658000Y-58408000D01*
X153658000Y-58408000D02*
X153658000Y-58363000D01*
X155820500Y-58423000D02*
X153673000Y-58423000D01*
%TO.N,QSPI_SCLK*%
X155820500Y-58023000D02*
X154543000Y-58023000D01*
X153158000Y-58043000D02*
X153158000Y-58363000D01*
X154178000Y-57658000D02*
X153543000Y-57658000D01*
X153543000Y-57658000D02*
X153158000Y-58043000D01*
X154543000Y-58023000D02*
X154178000Y-57658000D01*
%TO.N,QSPI_D3*%
X152658000Y-57977994D02*
X152658000Y-58363000D01*
X154708006Y-57623000D02*
X154343486Y-57258480D01*
X153377514Y-57258480D02*
X152658000Y-57977994D01*
X155820500Y-57623000D02*
X154708006Y-57623000D01*
X154343486Y-57258480D02*
X153377514Y-57258480D01*
%TO.N,Net-(C3-Pad1)*%
X163287000Y-57623000D02*
X163576000Y-57912000D01*
X163576000Y-59630500D02*
X164084000Y-60138500D01*
X167132000Y-60452000D02*
X164397500Y-60452000D01*
X164397500Y-60452000D02*
X164084000Y-60138500D01*
X167474000Y-60110000D02*
X167474000Y-59266000D01*
X163576000Y-57912000D02*
X163576000Y-59630500D01*
X167132000Y-60452000D02*
X167474000Y-60110000D01*
X162695500Y-57623000D02*
X163287000Y-57623000D01*
%TO.N,Net-(R4-Pad1)*%
X162695500Y-57223000D02*
X163992500Y-57223000D01*
X163992500Y-57223000D02*
X164338000Y-57568500D01*
%TO.N,+1V1*%
X155820500Y-55223000D02*
X155045000Y-55223000D01*
X155045000Y-55223000D02*
X154813000Y-54991000D01*
X164084000Y-55431500D02*
X164084000Y-55626000D01*
X163287000Y-56423000D02*
X162695500Y-56423000D01*
X164084000Y-55626000D02*
X163830000Y-55880000D01*
%TO.N,Net-(R6-Pad2)*%
X154235006Y-55118000D02*
X154740006Y-55623000D01*
X154740006Y-55623000D02*
X155820500Y-55623000D01*
X154013500Y-55118000D02*
X154235006Y-55118000D01*
%TO.N,Net-(R5-Pad2)*%
X154575000Y-56023000D02*
X154432000Y-55880000D01*
X155820500Y-56023000D02*
X154575000Y-56023000D01*
X153670000Y-55880000D02*
X153924000Y-55880000D01*
X153924000Y-55880000D02*
X154432000Y-55880000D01*
X151892000Y-55880000D02*
X153670000Y-55880000D01*
%TO.N,USB_DP*%
X151552500Y-56900000D02*
X149830000Y-56900000D01*
X151638000Y-56985500D02*
X151552500Y-56900000D01*
%TO.N,USB_DM*%
X152818500Y-55118000D02*
X152146000Y-55118000D01*
X152146000Y-55118000D02*
X151892000Y-54864000D01*
%TO.N,Net-(C4-Pad1)*%
X164338000Y-58502000D02*
X165774000Y-57066000D01*
X165774000Y-56162500D02*
X165774000Y-57066000D01*
X166564500Y-55372000D02*
X165774000Y-56162500D01*
%TO.N,Net-(D3-Pad1)*%
X166102000Y-53415500D02*
X166534500Y-53848000D01*
X166102000Y-52451000D02*
X166102000Y-53415500D01*
%TO.N,Net-(D3-Pad2)*%
X162695500Y-54423000D02*
X162695500Y-54107500D01*
X162695500Y-54107500D02*
X164352000Y-52451000D01*
%TO.N,/M2B*%
X164915006Y-64655000D02*
X164395006Y-64135000D01*
X164395006Y-64135000D02*
X161694482Y-64135000D01*
X161694482Y-64135000D02*
X159058000Y-61498518D01*
X165420000Y-64655000D02*
X164915006Y-64655000D01*
X159058000Y-61498518D02*
X159058000Y-60460500D01*
%TO.N,/M2A*%
X164850000Y-65155000D02*
X165420000Y-65155000D01*
X158658000Y-60460500D02*
X158658000Y-61663524D01*
X158658000Y-61663524D02*
X161528995Y-64534519D01*
X161528995Y-64534519D02*
X164229519Y-64534519D01*
X164229519Y-64534519D02*
X164850000Y-65155000D01*
%TO.N,/M1B*%
X159858000Y-61168506D02*
X159858000Y-60460500D01*
X164036268Y-62331520D02*
X161021014Y-62331520D01*
X164887788Y-61480000D02*
X164036268Y-62331520D01*
X161021014Y-62331520D02*
X159858000Y-61168506D01*
X165420000Y-61480000D02*
X164887788Y-61480000D01*
%TO.N,/M1A*%
X159458480Y-60460980D02*
X159458000Y-60460500D01*
X164952794Y-61980000D02*
X164169314Y-62763480D01*
X165420000Y-61980000D02*
X164952794Y-61980000D01*
X159458481Y-61333993D02*
X159458480Y-60460980D01*
X160887968Y-62763480D02*
X159458481Y-61333993D01*
X164169314Y-62763480D02*
X160887968Y-62763480D01*
%TO.N,Net-(R7-Pad2)*%
X157458000Y-62843000D02*
X157734000Y-63119000D01*
X157458000Y-60460500D02*
X157458000Y-62843000D01*
%TD*%
%TA.AperFunction,Conductor*%
%TO.N,GND*%
G36*
X174312621Y-51709502D02*
G01*
X174359114Y-51763158D01*
X174370500Y-51815500D01*
X174370500Y-52041174D01*
X174350498Y-52109295D01*
X174296842Y-52155788D01*
X174226568Y-52165892D01*
X174185427Y-52152173D01*
X174179764Y-52147929D01*
X174080804Y-52110831D01*
X174051843Y-52099974D01*
X174051841Y-52099974D01*
X174044448Y-52097202D01*
X174036598Y-52096349D01*
X174036597Y-52096349D01*
X173986153Y-52090869D01*
X173986152Y-52090869D01*
X173982756Y-52090500D01*
X172587244Y-52090500D01*
X172583848Y-52090869D01*
X172583847Y-52090869D01*
X172533403Y-52096349D01*
X172533402Y-52096349D01*
X172525552Y-52097202D01*
X172518159Y-52099974D01*
X172518157Y-52099974D01*
X172489196Y-52110831D01*
X172390236Y-52147929D01*
X172383057Y-52153309D01*
X172383054Y-52153311D01*
X172297447Y-52217470D01*
X172274596Y-52234596D01*
X172269215Y-52241776D01*
X172193311Y-52343054D01*
X172193309Y-52343057D01*
X172187929Y-52350236D01*
X172137202Y-52485552D01*
X172130500Y-52547244D01*
X172130500Y-53342756D01*
X172130869Y-53346152D01*
X172130869Y-53346153D01*
X172136133Y-53394604D01*
X172137202Y-53404448D01*
X172139974Y-53411841D01*
X172139974Y-53411843D01*
X172140489Y-53413217D01*
X172187929Y-53539764D01*
X172193309Y-53546943D01*
X172193311Y-53546946D01*
X172244747Y-53615576D01*
X172274596Y-53655404D01*
X172281776Y-53660785D01*
X172383054Y-53736689D01*
X172383057Y-53736691D01*
X172390236Y-53742071D01*
X172447863Y-53763674D01*
X172518157Y-53790026D01*
X172518159Y-53790026D01*
X172525552Y-53792798D01*
X172533402Y-53793651D01*
X172533403Y-53793651D01*
X172583847Y-53799131D01*
X172587244Y-53799500D01*
X173982756Y-53799500D01*
X173986153Y-53799131D01*
X174036597Y-53793651D01*
X174036598Y-53793651D01*
X174044448Y-53792798D01*
X174051841Y-53790026D01*
X174051843Y-53790026D01*
X174134141Y-53759174D01*
X174179764Y-53742071D01*
X174185117Y-53738059D01*
X174253350Y-53723137D01*
X174319898Y-53747875D01*
X174362507Y-53804664D01*
X174370500Y-53848826D01*
X174370500Y-55641174D01*
X174350498Y-55709295D01*
X174296842Y-55755788D01*
X174226568Y-55765892D01*
X174185427Y-55752173D01*
X174179764Y-55747929D01*
X174100562Y-55718238D01*
X174051843Y-55699974D01*
X174051841Y-55699974D01*
X174044448Y-55697202D01*
X174036598Y-55696349D01*
X174036597Y-55696349D01*
X173986153Y-55690869D01*
X173986152Y-55690869D01*
X173982756Y-55690500D01*
X172587244Y-55690500D01*
X172583848Y-55690869D01*
X172583847Y-55690869D01*
X172533403Y-55696349D01*
X172533402Y-55696349D01*
X172525552Y-55697202D01*
X172518159Y-55699974D01*
X172518157Y-55699974D01*
X172479954Y-55714296D01*
X172390236Y-55747929D01*
X172383057Y-55753309D01*
X172383054Y-55753311D01*
X172317582Y-55802380D01*
X172274596Y-55834596D01*
X172264574Y-55847969D01*
X172193311Y-55943054D01*
X172193309Y-55943057D01*
X172187929Y-55950236D01*
X172137202Y-56085552D01*
X172136349Y-56093402D01*
X172136349Y-56093403D01*
X172135198Y-56104000D01*
X172130500Y-56147244D01*
X172130500Y-56942756D01*
X172137202Y-57004448D01*
X172139974Y-57011841D01*
X172139974Y-57011843D01*
X172147515Y-57031958D01*
X172187929Y-57139764D01*
X172193309Y-57146943D01*
X172193311Y-57146946D01*
X172251759Y-57224933D01*
X172274596Y-57255404D01*
X172281776Y-57260785D01*
X172383054Y-57336689D01*
X172383057Y-57336691D01*
X172390236Y-57342071D01*
X172479954Y-57375704D01*
X172518157Y-57390026D01*
X172518159Y-57390026D01*
X172525552Y-57392798D01*
X172533402Y-57393651D01*
X172533403Y-57393651D01*
X172580865Y-57398807D01*
X172587244Y-57399500D01*
X173982756Y-57399500D01*
X173989135Y-57398807D01*
X174036597Y-57393651D01*
X174036598Y-57393651D01*
X174044448Y-57392798D01*
X174051841Y-57390026D01*
X174051843Y-57390026D01*
X174149471Y-57353427D01*
X174179764Y-57342071D01*
X174185117Y-57338059D01*
X174253350Y-57323137D01*
X174319898Y-57347875D01*
X174362507Y-57404664D01*
X174370500Y-57448826D01*
X174370500Y-58891174D01*
X174350498Y-58959295D01*
X174296842Y-59005788D01*
X174226568Y-59015892D01*
X174185427Y-59002173D01*
X174179764Y-58997929D01*
X174093712Y-58965670D01*
X174051843Y-58949974D01*
X174051841Y-58949974D01*
X174044448Y-58947202D01*
X174036598Y-58946349D01*
X174036597Y-58946349D01*
X173986153Y-58940869D01*
X173986152Y-58940869D01*
X173982756Y-58940500D01*
X172587244Y-58940500D01*
X172583848Y-58940869D01*
X172583847Y-58940869D01*
X172533403Y-58946349D01*
X172533402Y-58946349D01*
X172525552Y-58947202D01*
X172518159Y-58949974D01*
X172518157Y-58949974D01*
X172479954Y-58964296D01*
X172390236Y-58997929D01*
X172383057Y-59003309D01*
X172383054Y-59003311D01*
X172325425Y-59046502D01*
X172274596Y-59084596D01*
X172269215Y-59091776D01*
X172193311Y-59193054D01*
X172193309Y-59193057D01*
X172187929Y-59200236D01*
X172164453Y-59262860D01*
X172142309Y-59321930D01*
X172137202Y-59335552D01*
X172136349Y-59343402D01*
X172136349Y-59343403D01*
X172132822Y-59375872D01*
X172130500Y-59397244D01*
X172130500Y-60192756D01*
X172130869Y-60196152D01*
X172130869Y-60196153D01*
X172135876Y-60242238D01*
X172137202Y-60254448D01*
X172139974Y-60261841D01*
X172139974Y-60261843D01*
X172150991Y-60291230D01*
X172187929Y-60389764D01*
X172193309Y-60396943D01*
X172193311Y-60396946D01*
X172237502Y-60455910D01*
X172274596Y-60505404D01*
X172283828Y-60512323D01*
X172383054Y-60586689D01*
X172383057Y-60586691D01*
X172390236Y-60592071D01*
X172444478Y-60612405D01*
X172518157Y-60640026D01*
X172518159Y-60640026D01*
X172525552Y-60642798D01*
X172533402Y-60643651D01*
X172533403Y-60643651D01*
X172583847Y-60649131D01*
X172587244Y-60649500D01*
X173982756Y-60649500D01*
X173986153Y-60649131D01*
X174036597Y-60643651D01*
X174036598Y-60643651D01*
X174044448Y-60642798D01*
X174051841Y-60640026D01*
X174051843Y-60640026D01*
X174147943Y-60604000D01*
X174179764Y-60592071D01*
X174185117Y-60588059D01*
X174253350Y-60573137D01*
X174319898Y-60597875D01*
X174362507Y-60654664D01*
X174370500Y-60698826D01*
X174370500Y-62491174D01*
X174350498Y-62559295D01*
X174296842Y-62605788D01*
X174226568Y-62615892D01*
X174185427Y-62602173D01*
X174179764Y-62597929D01*
X174103435Y-62569315D01*
X174051843Y-62549974D01*
X174051841Y-62549974D01*
X174044448Y-62547202D01*
X174036598Y-62546349D01*
X174036597Y-62546349D01*
X173986153Y-62540869D01*
X173986152Y-62540869D01*
X173982756Y-62540500D01*
X172587244Y-62540500D01*
X172583848Y-62540869D01*
X172583847Y-62540869D01*
X172533403Y-62546349D01*
X172533402Y-62546349D01*
X172525552Y-62547202D01*
X172518159Y-62549974D01*
X172518157Y-62549974D01*
X172479954Y-62564296D01*
X172390236Y-62597929D01*
X172383057Y-62603309D01*
X172383054Y-62603311D01*
X172299948Y-62665596D01*
X172274596Y-62684596D01*
X172269215Y-62691776D01*
X172193311Y-62793054D01*
X172193309Y-62793057D01*
X172187929Y-62800236D01*
X172169973Y-62848135D01*
X172143220Y-62919500D01*
X172137202Y-62935552D01*
X172136349Y-62943402D01*
X172136349Y-62943403D01*
X172130926Y-62993319D01*
X172130500Y-62997244D01*
X172130500Y-63792756D01*
X172130869Y-63796152D01*
X172130869Y-63796153D01*
X172132605Y-63812128D01*
X172137202Y-63854448D01*
X172139974Y-63861841D01*
X172139974Y-63861843D01*
X172149371Y-63886910D01*
X172187929Y-63989764D01*
X172193309Y-63996943D01*
X172193311Y-63996946D01*
X172212089Y-64022001D01*
X172274596Y-64105404D01*
X172281776Y-64110785D01*
X172383054Y-64186689D01*
X172383057Y-64186691D01*
X172390236Y-64192071D01*
X172479954Y-64225704D01*
X172518157Y-64240026D01*
X172518159Y-64240026D01*
X172525552Y-64242798D01*
X172533402Y-64243651D01*
X172533403Y-64243651D01*
X172583847Y-64249131D01*
X172587244Y-64249500D01*
X173982756Y-64249500D01*
X173986153Y-64249131D01*
X174036597Y-64243651D01*
X174036598Y-64243651D01*
X174044448Y-64242798D01*
X174051841Y-64240026D01*
X174051843Y-64240026D01*
X174111371Y-64217710D01*
X174179764Y-64192071D01*
X174185117Y-64188059D01*
X174253350Y-64173137D01*
X174319898Y-64197875D01*
X174362507Y-64254664D01*
X174370500Y-64298826D01*
X174370500Y-65741174D01*
X174350498Y-65809295D01*
X174296842Y-65855788D01*
X174226568Y-65865892D01*
X174185427Y-65852173D01*
X174179764Y-65847929D01*
X174095217Y-65816234D01*
X174051843Y-65799974D01*
X174051841Y-65799974D01*
X174044448Y-65797202D01*
X174036598Y-65796349D01*
X174036597Y-65796349D01*
X173986153Y-65790869D01*
X173986152Y-65790869D01*
X173982756Y-65790500D01*
X172587244Y-65790500D01*
X172583848Y-65790869D01*
X172583847Y-65790869D01*
X172533403Y-65796349D01*
X172533402Y-65796349D01*
X172525552Y-65797202D01*
X172518159Y-65799974D01*
X172518157Y-65799974D01*
X172492749Y-65809499D01*
X172390236Y-65847929D01*
X172383057Y-65853309D01*
X172383054Y-65853311D01*
X172306685Y-65910547D01*
X172274596Y-65934596D01*
X172265128Y-65947229D01*
X172193311Y-66043054D01*
X172193309Y-66043057D01*
X172187929Y-66050236D01*
X172137202Y-66185552D01*
X172130500Y-66247244D01*
X172130500Y-67042756D01*
X172130869Y-67046152D01*
X172130869Y-67046153D01*
X172135023Y-67084386D01*
X172137202Y-67104448D01*
X172187929Y-67239764D01*
X172193309Y-67246943D01*
X172193311Y-67246946D01*
X172244408Y-67315124D01*
X172274596Y-67355404D01*
X172281776Y-67360785D01*
X172383054Y-67436689D01*
X172383057Y-67436691D01*
X172390236Y-67442071D01*
X172466565Y-67470685D01*
X172518157Y-67490026D01*
X172518159Y-67490026D01*
X172525552Y-67492798D01*
X172533402Y-67493651D01*
X172533403Y-67493651D01*
X172560549Y-67496600D01*
X172587244Y-67499500D01*
X173982756Y-67499500D01*
X174009451Y-67496600D01*
X174036597Y-67493651D01*
X174036598Y-67493651D01*
X174044448Y-67492798D01*
X174051841Y-67490026D01*
X174051843Y-67490026D01*
X174134141Y-67459174D01*
X174179764Y-67442071D01*
X174185117Y-67438059D01*
X174253350Y-67423137D01*
X174319898Y-67447875D01*
X174362507Y-67504664D01*
X174370500Y-67548826D01*
X174370500Y-69341174D01*
X174350498Y-69409295D01*
X174296842Y-69455788D01*
X174226568Y-69465892D01*
X174185427Y-69452173D01*
X174179764Y-69447929D01*
X174103435Y-69419315D01*
X174051843Y-69399974D01*
X174051841Y-69399974D01*
X174044448Y-69397202D01*
X174036598Y-69396349D01*
X174036597Y-69396349D01*
X173986153Y-69390869D01*
X173986152Y-69390869D01*
X173982756Y-69390500D01*
X172587244Y-69390500D01*
X172583848Y-69390869D01*
X172583847Y-69390869D01*
X172533403Y-69396349D01*
X172533402Y-69396349D01*
X172525552Y-69397202D01*
X172518159Y-69399974D01*
X172518157Y-69399974D01*
X172485152Y-69412347D01*
X172390236Y-69447929D01*
X172383057Y-69453309D01*
X172383054Y-69453311D01*
X172320996Y-69499821D01*
X172274596Y-69534596D01*
X172269215Y-69541776D01*
X172193311Y-69643054D01*
X172193309Y-69643057D01*
X172187929Y-69650236D01*
X172137202Y-69785552D01*
X172136349Y-69793402D01*
X172136349Y-69793403D01*
X172131517Y-69837879D01*
X172130500Y-69847244D01*
X172130500Y-70642756D01*
X172130869Y-70646152D01*
X172130869Y-70646153D01*
X172132501Y-70661171D01*
X172137202Y-70704448D01*
X172187929Y-70839764D01*
X172193309Y-70846943D01*
X172193311Y-70846946D01*
X172240174Y-70909475D01*
X172274596Y-70955404D01*
X172292161Y-70968568D01*
X172383054Y-71036689D01*
X172383057Y-71036691D01*
X172390236Y-71042071D01*
X172450397Y-71064624D01*
X172518157Y-71090026D01*
X172518159Y-71090026D01*
X172525552Y-71092798D01*
X172533402Y-71093651D01*
X172533403Y-71093651D01*
X172583847Y-71099131D01*
X172587244Y-71099500D01*
X173982756Y-71099500D01*
X173986153Y-71099131D01*
X174036597Y-71093651D01*
X174036598Y-71093651D01*
X174044448Y-71092798D01*
X174051841Y-71090026D01*
X174051843Y-71090026D01*
X174158725Y-71049958D01*
X174179764Y-71042071D01*
X174185117Y-71038059D01*
X174253350Y-71023137D01*
X174319898Y-71047875D01*
X174362507Y-71104664D01*
X174370500Y-71148826D01*
X174370500Y-71374500D01*
X174350498Y-71442621D01*
X174296842Y-71489114D01*
X174244500Y-71500500D01*
X169397100Y-71500500D01*
X169328979Y-71480498D01*
X169282486Y-71426842D01*
X169272382Y-71356568D01*
X169301876Y-71291988D01*
X169308005Y-71285405D01*
X169336484Y-71256926D01*
X169346124Y-71244499D01*
X169421396Y-71117220D01*
X169427643Y-71102784D01*
X169462619Y-70982395D01*
X169462579Y-70968295D01*
X169455309Y-70965000D01*
X167862442Y-70965000D01*
X167848911Y-70968973D01*
X167847776Y-70976871D01*
X167884357Y-71102784D01*
X167890604Y-71117220D01*
X167965876Y-71244499D01*
X167975516Y-71256926D01*
X168003995Y-71285405D01*
X168038021Y-71347717D01*
X168032956Y-71418532D01*
X167990409Y-71475368D01*
X167923889Y-71500179D01*
X167914900Y-71500500D01*
X143255500Y-71500500D01*
X143187379Y-71480498D01*
X143140886Y-71426842D01*
X143129500Y-71374500D01*
X143129500Y-71148826D01*
X143149502Y-71080705D01*
X143203158Y-71034212D01*
X143273432Y-71024108D01*
X143314573Y-71037827D01*
X143320236Y-71042071D01*
X143341275Y-71049958D01*
X143448157Y-71090026D01*
X143448159Y-71090026D01*
X143455552Y-71092798D01*
X143463402Y-71093651D01*
X143463403Y-71093651D01*
X143513847Y-71099131D01*
X143517244Y-71099500D01*
X144912756Y-71099500D01*
X144916153Y-71099131D01*
X144966597Y-71093651D01*
X144966598Y-71093651D01*
X144974448Y-71092798D01*
X144981841Y-71090026D01*
X144981843Y-71090026D01*
X145049603Y-71064624D01*
X145109764Y-71042071D01*
X145116943Y-71036691D01*
X145116946Y-71036689D01*
X145207839Y-70968568D01*
X145225404Y-70955404D01*
X145259826Y-70909475D01*
X145306689Y-70846946D01*
X145306691Y-70846943D01*
X145312071Y-70839764D01*
X145362798Y-70704448D01*
X145367500Y-70661171D01*
X145369131Y-70646153D01*
X145369131Y-70646152D01*
X145369500Y-70642756D01*
X145369500Y-69975029D01*
X145389502Y-69906908D01*
X145443158Y-69860415D01*
X145513432Y-69850311D01*
X145578012Y-69879805D01*
X145584595Y-69885934D01*
X146525084Y-70826423D01*
X146537592Y-70841909D01*
X146540526Y-70845134D01*
X146546175Y-70853882D01*
X146554352Y-70860328D01*
X146570430Y-70873003D01*
X146574431Y-70876559D01*
X146574516Y-70876459D01*
X146578473Y-70879812D01*
X146582155Y-70883494D01*
X146596691Y-70893882D01*
X146601378Y-70897401D01*
X146638857Y-70926946D01*
X146646925Y-70929779D01*
X146653885Y-70934753D01*
X146663863Y-70937737D01*
X146699586Y-70948420D01*
X146705235Y-70950256D01*
X146750208Y-70966050D01*
X146755404Y-70966500D01*
X146758109Y-70966500D01*
X146760365Y-70966597D01*
X146760841Y-70966740D01*
X146760839Y-70966786D01*
X146761038Y-70966799D01*
X146766955Y-70968568D01*
X146817124Y-70966597D01*
X146822070Y-70966500D01*
X155904743Y-70966500D01*
X155924537Y-70968606D01*
X155928890Y-70968811D01*
X155939070Y-70971003D01*
X155969740Y-70967373D01*
X155975083Y-70967058D01*
X155975072Y-70966928D01*
X155980252Y-70966500D01*
X155985451Y-70966500D01*
X155990575Y-70965647D01*
X155990588Y-70965646D01*
X156003041Y-70963573D01*
X156008916Y-70962736D01*
X156045929Y-70958355D01*
X156056270Y-70957131D01*
X156063978Y-70953430D01*
X156072417Y-70952025D01*
X156114401Y-70929371D01*
X156119664Y-70926690D01*
X156132557Y-70920499D01*
X156162658Y-70906045D01*
X156166650Y-70902689D01*
X156168597Y-70900742D01*
X156170222Y-70899252D01*
X156170654Y-70899019D01*
X156170687Y-70899055D01*
X156170845Y-70898916D01*
X156176280Y-70895983D01*
X156194236Y-70876559D01*
X156210357Y-70859119D01*
X156213786Y-70855553D01*
X157948423Y-69120916D01*
X157963909Y-69108408D01*
X157967134Y-69105474D01*
X157975882Y-69099825D01*
X157995003Y-69075570D01*
X157998561Y-69071567D01*
X157998461Y-69071482D01*
X158001814Y-69067525D01*
X158005495Y-69063844D01*
X158008649Y-69059431D01*
X158015864Y-69049335D01*
X158019426Y-69044591D01*
X158042497Y-69015325D01*
X158042499Y-69015321D01*
X158048946Y-69007143D01*
X158051779Y-68999075D01*
X158056753Y-68992115D01*
X158066369Y-68959960D01*
X158070420Y-68946414D01*
X158072256Y-68940765D01*
X158085424Y-68903269D01*
X158088050Y-68895792D01*
X158088500Y-68890596D01*
X158088500Y-68887891D01*
X158088597Y-68885635D01*
X158088740Y-68885159D01*
X158088786Y-68885161D01*
X158088799Y-68884962D01*
X158090568Y-68879045D01*
X158088597Y-68828876D01*
X158088500Y-68823930D01*
X158088500Y-64788083D01*
X158108502Y-64719962D01*
X158140438Y-64686148D01*
X158141960Y-64685042D01*
X158150796Y-64680540D01*
X158238040Y-64593296D01*
X158294054Y-64483362D01*
X158295635Y-64473384D01*
X158302395Y-64430699D01*
X158308500Y-64392153D01*
X158308499Y-64060848D01*
X158304234Y-64033916D01*
X158295606Y-63979436D01*
X158295605Y-63979434D01*
X158294054Y-63969638D01*
X158238040Y-63859704D01*
X158183931Y-63805595D01*
X158149905Y-63743283D01*
X158154970Y-63672468D01*
X158183931Y-63627405D01*
X158238040Y-63573296D01*
X158294054Y-63463362D01*
X158297534Y-63441394D01*
X158302696Y-63408796D01*
X158308500Y-63372153D01*
X158308500Y-63249565D01*
X158328502Y-63181444D01*
X158382158Y-63134951D01*
X158452432Y-63124847D01*
X158517012Y-63154341D01*
X158523595Y-63160470D01*
X160048105Y-64684980D01*
X160082131Y-64747292D01*
X160077066Y-64818107D01*
X160034519Y-64874943D01*
X159967999Y-64899754D01*
X159960385Y-64900003D01*
X159959803Y-64900083D01*
X159950827Y-64900028D01*
X159942196Y-64902495D01*
X159942194Y-64902495D01*
X159820509Y-64937272D01*
X159820505Y-64937274D01*
X159811879Y-64939739D01*
X159804292Y-64944526D01*
X159804290Y-64944527D01*
X159735211Y-64988113D01*
X159689661Y-65016853D01*
X159683718Y-65023582D01*
X159683717Y-65023583D01*
X159680385Y-65027356D01*
X159593999Y-65125170D01*
X159590185Y-65133293D01*
X159590184Y-65133295D01*
X159569122Y-65178157D01*
X159532583Y-65255982D01*
X159514070Y-65374882D01*
X159513996Y-65375359D01*
X159483752Y-65439591D01*
X159478592Y-65445069D01*
X158660578Y-66263084D01*
X158645098Y-66275586D01*
X158641868Y-66278525D01*
X158633118Y-66284175D01*
X158613991Y-66308438D01*
X158610441Y-66312433D01*
X158610540Y-66312517D01*
X158607182Y-66316480D01*
X158603506Y-66320156D01*
X158600483Y-66324385D01*
X158600483Y-66324386D01*
X158593146Y-66334652D01*
X158589585Y-66339395D01*
X158566500Y-66368679D01*
X158566498Y-66368683D01*
X158560054Y-66376857D01*
X158557221Y-66384924D01*
X158552247Y-66391885D01*
X158549264Y-66401861D01*
X158538580Y-66437586D01*
X158536744Y-66443235D01*
X158533418Y-66452707D01*
X158520950Y-66488208D01*
X158520500Y-66493404D01*
X158520500Y-66496109D01*
X158520403Y-66498365D01*
X158520260Y-66498841D01*
X158520214Y-66498839D01*
X158520201Y-66499038D01*
X158518432Y-66504955D01*
X158518841Y-66515359D01*
X158520403Y-66555124D01*
X158520500Y-66560070D01*
X158520500Y-68011474D01*
X158500498Y-68079595D01*
X158483595Y-68100569D01*
X158420960Y-68163204D01*
X158364946Y-68273138D01*
X158363396Y-68282927D01*
X158363395Y-68282929D01*
X158359443Y-68307885D01*
X158350500Y-68364347D01*
X158350501Y-68795652D01*
X158351276Y-68800545D01*
X158351276Y-68800546D01*
X158362682Y-68872564D01*
X158364946Y-68886862D01*
X158369449Y-68895699D01*
X158369449Y-68895700D01*
X158382297Y-68920915D01*
X158420960Y-68996796D01*
X158483595Y-69059431D01*
X158517621Y-69121743D01*
X158520500Y-69148526D01*
X158520500Y-69154474D01*
X158500498Y-69222595D01*
X158483595Y-69243569D01*
X158420960Y-69306204D01*
X158364946Y-69416138D01*
X158363396Y-69425927D01*
X158363395Y-69425929D01*
X158361914Y-69435280D01*
X158350500Y-69507347D01*
X158350501Y-69938652D01*
X158351276Y-69943545D01*
X158351276Y-69943546D01*
X158362502Y-70014427D01*
X158364946Y-70029862D01*
X158369449Y-70038699D01*
X158369449Y-70038700D01*
X158389023Y-70077116D01*
X158420960Y-70139796D01*
X158508204Y-70227040D01*
X158618138Y-70283054D01*
X158627927Y-70284604D01*
X158627929Y-70284605D01*
X158654421Y-70288801D01*
X158709347Y-70297500D01*
X158874966Y-70297500D01*
X159040652Y-70297499D01*
X159045546Y-70296724D01*
X159122064Y-70284606D01*
X159122066Y-70284605D01*
X159131862Y-70283054D01*
X159155779Y-70270868D01*
X159232964Y-70231540D01*
X159232963Y-70231540D01*
X159241796Y-70227040D01*
X159295905Y-70172931D01*
X159358217Y-70138905D01*
X159429032Y-70143970D01*
X159474095Y-70172931D01*
X159528204Y-70227040D01*
X159638138Y-70283054D01*
X159647927Y-70284604D01*
X159647929Y-70284605D01*
X159674421Y-70288801D01*
X159729347Y-70297500D01*
X159894966Y-70297500D01*
X160060652Y-70297499D01*
X160065546Y-70296724D01*
X160142064Y-70284606D01*
X160142066Y-70284605D01*
X160151862Y-70283054D01*
X160175779Y-70270868D01*
X160209451Y-70253711D01*
X160223935Y-70246331D01*
X160293712Y-70233227D01*
X160350957Y-70253711D01*
X160428101Y-70305063D01*
X160428103Y-70305064D01*
X160435574Y-70310037D01*
X160444138Y-70312713D01*
X160444141Y-70312714D01*
X160504542Y-70331584D01*
X160573510Y-70353132D01*
X160717998Y-70355780D01*
X160759208Y-70344545D01*
X160848763Y-70320130D01*
X160848765Y-70320129D01*
X160857422Y-70317769D01*
X160980572Y-70242154D01*
X161077551Y-70135014D01*
X161128496Y-70029862D01*
X161136645Y-70013043D01*
X161136645Y-70013042D01*
X161140560Y-70004962D01*
X161164536Y-69862453D01*
X161164688Y-69850000D01*
X161148351Y-69735925D01*
X161145474Y-69715835D01*
X161145473Y-69715833D01*
X161144201Y-69706948D01*
X161084388Y-69575395D01*
X161078530Y-69568596D01*
X161078527Y-69568592D01*
X160995916Y-69472718D01*
X160995913Y-69472716D01*
X160990056Y-69465918D01*
X160923612Y-69422851D01*
X160876324Y-69392200D01*
X160876322Y-69392199D01*
X160868790Y-69387317D01*
X160809222Y-69369502D01*
X160738938Y-69348482D01*
X160738936Y-69348482D01*
X160730337Y-69345910D01*
X160721363Y-69345855D01*
X160721361Y-69345855D01*
X160653887Y-69345443D01*
X160585890Y-69325025D01*
X160539726Y-69271086D01*
X160530051Y-69200752D01*
X160546204Y-69155306D01*
X160620770Y-69029222D01*
X160627019Y-69014783D01*
X160668338Y-68872564D01*
X160670637Y-68859977D01*
X160671260Y-68852057D01*
X160668090Y-68836970D01*
X160656626Y-68834000D01*
X159767000Y-68834000D01*
X159698879Y-68813998D01*
X159652386Y-68760342D01*
X159641000Y-68708000D01*
X159641000Y-68307885D01*
X160149000Y-68307885D01*
X160153475Y-68323124D01*
X160154865Y-68324329D01*
X160162548Y-68326000D01*
X160654566Y-68326000D01*
X160669361Y-68321656D01*
X160671421Y-68309997D01*
X160670637Y-68300023D01*
X160668338Y-68287436D01*
X160627019Y-68145217D01*
X160620770Y-68130778D01*
X160546146Y-68004595D01*
X160536499Y-67992159D01*
X160432841Y-67888501D01*
X160420405Y-67878854D01*
X160294222Y-67804230D01*
X160279783Y-67797981D01*
X160166395Y-67765039D01*
X160152295Y-67765079D01*
X160149000Y-67772349D01*
X160149000Y-68307885D01*
X159641000Y-68307885D01*
X159641000Y-67778100D01*
X159637027Y-67764569D01*
X159629129Y-67763434D01*
X159510217Y-67797981D01*
X159495784Y-67804227D01*
X159419639Y-67849259D01*
X159350823Y-67866718D01*
X159283491Y-67844201D01*
X159239022Y-67788856D01*
X159229500Y-67740805D01*
X159229500Y-66749029D01*
X159249502Y-66680908D01*
X159266405Y-66659934D01*
X159978908Y-65947431D01*
X160041220Y-65913405D01*
X160070312Y-65910547D01*
X160082998Y-65910780D01*
X160104199Y-65905000D01*
X160213763Y-65875130D01*
X160213765Y-65875129D01*
X160222422Y-65872769D01*
X160345572Y-65797154D01*
X160351596Y-65790499D01*
X160357049Y-65785972D01*
X160422238Y-65757849D01*
X160492283Y-65769434D01*
X160544945Y-65817049D01*
X160550385Y-65828605D01*
X160550456Y-65829031D01*
X160573110Y-65871015D01*
X160575791Y-65876278D01*
X160596436Y-65919272D01*
X160599792Y-65923264D01*
X160601739Y-65925211D01*
X160603229Y-65926836D01*
X160603462Y-65927268D01*
X160603426Y-65927301D01*
X160603565Y-65927459D01*
X160606498Y-65932894D01*
X160614145Y-65939963D01*
X160643349Y-65966959D01*
X160646915Y-65970387D01*
X160990793Y-66314264D01*
X161330470Y-66653941D01*
X161342972Y-66669421D01*
X161345911Y-66672651D01*
X161351561Y-66681401D01*
X161375824Y-66700528D01*
X161379819Y-66704078D01*
X161379903Y-66703979D01*
X161383866Y-66707337D01*
X161387542Y-66711013D01*
X161391771Y-66714036D01*
X161391772Y-66714036D01*
X161402038Y-66721373D01*
X161406781Y-66724934D01*
X161436061Y-66748016D01*
X161436065Y-66748018D01*
X161444243Y-66754465D01*
X161452311Y-66757298D01*
X161459271Y-66762272D01*
X161469249Y-66765256D01*
X161504972Y-66775939D01*
X161510621Y-66777775D01*
X161525849Y-66783123D01*
X161555594Y-66793569D01*
X161560790Y-66794019D01*
X161563495Y-66794019D01*
X161565751Y-66794116D01*
X161566227Y-66794259D01*
X161566225Y-66794305D01*
X161566424Y-66794318D01*
X161572341Y-66796087D01*
X161622509Y-66794116D01*
X161627455Y-66794019D01*
X161707564Y-66794019D01*
X163395490Y-66794020D01*
X163463611Y-66814022D01*
X163484585Y-66830924D01*
X163674075Y-67020413D01*
X163708100Y-67082725D01*
X163710980Y-67109509D01*
X163710980Y-67424229D01*
X163708874Y-67444023D01*
X163708669Y-67448376D01*
X163706477Y-67458556D01*
X163707701Y-67468894D01*
X163710107Y-67489223D01*
X163710422Y-67494569D01*
X163710552Y-67494558D01*
X163710980Y-67499738D01*
X163710980Y-67504937D01*
X163711833Y-67510061D01*
X163711834Y-67510074D01*
X163713907Y-67522527D01*
X163714744Y-67528402D01*
X163718852Y-67563110D01*
X163720349Y-67575756D01*
X163724050Y-67583464D01*
X163725455Y-67591903D01*
X163748109Y-67633887D01*
X163750790Y-67639150D01*
X163771435Y-67682144D01*
X163774791Y-67686136D01*
X163776738Y-67688083D01*
X163778228Y-67689708D01*
X163778461Y-67690140D01*
X163778425Y-67690173D01*
X163778564Y-67690331D01*
X163781497Y-67695766D01*
X163789144Y-67702835D01*
X163818348Y-67729831D01*
X163821914Y-67733259D01*
X164016488Y-67927832D01*
X164122919Y-68034263D01*
X164156944Y-68096576D01*
X164151880Y-68167391D01*
X164125361Y-68205245D01*
X164127664Y-68207279D01*
X164032002Y-68315596D01*
X163970586Y-68446408D01*
X163969206Y-68455272D01*
X163969205Y-68455275D01*
X163950398Y-68576067D01*
X163948353Y-68589199D01*
X163949517Y-68598101D01*
X163949517Y-68598104D01*
X163960922Y-68685314D01*
X163967091Y-68732491D01*
X164025292Y-68864765D01*
X164031066Y-68871634D01*
X164100021Y-68953665D01*
X164118279Y-68975386D01*
X164125750Y-68980359D01*
X164125751Y-68980360D01*
X164231104Y-69050489D01*
X164231106Y-69050490D01*
X164238577Y-69055463D01*
X164247144Y-69058140D01*
X164247145Y-69058140D01*
X164365204Y-69095025D01*
X164416724Y-69126197D01*
X164978595Y-69688068D01*
X165012621Y-69750380D01*
X165015500Y-69777163D01*
X165015500Y-69937966D01*
X165018565Y-69947398D01*
X165018565Y-69947400D01*
X165022395Y-69959187D01*
X165027011Y-69978413D01*
X165030502Y-70000455D01*
X165037621Y-70014427D01*
X165040633Y-70020338D01*
X165048199Y-70038604D01*
X165055095Y-70059829D01*
X165060925Y-70067853D01*
X165068216Y-70077889D01*
X165078545Y-70094744D01*
X165088674Y-70114623D01*
X165111452Y-70137401D01*
X165111465Y-70137415D01*
X165231551Y-70257500D01*
X165318596Y-70344545D01*
X165352621Y-70406857D01*
X165355501Y-70433641D01*
X165355501Y-70457444D01*
X165356276Y-70462337D01*
X165364597Y-70514875D01*
X165370132Y-70549827D01*
X165426865Y-70661171D01*
X165515229Y-70749535D01*
X165626573Y-70806268D01*
X165636363Y-70807819D01*
X165636364Y-70807819D01*
X165662101Y-70811895D01*
X165718955Y-70820900D01*
X165889965Y-70820900D01*
X166061044Y-70820899D01*
X166107312Y-70813571D01*
X166177720Y-70822671D01*
X166216115Y-70848925D01*
X166304074Y-70936884D01*
X166316501Y-70946524D01*
X166443780Y-71021796D01*
X166458216Y-71028043D01*
X166578605Y-71063019D01*
X166592705Y-71062979D01*
X166596000Y-71055709D01*
X166596000Y-71049958D01*
X167104000Y-71049958D01*
X167107973Y-71063489D01*
X167115871Y-71064624D01*
X167241784Y-71028043D01*
X167256220Y-71021796D01*
X167383499Y-70946524D01*
X167395926Y-70936884D01*
X167500484Y-70832326D01*
X167510124Y-70819899D01*
X167585396Y-70692620D01*
X167591643Y-70678184D01*
X167633312Y-70534760D01*
X167635078Y-70525091D01*
X167638165Y-70518957D01*
X167633617Y-70514705D01*
X167632420Y-70513491D01*
X167620487Y-70510400D01*
X167122115Y-70510400D01*
X167106876Y-70514875D01*
X167105671Y-70516265D01*
X167104000Y-70523948D01*
X167104000Y-71049958D01*
X166596000Y-71049958D01*
X166596000Y-70128400D01*
X166616002Y-70060279D01*
X166669658Y-70013786D01*
X166722000Y-70002400D01*
X167618424Y-70002400D01*
X167633219Y-69998056D01*
X167635063Y-69987625D01*
X167633312Y-69978041D01*
X167599068Y-69860173D01*
X167599271Y-69789177D01*
X167637824Y-69729561D01*
X167702489Y-69700252D01*
X167720065Y-69699020D01*
X167925859Y-69699020D01*
X167993980Y-69719022D01*
X168014954Y-69735925D01*
X168054596Y-69775567D01*
X168088622Y-69837879D01*
X168091501Y-69864662D01*
X168091501Y-69922044D01*
X168098829Y-69968312D01*
X168089729Y-70038720D01*
X168063475Y-70077115D01*
X167975516Y-70165074D01*
X167965876Y-70177501D01*
X167890604Y-70304780D01*
X167884357Y-70319216D01*
X167845766Y-70452048D01*
X167856691Y-70457000D01*
X169449558Y-70457000D01*
X169463089Y-70453027D01*
X169464224Y-70445129D01*
X169427643Y-70319216D01*
X169421396Y-70304780D01*
X169346124Y-70177501D01*
X169336484Y-70165074D01*
X169248526Y-70077116D01*
X169214500Y-70014804D01*
X169213172Y-69968309D01*
X169214018Y-69962973D01*
X169217978Y-69937966D01*
X169219726Y-69926933D01*
X169219726Y-69926931D01*
X169220500Y-69922045D01*
X169220499Y-69579956D01*
X169207077Y-69495208D01*
X169216177Y-69424799D01*
X169261899Y-69370485D01*
X169331526Y-69349500D01*
X169765261Y-69349500D01*
X169833382Y-69369502D01*
X169854356Y-69386405D01*
X169894277Y-69426326D01*
X170008445Y-69484498D01*
X170103166Y-69499500D01*
X171416834Y-69499500D01*
X171511555Y-69484498D01*
X171625723Y-69426326D01*
X171716326Y-69335723D01*
X171774498Y-69221555D01*
X171789500Y-69126834D01*
X171789500Y-68763166D01*
X171774498Y-68668445D01*
X171716326Y-68554277D01*
X171696144Y-68534095D01*
X171662118Y-68471783D01*
X171667183Y-68400968D01*
X171696144Y-68355905D01*
X171716326Y-68335723D01*
X171774498Y-68221555D01*
X171789500Y-68126834D01*
X171789500Y-67763166D01*
X171774498Y-67668445D01*
X171716326Y-67554277D01*
X171625723Y-67463674D01*
X171511555Y-67405502D01*
X171416834Y-67390500D01*
X170103166Y-67390500D01*
X170008445Y-67405502D01*
X169894277Y-67463674D01*
X169803674Y-67554277D01*
X169802140Y-67557287D01*
X169748795Y-67598421D01*
X169678059Y-67604496D01*
X169615267Y-67571364D01*
X169597278Y-67549428D01*
X169591200Y-67540030D01*
X169582309Y-67536000D01*
X168655000Y-67536000D01*
X168586879Y-67515998D01*
X168540386Y-67462342D01*
X168529000Y-67410000D01*
X168529000Y-67154000D01*
X168549002Y-67085879D01*
X168602658Y-67039386D01*
X168655000Y-67028000D01*
X169576558Y-67028000D01*
X169590089Y-67024027D01*
X169591224Y-67016129D01*
X169554643Y-66890216D01*
X169548396Y-66875780D01*
X169473124Y-66748501D01*
X169463484Y-66736074D01*
X169375526Y-66648116D01*
X169341500Y-66585804D01*
X169340172Y-66539309D01*
X169340608Y-66536560D01*
X169347500Y-66493045D01*
X169347499Y-66150956D01*
X169340133Y-66104448D01*
X169334420Y-66068371D01*
X169334419Y-66068369D01*
X169332868Y-66058573D01*
X169320754Y-66034797D01*
X169299305Y-65992702D01*
X169286201Y-65922925D01*
X169312901Y-65857140D01*
X169370929Y-65816234D01*
X169411572Y-65809499D01*
X169426495Y-65809499D01*
X169435925Y-65806435D01*
X169435926Y-65806435D01*
X169447718Y-65802604D01*
X169466939Y-65797990D01*
X169479191Y-65796049D01*
X169479195Y-65796048D01*
X169488985Y-65794497D01*
X169508880Y-65784360D01*
X169527132Y-65776800D01*
X169548358Y-65769903D01*
X169566417Y-65756783D01*
X169583260Y-65746461D01*
X169603153Y-65736325D01*
X169670962Y-65668515D01*
X170234535Y-65104942D01*
X170234549Y-65104927D01*
X170257326Y-65082150D01*
X170267457Y-65062267D01*
X170277787Y-65045410D01*
X170285076Y-65035377D01*
X170290904Y-65027356D01*
X170293969Y-65017924D01*
X170297801Y-65006131D01*
X170305367Y-64987864D01*
X170310996Y-64976817D01*
X170315498Y-64967982D01*
X170318990Y-64945934D01*
X170323606Y-64926709D01*
X170327433Y-64914929D01*
X170330499Y-64905493D01*
X170330499Y-64873267D01*
X170330500Y-64873261D01*
X170330500Y-63148740D01*
X170350502Y-63080619D01*
X170367405Y-63059645D01*
X170740645Y-62686405D01*
X170802957Y-62652379D01*
X170829740Y-62649500D01*
X171416834Y-62649500D01*
X171511555Y-62634498D01*
X171625723Y-62576326D01*
X171716326Y-62485723D01*
X171774498Y-62371555D01*
X171789500Y-62276834D01*
X171789500Y-61913166D01*
X171774498Y-61818445D01*
X171716326Y-61704277D01*
X171696144Y-61684095D01*
X171662118Y-61621783D01*
X171667183Y-61550968D01*
X171696144Y-61505905D01*
X171716326Y-61485723D01*
X171774498Y-61371555D01*
X171789500Y-61276834D01*
X171789500Y-60913166D01*
X171774498Y-60818445D01*
X171716326Y-60704277D01*
X171625723Y-60613674D01*
X171511555Y-60555502D01*
X171416834Y-60540500D01*
X170103166Y-60540500D01*
X170098274Y-60541275D01*
X170098271Y-60541275D01*
X170095209Y-60541760D01*
X170094036Y-60541608D01*
X170093341Y-60541663D01*
X170093330Y-60541517D01*
X170024798Y-60532660D01*
X169970485Y-60486937D01*
X169949500Y-60417311D01*
X169949500Y-56099741D01*
X169969502Y-56031620D01*
X169986404Y-56010646D01*
X170160644Y-55836405D01*
X170222956Y-55802380D01*
X170249740Y-55799500D01*
X171416834Y-55799500D01*
X171511555Y-55784498D01*
X171625723Y-55726326D01*
X171716326Y-55635723D01*
X171774498Y-55521555D01*
X171789500Y-55426834D01*
X171789500Y-55063166D01*
X171774498Y-54968445D01*
X171716326Y-54854277D01*
X171696144Y-54834095D01*
X171662118Y-54771783D01*
X171667183Y-54700968D01*
X171696144Y-54655905D01*
X171716326Y-54635723D01*
X171774498Y-54521555D01*
X171789500Y-54426834D01*
X171789500Y-54063166D01*
X171774498Y-53968445D01*
X171716326Y-53854277D01*
X171625723Y-53763674D01*
X171511555Y-53705502D01*
X171416834Y-53690500D01*
X170103166Y-53690500D01*
X170008445Y-53705502D01*
X169894277Y-53763674D01*
X169830570Y-53827381D01*
X169785114Y-53855238D01*
X169783445Y-53855502D01*
X169774609Y-53860004D01*
X169774607Y-53860005D01*
X169763568Y-53865630D01*
X169745300Y-53873197D01*
X169733506Y-53877029D01*
X169733501Y-53877031D01*
X169724072Y-53880095D01*
X169716052Y-53885922D01*
X169716050Y-53885923D01*
X169706017Y-53893213D01*
X169689158Y-53903544D01*
X169669277Y-53913674D01*
X169646486Y-53936465D01*
X168601465Y-54981485D01*
X168601462Y-54981489D01*
X168578674Y-55004277D01*
X168577573Y-55006438D01*
X168524644Y-55047251D01*
X168453908Y-55053326D01*
X168391117Y-55020194D01*
X168357935Y-54964990D01*
X168353642Y-54950215D01*
X168347396Y-54935780D01*
X168272124Y-54808501D01*
X168262484Y-54796074D01*
X168181970Y-54715560D01*
X168147944Y-54653248D01*
X168153009Y-54582433D01*
X168181970Y-54537370D01*
X168283499Y-54435841D01*
X168293146Y-54423405D01*
X168367770Y-54297222D01*
X168374019Y-54282783D01*
X168415338Y-54140564D01*
X168417637Y-54127977D01*
X168418260Y-54120057D01*
X168415090Y-54104970D01*
X168403626Y-54102000D01*
X167914115Y-54102000D01*
X167898876Y-54106475D01*
X167897671Y-54107865D01*
X167896000Y-54115548D01*
X167896000Y-54642176D01*
X167875998Y-54710297D01*
X167867808Y-54721238D01*
X167866000Y-54729548D01*
X167866000Y-56104000D01*
X167845998Y-56172121D01*
X167792342Y-56218614D01*
X167763496Y-56224889D01*
X167763498Y-56224896D01*
X167730876Y-56234475D01*
X167729671Y-56235865D01*
X167728000Y-56243548D01*
X167728000Y-57194000D01*
X167707998Y-57262121D01*
X167654342Y-57308614D01*
X167602000Y-57320000D01*
X167346000Y-57320000D01*
X167277879Y-57299998D01*
X167231386Y-57246342D01*
X167220000Y-57194000D01*
X167220000Y-55944000D01*
X167240002Y-55875879D01*
X167293658Y-55829386D01*
X167322504Y-55823111D01*
X167322502Y-55823104D01*
X167355124Y-55813525D01*
X167356329Y-55812135D01*
X167358000Y-55804452D01*
X167358000Y-54587824D01*
X167378002Y-54519703D01*
X167386192Y-54508762D01*
X167388000Y-54500452D01*
X167388000Y-53575885D01*
X167896000Y-53575885D01*
X167900475Y-53591124D01*
X167901865Y-53592329D01*
X167909548Y-53594000D01*
X168401566Y-53594000D01*
X168416361Y-53589656D01*
X168418421Y-53577997D01*
X168417637Y-53568023D01*
X168415338Y-53555436D01*
X168374019Y-53413217D01*
X168367770Y-53398778D01*
X168293146Y-53272595D01*
X168283499Y-53260159D01*
X168179841Y-53156501D01*
X168167405Y-53146854D01*
X168041222Y-53072230D01*
X168026783Y-53065981D01*
X167913395Y-53033039D01*
X167899295Y-53033079D01*
X167896000Y-53040349D01*
X167896000Y-53575885D01*
X167388000Y-53575885D01*
X167388000Y-53046100D01*
X167384027Y-53032569D01*
X167376129Y-53031434D01*
X167257217Y-53065981D01*
X167242778Y-53072230D01*
X167116595Y-53146854D01*
X167104159Y-53156501D01*
X167003065Y-53257595D01*
X166940753Y-53291621D01*
X166880121Y-53288588D01*
X166878862Y-53287946D01*
X166787653Y-53273500D01*
X166645101Y-53273500D01*
X166576980Y-53253498D01*
X166530487Y-53199842D01*
X166520383Y-53129568D01*
X166549877Y-53064988D01*
X166558083Y-53057346D01*
X166557799Y-53057062D01*
X166564150Y-53050711D01*
X166571330Y-53045330D01*
X166652628Y-52936853D01*
X166659777Y-52917785D01*
X166692980Y-52829216D01*
X166700214Y-52809919D01*
X166701688Y-52796357D01*
X166706131Y-52755452D01*
X166706131Y-52755448D01*
X166706500Y-52752053D01*
X166706499Y-52149948D01*
X166700214Y-52092081D01*
X166673844Y-52021740D01*
X166655779Y-51973551D01*
X166655778Y-51973548D01*
X166652628Y-51965147D01*
X166636042Y-51943016D01*
X166597107Y-51891064D01*
X166572260Y-51824557D01*
X166587313Y-51755175D01*
X166637488Y-51704945D01*
X166697934Y-51689500D01*
X174244500Y-51689500D01*
X174312621Y-51709502D01*
G37*
%TD.AperFunction*%
%TA.AperFunction,Conductor*%
G36*
X154426960Y-64979502D02*
G01*
X154447934Y-64996405D01*
X154714033Y-65262504D01*
X154748059Y-65324816D01*
X154742920Y-65395827D01*
X154724870Y-65443976D01*
X154724017Y-65451826D01*
X154724017Y-65451827D01*
X154723445Y-65457089D01*
X154718500Y-65502611D01*
X154718501Y-65772966D01*
X154718501Y-65793531D01*
X154698499Y-65861651D01*
X154644844Y-65908144D01*
X154574570Y-65918249D01*
X154509989Y-65888756D01*
X154484048Y-65857670D01*
X154453093Y-65805328D01*
X154443449Y-65792896D01*
X154337104Y-65686551D01*
X154324678Y-65676911D01*
X154195221Y-65600352D01*
X154180790Y-65594107D01*
X154034935Y-65551731D01*
X154022333Y-65549430D01*
X153993916Y-65547193D01*
X153988986Y-65547000D01*
X153609615Y-65547000D01*
X153594376Y-65551475D01*
X153593171Y-65552865D01*
X153591500Y-65560548D01*
X153591500Y-66082885D01*
X153595975Y-66098124D01*
X153597365Y-66099329D01*
X153605048Y-66101000D01*
X154561876Y-66101000D01*
X154595991Y-66090983D01*
X154666988Y-66090983D01*
X154726714Y-66129366D01*
X154749470Y-66167646D01*
X154773083Y-66230635D01*
X154778463Y-66237814D01*
X154778465Y-66237817D01*
X154797402Y-66263084D01*
X154827273Y-66302939D01*
X154827837Y-66303692D01*
X154852685Y-66370198D01*
X154837633Y-66439581D01*
X154793314Y-66486402D01*
X154745827Y-66515788D01*
X154734426Y-66524824D01*
X154686129Y-66573206D01*
X154623846Y-66607286D01*
X154588144Y-66609881D01*
X154575576Y-66609000D01*
X153609615Y-66609000D01*
X153594376Y-66613475D01*
X153593171Y-66614865D01*
X153591500Y-66622548D01*
X153591500Y-67144884D01*
X153595975Y-67160123D01*
X153597365Y-67161328D01*
X153605048Y-67162999D01*
X153988984Y-67162999D01*
X153993920Y-67162805D01*
X154022336Y-67160570D01*
X154034931Y-67158270D01*
X154180790Y-67115893D01*
X154195225Y-67109646D01*
X154309991Y-67041775D01*
X154378807Y-67024316D01*
X154446138Y-67046833D01*
X154456641Y-67055004D01*
X154470865Y-67067329D01*
X154478548Y-67069000D01*
X155576000Y-67069000D01*
X155644121Y-67089002D01*
X155690614Y-67142658D01*
X155702000Y-67195000D01*
X155702000Y-68262885D01*
X155706475Y-68278124D01*
X155707865Y-68279329D01*
X155715548Y-68281000D01*
X155743438Y-68281000D01*
X155749953Y-68280663D01*
X155842057Y-68271106D01*
X155855456Y-68268212D01*
X156004107Y-68218619D01*
X156017286Y-68212445D01*
X156150173Y-68130212D01*
X156161574Y-68121176D01*
X156271986Y-68010571D01*
X156280998Y-67999160D01*
X156334240Y-67912785D01*
X156387012Y-67865292D01*
X156457084Y-67853868D01*
X156522208Y-67882142D01*
X156561707Y-67941136D01*
X156567500Y-67978901D01*
X156567500Y-68360260D01*
X156547498Y-68428381D01*
X156530595Y-68449355D01*
X155317355Y-69662595D01*
X155255043Y-69696621D01*
X155228260Y-69699500D01*
X148118739Y-69699500D01*
X148050618Y-69679498D01*
X148029644Y-69662595D01*
X147763234Y-69396185D01*
X147729208Y-69333873D01*
X147734273Y-69263058D01*
X147740062Y-69249887D01*
X147747080Y-69236114D01*
X147754498Y-69221555D01*
X147769500Y-69126834D01*
X147769500Y-69035891D01*
X147789502Y-68967770D01*
X147843158Y-68921277D01*
X147913432Y-68911173D01*
X147978012Y-68940667D01*
X147988407Y-68951219D01*
X147990505Y-68953095D01*
X147996276Y-68959960D01*
X148020650Y-68976185D01*
X148034225Y-68986620D01*
X148056170Y-69006001D01*
X148079165Y-69016797D01*
X148095431Y-69025963D01*
X148116574Y-69040037D01*
X148141050Y-69047684D01*
X148144516Y-69048767D01*
X148160482Y-69054976D01*
X148186982Y-69067417D01*
X148195845Y-69068797D01*
X148195851Y-69068799D01*
X148212078Y-69071326D01*
X148230258Y-69075557D01*
X148245940Y-69080456D01*
X148245949Y-69080457D01*
X148254510Y-69083132D01*
X148263476Y-69083296D01*
X148263480Y-69083297D01*
X148289294Y-69083770D01*
X148293211Y-69083957D01*
X148296697Y-69084500D01*
X148327992Y-69084500D01*
X148330301Y-69084521D01*
X148398998Y-69085780D01*
X148402779Y-69084749D01*
X148406796Y-69084500D01*
X149343992Y-69084500D01*
X149346301Y-69084521D01*
X149414998Y-69085780D01*
X149418779Y-69084749D01*
X149422796Y-69084500D01*
X150517376Y-69084500D01*
X150529381Y-69085841D01*
X150529421Y-69085345D01*
X150538368Y-69086065D01*
X150547124Y-69088046D01*
X150600382Y-69084742D01*
X150608184Y-69084500D01*
X150624226Y-69084500D01*
X150628657Y-69083865D01*
X150628662Y-69083865D01*
X150632687Y-69083288D01*
X150634457Y-69083035D01*
X150644514Y-69082004D01*
X150666976Y-69080611D01*
X150682400Y-69079654D01*
X150682402Y-69079654D01*
X150691359Y-69079098D01*
X150699799Y-69076051D01*
X150703089Y-69075370D01*
X150718938Y-69071418D01*
X150722168Y-69070473D01*
X150731052Y-69069201D01*
X150752147Y-69059610D01*
X150773763Y-69049782D01*
X150783128Y-69045970D01*
X150818837Y-69033078D01*
X150818840Y-69033076D01*
X150827284Y-69030028D01*
X150834533Y-69024732D01*
X150837490Y-69023160D01*
X150851614Y-69014907D01*
X150854437Y-69013102D01*
X150862605Y-69009388D01*
X150869402Y-69003531D01*
X150869404Y-69003530D01*
X150898153Y-68978757D01*
X150906064Y-68972475D01*
X150916944Y-68964527D01*
X150927806Y-68953665D01*
X150934653Y-68947307D01*
X150965282Y-68920915D01*
X150972082Y-68915056D01*
X150976966Y-68907521D01*
X150982699Y-68900949D01*
X150991926Y-68889545D01*
X151039067Y-68842404D01*
X151101379Y-68808378D01*
X151128162Y-68805499D01*
X151167066Y-68805499D01*
X151202818Y-68798388D01*
X151229126Y-68793156D01*
X151229128Y-68793155D01*
X151241301Y-68790734D01*
X151251621Y-68783839D01*
X151251622Y-68783838D01*
X151315168Y-68741377D01*
X151325484Y-68734484D01*
X151381734Y-68650301D01*
X151396500Y-68576067D01*
X151396499Y-68075934D01*
X151381734Y-68001699D01*
X151374838Y-67991378D01*
X151374838Y-67991377D01*
X151364545Y-67975974D01*
X151343329Y-67908221D01*
X151362111Y-67839754D01*
X151414928Y-67792311D01*
X151485010Y-67780953D01*
X151550108Y-67809288D01*
X151558404Y-67816875D01*
X152374324Y-68632794D01*
X152381867Y-68642235D01*
X152382246Y-68641912D01*
X152388062Y-68648746D01*
X152392853Y-68656339D01*
X152399582Y-68662282D01*
X152399583Y-68662283D01*
X152413396Y-68674483D01*
X152434750Y-68698918D01*
X152446877Y-68717065D01*
X152458516Y-68734484D01*
X152468832Y-68741377D01*
X152468834Y-68741379D01*
X152501441Y-68763166D01*
X152542699Y-68790734D01*
X152598722Y-68801878D01*
X152615178Y-68807289D01*
X152615273Y-68806978D01*
X152623858Y-68809603D01*
X152631982Y-68813417D01*
X152640849Y-68814798D01*
X152644075Y-68815784D01*
X152659855Y-68819924D01*
X152663144Y-68820647D01*
X152671552Y-68823799D01*
X152706652Y-68826407D01*
X152718359Y-68827277D01*
X152728407Y-68828431D01*
X152736880Y-68829750D01*
X152736881Y-68829750D01*
X152741697Y-68830500D01*
X152757049Y-68830500D01*
X152766386Y-68830846D01*
X152815667Y-68834508D01*
X152824444Y-68832634D01*
X152833133Y-68832042D01*
X152847742Y-68830500D01*
X152978226Y-68830500D01*
X153040563Y-68821572D01*
X153076165Y-68816474D01*
X153076167Y-68816473D01*
X153085052Y-68815201D01*
X153093225Y-68811485D01*
X153096374Y-68810564D01*
X153131739Y-68805499D01*
X153267066Y-68805499D01*
X153302818Y-68798388D01*
X153329126Y-68793156D01*
X153329128Y-68793155D01*
X153341301Y-68790734D01*
X153351621Y-68783839D01*
X153351622Y-68783838D01*
X153415168Y-68741377D01*
X153425484Y-68734484D01*
X153481734Y-68650301D01*
X153496500Y-68576067D01*
X153496499Y-68075934D01*
X153481734Y-68001699D01*
X153425484Y-67917516D01*
X153341301Y-67861266D01*
X153267067Y-67846500D01*
X153131391Y-67846500D01*
X153096902Y-67841346D01*
X153091018Y-67838583D01*
X153057338Y-67833339D01*
X153032201Y-67829425D01*
X152967969Y-67799181D01*
X152962491Y-67794020D01*
X152761909Y-67593438D01*
X154465000Y-67593438D01*
X154465337Y-67599953D01*
X154474894Y-67692057D01*
X154477788Y-67705456D01*
X154527381Y-67854107D01*
X154533555Y-67867286D01*
X154615788Y-68000173D01*
X154624824Y-68011574D01*
X154735429Y-68121986D01*
X154746840Y-68130998D01*
X154879880Y-68213004D01*
X154893061Y-68219151D01*
X155041814Y-68268491D01*
X155055190Y-68271358D01*
X155146097Y-68280672D01*
X155152513Y-68281000D01*
X155175885Y-68281000D01*
X155191124Y-68276525D01*
X155192329Y-68275135D01*
X155194000Y-68267452D01*
X155194000Y-67595115D01*
X155189525Y-67579876D01*
X155188135Y-67578671D01*
X155180452Y-67577000D01*
X154483115Y-67577000D01*
X154467876Y-67581475D01*
X154466671Y-67582865D01*
X154465000Y-67590548D01*
X154465000Y-67593438D01*
X152761909Y-67593438D01*
X152542344Y-67373873D01*
X152508318Y-67311561D01*
X152513383Y-67240746D01*
X152555930Y-67183910D01*
X152622450Y-67159099D01*
X152646222Y-67160398D01*
X152646248Y-67160065D01*
X152681084Y-67162807D01*
X152686014Y-67163000D01*
X153065385Y-67163000D01*
X153080624Y-67158525D01*
X153081829Y-67157135D01*
X153083500Y-67149452D01*
X153083500Y-65565116D01*
X153079025Y-65549877D01*
X153077635Y-65548672D01*
X153069952Y-65547001D01*
X152686017Y-65547001D01*
X152681080Y-65547195D01*
X152652664Y-65549430D01*
X152640063Y-65551731D01*
X152615655Y-65558823D01*
X152544659Y-65558622D01*
X152485042Y-65520069D01*
X152455732Y-65455405D01*
X152454500Y-65437827D01*
X152454500Y-65223166D01*
X152439498Y-65128445D01*
X152442435Y-65127980D01*
X152440867Y-65072931D01*
X152477535Y-65012136D01*
X152541250Y-64980817D01*
X152604794Y-64988113D01*
X152605178Y-64986932D01*
X152611012Y-64988827D01*
X152611783Y-64988916D01*
X152612937Y-64989453D01*
X152614611Y-64989997D01*
X152623445Y-64994498D01*
X152718166Y-65009500D01*
X153956834Y-65009500D01*
X154051555Y-64994498D01*
X154060389Y-64989997D01*
X154093290Y-64973233D01*
X154150493Y-64959500D01*
X154358839Y-64959500D01*
X154426960Y-64979502D01*
G37*
%TD.AperFunction*%
%TA.AperFunction,Conductor*%
G36*
X150026121Y-60124501D02*
G01*
X150072614Y-60178156D01*
X150084000Y-60230499D01*
X150084000Y-60478000D01*
X150063998Y-60546121D01*
X150010342Y-60592614D01*
X149958000Y-60604000D01*
X149522115Y-60604000D01*
X149506876Y-60608475D01*
X149505671Y-60609865D01*
X149504000Y-60617548D01*
X149504000Y-62409885D01*
X149508475Y-62425124D01*
X149509865Y-62426329D01*
X149517548Y-62428000D01*
X149845447Y-62428000D01*
X149851822Y-62427677D01*
X149898528Y-62422933D01*
X149968322Y-62435949D01*
X150019999Y-62484632D01*
X150037152Y-62553525D01*
X150023528Y-62605491D01*
X149982946Y-62685138D01*
X149968500Y-62776347D01*
X149968500Y-62925198D01*
X149948498Y-62993319D01*
X149894842Y-63039812D01*
X149824568Y-63049916D01*
X149795146Y-63041844D01*
X149785301Y-63035266D01*
X149747495Y-63027746D01*
X149718535Y-63018225D01*
X149706518Y-63012583D01*
X149697644Y-63011201D01*
X149694417Y-63010215D01*
X149678634Y-63006075D01*
X149675356Y-63005354D01*
X149666948Y-63002202D01*
X149653191Y-63001180D01*
X149620143Y-62998724D01*
X149610096Y-62997570D01*
X149601614Y-62996249D01*
X149601611Y-62996249D01*
X149596803Y-62995500D01*
X149581438Y-62995500D01*
X149572101Y-62995154D01*
X149556019Y-62993959D01*
X149522833Y-62991493D01*
X149514058Y-62993366D01*
X149505362Y-62993959D01*
X149490762Y-62995500D01*
X149349774Y-62995500D01*
X149287437Y-63004428D01*
X149251835Y-63009526D01*
X149251833Y-63009527D01*
X149242948Y-63010799D01*
X149234775Y-63014515D01*
X149231626Y-63015436D01*
X149196261Y-63020501D01*
X149060934Y-63020501D01*
X149025182Y-63027612D01*
X148998874Y-63032844D01*
X148998872Y-63032845D01*
X148986699Y-63035266D01*
X148976379Y-63042161D01*
X148976378Y-63042162D01*
X148925502Y-63076157D01*
X148902516Y-63091516D01*
X148846266Y-63175699D01*
X148831500Y-63249933D01*
X148831501Y-63750066D01*
X148838153Y-63783510D01*
X148843292Y-63809346D01*
X148846266Y-63824301D01*
X148853161Y-63834620D01*
X148853162Y-63834622D01*
X148892859Y-63894032D01*
X148902516Y-63908484D01*
X148986699Y-63964734D01*
X149060933Y-63979500D01*
X149196609Y-63979500D01*
X149231098Y-63984654D01*
X149236982Y-63987417D01*
X149245850Y-63988798D01*
X149245854Y-63988799D01*
X149293850Y-63996272D01*
X149308235Y-63998511D01*
X149372467Y-64028755D01*
X149377945Y-64033916D01*
X150438324Y-65094295D01*
X150472350Y-65156607D01*
X150473678Y-65203101D01*
X150470500Y-65223166D01*
X150470500Y-65586834D01*
X150485502Y-65681555D01*
X150543674Y-65795723D01*
X150634277Y-65886326D01*
X150748445Y-65944498D01*
X150758238Y-65946049D01*
X150838276Y-65958726D01*
X150838282Y-65958726D01*
X150843166Y-65959500D01*
X150843168Y-65959500D01*
X150908222Y-65984291D01*
X150950365Y-66041427D01*
X150958000Y-66084621D01*
X150958000Y-66692500D01*
X150937998Y-66760621D01*
X150884342Y-66807114D01*
X150832000Y-66818500D01*
X149985163Y-66818500D01*
X149917042Y-66798498D01*
X149870549Y-66744842D01*
X149860445Y-66674568D01*
X149889939Y-66609988D01*
X149918861Y-66585355D01*
X149927176Y-66580210D01*
X149938574Y-66571176D01*
X150048986Y-66460571D01*
X150057998Y-66449160D01*
X150140004Y-66316120D01*
X150146151Y-66302939D01*
X150195491Y-66154186D01*
X150198358Y-66140810D01*
X150207672Y-66049903D01*
X150207929Y-66044874D01*
X150203525Y-66029876D01*
X150202135Y-66028671D01*
X150194452Y-66027000D01*
X148260115Y-66027000D01*
X148244876Y-66031475D01*
X148243671Y-66032865D01*
X148242000Y-66040548D01*
X148242000Y-66043438D01*
X148242337Y-66049953D01*
X148251894Y-66142057D01*
X148254788Y-66155456D01*
X148304381Y-66304107D01*
X148310555Y-66317286D01*
X148392788Y-66450173D01*
X148401824Y-66461574D01*
X148512429Y-66571986D01*
X148523840Y-66580998D01*
X148570102Y-66609514D01*
X148617595Y-66662286D01*
X148629019Y-66732358D01*
X148604812Y-66792339D01*
X148555468Y-66858179D01*
X148555466Y-66858182D01*
X148550083Y-66865365D01*
X148546933Y-66873769D01*
X148546932Y-66873770D01*
X148513857Y-66962001D01*
X148501870Y-66993976D01*
X148501017Y-67001826D01*
X148501017Y-67001827D01*
X148496416Y-67044175D01*
X148495500Y-67052611D01*
X148495501Y-67593388D01*
X148495870Y-67596782D01*
X148495870Y-67596788D01*
X148500472Y-67639150D01*
X148501870Y-67652024D01*
X148550083Y-67780635D01*
X148555466Y-67787818D01*
X148555468Y-67787821D01*
X148620007Y-67873935D01*
X148644855Y-67940441D01*
X148629802Y-68009824D01*
X148579628Y-68060054D01*
X148519181Y-68075500D01*
X148344602Y-68075500D01*
X148343833Y-68075498D01*
X148266827Y-68075028D01*
X148258197Y-68077494D01*
X148258193Y-68077495D01*
X148238680Y-68083072D01*
X148221919Y-68086650D01*
X148192948Y-68090799D01*
X148184771Y-68094517D01*
X148169835Y-68101308D01*
X148152306Y-68107758D01*
X148136507Y-68112273D01*
X148136506Y-68112274D01*
X148127879Y-68114739D01*
X148108710Y-68126834D01*
X148103123Y-68130359D01*
X148088040Y-68138497D01*
X148079938Y-68142181D01*
X148061395Y-68150612D01*
X148054591Y-68156475D01*
X148054589Y-68156476D01*
X148042153Y-68167191D01*
X148027145Y-68178297D01*
X148025145Y-68179559D01*
X147957906Y-68199000D01*
X146612000Y-68199000D01*
X146543879Y-68178998D01*
X146497386Y-68125342D01*
X146486000Y-68073000D01*
X146486000Y-67817000D01*
X146506002Y-67748879D01*
X146559658Y-67702386D01*
X146612000Y-67691000D01*
X148001878Y-67691000D01*
X148015409Y-67687027D01*
X148016544Y-67679129D01*
X147975893Y-67539210D01*
X147969648Y-67524779D01*
X147893089Y-67395322D01*
X147883449Y-67382896D01*
X147795466Y-67294913D01*
X147761440Y-67232601D01*
X147760112Y-67186107D01*
X147760597Y-67183046D01*
X147769500Y-67126834D01*
X147769500Y-66763166D01*
X147754498Y-66668445D01*
X147696326Y-66554277D01*
X147605723Y-66463674D01*
X147491555Y-66405502D01*
X147396834Y-66390500D01*
X146083166Y-66390500D01*
X145988445Y-66405502D01*
X145874277Y-66463674D01*
X145783674Y-66554277D01*
X145782420Y-66553023D01*
X145735484Y-66589216D01*
X145704579Y-66596928D01*
X145690071Y-66598645D01*
X145679730Y-66599869D01*
X145672022Y-66603570D01*
X145663583Y-66604975D01*
X145621599Y-66627629D01*
X145616336Y-66630310D01*
X145573342Y-66650955D01*
X145569350Y-66654311D01*
X145567403Y-66656258D01*
X145565778Y-66657748D01*
X145565346Y-66657981D01*
X145565313Y-66657945D01*
X145565155Y-66658084D01*
X145559720Y-66661017D01*
X145552651Y-66668664D01*
X145525654Y-66697869D01*
X145522226Y-66701435D01*
X145358297Y-66865365D01*
X145200578Y-67023084D01*
X145185098Y-67035586D01*
X145181868Y-67038525D01*
X145173118Y-67044175D01*
X145153991Y-67068438D01*
X145150441Y-67072433D01*
X145150540Y-67072517D01*
X145147182Y-67076480D01*
X145143506Y-67080156D01*
X145140483Y-67084385D01*
X145140483Y-67084386D01*
X145133146Y-67094652D01*
X145129585Y-67099395D01*
X145106503Y-67128675D01*
X145106501Y-67128679D01*
X145100054Y-67136857D01*
X145097221Y-67144925D01*
X145092247Y-67151885D01*
X145089263Y-67161863D01*
X145078580Y-67197586D01*
X145076744Y-67203235D01*
X145060950Y-67248208D01*
X145060500Y-67253404D01*
X145060500Y-67256109D01*
X145060403Y-67258365D01*
X145060260Y-67258841D01*
X145060214Y-67258839D01*
X145060201Y-67259038D01*
X145058432Y-67264955D01*
X145058841Y-67275359D01*
X145060403Y-67315124D01*
X145060500Y-67320070D01*
X145060500Y-69163743D01*
X145058394Y-69183537D01*
X145058189Y-69187890D01*
X145055997Y-69198070D01*
X145057221Y-69208408D01*
X145059627Y-69228737D01*
X145059942Y-69234083D01*
X145060072Y-69234072D01*
X145060500Y-69239250D01*
X145060500Y-69244451D01*
X145061354Y-69249580D01*
X145061782Y-69254761D01*
X145059565Y-69254944D01*
X145052163Y-69316096D01*
X145006880Y-69370777D01*
X144939224Y-69392297D01*
X144922802Y-69391591D01*
X144916158Y-69390869D01*
X144916147Y-69390868D01*
X144912756Y-69390500D01*
X143517244Y-69390500D01*
X143513848Y-69390869D01*
X143513847Y-69390869D01*
X143463403Y-69396349D01*
X143463402Y-69396349D01*
X143455552Y-69397202D01*
X143448159Y-69399974D01*
X143448157Y-69399974D01*
X143396565Y-69419315D01*
X143320236Y-69447929D01*
X143314883Y-69451941D01*
X143246650Y-69466863D01*
X143180102Y-69442125D01*
X143137493Y-69385336D01*
X143129500Y-69341174D01*
X143129500Y-66548826D01*
X143149502Y-66480705D01*
X143203158Y-66434212D01*
X143273432Y-66424108D01*
X143314573Y-66437827D01*
X143320236Y-66442071D01*
X143372261Y-66461574D01*
X143448157Y-66490026D01*
X143448159Y-66490026D01*
X143455552Y-66492798D01*
X143463402Y-66493651D01*
X143463403Y-66493651D01*
X143511159Y-66498839D01*
X143517244Y-66499500D01*
X144912756Y-66499500D01*
X144918841Y-66498839D01*
X144966597Y-66493651D01*
X144966598Y-66493651D01*
X144974448Y-66492798D01*
X144981841Y-66490026D01*
X144981843Y-66490026D01*
X145052644Y-66463484D01*
X145109764Y-66442071D01*
X145116943Y-66436691D01*
X145116946Y-66436689D01*
X145218224Y-66360785D01*
X145225404Y-66355404D01*
X145260608Y-66308431D01*
X145306689Y-66246946D01*
X145306691Y-66246943D01*
X145312071Y-66239764D01*
X145362798Y-66104448D01*
X145369500Y-66042756D01*
X145369500Y-65501126D01*
X148242071Y-65501126D01*
X148246475Y-65516124D01*
X148247865Y-65517329D01*
X148255548Y-65519000D01*
X148952885Y-65519000D01*
X148968124Y-65514525D01*
X148969329Y-65513135D01*
X148971000Y-65505452D01*
X148971000Y-65500885D01*
X149479000Y-65500885D01*
X149483475Y-65516124D01*
X149484865Y-65517329D01*
X149492548Y-65519000D01*
X150189885Y-65519000D01*
X150205124Y-65514525D01*
X150206329Y-65513135D01*
X150208000Y-65505452D01*
X150208000Y-65502562D01*
X150207663Y-65496047D01*
X150198106Y-65403943D01*
X150195212Y-65390544D01*
X150145619Y-65241893D01*
X150139445Y-65228714D01*
X150057212Y-65095827D01*
X150048176Y-65084426D01*
X149937571Y-64974014D01*
X149926160Y-64965002D01*
X149793120Y-64882996D01*
X149779939Y-64876849D01*
X149631186Y-64827509D01*
X149617810Y-64824642D01*
X149526903Y-64815328D01*
X149520486Y-64815000D01*
X149497115Y-64815000D01*
X149481876Y-64819475D01*
X149480671Y-64820865D01*
X149479000Y-64828548D01*
X149479000Y-65500885D01*
X148971000Y-65500885D01*
X148971000Y-64833115D01*
X148966525Y-64817876D01*
X148965135Y-64816671D01*
X148957452Y-64815000D01*
X148929562Y-64815000D01*
X148923047Y-64815337D01*
X148830943Y-64824894D01*
X148817544Y-64827788D01*
X148668893Y-64877381D01*
X148655714Y-64883555D01*
X148522827Y-64965788D01*
X148511426Y-64974824D01*
X148401014Y-65085429D01*
X148392002Y-65096840D01*
X148309996Y-65229880D01*
X148303849Y-65243061D01*
X148254509Y-65391814D01*
X148251642Y-65405190D01*
X148242328Y-65496097D01*
X148242071Y-65501126D01*
X145369500Y-65501126D01*
X145369500Y-65247244D01*
X145364797Y-65203955D01*
X145363651Y-65193403D01*
X145363651Y-65193402D01*
X145362798Y-65185552D01*
X145312071Y-65050236D01*
X145306691Y-65043057D01*
X145306689Y-65043054D01*
X145231848Y-64943194D01*
X145225404Y-64934596D01*
X145179280Y-64900028D01*
X145116946Y-64853311D01*
X145116943Y-64853309D01*
X145109764Y-64847929D01*
X145018177Y-64813595D01*
X144981843Y-64799974D01*
X144981841Y-64799974D01*
X144974448Y-64797202D01*
X144966598Y-64796349D01*
X144966597Y-64796349D01*
X144916153Y-64790869D01*
X144916152Y-64790869D01*
X144912756Y-64790500D01*
X144898030Y-64790500D01*
X144829909Y-64770498D01*
X144783416Y-64716842D01*
X144773312Y-64646568D01*
X144802806Y-64581988D01*
X144808935Y-64575405D01*
X144836499Y-64547841D01*
X144846143Y-64535408D01*
X144853557Y-64522872D01*
X144905450Y-64474420D01*
X144975300Y-64461715D01*
X145019212Y-64474745D01*
X145099300Y-64515551D01*
X145108138Y-64520054D01*
X145117927Y-64521604D01*
X145117929Y-64521605D01*
X145144421Y-64525801D01*
X145199347Y-64534500D01*
X145414956Y-64534500D01*
X145630652Y-64534499D01*
X145635546Y-64533724D01*
X145712064Y-64521606D01*
X145712066Y-64521605D01*
X145721862Y-64520054D01*
X145739752Y-64510939D01*
X145822964Y-64468540D01*
X145822963Y-64468540D01*
X145831796Y-64464040D01*
X145894431Y-64401405D01*
X145956743Y-64367379D01*
X145983526Y-64364500D01*
X146724743Y-64364500D01*
X146744537Y-64366606D01*
X146748890Y-64366811D01*
X146759070Y-64369003D01*
X146789740Y-64365373D01*
X146795083Y-64365058D01*
X146795072Y-64364928D01*
X146800252Y-64364500D01*
X146805451Y-64364500D01*
X146810575Y-64363647D01*
X146810588Y-64363646D01*
X146823041Y-64361573D01*
X146828916Y-64360736D01*
X146865929Y-64356355D01*
X146876270Y-64355131D01*
X146883978Y-64351430D01*
X146892417Y-64350025D01*
X146934401Y-64327371D01*
X146939664Y-64324690D01*
X146947870Y-64320750D01*
X146982658Y-64304045D01*
X146986650Y-64300689D01*
X146988597Y-64298742D01*
X146990222Y-64297252D01*
X146990654Y-64297019D01*
X146990687Y-64297055D01*
X146990845Y-64296916D01*
X146996280Y-64293983D01*
X147030346Y-64257131D01*
X147033774Y-64253565D01*
X147143044Y-64144295D01*
X147270934Y-64016404D01*
X147333247Y-63982379D01*
X147360030Y-63979499D01*
X147611066Y-63979499D01*
X147651092Y-63971538D01*
X147673126Y-63967156D01*
X147673128Y-63967155D01*
X147685301Y-63964734D01*
X147695621Y-63957839D01*
X147695622Y-63957838D01*
X147759168Y-63915377D01*
X147769484Y-63908484D01*
X147825734Y-63824301D01*
X147840500Y-63750067D01*
X147840499Y-63249934D01*
X147829828Y-63196283D01*
X147828156Y-63187874D01*
X147828155Y-63187872D01*
X147825734Y-63175699D01*
X147816624Y-63162064D01*
X147776377Y-63101832D01*
X147769484Y-63091516D01*
X147746496Y-63076156D01*
X147700970Y-63021679D01*
X147690500Y-62971392D01*
X147690500Y-62102180D01*
X147710502Y-62034059D01*
X147764158Y-61987566D01*
X147834432Y-61977462D01*
X147899012Y-62006956D01*
X147923587Y-62035784D01*
X147933710Y-62052111D01*
X147941460Y-62062174D01*
X148066408Y-62194303D01*
X148076026Y-62202605D01*
X148224987Y-62306908D01*
X148236081Y-62313108D01*
X148402980Y-62385332D01*
X148415083Y-62389171D01*
X148594600Y-62426675D01*
X148604152Y-62427915D01*
X148607384Y-62428000D01*
X148977885Y-62428000D01*
X148993124Y-62423525D01*
X148994329Y-62422135D01*
X148996000Y-62414452D01*
X148996000Y-60627120D01*
X149016002Y-60558999D01*
X149055237Y-60520796D01*
X149059946Y-60518758D01*
X149076437Y-60505404D01*
X149171339Y-60428555D01*
X149171341Y-60428553D01*
X149178013Y-60423150D01*
X149190768Y-60405203D01*
X149261044Y-60306315D01*
X149261044Y-60306314D01*
X149266020Y-60299313D01*
X149306160Y-60187819D01*
X149348054Y-60130501D01*
X149414287Y-60104932D01*
X149424711Y-60104500D01*
X149519722Y-60104500D01*
X149958001Y-60104499D01*
X150026121Y-60124501D01*
G37*
%TD.AperFunction*%
%TA.AperFunction,Conductor*%
G36*
X166566121Y-61996002D02*
G01*
X166612614Y-62049658D01*
X166624000Y-62102000D01*
X166624000Y-63519884D01*
X166628475Y-63535123D01*
X166629865Y-63536328D01*
X166637548Y-63537999D01*
X166864669Y-63537999D01*
X166871488Y-63537630D01*
X166892282Y-63535371D01*
X166962165Y-63547900D01*
X166983059Y-63561894D01*
X166984944Y-63564082D01*
X166992477Y-63568965D01*
X166999054Y-63574702D01*
X167010455Y-63583926D01*
X167233435Y-63806906D01*
X167267461Y-63869218D01*
X167262396Y-63940033D01*
X167219849Y-63996869D01*
X167153329Y-64021680D01*
X167144340Y-64022001D01*
X167025331Y-64022001D01*
X167018510Y-64022371D01*
X166967648Y-64027895D01*
X166952396Y-64031521D01*
X166831942Y-64076677D01*
X166823097Y-64081520D01*
X166762588Y-64097000D01*
X166642115Y-64097000D01*
X166626876Y-64101475D01*
X166625671Y-64102865D01*
X166624000Y-64110548D01*
X166624000Y-66694884D01*
X166628475Y-66710123D01*
X166629865Y-66711328D01*
X166637548Y-66712999D01*
X166864669Y-66712999D01*
X166871490Y-66712629D01*
X166922352Y-66707105D01*
X166937607Y-66703478D01*
X166972107Y-66690545D01*
X167042914Y-66685362D01*
X167069874Y-66694467D01*
X167075437Y-66697079D01*
X167128600Y-66744130D01*
X167146830Y-66794797D01*
X167149088Y-66812063D01*
X167147498Y-66812271D01*
X167146682Y-66873117D01*
X167107501Y-66932323D01*
X167042531Y-66960948D01*
X167026273Y-66962001D01*
X167025331Y-66962001D01*
X167018510Y-66962371D01*
X166967648Y-66967895D01*
X166952396Y-66971521D01*
X166831942Y-67016677D01*
X166823097Y-67021520D01*
X166762588Y-67037000D01*
X166642115Y-67037000D01*
X166626876Y-67041475D01*
X166625671Y-67042865D01*
X166624000Y-67050548D01*
X166624000Y-68473000D01*
X166603998Y-68541121D01*
X166550342Y-68587614D01*
X166498000Y-68599000D01*
X166242000Y-68599000D01*
X166173879Y-68578998D01*
X166127386Y-68525342D01*
X166116000Y-68473000D01*
X166116000Y-67055116D01*
X166111525Y-67039877D01*
X166110135Y-67038672D01*
X166102452Y-67037001D01*
X165875331Y-67037001D01*
X165868510Y-67037371D01*
X165817648Y-67042895D01*
X165802396Y-67046521D01*
X165681946Y-67091676D01*
X165666351Y-67100214D01*
X165564276Y-67176715D01*
X165562396Y-67178595D01*
X165560080Y-67179860D01*
X165557096Y-67182096D01*
X165556773Y-67181665D01*
X165500084Y-67212621D01*
X165473301Y-67215500D01*
X165159870Y-67215501D01*
X165144934Y-67215501D01*
X165101090Y-67224221D01*
X165082870Y-67227845D01*
X165082869Y-67227845D01*
X165070699Y-67230266D01*
X165067305Y-67232534D01*
X165027257Y-67240500D01*
X164949030Y-67240500D01*
X164880909Y-67220498D01*
X164859947Y-67203608D01*
X164856417Y-67200079D01*
X164822383Y-67137772D01*
X164819500Y-67110971D01*
X164819500Y-66794475D01*
X164821606Y-66774681D01*
X164821811Y-66770328D01*
X164824003Y-66760148D01*
X164820373Y-66729478D01*
X164820058Y-66724135D01*
X164819928Y-66724146D01*
X164819500Y-66718966D01*
X164819500Y-66713767D01*
X164818647Y-66708643D01*
X164818646Y-66708630D01*
X164816573Y-66696177D01*
X164815736Y-66690302D01*
X164811355Y-66653289D01*
X164810131Y-66642948D01*
X164806430Y-66635240D01*
X164805025Y-66626801D01*
X164800803Y-66618976D01*
X164797703Y-66548934D01*
X164833408Y-66487570D01*
X164854128Y-66471674D01*
X164860712Y-66467632D01*
X164929231Y-66449038D01*
X164996635Y-66470245D01*
X165070699Y-66519734D01*
X165144933Y-66534500D01*
X165159864Y-66534500D01*
X165473301Y-66534499D01*
X165541420Y-66554501D01*
X165562395Y-66571404D01*
X165564276Y-66573285D01*
X165666351Y-66649786D01*
X165681946Y-66658324D01*
X165802394Y-66703478D01*
X165817649Y-66707105D01*
X165868514Y-66712631D01*
X165875328Y-66713000D01*
X166097885Y-66713000D01*
X166113124Y-66708525D01*
X166114329Y-66707135D01*
X166116000Y-66699452D01*
X166116000Y-64115116D01*
X166111525Y-64099877D01*
X166110135Y-64098672D01*
X166102452Y-64097001D01*
X165875331Y-64097001D01*
X165868510Y-64097371D01*
X165817648Y-64102895D01*
X165802396Y-64106521D01*
X165681946Y-64151676D01*
X165666351Y-64160214D01*
X165564276Y-64236715D01*
X165562396Y-64238595D01*
X165560080Y-64239860D01*
X165557096Y-64242096D01*
X165556773Y-64241665D01*
X165500084Y-64272621D01*
X165473301Y-64275500D01*
X165159870Y-64275501D01*
X165144934Y-64275501D01*
X165120827Y-64280296D01*
X165050114Y-64273965D01*
X165007155Y-64245811D01*
X164880529Y-64119185D01*
X164846503Y-64056873D01*
X164851568Y-63986058D01*
X164894115Y-63929222D01*
X164960396Y-63904500D01*
X164964066Y-63904500D01*
X164964669Y-63904304D01*
X164971933Y-63904111D01*
X165002211Y-63904666D01*
X165062998Y-63905780D01*
X165078396Y-63901582D01*
X165193763Y-63870130D01*
X165193765Y-63870129D01*
X165202422Y-63867769D01*
X165325572Y-63792154D01*
X165422551Y-63685014D01*
X165485560Y-63554962D01*
X165486891Y-63547049D01*
X165526389Y-63488631D01*
X165591640Y-63460652D01*
X165667164Y-63475233D01*
X165681937Y-63483321D01*
X165802394Y-63528478D01*
X165817649Y-63532105D01*
X165868514Y-63537631D01*
X165875328Y-63538000D01*
X166097885Y-63538000D01*
X166113124Y-63533525D01*
X166114329Y-63532135D01*
X166116000Y-63524452D01*
X166116000Y-62102000D01*
X166136002Y-62033879D01*
X166189658Y-61987386D01*
X166242000Y-61976000D01*
X166498000Y-61976000D01*
X166566121Y-61996002D01*
G37*
%TD.AperFunction*%
%TA.AperFunction,Conductor*%
G36*
X156406121Y-63111002D02*
G01*
X156452614Y-63164658D01*
X156464000Y-63217000D01*
X156464000Y-64113424D01*
X156468344Y-64128219D01*
X156478775Y-64130063D01*
X156488359Y-64128312D01*
X156631784Y-64086643D01*
X156646220Y-64080396D01*
X156780320Y-64001090D01*
X156781547Y-64003165D01*
X156836450Y-63981610D01*
X156906072Y-63995512D01*
X156936683Y-64018022D01*
X157122596Y-64203935D01*
X157156622Y-64266247D01*
X157159501Y-64293030D01*
X157159501Y-64392152D01*
X157160276Y-64397043D01*
X157160276Y-64397046D01*
X157172366Y-64473384D01*
X157173946Y-64483362D01*
X157178447Y-64492195D01*
X157178449Y-64492200D01*
X157200002Y-64534500D01*
X157229960Y-64593296D01*
X157317204Y-64680540D01*
X157326040Y-64685042D01*
X157327562Y-64686148D01*
X157370915Y-64742370D01*
X157379500Y-64788083D01*
X157379500Y-65937839D01*
X157359498Y-66005960D01*
X157305842Y-66052453D01*
X157235568Y-66062557D01*
X157170988Y-66033063D01*
X157164405Y-66026934D01*
X156603677Y-65466206D01*
X156596135Y-65456766D01*
X156595755Y-65457089D01*
X156589937Y-65450253D01*
X156585147Y-65442661D01*
X156545140Y-65407328D01*
X156539454Y-65401983D01*
X156528120Y-65390649D01*
X156519845Y-65384447D01*
X156512000Y-65378060D01*
X156483557Y-65352940D01*
X156476830Y-65346999D01*
X156468708Y-65343186D01*
X156465907Y-65341346D01*
X156451912Y-65332937D01*
X156448949Y-65331315D01*
X156441764Y-65325930D01*
X156433354Y-65322777D01*
X156433352Y-65322776D01*
X156397818Y-65309454D01*
X156388502Y-65305529D01*
X156387516Y-65305066D01*
X156346018Y-65285583D01*
X156337144Y-65284201D01*
X156333917Y-65283215D01*
X156318134Y-65279075D01*
X156314856Y-65278354D01*
X156306448Y-65275202D01*
X156292691Y-65274180D01*
X156259643Y-65271724D01*
X156249596Y-65270570D01*
X156241114Y-65269249D01*
X156241111Y-65269249D01*
X156236303Y-65268500D01*
X156220938Y-65268500D01*
X156211601Y-65268154D01*
X156209104Y-65267968D01*
X156162333Y-65264493D01*
X156156377Y-65265764D01*
X156088468Y-65250754D01*
X156048398Y-65215935D01*
X156045929Y-65212641D01*
X156040544Y-65205456D01*
X155955365Y-65141617D01*
X155912417Y-65083575D01*
X155908714Y-65073317D01*
X155898028Y-65043716D01*
X155892731Y-65036466D01*
X155891154Y-65033499D01*
X155882907Y-65019386D01*
X155881102Y-65016563D01*
X155877388Y-65008395D01*
X155867315Y-64996704D01*
X155846757Y-64972847D01*
X155840475Y-64964936D01*
X155832527Y-64954056D01*
X155821665Y-64943194D01*
X155815307Y-64936347D01*
X155815289Y-64936326D01*
X155783056Y-64898918D01*
X155775521Y-64894034D01*
X155768949Y-64888301D01*
X155757545Y-64879074D01*
X155351855Y-64473384D01*
X155317829Y-64411072D01*
X155322894Y-64340257D01*
X155351855Y-64295194D01*
X155574517Y-64072532D01*
X155636829Y-64038506D01*
X155707644Y-64043571D01*
X155727752Y-64053174D01*
X155773781Y-64080396D01*
X155788216Y-64086643D01*
X155931641Y-64128312D01*
X155939609Y-64129768D01*
X155953031Y-64126948D01*
X155956000Y-64115487D01*
X155956000Y-63217000D01*
X155976002Y-63148879D01*
X156029658Y-63102386D01*
X156082000Y-63091000D01*
X156338000Y-63091000D01*
X156406121Y-63111002D01*
G37*
%TD.AperFunction*%
%TA.AperFunction,Conductor*%
G36*
X161901028Y-64909021D02*
G01*
X161947521Y-64962677D01*
X161957625Y-65032951D01*
X161953904Y-65050172D01*
X161931688Y-65126641D01*
X161930232Y-65134609D01*
X161933052Y-65148031D01*
X161944513Y-65151000D01*
X162843000Y-65151000D01*
X162911121Y-65171002D01*
X162957614Y-65224658D01*
X162969000Y-65277000D01*
X162969000Y-65533000D01*
X162948998Y-65601121D01*
X162895342Y-65647614D01*
X162843000Y-65659000D01*
X161955403Y-65659000D01*
X161887282Y-65638998D01*
X161866308Y-65622096D01*
X161681405Y-65437194D01*
X161647380Y-65374882D01*
X161644500Y-65348098D01*
X161644500Y-65015019D01*
X161664502Y-64946898D01*
X161718158Y-64900405D01*
X161770500Y-64889019D01*
X161832907Y-64889019D01*
X161901028Y-64909021D01*
G37*
%TD.AperFunction*%
%TA.AperFunction,Conductor*%
G36*
X151709121Y-62758002D02*
G01*
X151755614Y-62811658D01*
X151767000Y-62864000D01*
X151767000Y-63793900D01*
X151770973Y-63807431D01*
X151778871Y-63808566D01*
X151865814Y-63783307D01*
X151936811Y-63783510D01*
X151996416Y-63822052D01*
X152001240Y-63827650D01*
X152007525Y-63835564D01*
X152015473Y-63846444D01*
X152026335Y-63857306D01*
X152032693Y-63864152D01*
X152064944Y-63901582D01*
X152072479Y-63906466D01*
X152079051Y-63912199D01*
X152090455Y-63921426D01*
X152313324Y-64144295D01*
X152347350Y-64206607D01*
X152348678Y-64253101D01*
X152345500Y-64273166D01*
X152345500Y-64636834D01*
X152353310Y-64686148D01*
X152360502Y-64731555D01*
X152357565Y-64732020D01*
X152359133Y-64787069D01*
X152322465Y-64847864D01*
X152258750Y-64879183D01*
X152195206Y-64871887D01*
X152194822Y-64873068D01*
X152188988Y-64871173D01*
X152188217Y-64871084D01*
X152187063Y-64870547D01*
X152185389Y-64870003D01*
X152176555Y-64865502D01*
X152081834Y-64850500D01*
X151673661Y-64850500D01*
X151605540Y-64830498D01*
X151584566Y-64813595D01*
X150552565Y-63781594D01*
X150518539Y-63719282D01*
X150523604Y-63648467D01*
X150566151Y-63591631D01*
X150632671Y-63566820D01*
X150641659Y-63566499D01*
X150658652Y-63566499D01*
X150673914Y-63564082D01*
X150740069Y-63553605D01*
X150749862Y-63552054D01*
X150750896Y-63551527D01*
X150817005Y-63549640D01*
X150874065Y-63582405D01*
X150975159Y-63683499D01*
X150987595Y-63693146D01*
X151113778Y-63767770D01*
X151128217Y-63774019D01*
X151241605Y-63806961D01*
X151255705Y-63806921D01*
X151259000Y-63799651D01*
X151259000Y-62864000D01*
X151279002Y-62795879D01*
X151332658Y-62749386D01*
X151385000Y-62738000D01*
X151641000Y-62738000D01*
X151709121Y-62758002D01*
G37*
%TD.AperFunction*%
%TA.AperFunction,Conductor*%
G36*
X162253622Y-63137982D02*
G01*
X162300115Y-63191638D01*
X162308809Y-63218074D01*
X162314052Y-63243031D01*
X162325513Y-63246000D01*
X163224000Y-63246000D01*
X163292121Y-63266002D01*
X163338614Y-63319658D01*
X163350000Y-63372000D01*
X163350000Y-63628000D01*
X163329998Y-63696121D01*
X163276342Y-63742614D01*
X163224000Y-63754000D01*
X162327576Y-63754000D01*
X162285087Y-63766476D01*
X162271203Y-63775398D01*
X162235709Y-63780500D01*
X161893511Y-63780500D01*
X161825390Y-63760498D01*
X161804416Y-63743595D01*
X161393896Y-63333075D01*
X161359870Y-63270763D01*
X161364935Y-63199948D01*
X161407482Y-63143112D01*
X161474002Y-63118301D01*
X161482991Y-63117980D01*
X162185501Y-63117980D01*
X162253622Y-63137982D01*
G37*
%TD.AperFunction*%
%TA.AperFunction,Conductor*%
G36*
X144360434Y-51709502D02*
G01*
X144406927Y-51763158D01*
X144417031Y-51833432D01*
X144387537Y-51898012D01*
X144329992Y-51935734D01*
X144306756Y-51943016D01*
X144295068Y-51948025D01*
X144136021Y-52036187D01*
X144125588Y-52043438D01*
X143987509Y-52161785D01*
X143978756Y-52170976D01*
X143867289Y-52314680D01*
X143860565Y-52325440D01*
X143780268Y-52488625D01*
X143775845Y-52500519D01*
X143760749Y-52558470D01*
X143761183Y-52572564D01*
X143769364Y-52576000D01*
X146389229Y-52576000D01*
X146402760Y-52572027D01*
X146403637Y-52565925D01*
X146347690Y-52413864D01*
X146342123Y-52402451D01*
X146246292Y-52247892D01*
X146238540Y-52237826D01*
X146113592Y-52105697D01*
X146103974Y-52097395D01*
X145955013Y-51993092D01*
X145943916Y-51986890D01*
X145815078Y-51931137D01*
X145760503Y-51885726D01*
X145739143Y-51818019D01*
X145757779Y-51749512D01*
X145810495Y-51701956D01*
X145865118Y-51689500D01*
X148312313Y-51689500D01*
X148380434Y-51709502D01*
X148426927Y-51763158D01*
X148437031Y-51833432D01*
X148407537Y-51898012D01*
X148349992Y-51935734D01*
X148326756Y-51943016D01*
X148315068Y-51948025D01*
X148156021Y-52036187D01*
X148145588Y-52043438D01*
X148007509Y-52161785D01*
X147998756Y-52170976D01*
X147887289Y-52314680D01*
X147880565Y-52325440D01*
X147800268Y-52488625D01*
X147795845Y-52500519D01*
X147780749Y-52558470D01*
X147781183Y-52572564D01*
X147789364Y-52576000D01*
X149378000Y-52576000D01*
X149446121Y-52596002D01*
X149492614Y-52649658D01*
X149504000Y-52702000D01*
X149504000Y-53677885D01*
X149508475Y-53693124D01*
X149509865Y-53694329D01*
X149517548Y-53696000D01*
X149557885Y-53696000D01*
X149573124Y-53691525D01*
X149574329Y-53690135D01*
X149576000Y-53682452D01*
X149576000Y-53228000D01*
X149596002Y-53159879D01*
X149649658Y-53113386D01*
X149702000Y-53102000D01*
X149958000Y-53102000D01*
X150026121Y-53122002D01*
X150072614Y-53175658D01*
X150084000Y-53228000D01*
X150084000Y-53677885D01*
X150088475Y-53693124D01*
X150089865Y-53694329D01*
X150097548Y-53696000D01*
X150899884Y-53696000D01*
X150915123Y-53691525D01*
X150916328Y-53690135D01*
X150917999Y-53682452D01*
X150917999Y-53605331D01*
X150917629Y-53598510D01*
X150912105Y-53547648D01*
X150908585Y-53532842D01*
X150912288Y-53461942D01*
X150953735Y-53404299D01*
X151019766Y-53378215D01*
X151089417Y-53391971D01*
X151120263Y-53414603D01*
X151174595Y-53468935D01*
X151208621Y-53531247D01*
X151205588Y-53591879D01*
X151204946Y-53593138D01*
X151190500Y-53684347D01*
X151190501Y-53847266D01*
X151190501Y-53958471D01*
X151170499Y-54026591D01*
X151153596Y-54047566D01*
X151029248Y-54171914D01*
X150966936Y-54205940D01*
X150913370Y-54205940D01*
X150904452Y-54204000D01*
X150490210Y-54204000D01*
X150465629Y-54201579D01*
X150441135Y-54196707D01*
X150435067Y-54195500D01*
X150372110Y-54195500D01*
X149425820Y-54195501D01*
X149357699Y-54175499D01*
X149311206Y-54121843D01*
X149302306Y-54094408D01*
X149300278Y-54084349D01*
X149300277Y-54084347D01*
X149298580Y-54075929D01*
X149273441Y-54026591D01*
X149233508Y-53948217D01*
X149233506Y-53948214D01*
X149229608Y-53940564D01*
X149203655Y-53912340D01*
X149132584Y-53835052D01*
X149132583Y-53835051D01*
X149126774Y-53828734D01*
X149113627Y-53820582D01*
X149058382Y-53786329D01*
X149055603Y-53784606D01*
X149008248Y-53731710D01*
X148996000Y-53677520D01*
X148996000Y-53102115D01*
X148991525Y-53086876D01*
X148990135Y-53085671D01*
X148982452Y-53084000D01*
X147790771Y-53084000D01*
X147777240Y-53087973D01*
X147776363Y-53094075D01*
X147832310Y-53246136D01*
X147837877Y-53257549D01*
X147933708Y-53412108D01*
X147941460Y-53422174D01*
X148066408Y-53554303D01*
X148076026Y-53562605D01*
X148224987Y-53666908D01*
X148236081Y-53673108D01*
X148300311Y-53700903D01*
X148354885Y-53746314D01*
X148376245Y-53814021D01*
X148357609Y-53882528D01*
X148352980Y-53889524D01*
X148273980Y-54000687D01*
X148222518Y-54143629D01*
X148221889Y-54152189D01*
X148221889Y-54152191D01*
X148218709Y-54195500D01*
X148211391Y-54295145D01*
X148241420Y-54444071D01*
X148245320Y-54451725D01*
X148306492Y-54571783D01*
X148306494Y-54571786D01*
X148310392Y-54579436D01*
X148316205Y-54585757D01*
X148316206Y-54585759D01*
X148407416Y-54684948D01*
X148413226Y-54691266D01*
X148420522Y-54695789D01*
X148427143Y-54701267D01*
X148426117Y-54702507D01*
X148466936Y-54748108D01*
X148478171Y-54818210D01*
X148449723Y-54883258D01*
X148442276Y-54891386D01*
X148375580Y-54958082D01*
X148360098Y-54970587D01*
X148356871Y-54973523D01*
X148348118Y-54979175D01*
X148328991Y-55003438D01*
X148325441Y-55007433D01*
X148325540Y-55007517D01*
X148322182Y-55011480D01*
X148318506Y-55015156D01*
X148315483Y-55019385D01*
X148315483Y-55019386D01*
X148308146Y-55029652D01*
X148304585Y-55034395D01*
X148281503Y-55063675D01*
X148281501Y-55063679D01*
X148275054Y-55071857D01*
X148272221Y-55079925D01*
X148267247Y-55086885D01*
X148264263Y-55096863D01*
X148253580Y-55132586D01*
X148251744Y-55138235D01*
X148235950Y-55183208D01*
X148235500Y-55188404D01*
X148235500Y-55191109D01*
X148235403Y-55193365D01*
X148235260Y-55193841D01*
X148235214Y-55193839D01*
X148235201Y-55194038D01*
X148233432Y-55199955D01*
X148235161Y-55243960D01*
X148235403Y-55250124D01*
X148235500Y-55255070D01*
X148235500Y-58785261D01*
X148215498Y-58853382D01*
X148198595Y-58874356D01*
X146977465Y-60095485D01*
X146977462Y-60095489D01*
X146954674Y-60118277D01*
X146944546Y-60138154D01*
X146934216Y-60155011D01*
X146921095Y-60173071D01*
X146918030Y-60182504D01*
X146914199Y-60194295D01*
X146906634Y-60212561D01*
X146896502Y-60232445D01*
X146894951Y-60242238D01*
X146893011Y-60254487D01*
X146888395Y-60273713D01*
X146887953Y-60275075D01*
X146881500Y-60294934D01*
X146881500Y-62234878D01*
X146861498Y-62302999D01*
X146807842Y-62349492D01*
X146754732Y-62360876D01*
X146615827Y-62360028D01*
X146607196Y-62362495D01*
X146607194Y-62362495D01*
X146485509Y-62397272D01*
X146485505Y-62397274D01*
X146476879Y-62399739D01*
X146469292Y-62404526D01*
X146469290Y-62404527D01*
X146387161Y-62456347D01*
X146354661Y-62476853D01*
X146348718Y-62483582D01*
X146348717Y-62483583D01*
X146302460Y-62535960D01*
X146258999Y-62585170D01*
X146258088Y-62584365D01*
X146210668Y-62624631D01*
X146159475Y-62635500D01*
X145983526Y-62635500D01*
X145915405Y-62615498D01*
X145894431Y-62598595D01*
X145843476Y-62547640D01*
X145809450Y-62485328D01*
X145814515Y-62414513D01*
X145857062Y-62357677D01*
X145871484Y-62348343D01*
X146023983Y-62263811D01*
X146034412Y-62256562D01*
X146172491Y-62138215D01*
X146181244Y-62129024D01*
X146292711Y-61985320D01*
X146299435Y-61974560D01*
X146379732Y-61811375D01*
X146384155Y-61799481D01*
X146399251Y-61741530D01*
X146398817Y-61727436D01*
X146390636Y-61724000D01*
X143770771Y-61724000D01*
X143757240Y-61727973D01*
X143756363Y-61734075D01*
X143812310Y-61886136D01*
X143817877Y-61897549D01*
X143913708Y-62052108D01*
X143921460Y-62062174D01*
X144046408Y-62194303D01*
X144056026Y-62202605D01*
X144104131Y-62236288D01*
X144148460Y-62291745D01*
X144155769Y-62362364D01*
X144123739Y-62425724D01*
X144062538Y-62461710D01*
X144031863Y-62465501D01*
X143929348Y-62465501D01*
X143924455Y-62466276D01*
X143924454Y-62466276D01*
X143847936Y-62478394D01*
X143847934Y-62478395D01*
X143838138Y-62479946D01*
X143829301Y-62484449D01*
X143829300Y-62484449D01*
X143773991Y-62512631D01*
X143728204Y-62535960D01*
X143640960Y-62623204D01*
X143584946Y-62733138D01*
X143583396Y-62742927D01*
X143583395Y-62742929D01*
X143581373Y-62755699D01*
X143570500Y-62824347D01*
X143570501Y-63155652D01*
X143571276Y-63160545D01*
X143571276Y-63160546D01*
X143573193Y-63172647D01*
X143584946Y-63246862D01*
X143585473Y-63247896D01*
X143587360Y-63314005D01*
X143554595Y-63371065D01*
X143453501Y-63472159D01*
X143443854Y-63484595D01*
X143365193Y-63617604D01*
X143362914Y-63616256D01*
X143325720Y-63660949D01*
X143258011Y-63682305D01*
X143189505Y-63663665D01*
X143141952Y-63610946D01*
X143129500Y-63556330D01*
X143129500Y-61198470D01*
X143760749Y-61198470D01*
X143761183Y-61212564D01*
X143769364Y-61216000D01*
X144807885Y-61216000D01*
X144823124Y-61211525D01*
X144824329Y-61210135D01*
X144826000Y-61202452D01*
X144826000Y-61197885D01*
X145334000Y-61197885D01*
X145338475Y-61213124D01*
X145339865Y-61214329D01*
X145347548Y-61216000D01*
X146389229Y-61216000D01*
X146402760Y-61212027D01*
X146403637Y-61205925D01*
X146347690Y-61053864D01*
X146342123Y-61042451D01*
X146246292Y-60887892D01*
X146238540Y-60877826D01*
X146113592Y-60745697D01*
X146103974Y-60737395D01*
X145955013Y-60633092D01*
X145943919Y-60626892D01*
X145777020Y-60554668D01*
X145764917Y-60550829D01*
X145585400Y-60513325D01*
X145575848Y-60512085D01*
X145572616Y-60512000D01*
X145352115Y-60512000D01*
X145336876Y-60516475D01*
X145335671Y-60517865D01*
X145334000Y-60525548D01*
X145334000Y-61197885D01*
X144826000Y-61197885D01*
X144826000Y-60530115D01*
X144821525Y-60514876D01*
X144820135Y-60513671D01*
X144812452Y-60512000D01*
X144634553Y-60512000D01*
X144628178Y-60512323D01*
X144492723Y-60526082D01*
X144480283Y-60528636D01*
X144306756Y-60583016D01*
X144295068Y-60588025D01*
X144136021Y-60676187D01*
X144125588Y-60683438D01*
X143987509Y-60801785D01*
X143978756Y-60810976D01*
X143867289Y-60954680D01*
X143860565Y-60965440D01*
X143780268Y-61128625D01*
X143775845Y-61140519D01*
X143760749Y-61198470D01*
X143129500Y-61198470D01*
X143129500Y-53094075D01*
X143756363Y-53094075D01*
X143812310Y-53246136D01*
X143817877Y-53257549D01*
X143913708Y-53412108D01*
X143921460Y-53422174D01*
X144046408Y-53554303D01*
X144056026Y-53562605D01*
X144204987Y-53666908D01*
X144216081Y-53673108D01*
X144382980Y-53745332D01*
X144395083Y-53749171D01*
X144574600Y-53786675D01*
X144584152Y-53787915D01*
X144587384Y-53788000D01*
X144807885Y-53788000D01*
X144823124Y-53783525D01*
X144824329Y-53782135D01*
X144826000Y-53774452D01*
X144826000Y-53769885D01*
X145334000Y-53769885D01*
X145338475Y-53785124D01*
X145339865Y-53786329D01*
X145347548Y-53788000D01*
X145525447Y-53788000D01*
X145531822Y-53787677D01*
X145667277Y-53773918D01*
X145679717Y-53771364D01*
X145853244Y-53716984D01*
X145864932Y-53711975D01*
X146023979Y-53623813D01*
X146034412Y-53616562D01*
X146172491Y-53498215D01*
X146181244Y-53489024D01*
X146292711Y-53345320D01*
X146299435Y-53334560D01*
X146379732Y-53171375D01*
X146384155Y-53159481D01*
X146399251Y-53101530D01*
X146398817Y-53087436D01*
X146390636Y-53084000D01*
X145352115Y-53084000D01*
X145336876Y-53088475D01*
X145335671Y-53089865D01*
X145334000Y-53097548D01*
X145334000Y-53769885D01*
X144826000Y-53769885D01*
X144826000Y-53102115D01*
X144821525Y-53086876D01*
X144820135Y-53085671D01*
X144812452Y-53084000D01*
X143770771Y-53084000D01*
X143757240Y-53087973D01*
X143756363Y-53094075D01*
X143129500Y-53094075D01*
X143129500Y-51815500D01*
X143149502Y-51747379D01*
X143203158Y-51700886D01*
X143255500Y-51689500D01*
X144292313Y-51689500D01*
X144360434Y-51709502D01*
G37*
%TD.AperFunction*%
%TA.AperFunction,Conductor*%
G36*
X153433680Y-58752828D02*
G01*
X153433699Y-58752734D01*
X153507933Y-58767500D01*
X153562532Y-58767500D01*
X153595885Y-58773187D01*
X153595978Y-58772755D01*
X153603730Y-58774424D01*
X153611208Y-58777050D01*
X153616404Y-58777500D01*
X153619111Y-58777500D01*
X153621365Y-58777597D01*
X153621841Y-58777740D01*
X153621839Y-58777786D01*
X153622038Y-58777799D01*
X153627955Y-58779568D01*
X153678124Y-58777597D01*
X153683070Y-58777500D01*
X154157970Y-58777500D01*
X154226091Y-58797502D01*
X154272584Y-58851158D01*
X154282688Y-58921432D01*
X154253194Y-58986012D01*
X154247066Y-58992595D01*
X154005763Y-59233899D01*
X153943450Y-59267924D01*
X153872635Y-59262860D01*
X153846664Y-59249568D01*
X153817621Y-59230161D01*
X153817618Y-59230160D01*
X153807301Y-59223266D01*
X153733067Y-59208500D01*
X152908134Y-59208500D01*
X152082934Y-59208501D01*
X152008699Y-59223266D01*
X152008557Y-59222554D01*
X151949027Y-59228951D01*
X151922424Y-59215634D01*
X151927278Y-59255141D01*
X151907721Y-59304651D01*
X151868266Y-59363699D01*
X151853500Y-59437933D01*
X151853501Y-59688066D01*
X151859235Y-59716895D01*
X151865521Y-59748498D01*
X151868266Y-59762301D01*
X151875161Y-59772621D01*
X151875162Y-59772622D01*
X151882568Y-59783705D01*
X151924516Y-59846484D01*
X152008699Y-59902734D01*
X152082933Y-59917500D01*
X152103627Y-59917500D01*
X153245901Y-59917499D01*
X153314021Y-59937501D01*
X153360514Y-59991157D01*
X153370618Y-60061431D01*
X153341125Y-60126011D01*
X153301744Y-60153405D01*
X153302818Y-60155366D01*
X153279351Y-60168214D01*
X153177276Y-60244715D01*
X153164718Y-60257273D01*
X153126651Y-60308066D01*
X153069791Y-60350581D01*
X153025824Y-60358501D01*
X153007934Y-60358501D01*
X152933699Y-60373266D01*
X152932864Y-60369066D01*
X152885676Y-60374157D01*
X152882320Y-60373172D01*
X152882301Y-60373266D01*
X152814135Y-60359707D01*
X152808067Y-60358500D01*
X152658025Y-60358500D01*
X152507934Y-60358501D01*
X152433699Y-60373266D01*
X152432864Y-60369066D01*
X152385676Y-60374157D01*
X152382320Y-60373172D01*
X152382301Y-60373266D01*
X152314135Y-60359707D01*
X152308067Y-60358500D01*
X152158025Y-60358500D01*
X152007934Y-60358501D01*
X151972182Y-60365612D01*
X151945874Y-60370844D01*
X151945872Y-60370845D01*
X151933699Y-60373266D01*
X151923379Y-60380161D01*
X151923378Y-60380162D01*
X151869519Y-60416150D01*
X151849516Y-60429516D01*
X151793266Y-60513699D01*
X151778500Y-60587933D01*
X151778501Y-60938066D01*
X151783777Y-60964591D01*
X151777449Y-61035301D01*
X151733895Y-61091369D01*
X151677302Y-61114003D01*
X151675910Y-61114194D01*
X151666935Y-61114139D01*
X151600877Y-61133018D01*
X151592569Y-61135090D01*
X151558529Y-61142356D01*
X151550632Y-61146617D01*
X151545750Y-61148413D01*
X151536875Y-61151310D01*
X151527987Y-61153850D01*
X151499012Y-61172132D01*
X151477063Y-61185981D01*
X151469660Y-61190307D01*
X151431349Y-61210978D01*
X151428859Y-61213438D01*
X151364787Y-61236929D01*
X151295498Y-61221451D01*
X151245577Y-61170969D01*
X151230500Y-61111202D01*
X151230500Y-59286328D01*
X151250502Y-59218207D01*
X151304158Y-59171714D01*
X151374432Y-59161610D01*
X151394073Y-59166061D01*
X151429510Y-59177132D01*
X151573998Y-59179780D01*
X151603584Y-59171714D01*
X151704763Y-59144130D01*
X151704765Y-59144129D01*
X151713422Y-59141769D01*
X151737026Y-59127276D01*
X151805543Y-59108678D01*
X151849797Y-59122665D01*
X151851852Y-59065159D01*
X151877987Y-59020400D01*
X151933551Y-58959014D01*
X151991909Y-58838562D01*
X152039611Y-58785979D01*
X152105301Y-58767500D01*
X152189834Y-58767500D01*
X152189837Y-58767499D01*
X152308066Y-58767499D01*
X152382301Y-58752734D01*
X152383136Y-58756934D01*
X152430324Y-58751843D01*
X152433680Y-58752828D01*
X152433699Y-58752734D01*
X152507933Y-58767500D01*
X152657975Y-58767500D01*
X152808066Y-58767499D01*
X152882301Y-58752734D01*
X152883136Y-58756934D01*
X152930324Y-58751843D01*
X152933680Y-58752828D01*
X152933699Y-58752734D01*
X153007933Y-58767500D01*
X153157975Y-58767500D01*
X153308066Y-58767499D01*
X153382301Y-58752734D01*
X153383136Y-58756934D01*
X153430324Y-58751843D01*
X153433680Y-58752828D01*
G37*
%TD.AperFunction*%
%TA.AperFunction,Conductor*%
G36*
X165594711Y-60826502D02*
G01*
X165641204Y-60880158D01*
X165651308Y-60950432D01*
X165621814Y-61015012D01*
X165602155Y-61033326D01*
X165564277Y-61061714D01*
X165562396Y-61063595D01*
X165560080Y-61064860D01*
X165557096Y-61067096D01*
X165556773Y-61066665D01*
X165500084Y-61097621D01*
X165473301Y-61100500D01*
X165159870Y-61100501D01*
X165144934Y-61100501D01*
X165070699Y-61115266D01*
X165069042Y-61116373D01*
X165005625Y-61123189D01*
X164942139Y-61091408D01*
X164905913Y-61030349D01*
X164902000Y-60999192D01*
X164902000Y-60983031D01*
X164901807Y-60978102D01*
X164899109Y-60943825D01*
X164901721Y-60943619D01*
X164907946Y-60884532D01*
X164952375Y-60829156D01*
X165024458Y-60806500D01*
X165526590Y-60806500D01*
X165594711Y-60826502D01*
G37*
%TD.AperFunction*%
%TA.AperFunction,Conductor*%
G36*
X164871859Y-58899062D02*
G01*
X164912765Y-58957090D01*
X164919500Y-58997733D01*
X164919501Y-59971500D01*
X164899499Y-60039621D01*
X164845843Y-60086114D01*
X164793501Y-60097500D01*
X164762852Y-60097500D01*
X164694731Y-60077498D01*
X164648238Y-60023842D01*
X164638403Y-59991209D01*
X164638381Y-59991066D01*
X164633868Y-59962573D01*
X164628919Y-59952859D01*
X164597863Y-59891910D01*
X164577135Y-59851229D01*
X164488771Y-59762865D01*
X164377427Y-59706132D01*
X164367637Y-59704581D01*
X164367636Y-59704581D01*
X164341899Y-59700505D01*
X164285045Y-59691500D01*
X164190528Y-59691500D01*
X164122407Y-59671498D01*
X164101433Y-59654595D01*
X163967405Y-59520567D01*
X163933379Y-59458255D01*
X163930500Y-59431472D01*
X163930500Y-59063642D01*
X163950502Y-58995521D01*
X164004158Y-58949028D01*
X164076210Y-58939193D01*
X164108223Y-58944263D01*
X164122347Y-58946500D01*
X164337956Y-58946500D01*
X164553652Y-58946499D01*
X164558546Y-58945724D01*
X164635064Y-58933606D01*
X164635066Y-58933605D01*
X164644862Y-58932054D01*
X164653699Y-58927551D01*
X164653703Y-58927550D01*
X164736298Y-58885466D01*
X164806074Y-58872362D01*
X164871859Y-58899062D01*
G37*
%TD.AperFunction*%
%TA.AperFunction,Conductor*%
G36*
X161853012Y-58401031D02*
G01*
X161870863Y-58420075D01*
X161904535Y-58464437D01*
X161916569Y-58476470D01*
X161979163Y-58523982D01*
X162021330Y-58581100D01*
X162025923Y-58651948D01*
X162018225Y-58675292D01*
X162017871Y-58676094D01*
X162006534Y-58701737D01*
X162003500Y-58727762D01*
X162003500Y-58918238D01*
X162006659Y-58944789D01*
X162018705Y-58971909D01*
X162028079Y-59042282D01*
X162018795Y-59074003D01*
X162010938Y-59091776D01*
X162006534Y-59101737D01*
X162003500Y-59127762D01*
X162003500Y-59318238D01*
X162003939Y-59321926D01*
X162003939Y-59321930D01*
X162005542Y-59335403D01*
X162006659Y-59344789D01*
X162018705Y-59371909D01*
X162028079Y-59442282D01*
X162018795Y-59474003D01*
X162006534Y-59501737D01*
X162003500Y-59527762D01*
X162003500Y-59642500D01*
X161983498Y-59710621D01*
X161929842Y-59757114D01*
X161877500Y-59768500D01*
X161762762Y-59768500D01*
X161759074Y-59768939D01*
X161759070Y-59768939D01*
X161745597Y-59770542D01*
X161745595Y-59770542D01*
X161736211Y-59771659D01*
X161709091Y-59783705D01*
X161638718Y-59793079D01*
X161606997Y-59783795D01*
X161587927Y-59775364D01*
X161587925Y-59775364D01*
X161579263Y-59771534D01*
X161553238Y-59768500D01*
X161509029Y-59768500D01*
X161440908Y-59748498D01*
X161394415Y-59694842D01*
X161384311Y-59624568D01*
X161413805Y-59559988D01*
X161419934Y-59553405D01*
X161504423Y-59468916D01*
X161519909Y-59456408D01*
X161523134Y-59453474D01*
X161531882Y-59447825D01*
X161551003Y-59423570D01*
X161554559Y-59419569D01*
X161554459Y-59419484D01*
X161557812Y-59415527D01*
X161561494Y-59411845D01*
X161571882Y-59397309D01*
X161575401Y-59392622D01*
X161604946Y-59355143D01*
X161607779Y-59347075D01*
X161612753Y-59340115D01*
X161626420Y-59294414D01*
X161628256Y-59288765D01*
X161641424Y-59251269D01*
X161644050Y-59243792D01*
X161644500Y-59238596D01*
X161644500Y-59235891D01*
X161644597Y-59233635D01*
X161644740Y-59233159D01*
X161644786Y-59233161D01*
X161644799Y-59232962D01*
X161646568Y-59227045D01*
X161644597Y-59176876D01*
X161644500Y-59171930D01*
X161644500Y-58496255D01*
X161664502Y-58428134D01*
X161718158Y-58381641D01*
X161788432Y-58371537D01*
X161853012Y-58401031D01*
G37*
%TD.AperFunction*%
%TA.AperFunction,Conductor*%
G36*
X152421012Y-57031958D02*
G01*
X152450120Y-57071662D01*
X152450569Y-57071397D01*
X152453254Y-57075937D01*
X152454138Y-57077143D01*
X152454604Y-57078220D01*
X152529876Y-57205499D01*
X152539516Y-57217926D01*
X152639028Y-57317438D01*
X152673054Y-57379750D01*
X152667989Y-57450565D01*
X152639028Y-57495628D01*
X152443580Y-57691076D01*
X152428098Y-57703581D01*
X152424871Y-57706517D01*
X152416118Y-57712169D01*
X152396991Y-57736432D01*
X152393441Y-57740427D01*
X152393540Y-57740511D01*
X152390182Y-57744474D01*
X152386506Y-57748150D01*
X152383483Y-57752379D01*
X152383483Y-57752380D01*
X152376146Y-57762646D01*
X152372585Y-57767389D01*
X152349503Y-57796669D01*
X152349501Y-57796673D01*
X152343054Y-57804851D01*
X152340221Y-57812919D01*
X152335247Y-57819879D01*
X152332263Y-57829857D01*
X152321580Y-57865580D01*
X152319743Y-57871231D01*
X152318682Y-57874252D01*
X152277237Y-57931896D01*
X152211207Y-57957983D01*
X152199801Y-57958500D01*
X152113348Y-57958500D01*
X152045227Y-57938498D01*
X151998734Y-57884842D01*
X151988621Y-57850362D01*
X151972143Y-57735301D01*
X151972142Y-57735299D01*
X151970870Y-57726414D01*
X151967153Y-57718238D01*
X151945218Y-57669993D01*
X151935232Y-57599702D01*
X151964833Y-57535171D01*
X152002716Y-57505576D01*
X152045964Y-57483540D01*
X152045963Y-57483540D01*
X152054796Y-57479040D01*
X152142040Y-57391796D01*
X152198054Y-57281862D01*
X152200628Y-57265614D01*
X152205416Y-57235379D01*
X152212500Y-57190653D01*
X152212500Y-57127182D01*
X152232502Y-57059061D01*
X152286158Y-57012568D01*
X152356432Y-57002464D01*
X152421012Y-57031958D01*
G37*
%TD.AperFunction*%
%TA.AperFunction,Conductor*%
G36*
X159709003Y-54262205D02*
G01*
X159728073Y-54270636D01*
X159728075Y-54270636D01*
X159736737Y-54274466D01*
X159762762Y-54277500D01*
X159775291Y-54277500D01*
X159843412Y-54297502D01*
X159889905Y-54351158D01*
X159900433Y-54391802D01*
X159899706Y-54400198D01*
X159909196Y-54438405D01*
X159909380Y-54439144D01*
X159911385Y-54448827D01*
X159913692Y-54462684D01*
X159917975Y-54488417D01*
X159922919Y-54497581D01*
X159924144Y-54501158D01*
X159925646Y-54504629D01*
X159928157Y-54514736D01*
X159933806Y-54523485D01*
X159933807Y-54523487D01*
X159949929Y-54548456D01*
X159954960Y-54556961D01*
X159974017Y-54592280D01*
X159981664Y-54599349D01*
X159983983Y-54602338D01*
X159986526Y-54605133D01*
X159992175Y-54613882D01*
X160000354Y-54620330D01*
X160000356Y-54620332D01*
X160023686Y-54638724D01*
X160031207Y-54645147D01*
X160044515Y-54657448D01*
X160060680Y-54672391D01*
X160070207Y-54676603D01*
X160074835Y-54679643D01*
X160076068Y-54680532D01*
X160077485Y-54681385D01*
X160078898Y-54682313D01*
X160078783Y-54682488D01*
X160083683Y-54686020D01*
X160084857Y-54686946D01*
X160084885Y-54686968D01*
X160083400Y-54688850D01*
X160123249Y-54728917D01*
X160138151Y-54798332D01*
X160113158Y-54864784D01*
X160056207Y-54907176D01*
X160012497Y-54915000D01*
X159530115Y-54915000D01*
X159514876Y-54919475D01*
X159513671Y-54920865D01*
X159512000Y-54928548D01*
X159512000Y-57151000D01*
X159491998Y-57219121D01*
X159438342Y-57265614D01*
X159386000Y-57277000D01*
X159130000Y-57277000D01*
X159061879Y-57256998D01*
X159015386Y-57203342D01*
X159004000Y-57151000D01*
X159004000Y-54933115D01*
X158999525Y-54917876D01*
X158998135Y-54916671D01*
X158990452Y-54915000D01*
X158940330Y-54915000D01*
X158872209Y-54894998D01*
X158825716Y-54841342D01*
X158815420Y-54800467D01*
X158815188Y-54800500D01*
X158815183Y-54800467D01*
X158811075Y-54771783D01*
X158795974Y-54666335D01*
X158795973Y-54666333D01*
X158794701Y-54657448D01*
X158787806Y-54642282D01*
X158779010Y-54622937D01*
X158734888Y-54525895D01*
X158729030Y-54519096D01*
X158729027Y-54519092D01*
X158697037Y-54481967D01*
X158667723Y-54417305D01*
X158678022Y-54347059D01*
X158724664Y-54293533D01*
X158761900Y-54280217D01*
X158761281Y-54277965D01*
X158770404Y-54275458D01*
X158779789Y-54274341D01*
X158806909Y-54262295D01*
X158877282Y-54252921D01*
X158909003Y-54262205D01*
X158928073Y-54270636D01*
X158928075Y-54270636D01*
X158936737Y-54274466D01*
X158962762Y-54277500D01*
X159153238Y-54277500D01*
X159156926Y-54277061D01*
X159156930Y-54277061D01*
X159170403Y-54275458D01*
X159170405Y-54275458D01*
X159179789Y-54274341D01*
X159206909Y-54262295D01*
X159277282Y-54252921D01*
X159309003Y-54262205D01*
X159328073Y-54270636D01*
X159328075Y-54270636D01*
X159336737Y-54274466D01*
X159362762Y-54277500D01*
X159553238Y-54277500D01*
X159556926Y-54277061D01*
X159556930Y-54277061D01*
X159570403Y-54275458D01*
X159570405Y-54275458D01*
X159579789Y-54274341D01*
X159606909Y-54262295D01*
X159677282Y-54252921D01*
X159709003Y-54262205D01*
G37*
%TD.AperFunction*%
%TA.AperFunction,Conductor*%
G36*
X152351143Y-56278446D02*
G01*
X152395295Y-56334043D01*
X152401853Y-56355524D01*
X152408052Y-56385031D01*
X152419513Y-56388000D01*
X153318000Y-56388000D01*
X153386121Y-56408002D01*
X153432614Y-56461658D01*
X153444000Y-56514000D01*
X153444000Y-56770000D01*
X153423998Y-56838121D01*
X153370342Y-56884614D01*
X153318000Y-56896000D01*
X152421576Y-56896000D01*
X152378581Y-56908624D01*
X152365546Y-56917001D01*
X152294550Y-56916998D01*
X152234825Y-56878611D01*
X152205604Y-56815812D01*
X152199606Y-56777935D01*
X152199605Y-56777932D01*
X152198054Y-56768138D01*
X152142040Y-56658204D01*
X152087931Y-56604095D01*
X152053905Y-56541783D01*
X152058970Y-56470968D01*
X152087931Y-56425905D01*
X152142040Y-56371796D01*
X152166278Y-56324226D01*
X152215026Y-56272611D01*
X152283941Y-56255545D01*
X152351143Y-56278446D01*
G37*
%TD.AperFunction*%
%TA.AperFunction,Conductor*%
G36*
X165287570Y-52786865D02*
G01*
X165337688Y-52837151D01*
X165344982Y-52853121D01*
X165369224Y-52917785D01*
X165376372Y-52936853D01*
X165457670Y-53045330D01*
X165566147Y-53126628D01*
X165574553Y-53129779D01*
X165574556Y-53129781D01*
X165576401Y-53130473D01*
X165577964Y-53131647D01*
X165582426Y-53134090D01*
X165582073Y-53134734D01*
X165633164Y-53173116D01*
X165657861Y-53239679D01*
X165642651Y-53309027D01*
X165620626Y-53338180D01*
X165611091Y-53347580D01*
X165608000Y-53359513D01*
X165608000Y-54258000D01*
X165587998Y-54326121D01*
X165534342Y-54372614D01*
X165482000Y-54384000D01*
X164622000Y-54384000D01*
X164553879Y-54363998D01*
X164507386Y-54310342D01*
X164496000Y-54258000D01*
X164496000Y-54002000D01*
X164516002Y-53933879D01*
X164569658Y-53887386D01*
X164622000Y-53876000D01*
X165081885Y-53876000D01*
X165097124Y-53871525D01*
X165098329Y-53870135D01*
X165100000Y-53862452D01*
X165100000Y-53361576D01*
X165095656Y-53346781D01*
X165085225Y-53344937D01*
X165075641Y-53346688D01*
X164932216Y-53388357D01*
X164917780Y-53394604D01*
X164790501Y-53469876D01*
X164778074Y-53479516D01*
X164673516Y-53584074D01*
X164659013Y-53602770D01*
X164656788Y-53601044D01*
X164614728Y-53640320D01*
X164544878Y-53653029D01*
X164508121Y-53643368D01*
X164505787Y-53642358D01*
X164362359Y-53600688D01*
X164354391Y-53599232D01*
X164340969Y-53602052D01*
X164338000Y-53613513D01*
X164338000Y-54512000D01*
X164317998Y-54580121D01*
X164264342Y-54626614D01*
X164212000Y-54638000D01*
X163956000Y-54638000D01*
X163887879Y-54617998D01*
X163841386Y-54564342D01*
X163830000Y-54512000D01*
X163830000Y-53615576D01*
X163819004Y-53578127D01*
X163819004Y-53507130D01*
X163850805Y-53453534D01*
X164086934Y-53217405D01*
X164149246Y-53183379D01*
X164176029Y-53180500D01*
X164188293Y-53180500D01*
X164703052Y-53180499D01*
X164760919Y-53174214D01*
X164815755Y-53153657D01*
X164879449Y-53129779D01*
X164879452Y-53129778D01*
X164887853Y-53126628D01*
X164996330Y-53045330D01*
X165077628Y-52936853D01*
X165084777Y-52917785D01*
X165109018Y-52853121D01*
X165151660Y-52796357D01*
X165218221Y-52771657D01*
X165287570Y-52786865D01*
G37*
%TD.AperFunction*%
%TA.AperFunction,Conductor*%
G36*
X153132121Y-53010002D02*
G01*
X153178614Y-53063658D01*
X153190000Y-53116000D01*
X153190000Y-53976000D01*
X153169998Y-54044121D01*
X153116342Y-54090614D01*
X153064000Y-54102000D01*
X152808000Y-54102000D01*
X152739879Y-54081998D01*
X152693386Y-54028342D01*
X152682000Y-53976000D01*
X152682000Y-53116000D01*
X152702002Y-53047879D01*
X152755658Y-53001386D01*
X152808000Y-52990000D01*
X153064000Y-52990000D01*
X153132121Y-53010002D01*
G37*
%TD.AperFunction*%
%TA.AperFunction,Conductor*%
G36*
X154959086Y-51709502D02*
G01*
X155005579Y-51763158D01*
X155015683Y-51833432D01*
X154999417Y-51879641D01*
X154994606Y-51887776D01*
X154988357Y-51902216D01*
X154946688Y-52045641D01*
X154945232Y-52053609D01*
X154948052Y-52067031D01*
X154959513Y-52070000D01*
X155858000Y-52070000D01*
X155926121Y-52090002D01*
X155972614Y-52143658D01*
X155984000Y-52196000D01*
X155984000Y-53117558D01*
X155987973Y-53131089D01*
X155995871Y-53132224D01*
X156042827Y-53118582D01*
X156113823Y-53118785D01*
X156173439Y-53157339D01*
X156202748Y-53222003D01*
X156203980Y-53239579D01*
X156203980Y-53892500D01*
X156183978Y-53960621D01*
X156130322Y-54007114D01*
X156077980Y-54018500D01*
X155918029Y-54018500D01*
X155849908Y-53998498D01*
X155828934Y-53981595D01*
X155081799Y-53234460D01*
X155047773Y-53172148D01*
X155052838Y-53101333D01*
X155095385Y-53044497D01*
X155161905Y-53019686D01*
X155235033Y-53036912D01*
X155323774Y-53089393D01*
X155338216Y-53095643D01*
X155458605Y-53130619D01*
X155472705Y-53130579D01*
X155476000Y-53123309D01*
X155476000Y-52596115D01*
X155471525Y-52580876D01*
X155470135Y-52579671D01*
X155462452Y-52578000D01*
X154961576Y-52578000D01*
X154946781Y-52582344D01*
X154944937Y-52592775D01*
X154946688Y-52602359D01*
X154988357Y-52745784D01*
X154994604Y-52760220D01*
X155047089Y-52848968D01*
X155064548Y-52917785D01*
X155042031Y-52985116D01*
X154986686Y-53029585D01*
X154916086Y-53037073D01*
X154849540Y-53002202D01*
X154720973Y-52873635D01*
X154686947Y-52811323D01*
X154684754Y-52779045D01*
X154684500Y-52779045D01*
X154684500Y-52775312D01*
X154684499Y-52376956D01*
X154679130Y-52343054D01*
X154671420Y-52294371D01*
X154671419Y-52294369D01*
X154669868Y-52284573D01*
X154613135Y-52173229D01*
X154524771Y-52084865D01*
X154413427Y-52028132D01*
X154403637Y-52026581D01*
X154403636Y-52026581D01*
X154373070Y-52021740D01*
X154321045Y-52013500D01*
X154150035Y-52013500D01*
X153978956Y-52013501D01*
X153932688Y-52020829D01*
X153862280Y-52011729D01*
X153823885Y-51985475D01*
X153743005Y-51904595D01*
X153708979Y-51842283D01*
X153714044Y-51771468D01*
X153756591Y-51714632D01*
X153823111Y-51689821D01*
X153832100Y-51689500D01*
X154890965Y-51689500D01*
X154959086Y-51709502D01*
G37*
%TD.AperFunction*%
%TA.AperFunction,Conductor*%
G36*
X163824187Y-51709502D02*
G01*
X163870680Y-51763158D01*
X163880784Y-51833432D01*
X163856893Y-51891064D01*
X163817958Y-51943016D01*
X163801372Y-51965147D01*
X163798222Y-51973548D01*
X163798221Y-51973551D01*
X163776072Y-52032633D01*
X163753786Y-52092081D01*
X163752933Y-52099934D01*
X163752932Y-52099938D01*
X163748061Y-52144779D01*
X163747500Y-52149947D01*
X163747501Y-52350236D01*
X163747501Y-52501971D01*
X163727499Y-52570091D01*
X163710596Y-52591066D01*
X162481080Y-53820582D01*
X162465598Y-53833087D01*
X162462371Y-53836023D01*
X162453618Y-53841675D01*
X162437449Y-53862186D01*
X162379569Y-53903298D01*
X162308649Y-53906592D01*
X162247206Y-53871020D01*
X162214749Y-53807877D01*
X162212500Y-53784179D01*
X162212500Y-53152762D01*
X162212060Y-53149064D01*
X162211979Y-53147696D01*
X162227920Y-53078512D01*
X162273620Y-53031794D01*
X162303500Y-53014124D01*
X162315926Y-53004484D01*
X162420484Y-52899926D01*
X162430124Y-52887499D01*
X162505396Y-52760220D01*
X162511643Y-52745784D01*
X162553312Y-52602359D01*
X162554768Y-52594391D01*
X162551948Y-52580969D01*
X162540487Y-52578000D01*
X161642000Y-52578000D01*
X161573879Y-52557998D01*
X161527386Y-52504342D01*
X161516000Y-52452000D01*
X161516000Y-52196000D01*
X161536002Y-52127879D01*
X161589658Y-52081386D01*
X161642000Y-52070000D01*
X162538424Y-52070000D01*
X162553219Y-52065656D01*
X162555063Y-52055225D01*
X162553312Y-52045641D01*
X162511643Y-51902216D01*
X162505394Y-51887776D01*
X162500583Y-51879641D01*
X162483122Y-51810825D01*
X162505638Y-51743493D01*
X162560981Y-51699023D01*
X162609035Y-51689500D01*
X163756066Y-51689500D01*
X163824187Y-51709502D01*
G37*
%TD.AperFunction*%
%TA.AperFunction,Conductor*%
G36*
X152616021Y-51709502D02*
G01*
X152662514Y-51763158D01*
X152672618Y-51833432D01*
X152643124Y-51898012D01*
X152636995Y-51904595D01*
X152539516Y-52002074D01*
X152529876Y-52014501D01*
X152472907Y-52110831D01*
X152421014Y-52159284D01*
X152351163Y-52171989D01*
X152300313Y-52155145D01*
X152214218Y-52104228D01*
X152199783Y-52097981D01*
X152057564Y-52056662D01*
X152044977Y-52054363D01*
X152037057Y-52053740D01*
X152021970Y-52056910D01*
X152019000Y-52068374D01*
X152019000Y-52557885D01*
X152023475Y-52573124D01*
X152024865Y-52574329D01*
X152032548Y-52576000D01*
X152343885Y-52576000D01*
X152359124Y-52571525D01*
X152360329Y-52570135D01*
X152362000Y-52562452D01*
X152362000Y-52450000D01*
X152382002Y-52381879D01*
X152435658Y-52335386D01*
X152488000Y-52324000D01*
X153318000Y-52324000D01*
X153386121Y-52344002D01*
X153432614Y-52397658D01*
X153444000Y-52450000D01*
X153444000Y-52706000D01*
X153423998Y-52774121D01*
X153370342Y-52820614D01*
X153318000Y-52832000D01*
X152651115Y-52832000D01*
X152635876Y-52836475D01*
X152634671Y-52837865D01*
X152633000Y-52845548D01*
X152633000Y-52958000D01*
X152612998Y-53026121D01*
X152559342Y-53072614D01*
X152507000Y-53084000D01*
X151637000Y-53084000D01*
X151568879Y-53063998D01*
X151522386Y-53010342D01*
X151511000Y-52958000D01*
X151511000Y-52070434D01*
X151506656Y-52055639D01*
X151494997Y-52053579D01*
X151485023Y-52054363D01*
X151472436Y-52056662D01*
X151330217Y-52097981D01*
X151315778Y-52104230D01*
X151189595Y-52178854D01*
X151177159Y-52188501D01*
X151073501Y-52292159D01*
X151063854Y-52304595D01*
X150989230Y-52430778D01*
X150982981Y-52445217D01*
X150955874Y-52538519D01*
X150917661Y-52598355D01*
X150853164Y-52628032D01*
X150782862Y-52618128D01*
X150729074Y-52571789D01*
X150716627Y-52546873D01*
X150667690Y-52413863D01*
X150662123Y-52402451D01*
X150566292Y-52247892D01*
X150558540Y-52237826D01*
X150433592Y-52105697D01*
X150423974Y-52097395D01*
X150275013Y-51993092D01*
X150263916Y-51986890D01*
X150135078Y-51931137D01*
X150080503Y-51885726D01*
X150059143Y-51818019D01*
X150077779Y-51749512D01*
X150130495Y-51701956D01*
X150185118Y-51689500D01*
X152547900Y-51689500D01*
X152616021Y-51709502D01*
G37*
%TD.AperFunction*%
%TA.AperFunction,Conductor*%
G36*
X160340525Y-51709502D02*
G01*
X160387018Y-51763158D01*
X160397122Y-51833432D01*
X160367628Y-51898012D01*
X160361499Y-51904595D01*
X160346865Y-51919229D01*
X160290132Y-52030573D01*
X160288581Y-52040363D01*
X160288581Y-52040364D01*
X160286488Y-52053579D01*
X160275500Y-52122955D01*
X160275500Y-52217470D01*
X160255498Y-52285591D01*
X160238596Y-52306565D01*
X160043578Y-52501584D01*
X160028098Y-52514086D01*
X160024868Y-52517025D01*
X160016118Y-52522675D01*
X159996991Y-52546938D01*
X159993443Y-52550930D01*
X159993543Y-52551014D01*
X159990186Y-52554976D01*
X159986506Y-52558656D01*
X159986495Y-52558672D01*
X159928464Y-52596881D01*
X159857471Y-52597667D01*
X159838381Y-52586391D01*
X159805987Y-52578000D01*
X158907500Y-52578000D01*
X158839379Y-52557998D01*
X158792886Y-52504342D01*
X158781500Y-52452000D01*
X158781500Y-52196000D01*
X158801502Y-52127879D01*
X158855158Y-52081386D01*
X158907500Y-52070000D01*
X159803924Y-52070000D01*
X159818719Y-52065656D01*
X159820563Y-52055225D01*
X159818812Y-52045641D01*
X159777143Y-51902216D01*
X159770894Y-51887776D01*
X159766083Y-51879641D01*
X159748622Y-51810825D01*
X159771138Y-51743493D01*
X159826481Y-51699023D01*
X159874535Y-51689500D01*
X160272404Y-51689500D01*
X160340525Y-51709502D01*
G37*
%TD.AperFunction*%
%TD*%
M02*
