%TF.GenerationSoftware,KiCad,Pcbnew,(6.0.5)*%
%TF.CreationDate,2022-10-09T21:33:59+01:00*%
%TF.ProjectId,PicoDrive,5069636f-4472-4697-9665-2e6b69636164,rev?*%
%TF.SameCoordinates,Original*%
%TF.FileFunction,Soldermask,Top*%
%TF.FilePolarity,Negative*%
%FSLAX46Y46*%
G04 Gerber Fmt 4.6, Leading zero omitted, Abs format (unit mm)*
G04 Created by KiCad (PCBNEW (6.0.5)) date 2022-10-09 21:33:59*
%MOMM*%
%LPD*%
G01*
G04 APERTURE LIST*
G04 Aperture macros list*
%AMRoundRect*
0 Rectangle with rounded corners*
0 $1 Rounding radius*
0 $2 $3 $4 $5 $6 $7 $8 $9 X,Y pos of 4 corners*
0 Add a 4 corners polygon primitive as box body*
4,1,4,$2,$3,$4,$5,$6,$7,$8,$9,$2,$3,0*
0 Add four circle primitives for the rounded corners*
1,1,$1+$1,$2,$3*
1,1,$1+$1,$4,$5*
1,1,$1+$1,$6,$7*
1,1,$1+$1,$8,$9*
0 Add four rect primitives between the rounded corners*
20,1,$1+$1,$2,$3,$4,$5,0*
20,1,$1+$1,$4,$5,$6,$7,0*
20,1,$1+$1,$6,$7,$8,$9,0*
20,1,$1+$1,$8,$9,$2,$3,0*%
G04 Aperture macros list end*
%ADD10R,0.600000X0.450000*%
%ADD11RoundRect,0.135000X-0.135000X-0.185000X0.135000X-0.185000X0.135000X0.185000X-0.135000X0.185000X0*%
%ADD12RoundRect,0.135000X0.135000X0.185000X-0.135000X0.185000X-0.135000X-0.185000X0.135000X-0.185000X0*%
%ADD13RoundRect,0.135000X-0.185000X0.135000X-0.185000X-0.135000X0.185000X-0.135000X0.185000X0.135000X0*%
%ADD14RoundRect,0.135000X0.185000X-0.135000X0.185000X0.135000X-0.185000X0.135000X-0.185000X-0.135000X0*%
%ADD15R,0.250000X0.300000*%
%ADD16R,1.600000X0.200000*%
%ADD17RoundRect,0.218750X0.218750X0.256250X-0.218750X0.256250X-0.218750X-0.256250X0.218750X-0.256250X0*%
%ADD18RoundRect,0.140000X-0.170000X0.140000X-0.170000X-0.140000X0.170000X-0.140000X0.170000X0.140000X0*%
%ADD19RoundRect,0.140000X-0.140000X-0.170000X0.140000X-0.170000X0.140000X0.170000X-0.140000X0.170000X0*%
%ADD20RoundRect,0.140000X0.140000X0.170000X-0.140000X0.170000X-0.140000X-0.170000X0.140000X-0.170000X0*%
%ADD21RoundRect,0.140000X0.170000X-0.140000X0.170000X0.140000X-0.170000X0.140000X-0.170000X-0.140000X0*%
%ADD22RoundRect,0.225000X-0.250000X0.225000X-0.250000X-0.225000X0.250000X-0.225000X0.250000X0.225000X0*%
%ADD23RoundRect,0.225000X0.250000X-0.225000X0.250000X0.225000X-0.250000X0.225000X-0.250000X-0.225000X0*%
%ADD24R,0.500000X0.250000*%
%ADD25R,0.900000X1.600000*%
%ADD26R,1.200000X1.400000*%
%ADD27C,0.600000*%
%ADD28R,1.160000X0.600000*%
%ADD29R,1.160000X0.300000*%
%ADD30O,2.000000X0.900000*%
%ADD31O,1.700000X0.900000*%
%ADD32RoundRect,0.050000X0.050000X-0.387500X0.050000X0.387500X-0.050000X0.387500X-0.050000X-0.387500X0*%
%ADD33RoundRect,0.050000X0.387500X-0.050000X0.387500X0.050000X-0.387500X0.050000X-0.387500X-0.050000X0*%
%ADD34RoundRect,0.144000X1.456000X-1.456000X1.456000X1.456000X-1.456000X1.456000X-1.456000X-1.456000X0*%
%ADD35RoundRect,0.250000X-0.650000X0.350000X-0.650000X-0.350000X0.650000X-0.350000X0.650000X0.350000X0*%
%ADD36RoundRect,0.150000X-0.625000X0.150000X-0.625000X-0.150000X0.625000X-0.150000X0.625000X0.150000X0*%
%ADD37RoundRect,0.150000X0.587500X0.150000X-0.587500X0.150000X-0.587500X-0.150000X0.587500X-0.150000X0*%
%ADD38RoundRect,0.250000X0.650000X-0.350000X0.650000X0.350000X-0.650000X0.350000X-0.650000X-0.350000X0*%
%ADD39RoundRect,0.150000X0.625000X-0.150000X0.625000X0.150000X-0.625000X0.150000X-0.625000X-0.150000X0*%
G04 APERTURE END LIST*
D10*
%TO.C,D1*%
X149386000Y-63500000D03*
X147286000Y-63500000D03*
%TD*%
D11*
%TO.C,R11*%
X158875000Y-68580000D03*
X159895000Y-68580000D03*
%TD*%
D12*
%TO.C,R10*%
X158875000Y-69723000D03*
X159895000Y-69723000D03*
%TD*%
D13*
%TO.C,R9*%
X144145000Y-62990000D03*
X144145000Y-64010000D03*
%TD*%
D14*
%TO.C,R8*%
X145415000Y-62990000D03*
X145415000Y-64010000D03*
%TD*%
D15*
%TO.C,U1*%
X152158000Y-60763000D03*
X152658000Y-60763000D03*
X153158000Y-60763000D03*
X153658000Y-60763000D03*
X153658000Y-58363000D03*
X153158000Y-58363000D03*
X152658000Y-58363000D03*
X152158000Y-58363000D03*
D16*
X152908000Y-59563000D03*
%TD*%
D11*
%TO.C,R12*%
X166622000Y-53848000D03*
X167642000Y-53848000D03*
%TD*%
D14*
%TO.C,R7*%
X157734000Y-64226500D03*
X157734000Y-63206500D03*
%TD*%
D11*
%TO.C,R6*%
X153926000Y-55118000D03*
X152906000Y-55118000D03*
%TD*%
D14*
%TO.C,R5*%
X151638000Y-56005000D03*
X151638000Y-57025000D03*
%TD*%
D13*
%TO.C,R4*%
X164338000Y-57402000D03*
X164338000Y-58422000D03*
%TD*%
D11*
%TO.C,R3*%
X153668000Y-62865000D03*
X154688000Y-62865000D03*
%TD*%
D12*
%TO.C,R2*%
X150493000Y-62992000D03*
X151513000Y-62992000D03*
%TD*%
D13*
%TO.C,R1*%
X151765000Y-53850000D03*
X151765000Y-52830000D03*
%TD*%
D17*
%TO.C,D3*%
X166014500Y-52451000D03*
X164439500Y-52451000D03*
%TD*%
D18*
%TO.C,C20*%
X168656000Y-69751000D03*
X168656000Y-70711000D03*
%TD*%
%TO.C,C19*%
X168783000Y-66322000D03*
X168783000Y-67282000D03*
%TD*%
%TO.C,C18*%
X168656000Y-63020000D03*
X168656000Y-63980000D03*
%TD*%
D19*
%TO.C,C17*%
X165890000Y-70256400D03*
X166850000Y-70256400D03*
%TD*%
D20*
%TO.C,C16*%
X163675000Y-65405000D03*
X162715000Y-65405000D03*
%TD*%
%TO.C,C15*%
X164056000Y-63500000D03*
X163096000Y-63500000D03*
%TD*%
%TO.C,C14*%
X154150000Y-52578000D03*
X153190000Y-52578000D03*
%TD*%
D19*
%TO.C,C13*%
X161826000Y-61722000D03*
X162786000Y-61722000D03*
%TD*%
%TO.C,C12*%
X160810000Y-52324000D03*
X161770000Y-52324000D03*
%TD*%
D20*
%TO.C,C11*%
X156690000Y-52324000D03*
X155730000Y-52324000D03*
%TD*%
D21*
%TO.C,C10*%
X165354000Y-55090000D03*
X165354000Y-54130000D03*
%TD*%
D18*
%TO.C,C9*%
X156210000Y-62385000D03*
X156210000Y-63345000D03*
%TD*%
D19*
%TO.C,C8*%
X158075500Y-52324000D03*
X159035500Y-52324000D03*
%TD*%
D20*
%TO.C,C7*%
X154150000Y-56642000D03*
X153190000Y-56642000D03*
%TD*%
D21*
%TO.C,C6*%
X164084000Y-55344000D03*
X164084000Y-54384000D03*
%TD*%
D20*
%TO.C,C5*%
X153896000Y-53848000D03*
X152936000Y-53848000D03*
%TD*%
D19*
%TO.C,C4*%
X166652000Y-55372000D03*
X167612000Y-55372000D03*
%TD*%
D18*
%TO.C,C3*%
X164084000Y-60226000D03*
X164084000Y-61186000D03*
%TD*%
D22*
%TO.C,C2*%
X155448000Y-65773000D03*
X155448000Y-67323000D03*
%TD*%
D23*
%TO.C,C1*%
X149225000Y-65773000D03*
X149225000Y-67323000D03*
%TD*%
D10*
%TO.C,D2*%
X152942000Y-68326000D03*
X150842000Y-68326000D03*
%TD*%
D24*
%TO.C,U6*%
X167320000Y-69095000D03*
X167320000Y-68595000D03*
X167320000Y-68095000D03*
X167320000Y-67595000D03*
X165420000Y-67595000D03*
X165420000Y-68095000D03*
X165420000Y-68595000D03*
X165420000Y-69095000D03*
D25*
X166370000Y-68345000D03*
%TD*%
D24*
%TO.C,U4*%
X167320000Y-62980000D03*
X167320000Y-62480000D03*
X167320000Y-61980000D03*
X167320000Y-61480000D03*
X165420000Y-61480000D03*
X165420000Y-61980000D03*
X165420000Y-62480000D03*
X165420000Y-62980000D03*
D25*
X166370000Y-62230000D03*
%TD*%
D26*
%TO.C,Y1*%
X167474000Y-59266000D03*
X167474000Y-57066000D03*
X165774000Y-57066000D03*
X165774000Y-59266000D03*
%TD*%
D24*
%TO.C,U5*%
X167320000Y-66155000D03*
X167320000Y-65655000D03*
X167320000Y-65155000D03*
X167320000Y-64655000D03*
X165420000Y-64655000D03*
X165420000Y-65155000D03*
X165420000Y-65655000D03*
X165420000Y-66155000D03*
D25*
X166370000Y-65405000D03*
%TD*%
D27*
%TO.C,P1*%
X148770000Y-54260000D03*
X148770000Y-60040000D03*
D28*
X149830000Y-53950000D03*
X149830000Y-54750000D03*
D29*
X149830000Y-55900000D03*
X149830000Y-56900000D03*
X149830000Y-57400000D03*
X149830000Y-58400000D03*
D28*
X149830000Y-59550000D03*
X149830000Y-60350000D03*
X149830000Y-60350000D03*
X149830000Y-59550000D03*
D29*
X149830000Y-58900000D03*
X149830000Y-57900000D03*
X149830000Y-56400000D03*
X149830000Y-55400000D03*
D28*
X149830000Y-54750000D03*
X149830000Y-53950000D03*
D30*
X149250000Y-52830000D03*
D31*
X145080000Y-52830000D03*
D30*
X149250000Y-61470000D03*
D31*
X145080000Y-61470000D03*
%TD*%
D32*
%TO.C,U3*%
X156658000Y-60460500D03*
X157058000Y-60460500D03*
X157458000Y-60460500D03*
X157858000Y-60460500D03*
X158258000Y-60460500D03*
X158658000Y-60460500D03*
X159058000Y-60460500D03*
X159458000Y-60460500D03*
X159858000Y-60460500D03*
X160258000Y-60460500D03*
X160658000Y-60460500D03*
X161058000Y-60460500D03*
X161458000Y-60460500D03*
X161858000Y-60460500D03*
D33*
X162695500Y-59623000D03*
X162695500Y-59223000D03*
X162695500Y-58823000D03*
X162695500Y-58423000D03*
X162695500Y-58023000D03*
X162695500Y-57623000D03*
X162695500Y-57223000D03*
X162695500Y-56823000D03*
X162695500Y-56423000D03*
X162695500Y-56023000D03*
X162695500Y-55623000D03*
X162695500Y-55223000D03*
X162695500Y-54823000D03*
X162695500Y-54423000D03*
D32*
X161858000Y-53585500D03*
X161458000Y-53585500D03*
X161058000Y-53585500D03*
X160658000Y-53585500D03*
X160258000Y-53585500D03*
X159858000Y-53585500D03*
X159458000Y-53585500D03*
X159058000Y-53585500D03*
X158658000Y-53585500D03*
X158258000Y-53585500D03*
X157858000Y-53585500D03*
X157458000Y-53585500D03*
X157058000Y-53585500D03*
X156658000Y-53585500D03*
D33*
X155820500Y-54423000D03*
X155820500Y-54823000D03*
X155820500Y-55223000D03*
X155820500Y-55623000D03*
X155820500Y-56023000D03*
X155820500Y-56423000D03*
X155820500Y-56823000D03*
X155820500Y-57223000D03*
X155820500Y-57623000D03*
X155820500Y-58023000D03*
X155820500Y-58423000D03*
X155820500Y-58823000D03*
X155820500Y-59223000D03*
X155820500Y-59623000D03*
D34*
X159258000Y-57023000D03*
%TD*%
D35*
%TO.C,J2*%
X173285000Y-59795000D03*
X173285000Y-63395000D03*
D36*
X170760000Y-62095000D03*
X170760000Y-61095000D03*
%TD*%
D37*
%TO.C,U2*%
X153337500Y-66355000D03*
X153337500Y-64455000D03*
X151462500Y-65405000D03*
%TD*%
D38*
%TO.C,J4*%
X144215000Y-65645000D03*
X144215000Y-70245000D03*
D39*
X146740000Y-66945000D03*
X146740000Y-67945000D03*
X146740000Y-68945000D03*
%TD*%
D36*
%TO.C,J3*%
X170760000Y-67945000D03*
X170760000Y-68945000D03*
D35*
X173285000Y-70245000D03*
X173285000Y-66645000D03*
%TD*%
%TO.C,J1*%
X173285000Y-56545000D03*
X173285000Y-52945000D03*
D36*
X170760000Y-55245000D03*
X170760000Y-54245000D03*
%TD*%
M02*
