%TF.GenerationSoftware,KiCad,Pcbnew,(6.0.5)*%
%TF.CreationDate,2022-10-09T22:16:16+01:00*%
%TF.ProjectId,PicoDrive,5069636f-4472-4697-9665-2e6b69636164,rev?*%
%TF.SameCoordinates,Original*%
%TF.FileFunction,Copper,L1,Top*%
%TF.FilePolarity,Positive*%
%FSLAX46Y46*%
G04 Gerber Fmt 4.6, Leading zero omitted, Abs format (unit mm)*
G04 Created by KiCad (PCBNEW (6.0.5)) date 2022-10-09 22:16:16*
%MOMM*%
%LPD*%
G01*
G04 APERTURE LIST*
G04 Aperture macros list*
%AMRoundRect*
0 Rectangle with rounded corners*
0 $1 Rounding radius*
0 $2 $3 $4 $5 $6 $7 $8 $9 X,Y pos of 4 corners*
0 Add a 4 corners polygon primitive as box body*
4,1,4,$2,$3,$4,$5,$6,$7,$8,$9,$2,$3,0*
0 Add four circle primitives for the rounded corners*
1,1,$1+$1,$2,$3*
1,1,$1+$1,$4,$5*
1,1,$1+$1,$6,$7*
1,1,$1+$1,$8,$9*
0 Add four rect primitives between the rounded corners*
20,1,$1+$1,$2,$3,$4,$5,0*
20,1,$1+$1,$4,$5,$6,$7,0*
20,1,$1+$1,$6,$7,$8,$9,0*
20,1,$1+$1,$8,$9,$2,$3,0*%
G04 Aperture macros list end*
%TA.AperFunction,SMDPad,CuDef*%
%ADD10RoundRect,0.150000X0.625000X-0.150000X0.625000X0.150000X-0.625000X0.150000X-0.625000X-0.150000X0*%
%TD*%
%TA.AperFunction,SMDPad,CuDef*%
%ADD11RoundRect,0.250000X0.650000X-0.350000X0.650000X0.350000X-0.650000X0.350000X-0.650000X-0.350000X0*%
%TD*%
%TA.AperFunction,SMDPad,CuDef*%
%ADD12RoundRect,0.250000X-0.650000X0.350000X-0.650000X-0.350000X0.650000X-0.350000X0.650000X0.350000X0*%
%TD*%
%TA.AperFunction,SMDPad,CuDef*%
%ADD13RoundRect,0.150000X-0.625000X0.150000X-0.625000X-0.150000X0.625000X-0.150000X0.625000X0.150000X0*%
%TD*%
%TA.AperFunction,SMDPad,CuDef*%
%ADD14R,0.600000X0.450000*%
%TD*%
%TA.AperFunction,SMDPad,CuDef*%
%ADD15RoundRect,0.135000X-0.135000X-0.185000X0.135000X-0.185000X0.135000X0.185000X-0.135000X0.185000X0*%
%TD*%
%TA.AperFunction,SMDPad,CuDef*%
%ADD16RoundRect,0.135000X0.135000X0.185000X-0.135000X0.185000X-0.135000X-0.185000X0.135000X-0.185000X0*%
%TD*%
%TA.AperFunction,SMDPad,CuDef*%
%ADD17RoundRect,0.135000X-0.185000X0.135000X-0.185000X-0.135000X0.185000X-0.135000X0.185000X0.135000X0*%
%TD*%
%TA.AperFunction,SMDPad,CuDef*%
%ADD18RoundRect,0.135000X0.185000X-0.135000X0.185000X0.135000X-0.185000X0.135000X-0.185000X-0.135000X0*%
%TD*%
%TA.AperFunction,SMDPad,CuDef*%
%ADD19R,0.250000X0.300000*%
%TD*%
%TA.AperFunction,SMDPad,CuDef*%
%ADD20R,1.600000X0.200000*%
%TD*%
%TA.AperFunction,SMDPad,CuDef*%
%ADD21RoundRect,0.218750X0.218750X0.256250X-0.218750X0.256250X-0.218750X-0.256250X0.218750X-0.256250X0*%
%TD*%
%TA.AperFunction,SMDPad,CuDef*%
%ADD22RoundRect,0.140000X0.140000X0.170000X-0.140000X0.170000X-0.140000X-0.170000X0.140000X-0.170000X0*%
%TD*%
%TA.AperFunction,SMDPad,CuDef*%
%ADD23RoundRect,0.140000X-0.170000X0.140000X-0.170000X-0.140000X0.170000X-0.140000X0.170000X0.140000X0*%
%TD*%
%TA.AperFunction,SMDPad,CuDef*%
%ADD24RoundRect,0.140000X0.170000X-0.140000X0.170000X0.140000X-0.170000X0.140000X-0.170000X-0.140000X0*%
%TD*%
%TA.AperFunction,SMDPad,CuDef*%
%ADD25RoundRect,0.140000X-0.140000X-0.170000X0.140000X-0.170000X0.140000X0.170000X-0.140000X0.170000X0*%
%TD*%
%TA.AperFunction,SMDPad,CuDef*%
%ADD26RoundRect,0.225000X-0.250000X0.225000X-0.250000X-0.225000X0.250000X-0.225000X0.250000X0.225000X0*%
%TD*%
%TA.AperFunction,SMDPad,CuDef*%
%ADD27RoundRect,0.225000X0.250000X-0.225000X0.250000X0.225000X-0.250000X0.225000X-0.250000X-0.225000X0*%
%TD*%
%TA.AperFunction,SMDPad,CuDef*%
%ADD28R,0.900000X1.600000*%
%TD*%
%TA.AperFunction,SMDPad,CuDef*%
%ADD29R,0.500000X0.250000*%
%TD*%
%TA.AperFunction,SMDPad,CuDef*%
%ADD30R,1.200000X1.400000*%
%TD*%
%TA.AperFunction,SMDPad,CuDef*%
%ADD31R,1.160000X0.600000*%
%TD*%
%TA.AperFunction,SMDPad,CuDef*%
%ADD32R,1.160000X0.300000*%
%TD*%
%TA.AperFunction,ComponentPad*%
%ADD33O,2.000000X0.900000*%
%TD*%
%TA.AperFunction,ComponentPad*%
%ADD34O,1.700000X0.900000*%
%TD*%
%TA.AperFunction,SMDPad,CuDef*%
%ADD35RoundRect,0.050000X0.050000X-0.387500X0.050000X0.387500X-0.050000X0.387500X-0.050000X-0.387500X0*%
%TD*%
%TA.AperFunction,SMDPad,CuDef*%
%ADD36RoundRect,0.050000X0.387500X-0.050000X0.387500X0.050000X-0.387500X0.050000X-0.387500X-0.050000X0*%
%TD*%
%TA.AperFunction,ComponentPad*%
%ADD37C,0.600000*%
%TD*%
%TA.AperFunction,SMDPad,CuDef*%
%ADD38RoundRect,0.144000X1.456000X-1.456000X1.456000X1.456000X-1.456000X1.456000X-1.456000X-1.456000X0*%
%TD*%
%TA.AperFunction,SMDPad,CuDef*%
%ADD39RoundRect,0.150000X0.587500X0.150000X-0.587500X0.150000X-0.587500X-0.150000X0.587500X-0.150000X0*%
%TD*%
%TA.AperFunction,ViaPad*%
%ADD40C,0.500000*%
%TD*%
%TA.AperFunction,Conductor*%
%ADD41C,0.200000*%
%TD*%
%TA.AperFunction,Conductor*%
%ADD42C,0.300000*%
%TD*%
%TA.AperFunction,Conductor*%
%ADD43C,0.500000*%
%TD*%
G04 APERTURE END LIST*
D10*
%TO.P,J1,1,Pin_1*%
%TO.N,/M1+*%
X170085000Y-55110000D03*
%TO.P,J1,2,Pin_2*%
%TO.N,/M1-*%
X170085000Y-54110000D03*
D11*
%TO.P,J1,MP*%
%TO.N,N/C*%
X173960000Y-56410000D03*
X173960000Y-52810000D03*
%TD*%
D10*
%TO.P,J2,1,Pin_1*%
%TO.N,/M2+*%
X170085000Y-62095000D03*
%TO.P,J2,2,Pin_2*%
%TO.N,/M2-*%
X170085000Y-61095000D03*
D11*
%TO.P,J2,MP*%
%TO.N,N/C*%
X173960000Y-63395000D03*
X173960000Y-59795000D03*
%TD*%
D10*
%TO.P,J3,1,Pin_1*%
%TO.N,/M3+*%
X170085000Y-69080000D03*
%TO.P,J3,2,Pin_2*%
%TO.N,/M3-*%
X170085000Y-68080000D03*
D11*
%TO.P,J3,MP*%
%TO.N,N/C*%
X173960000Y-70380000D03*
X173960000Y-66780000D03*
%TD*%
D12*
%TO.P,J4,MP*%
%TO.N,N/C*%
X143540000Y-65645000D03*
X143540000Y-70245000D03*
D13*
%TO.P,J4,3,Pin_3*%
%TO.N,+3V3*%
X147415000Y-68945000D03*
%TO.P,J4,2,Pin_2*%
%TO.N,GND*%
X147415000Y-67945000D03*
%TO.P,J4,1,Pin_1*%
%TO.N,/IBUS*%
X147415000Y-66945000D03*
%TD*%
D14*
%TO.P,D1,1,K*%
%TO.N,Net-(C1-Pad1)*%
X149386000Y-63500000D03*
%TO.P,D1,2,A*%
%TO.N,/VBUS*%
X147286000Y-63500000D03*
%TD*%
D15*
%TO.P,R11,2*%
%TO.N,GND*%
X159895000Y-68580000D03*
%TO.P,R11,1*%
%TO.N,Net-(R10-Pad2)*%
X158875000Y-68580000D03*
%TD*%
D16*
%TO.P,R10,1*%
%TO.N,+BATT*%
X159895000Y-69723000D03*
%TO.P,R10,2*%
%TO.N,Net-(R10-Pad2)*%
X158875000Y-69723000D03*
%TD*%
D17*
%TO.P,R9,2*%
%TO.N,GND*%
X144145000Y-64010000D03*
%TO.P,R9,1*%
%TO.N,Net-(R8-Pad2)*%
X144145000Y-62990000D03*
%TD*%
D18*
%TO.P,R8,1*%
%TO.N,/VBUS*%
X145415000Y-64010000D03*
%TO.P,R8,2*%
%TO.N,Net-(R8-Pad2)*%
X145415000Y-62990000D03*
%TD*%
D19*
%TO.P,U1,1,~{CS}*%
%TO.N,QSPI_SS*%
X152158000Y-60763000D03*
%TO.P,U1,2,DO(IO1)*%
%TO.N,QSPI_D1*%
X152658000Y-60763000D03*
%TO.P,U1,3,IO2*%
%TO.N,QSPI_D2*%
X153158000Y-60763000D03*
%TO.P,U1,4,GND*%
%TO.N,GND*%
X153658000Y-60763000D03*
%TO.P,U1,5,DI(IO0)*%
%TO.N,QSPI_D0*%
X153658000Y-58363000D03*
%TO.P,U1,6,CLK*%
%TO.N,QSPI_SCLK*%
X153158000Y-58363000D03*
%TO.P,U1,7,IO3*%
%TO.N,QSPI_D3*%
X152658000Y-58363000D03*
%TO.P,U1,8,VCC*%
%TO.N,+3V3*%
X152158000Y-58363000D03*
D20*
%TO.P,U1,FLAG*%
%TO.N,N/C*%
X152908000Y-59563000D03*
%TD*%
D17*
%TO.P,R12,1*%
%TO.N,Net-(D3-Pad1)*%
X167513000Y-52195000D03*
%TO.P,R12,2*%
%TO.N,GND*%
X167513000Y-53215000D03*
%TD*%
D18*
%TO.P,R7,1*%
%TO.N,/IBUS*%
X157734000Y-64226500D03*
%TO.P,R7,2*%
%TO.N,Net-(R7-Pad2)*%
X157734000Y-63206500D03*
%TD*%
D15*
%TO.P,R6,2*%
%TO.N,Net-(R6-Pad2)*%
X153926000Y-55118000D03*
%TO.P,R6,1*%
%TO.N,USB_DM*%
X152906000Y-55118000D03*
%TD*%
D18*
%TO.P,R5,2*%
%TO.N,Net-(R5-Pad2)*%
X151638000Y-56005000D03*
%TO.P,R5,1*%
%TO.N,USB_DP*%
X151638000Y-57025000D03*
%TD*%
D17*
%TO.P,R4,2*%
%TO.N,Net-(C6-Pad1)*%
X164338000Y-58422000D03*
%TO.P,R4,1*%
%TO.N,Net-(R4-Pad1)*%
X164338000Y-57402000D03*
%TD*%
D15*
%TO.P,R3,1*%
%TO.N,QSPI_SS*%
X153668000Y-62865000D03*
%TO.P,R3,2*%
%TO.N,Net-(JP1-Pad1)*%
X154688000Y-62865000D03*
%TD*%
D16*
%TO.P,R2,2*%
%TO.N,Net-(P1-PadB5)*%
X150493000Y-62992000D03*
%TO.P,R2,1*%
%TO.N,GND*%
X151513000Y-62992000D03*
%TD*%
D17*
%TO.P,R1,2*%
%TO.N,Net-(P1-PadA5)*%
X151765000Y-53850000D03*
%TO.P,R1,1*%
%TO.N,GND*%
X151765000Y-52830000D03*
%TD*%
D21*
%TO.P,D3,1,K*%
%TO.N,Net-(D3-Pad1)*%
X166014500Y-52451000D03*
%TO.P,D3,2,A*%
%TO.N,Net-(D3-Pad2)*%
X164439500Y-52451000D03*
%TD*%
D22*
%TO.P,C20,1*%
%TO.N,+BATT*%
X164917000Y-70231000D03*
%TO.P,C20,2*%
%TO.N,GND*%
X163957000Y-70231000D03*
%TD*%
D23*
%TO.P,C19,1*%
%TO.N,+BATT*%
X166624000Y-66449000D03*
%TO.P,C19,2*%
%TO.N,GND*%
X166624000Y-67409000D03*
%TD*%
D22*
%TO.P,C18,1*%
%TO.N,+BATT*%
X167612000Y-64135000D03*
%TO.P,C18,2*%
%TO.N,GND*%
X166652000Y-64135000D03*
%TD*%
D23*
%TO.P,C17,1*%
%TO.N,+3V3*%
X161925000Y-68735000D03*
%TO.P,C17,2*%
%TO.N,GND*%
X161925000Y-69695000D03*
%TD*%
D24*
%TO.P,C16,1*%
%TO.N,+3V3*%
X161925000Y-66139000D03*
%TO.P,C16,2*%
%TO.N,GND*%
X161925000Y-65179000D03*
%TD*%
D22*
%TO.P,C15,2*%
%TO.N,GND*%
X162461000Y-63500000D03*
%TO.P,C15,1*%
%TO.N,+3V3*%
X163421000Y-63500000D03*
%TD*%
%TO.P,C14,2*%
%TO.N,GND*%
X153190000Y-52578000D03*
%TO.P,C14,1*%
%TO.N,+3V3*%
X154150000Y-52578000D03*
%TD*%
D25*
%TO.P,C13,2*%
%TO.N,GND*%
X162405000Y-61671200D03*
%TO.P,C13,1*%
%TO.N,+3V3*%
X161445000Y-61671200D03*
%TD*%
%TO.P,C12,2*%
%TO.N,GND*%
X161770000Y-52324000D03*
%TO.P,C12,1*%
%TO.N,+3V3*%
X160810000Y-52324000D03*
%TD*%
D22*
%TO.P,C11,2*%
%TO.N,GND*%
X155730000Y-52324000D03*
%TO.P,C11,1*%
%TO.N,+3V3*%
X156690000Y-52324000D03*
%TD*%
D24*
%TO.P,C10,2*%
%TO.N,GND*%
X165354000Y-54130000D03*
%TO.P,C10,1*%
%TO.N,+3V3*%
X165354000Y-55090000D03*
%TD*%
D23*
%TO.P,C9,2*%
%TO.N,GND*%
X156210000Y-63345000D03*
%TO.P,C9,1*%
%TO.N,+3V3*%
X156210000Y-62385000D03*
%TD*%
D25*
%TO.P,C8,2*%
%TO.N,GND*%
X159035500Y-52324000D03*
%TO.P,C8,1*%
%TO.N,+3V3*%
X158075500Y-52324000D03*
%TD*%
D22*
%TO.P,C7,1*%
%TO.N,+1V1*%
X154150000Y-56642000D03*
%TO.P,C7,2*%
%TO.N,GND*%
X153190000Y-56642000D03*
%TD*%
D24*
%TO.P,C4,2*%
%TO.N,GND*%
X164084000Y-54384000D03*
%TO.P,C4,1*%
%TO.N,+1V1*%
X164084000Y-55344000D03*
%TD*%
D22*
%TO.P,C2,2*%
%TO.N,GND*%
X152936000Y-53848000D03*
%TO.P,C2,1*%
%TO.N,+1V1*%
X153896000Y-53848000D03*
%TD*%
D24*
%TO.P,C6,2*%
%TO.N,GND*%
X166497000Y-54130000D03*
%TO.P,C6,1*%
%TO.N,Net-(C6-Pad1)*%
X166497000Y-55090000D03*
%TD*%
D23*
%TO.P,C5,2*%
%TO.N,GND*%
X164084000Y-60424000D03*
%TO.P,C5,1*%
%TO.N,Net-(C5-Pad1)*%
X164084000Y-59464000D03*
%TD*%
D26*
%TO.P,C3,1*%
%TO.N,+3V3*%
X155448000Y-65773000D03*
%TO.P,C3,2*%
%TO.N,GND*%
X155448000Y-67323000D03*
%TD*%
D27*
%TO.P,C1,1*%
%TO.N,Net-(C1-Pad1)*%
X149606000Y-67323000D03*
%TO.P,C1,2*%
%TO.N,GND*%
X149606000Y-65773000D03*
%TD*%
D14*
%TO.P,D2,2,A*%
%TO.N,+BATT*%
X151096000Y-68326000D03*
%TO.P,D2,1,K*%
%TO.N,Net-(C1-Pad1)*%
X153196000Y-68326000D03*
%TD*%
D28*
%TO.P,U6,9,GND*%
%TO.N,GND*%
X164465000Y-68345000D03*
D29*
%TO.P,U6,8,VCC*%
%TO.N,+3V3*%
X163515000Y-69095000D03*
%TO.P,U6,7,~{SLEEP}*%
X163515000Y-68595000D03*
%TO.P,U6,6,IN1*%
%TO.N,/M3A*%
X163515000Y-68095000D03*
%TO.P,U6,5,IN2*%
%TO.N,/M3B*%
X163515000Y-67595000D03*
%TO.P,U6,4,GND*%
%TO.N,GND*%
X165415000Y-67595000D03*
%TO.P,U6,3,OUT2*%
%TO.N,/M3-*%
X165415000Y-68095000D03*
%TO.P,U6,2,OUT1*%
%TO.N,/M3+*%
X165415000Y-68595000D03*
%TO.P,U6,1,VM*%
%TO.N,+BATT*%
X165415000Y-69095000D03*
%TD*%
%TO.P,U4,1,VM*%
%TO.N,+BATT*%
X166558000Y-62980000D03*
%TO.P,U4,2,OUT1*%
%TO.N,/M1+*%
X166558000Y-62480000D03*
%TO.P,U4,3,OUT2*%
%TO.N,/M1-*%
X166558000Y-61980000D03*
%TO.P,U4,4,GND*%
%TO.N,GND*%
X166558000Y-61480000D03*
%TO.P,U4,5,IN2*%
%TO.N,/M1B*%
X164658000Y-61480000D03*
%TO.P,U4,6,IN1*%
%TO.N,/M1A*%
X164658000Y-61980000D03*
%TO.P,U4,7,~{SLEEP}*%
%TO.N,+3V3*%
X164658000Y-62480000D03*
%TO.P,U4,8,VCC*%
X164658000Y-62980000D03*
D28*
%TO.P,U4,9,GND*%
%TO.N,GND*%
X165608000Y-62230000D03*
%TD*%
D30*
%TO.P,Y1,4*%
%TO.N,N/C*%
X165774000Y-58885000D03*
%TO.P,Y1,3,3*%
%TO.N,Net-(C6-Pad1)*%
X165774000Y-56685000D03*
%TO.P,Y1,2,2*%
%TO.N,GND*%
X167474000Y-56685000D03*
%TO.P,Y1,1,1*%
%TO.N,Net-(C5-Pad1)*%
X167474000Y-58885000D03*
%TD*%
D28*
%TO.P,U5,9,GND*%
%TO.N,GND*%
X164465000Y-65405000D03*
D29*
%TO.P,U5,8,VCC*%
%TO.N,+3V3*%
X163515000Y-66155000D03*
%TO.P,U5,7,~{SLEEP}*%
X163515000Y-65655000D03*
%TO.P,U5,6,IN1*%
%TO.N,/M2A*%
X163515000Y-65155000D03*
%TO.P,U5,5,IN2*%
%TO.N,/M2B*%
X163515000Y-64655000D03*
%TO.P,U5,4,GND*%
%TO.N,GND*%
X165415000Y-64655000D03*
%TO.P,U5,3,OUT2*%
%TO.N,/M2-*%
X165415000Y-65155000D03*
%TO.P,U5,2,OUT1*%
%TO.N,/M2+*%
X165415000Y-65655000D03*
%TO.P,U5,1,VM*%
%TO.N,+BATT*%
X165415000Y-66155000D03*
%TD*%
D31*
%TO.P,P1,A1,GND*%
%TO.N,GND*%
X149830000Y-53950000D03*
%TO.P,P1,A4,VBUS*%
%TO.N,/VBUS*%
X149830000Y-54750000D03*
D32*
%TO.P,P1,A5,CC*%
%TO.N,Net-(P1-PadA5)*%
X149830000Y-55900000D03*
%TO.P,P1,A6,D+*%
%TO.N,USB_DP*%
X149830000Y-56900000D03*
%TO.P,P1,A7,D-*%
%TO.N,USB_DM*%
X149830000Y-57400000D03*
%TO.P,P1,A8*%
%TO.N,N/C*%
X149830000Y-58400000D03*
D31*
%TO.P,P1,A9,VBUS*%
%TO.N,/VBUS*%
X149830000Y-59550000D03*
%TO.P,P1,A12,GND*%
%TO.N,GND*%
X149830000Y-60350000D03*
%TO.P,P1,B1,GND*%
X149830000Y-60350000D03*
%TO.P,P1,B4,VBUS*%
%TO.N,/VBUS*%
X149830000Y-59550000D03*
D32*
%TO.P,P1,B5,VCONN*%
%TO.N,Net-(P1-PadB5)*%
X149830000Y-58900000D03*
%TO.P,P1,B6*%
%TO.N,N/C*%
X149830000Y-57900000D03*
%TO.P,P1,B7*%
X149830000Y-56400000D03*
%TO.P,P1,B8*%
X149830000Y-55400000D03*
D31*
%TO.P,P1,B9,VBUS*%
%TO.N,/VBUS*%
X149830000Y-54750000D03*
%TO.P,P1,B12,GND*%
%TO.N,GND*%
X149830000Y-53950000D03*
D33*
%TO.P,P1,S1,SHIELD*%
X149250000Y-52830000D03*
D34*
X145080000Y-52830000D03*
D33*
X149250000Y-61470000D03*
D34*
X145080000Y-61470000D03*
%TD*%
D35*
%TO.P,U3,1,IOVDD*%
%TO.N,+3V3*%
X156658000Y-60460500D03*
%TO.P,U3,2,GPIO0*%
%TO.N,/IBUS*%
X157058000Y-60460500D03*
%TO.P,U3,3,GPIO1*%
%TO.N,Net-(R7-Pad2)*%
X157458000Y-60460500D03*
%TO.P,U3,4,GPIO2*%
%TO.N,/M3A*%
X157858000Y-60460500D03*
%TO.P,U3,5,GPIO3*%
%TO.N,/M3B*%
X158258000Y-60460500D03*
%TO.P,U3,6,GPIO4*%
%TO.N,/M2A*%
X158658000Y-60460500D03*
%TO.P,U3,7,GPIO5*%
%TO.N,/M2B*%
X159058000Y-60460500D03*
%TO.P,U3,8,GPIO6*%
%TO.N,/M1A*%
X159458000Y-60460500D03*
%TO.P,U3,9,GPIO7*%
%TO.N,/M1B*%
X159858000Y-60460500D03*
%TO.P,U3,10,IOVDD*%
%TO.N,+3V3*%
X160258000Y-60460500D03*
%TO.P,U3,11,GPIO8*%
%TO.N,unconnected-(U3-Pad11)*%
X160658000Y-60460500D03*
%TO.P,U3,12,GPIO9*%
%TO.N,unconnected-(U3-Pad12)*%
X161058000Y-60460500D03*
%TO.P,U3,13,GPIO10*%
%TO.N,unconnected-(U3-Pad13)*%
X161458000Y-60460500D03*
%TO.P,U3,14,GPIO11*%
%TO.N,/IO_2*%
X161858000Y-60460500D03*
D36*
%TO.P,U3,15,GPIO12*%
%TO.N,/IO_1*%
X162695500Y-59623000D03*
%TO.P,U3,16,GPIO13*%
%TO.N,unconnected-(U3-Pad16)*%
X162695500Y-59223000D03*
%TO.P,U3,17,GPIO14*%
%TO.N,unconnected-(U3-Pad17)*%
X162695500Y-58823000D03*
%TO.P,U3,18,GPIO15*%
%TO.N,unconnected-(U3-Pad18)*%
X162695500Y-58423000D03*
%TO.P,U3,19,TESTEN*%
%TO.N,GND*%
X162695500Y-58023000D03*
%TO.P,U3,20,XIN*%
%TO.N,Net-(C5-Pad1)*%
X162695500Y-57623000D03*
%TO.P,U3,21,XOUT*%
%TO.N,Net-(R4-Pad1)*%
X162695500Y-57223000D03*
%TO.P,U3,22,IOVDD*%
%TO.N,+3V3*%
X162695500Y-56823000D03*
%TO.P,U3,23,DVDD*%
%TO.N,+1V1*%
X162695500Y-56423000D03*
%TO.P,U3,24,SWCLK*%
%TO.N,unconnected-(U3-Pad24)*%
X162695500Y-56023000D03*
%TO.P,U3,25,SWD*%
%TO.N,unconnected-(U3-Pad25)*%
X162695500Y-55623000D03*
%TO.P,U3,26,RUN*%
%TO.N,unconnected-(U3-Pad26)*%
X162695500Y-55223000D03*
%TO.P,U3,27,GPIO16*%
%TO.N,unconnected-(U3-Pad27)*%
X162695500Y-54823000D03*
%TO.P,U3,28,GPIO17*%
%TO.N,Net-(D3-Pad2)*%
X162695500Y-54423000D03*
D35*
%TO.P,U3,29,GPIO18*%
%TO.N,unconnected-(U3-Pad29)*%
X161858000Y-53585500D03*
%TO.P,U3,30,GPIO19*%
%TO.N,unconnected-(U3-Pad30)*%
X161458000Y-53585500D03*
%TO.P,U3,31,GPIO20*%
%TO.N,unconnected-(U3-Pad31)*%
X161058000Y-53585500D03*
%TO.P,U3,32,GPIO21*%
%TO.N,unconnected-(U3-Pad32)*%
X160658000Y-53585500D03*
%TO.P,U3,33,IOVDD*%
%TO.N,+3V3*%
X160258000Y-53585500D03*
%TO.P,U3,34,GPIO22*%
%TO.N,unconnected-(U3-Pad34)*%
X159858000Y-53585500D03*
%TO.P,U3,35,GPIO23*%
%TO.N,unconnected-(U3-Pad35)*%
X159458000Y-53585500D03*
%TO.P,U3,36,GPIO24*%
%TO.N,unconnected-(U3-Pad36)*%
X159058000Y-53585500D03*
%TO.P,U3,37,GPIO25*%
%TO.N,unconnected-(U3-Pad37)*%
X158658000Y-53585500D03*
%TO.P,U3,38,GPIO26_ADC0*%
%TO.N,unconnected-(U3-Pad38)*%
X158258000Y-53585500D03*
%TO.P,U3,39,GPIO27_ADC1*%
%TO.N,Net-(R10-Pad2)*%
X157858000Y-53585500D03*
%TO.P,U3,40,GPIO28_ADC2*%
%TO.N,Net-(R8-Pad2)*%
X157458000Y-53585500D03*
%TO.P,U3,41,GPIO29_ADC3*%
%TO.N,unconnected-(U3-Pad41)*%
X157058000Y-53585500D03*
%TO.P,U3,42,IOVDD*%
%TO.N,+3V3*%
X156658000Y-53585500D03*
D36*
%TO.P,U3,43,ADC_AVDD*%
X155820500Y-54423000D03*
%TO.P,U3,44,VREG_IN*%
X155820500Y-54823000D03*
%TO.P,U3,45,VREG_VOUT*%
%TO.N,+1V1*%
X155820500Y-55223000D03*
%TO.P,U3,46,USB_DM*%
%TO.N,Net-(R6-Pad2)*%
X155820500Y-55623000D03*
%TO.P,U3,47,USB_DP*%
%TO.N,Net-(R5-Pad2)*%
X155820500Y-56023000D03*
%TO.P,U3,48,USB_VDD*%
%TO.N,+3V3*%
X155820500Y-56423000D03*
%TO.P,U3,49,IOVDD*%
X155820500Y-56823000D03*
%TO.P,U3,50,DVDD*%
%TO.N,+1V1*%
X155820500Y-57223000D03*
%TO.P,U3,51,QSPI_SD3*%
%TO.N,QSPI_D3*%
X155820500Y-57623000D03*
%TO.P,U3,52,QSPI_SCLK*%
%TO.N,QSPI_SCLK*%
X155820500Y-58023000D03*
%TO.P,U3,53,QSPI_SD0*%
%TO.N,QSPI_D0*%
X155820500Y-58423000D03*
%TO.P,U3,54,QSPI_SD2*%
%TO.N,QSPI_D2*%
X155820500Y-58823000D03*
%TO.P,U3,55,QSPI_SD1*%
%TO.N,QSPI_D1*%
X155820500Y-59223000D03*
%TO.P,U3,56,QSPI_SS*%
%TO.N,QSPI_SS*%
X155820500Y-59623000D03*
D37*
%TO.P,U3,57,GND*%
%TO.N,GND*%
X160533000Y-58298000D03*
X159258000Y-55748000D03*
X157983000Y-58298000D03*
X157983000Y-57023000D03*
D38*
X159258000Y-57023000D03*
D37*
X157983000Y-55748000D03*
X159258000Y-58298000D03*
X160533000Y-55748000D03*
X159258000Y-57023000D03*
X160533000Y-57023000D03*
%TD*%
D39*
%TO.P,U2,3,VI*%
%TO.N,Net-(C1-Pad1)*%
X151462500Y-65405000D03*
%TO.P,U2,2,VO*%
%TO.N,+3V3*%
X153337500Y-64455000D03*
%TO.P,U2,1,GND*%
%TO.N,GND*%
X153337500Y-66355000D03*
%TD*%
D40*
%TO.N,GND*%
X142875000Y-68580000D03*
%TO.N,*%
X146685000Y-64770000D03*
X142875000Y-63500000D03*
%TO.N,GND*%
X161163000Y-67945000D03*
X160909000Y-70866000D03*
X162560000Y-66929000D03*
X167513000Y-60198000D03*
X165481000Y-60833000D03*
X161926757Y-65084019D03*
X165735000Y-64135000D03*
%TO.N,+BATT*%
X165735000Y-69850000D03*
X167640000Y-66675000D03*
%TO.N,+3V3*%
X164465000Y-63500000D03*
%TO.N,GND*%
X168910000Y-66040000D03*
%TO.N,+3V3*%
X162851489Y-68669511D03*
X162814000Y-66167000D03*
%TO.N,GND*%
X146050000Y-67691000D03*
%TO.N,+3V3*%
X151736108Y-61619111D03*
%TO.N,Net-(R10-Pad2)*%
X158305500Y-54800500D03*
%TO.N,Net-(R8-Pad2)*%
X157571500Y-54991000D03*
%TO.N,/IO_1*%
X163195000Y-60325000D03*
%TO.N,/IO_2*%
X162560000Y-60706000D03*
%TO.N,GND*%
X167005000Y-57150000D03*
%TO.N,+1V1*%
X161839500Y-56261000D03*
%TO.N,Net-(R10-Pad2)*%
X160020000Y-65405000D03*
%TO.N,+BATT*%
X160655000Y-69850000D03*
%TO.N,Net-(R8-Pad2)*%
X146685000Y-62865000D03*
%TO.N,GND*%
X154178000Y-67437000D03*
X149098000Y-69342000D03*
X154559000Y-69342000D03*
X155956000Y-64262000D03*
X157099000Y-65151000D03*
%TO.N,+3V3*%
X151511000Y-58674000D03*
%TO.N,GND*%
X151638000Y-60071000D03*
X161996056Y-63571056D03*
X170180000Y-71120000D03*
X167640000Y-53975000D03*
X165100000Y-53340000D03*
X162560000Y-52070000D03*
X163195000Y-52705000D03*
X160020000Y-52070000D03*
X155575000Y-53340000D03*
X154940000Y-52070000D03*
X150495000Y-52070000D03*
X151765000Y-64135000D03*
X153670000Y-65405000D03*
X150495000Y-66040000D03*
X147955000Y-66040000D03*
X146050000Y-71120000D03*
X156845000Y-71120000D03*
X158750000Y-64770000D03*
X160020000Y-67310000D03*
X164465000Y-71120000D03*
X167640000Y-71120000D03*
X152273000Y-52070000D03*
X150876000Y-53340000D03*
X152527000Y-57277000D03*
X161747212Y-59486808D03*
%TO.N,Net-(JP1-Pad1)*%
X154477500Y-63306214D03*
%TO.N,+1V1*%
X154813000Y-56642000D03*
X154813000Y-54677500D03*
%TO.N,+3V3*%
X156972000Y-67564000D03*
%TO.N,+BATT*%
X149225000Y-68580000D03*
X149860000Y-68580000D03*
X167640000Y-63246000D03*
%TO.N,USB_DM*%
X151481669Y-57869466D03*
X151892000Y-54864000D03*
%TD*%
D41*
%TO.N,Net-(C6-Pad1)*%
X166497000Y-55439500D02*
X165774000Y-56162500D01*
X165774000Y-56162500D02*
X165774000Y-56685000D01*
X166497000Y-55090000D02*
X166497000Y-55439500D01*
D42*
%TO.N,GND*%
X164465000Y-67970978D02*
X164465000Y-68345000D01*
X164840978Y-67595000D02*
X164465000Y-67970978D01*
X165415000Y-67595000D02*
X164840978Y-67595000D01*
D43*
%TO.N,+BATT*%
X150842000Y-68580000D02*
X151096000Y-68326000D01*
X149225000Y-68580000D02*
X150842000Y-68580000D01*
%TO.N,Net-(C1-Pad1)*%
X151147000Y-67323000D02*
X149606000Y-67323000D01*
D42*
%TO.N,GND*%
X164465000Y-65405000D02*
X164465000Y-68345000D01*
X164465000Y-64897000D02*
X164707000Y-64655000D01*
X164465000Y-65405000D02*
X164465000Y-64897000D01*
X164707000Y-64655000D02*
X165415000Y-64655000D01*
X166128000Y-61480000D02*
X165481000Y-60833000D01*
X166558000Y-61480000D02*
X166128000Y-61480000D01*
X165608000Y-62230000D02*
X165608000Y-60960000D01*
X165608000Y-60960000D02*
X165481000Y-60833000D01*
X164493000Y-60833000D02*
X164084000Y-60424000D01*
X165481000Y-60833000D02*
X164493000Y-60833000D01*
D41*
%TO.N,Net-(C5-Pad1)*%
X166669000Y-60071000D02*
X167474000Y-59266000D01*
X164691000Y-60071000D02*
X166669000Y-60071000D01*
X164084000Y-59464000D02*
X164691000Y-60071000D01*
D42*
%TO.N,GND*%
X162405000Y-61671200D02*
X162836800Y-61671200D01*
X162836800Y-61671200D02*
X164084000Y-60424000D01*
X165735000Y-64135000D02*
X165735000Y-62357000D01*
X165735000Y-62357000D02*
X165608000Y-62230000D01*
X165735000Y-64335000D02*
X165415000Y-64655000D01*
X165735000Y-64135000D02*
X165735000Y-64335000D01*
X166652000Y-64135000D02*
X165735000Y-64135000D01*
%TO.N,+BATT*%
X165618000Y-69733000D02*
X165735000Y-69850000D01*
X165415000Y-69733000D02*
X165618000Y-69733000D01*
X167414000Y-66449000D02*
X167640000Y-66675000D01*
X166624000Y-66449000D02*
X167414000Y-66449000D01*
%TO.N,+3V3*%
X163421000Y-63500000D02*
X164465000Y-63500000D01*
X164465000Y-63173000D02*
X164658000Y-62980000D01*
X164465000Y-63500000D02*
X164465000Y-63173000D01*
X164658000Y-62480000D02*
X164658000Y-62980000D01*
%TO.N,+BATT*%
X167374000Y-62980000D02*
X167640000Y-63246000D01*
X166558000Y-62980000D02*
X167374000Y-62980000D01*
%TO.N,/M1-*%
X169603573Y-54110000D02*
X170085000Y-54110000D01*
X167568573Y-61031427D02*
X168910000Y-59690000D01*
X167161656Y-61930489D02*
X167568573Y-61523572D01*
X168910000Y-59690000D02*
X168910000Y-54803573D01*
X168910000Y-54803573D02*
X169603573Y-54110000D01*
X167568573Y-61523572D02*
X167568573Y-61031427D01*
X167108000Y-61980000D02*
X167157511Y-61930489D01*
X166558000Y-61980000D02*
X167108000Y-61980000D01*
X167157511Y-61930489D02*
X167161656Y-61930489D01*
%TO.N,/M1+*%
X169409520Y-59055001D02*
X169409520Y-55785480D01*
X169409519Y-59896909D02*
X169409520Y-59055001D01*
X168068093Y-61730479D02*
X168068092Y-61238336D01*
X167318573Y-62480000D02*
X168068093Y-61730479D01*
X168068092Y-61238336D02*
X169409519Y-59896909D01*
X169409520Y-55785480D02*
X170085000Y-55110000D01*
X166558000Y-62480000D02*
X167318573Y-62480000D01*
%TO.N,/M2+*%
X169116428Y-62095000D02*
X170085000Y-62095000D01*
X168774520Y-62436908D02*
X169116428Y-62095000D01*
X168774520Y-64976907D02*
X168774520Y-62436908D01*
X168096427Y-65655000D02*
X168774520Y-64976907D01*
X165415000Y-65655000D02*
X168096427Y-65655000D01*
%TO.N,/M3+*%
X165415000Y-68595000D02*
X168260000Y-68595000D01*
X168260000Y-68595000D02*
X168745000Y-69080000D01*
X168745000Y-69080000D02*
X170085000Y-69080000D01*
%TO.N,/M3-*%
X170070000Y-68095000D02*
X165415000Y-68095000D01*
D41*
X170085000Y-68080000D02*
X170070000Y-68095000D01*
D42*
%TO.N,/M2-*%
X169410000Y-61095000D02*
X170085000Y-61095000D01*
X168275000Y-64770000D02*
X168275000Y-62230000D01*
X167890000Y-65155000D02*
X168275000Y-64770000D01*
X168275000Y-62230000D02*
X169410000Y-61095000D01*
X165415000Y-65155000D02*
X167890000Y-65155000D01*
D41*
%TO.N,Net-(C5-Pad1)*%
X163576000Y-58956000D02*
X164084000Y-59464000D01*
X163576000Y-57912000D02*
X163576000Y-58956000D01*
D43*
%TO.N,+BATT*%
X167640000Y-63246000D02*
X167640000Y-64361000D01*
D41*
%TO.N,/M1A*%
X160855527Y-62731039D02*
X160695244Y-62570756D01*
X163131967Y-62731039D02*
X160855527Y-62731039D01*
X164658000Y-61980000D02*
X163883006Y-61980000D01*
X163883006Y-61980000D02*
X163131967Y-62731039D01*
X160695244Y-62570756D02*
X159458481Y-61333993D01*
%TO.N,/M1B*%
X161021014Y-62331520D02*
X159858000Y-61168506D01*
X159858000Y-61168506D02*
X159858000Y-60460500D01*
X163818000Y-61480000D02*
X162966480Y-62331520D01*
X162966480Y-62331520D02*
X161021014Y-62331520D01*
X164658000Y-61480000D02*
X163818000Y-61480000D01*
%TO.N,/IO_2*%
X162103500Y-60706000D02*
X161858000Y-60460500D01*
X162560000Y-60706000D02*
X162103500Y-60706000D01*
D42*
%TO.N,+BATT*%
X165709000Y-66449000D02*
X165415000Y-66155000D01*
X166624000Y-66449000D02*
X165709000Y-66449000D01*
X165415000Y-69733000D02*
X164917000Y-70231000D01*
X165415000Y-69095000D02*
X165415000Y-69733000D01*
D43*
%TO.N,+3V3*%
X162851489Y-68669511D02*
X163515000Y-68669511D01*
X163515000Y-69095000D02*
X163515000Y-68669511D01*
X161990489Y-68669511D02*
X162851489Y-68669511D01*
X161925000Y-68735000D02*
X161990489Y-68669511D01*
D41*
%TO.N,/M3A*%
X160890481Y-65026017D02*
X160890481Y-66840487D01*
X160890481Y-66840487D02*
X162144994Y-68095000D01*
X157858000Y-60460500D02*
X157858000Y-61993536D01*
X157858000Y-61993536D02*
X160890481Y-65026017D01*
X162144994Y-68095000D02*
X163515000Y-68095000D01*
%TO.N,/M3B*%
X161290000Y-64860530D02*
X158258000Y-61828530D01*
X158258000Y-61828530D02*
X158258000Y-60460500D01*
X161290000Y-66675000D02*
X161290000Y-64860530D01*
X162210000Y-67595000D02*
X161290000Y-66675000D01*
X163515000Y-67595000D02*
X162210000Y-67595000D01*
D42*
%TO.N,+3V3*%
X161925000Y-66139000D02*
X162786000Y-66139000D01*
X162826000Y-66155000D02*
X163515000Y-66155000D01*
X162814000Y-66167000D02*
X162826000Y-66155000D01*
X162786000Y-66139000D02*
X162814000Y-66167000D01*
X163515000Y-65655000D02*
X163515000Y-66155000D01*
D43*
%TO.N,+BATT*%
X149860000Y-68580000D02*
X149225000Y-68580000D01*
D41*
%TO.N,/M2B*%
X159058000Y-61498518D02*
X159058000Y-60460500D01*
X161694482Y-64135000D02*
X159058000Y-61498518D01*
X162490006Y-64135000D02*
X161694482Y-64135000D01*
X163010006Y-64655000D02*
X162490006Y-64135000D01*
X163515000Y-64655000D02*
X163010006Y-64655000D01*
%TO.N,/M2A*%
X162945000Y-65155000D02*
X163515000Y-65155000D01*
X162324519Y-64534519D02*
X162945000Y-65155000D01*
X161528995Y-64534519D02*
X162324519Y-64534519D01*
X158658000Y-61663524D02*
X161528995Y-64534519D01*
X158658000Y-60460500D02*
X158658000Y-61663524D01*
%TO.N,Net-(D3-Pad1)*%
X166270500Y-52195000D02*
X166014500Y-52451000D01*
X167513000Y-52195000D02*
X166270500Y-52195000D01*
%TO.N,+3V3*%
X156658000Y-54188006D02*
X156658000Y-53585500D01*
D42*
X156892994Y-54423000D02*
X156658000Y-54188006D01*
X156972000Y-54502006D02*
X156892994Y-54423000D01*
X156972000Y-54864000D02*
X156972000Y-54502006D01*
D43*
X152400000Y-62286172D02*
X151734523Y-61620695D01*
D41*
%TO.N,Net-(JP1-Pad1)*%
X154688000Y-63095714D02*
X154688000Y-62865000D01*
X154477500Y-63306214D02*
X154688000Y-63095714D01*
%TO.N,+1V1*%
X163414480Y-56422520D02*
X163619225Y-56217775D01*
X162001020Y-56422520D02*
X163414480Y-56422520D01*
X161839500Y-56261000D02*
X162001020Y-56422520D01*
%TO.N,Net-(R10-Pad2)*%
X157858000Y-53585500D02*
X157858000Y-54353000D01*
X157858000Y-54353000D02*
X158305500Y-54800500D01*
%TO.N,Net-(R8-Pad2)*%
X157458000Y-54877500D02*
X157458000Y-53585500D01*
X157571500Y-54991000D02*
X157458000Y-54877500D01*
%TO.N,+3V3*%
X161344000Y-56823000D02*
X161290000Y-56769000D01*
X162695500Y-56823000D02*
X161344000Y-56823000D01*
X161290000Y-56769000D02*
X161290000Y-55372000D01*
X161290000Y-57150000D02*
X161290000Y-56769000D01*
X160290000Y-54372000D02*
X160258000Y-54372000D01*
X161290000Y-55372000D02*
X160290000Y-54372000D01*
X160258000Y-53585500D02*
X160258000Y-54372000D01*
%TO.N,+1V1*%
X163576000Y-56134000D02*
X163287000Y-56423000D01*
X163227295Y-56423000D02*
X162695500Y-56423000D01*
%TO.N,/IO_1*%
X162695500Y-59825500D02*
X163195000Y-60325000D01*
X162695500Y-59623000D02*
X162695500Y-59825500D01*
%TO.N,Net-(R8-Pad2)*%
X146560000Y-62990000D02*
X145415000Y-62990000D01*
X146685000Y-62865000D02*
X146560000Y-62990000D01*
%TO.N,USB_DM*%
X151481669Y-57869466D02*
X151012203Y-57400000D01*
X151012203Y-57400000D02*
X149830000Y-57400000D01*
%TO.N,Net-(R10-Pad2)*%
X158875000Y-66550000D02*
X160020000Y-65405000D01*
X158875000Y-68580000D02*
X158875000Y-66550000D01*
X158875000Y-69723000D02*
X158875000Y-68580000D01*
%TO.N,+BATT*%
X160022000Y-69850000D02*
X159895000Y-69723000D01*
X160655000Y-69850000D02*
X160022000Y-69850000D01*
%TO.N,Net-(R8-Pad2)*%
X144145000Y-62990000D02*
X145415000Y-62990000D01*
%TO.N,/VBUS*%
X146776000Y-64010000D02*
X147286000Y-63500000D01*
X145415000Y-64010000D02*
X146776000Y-64010000D01*
D42*
%TO.N,+3V3*%
X151683489Y-58501511D02*
X151511000Y-58674000D01*
D41*
%TO.N,GND*%
X153543000Y-60071000D02*
X151638000Y-60071000D01*
X153670000Y-60198000D02*
X153543000Y-60071000D01*
X164084000Y-54384000D02*
X165100000Y-54384000D01*
X165100000Y-54384000D02*
X165354000Y-54130000D01*
X165354000Y-53594000D02*
X165100000Y-53340000D01*
X165354000Y-54130000D02*
X165354000Y-53594000D01*
X159766000Y-52324000D02*
X160020000Y-52070000D01*
D42*
X151386000Y-52830000D02*
X150876000Y-53340000D01*
X151765000Y-52830000D02*
X151386000Y-52830000D01*
X150266000Y-53950000D02*
X150876000Y-53340000D01*
X149830000Y-53950000D02*
X150266000Y-53950000D01*
D41*
X153162000Y-56642000D02*
X152527000Y-57277000D01*
X153190000Y-56642000D02*
X153162000Y-56642000D01*
X161798000Y-59436020D02*
X161747212Y-59486808D01*
X161798000Y-58388705D02*
X161798000Y-59436020D01*
X162163705Y-58023000D02*
X161798000Y-58388705D01*
X162695500Y-58023000D02*
X162163705Y-58023000D01*
D43*
%TO.N,Net-(C1-Pad1)*%
X149557500Y-63500000D02*
X150065500Y-64008000D01*
X149386000Y-63500000D02*
X149557500Y-63500000D01*
D42*
%TO.N,/VBUS*%
X147286000Y-60359000D02*
X147286000Y-63500000D01*
X147286000Y-60359000D02*
X148590000Y-59055000D01*
D41*
%TO.N,+1V1*%
X154813000Y-56642000D02*
X154622500Y-56832500D01*
X154622500Y-56832500D02*
X154432000Y-56642000D01*
X154940000Y-57150000D02*
X154622500Y-56832500D01*
X163830000Y-55880000D02*
X163576000Y-56134000D01*
D43*
%TO.N,Net-(C1-Pad1)*%
X151462500Y-67007500D02*
X151147000Y-67323000D01*
X151462500Y-67007500D02*
X151462500Y-65405000D01*
X152942000Y-68326000D02*
X152781000Y-68326000D01*
X152781000Y-68326000D02*
X151462500Y-67007500D01*
X150065500Y-64008000D02*
X151462500Y-65405000D01*
%TO.N,+3V3*%
X156972000Y-66548000D02*
X156972000Y-67564000D01*
X156972000Y-66548000D02*
X156197000Y-65773000D01*
X155448000Y-65773000D02*
X156197000Y-65773000D01*
X155448000Y-65773000D02*
X155448000Y-65283000D01*
X154620000Y-64455000D02*
X155448000Y-65283000D01*
X153337500Y-64455000D02*
X154620000Y-64455000D01*
X152400000Y-63517500D02*
X153337500Y-64455000D01*
X152400000Y-62286172D02*
X152400000Y-63517500D01*
D42*
X155550480Y-63524520D02*
X154620000Y-64455000D01*
D41*
%TO.N,Net-(P1-PadB5)*%
X150876000Y-62609000D02*
X150493000Y-62992000D01*
X150876000Y-59116978D02*
X150876000Y-62609000D01*
D43*
%TO.N,GND*%
X152938000Y-52830000D02*
X153190000Y-52578000D01*
X151765000Y-52830000D02*
X152938000Y-52830000D01*
X152936000Y-52832000D02*
X153190000Y-52578000D01*
X152936000Y-53848000D02*
X152936000Y-52832000D01*
D41*
%TO.N,/IBUS*%
X145780000Y-66945000D02*
X146740000Y-66945000D01*
X146812000Y-70612000D02*
X145415000Y-69215000D01*
X155956000Y-70612000D02*
X146812000Y-70612000D01*
X157734000Y-68834000D02*
X155956000Y-70612000D01*
X157734000Y-64314000D02*
X157734000Y-68834000D01*
X145415000Y-67310000D02*
X145780000Y-66945000D01*
X157058000Y-63638000D02*
X157734000Y-64314000D01*
X145415000Y-69215000D02*
X145415000Y-67310000D01*
X157058000Y-60460500D02*
X157058000Y-63638000D01*
D42*
%TO.N,+3V3*%
X156972000Y-68580000D02*
X156956574Y-68595426D01*
X156972000Y-68072000D02*
X156972000Y-68580000D01*
X155448000Y-70104000D02*
X154940000Y-70104000D01*
X156956574Y-68595426D02*
X155448000Y-70104000D01*
X156972000Y-68072000D02*
X156972000Y-67564000D01*
X147899000Y-70104000D02*
X154940000Y-70104000D01*
X146740000Y-68945000D02*
X147899000Y-70104000D01*
D43*
X155273000Y-65598000D02*
X155448000Y-65773000D01*
D42*
X155550480Y-63524520D02*
X155550480Y-62205480D01*
D41*
%TO.N,/VBUS*%
X148590000Y-55626000D02*
X148590000Y-59055000D01*
X148590000Y-55626000D02*
X148590000Y-55245000D01*
X149629511Y-59349511D02*
X148884511Y-59349511D01*
X148884511Y-59349511D02*
X148590000Y-59055000D01*
%TO.N,Net-(P1-PadB5)*%
X150659022Y-58900000D02*
X150876000Y-59116978D01*
X149830000Y-58900000D02*
X150659022Y-58900000D01*
X150340000Y-58900000D02*
X150390489Y-58950489D01*
X149830000Y-58900000D02*
X150340000Y-58900000D01*
D42*
%TO.N,+3V3*%
X151822000Y-58363000D02*
X151683489Y-58501511D01*
X152158000Y-58363000D02*
X151822000Y-58363000D01*
D41*
%TO.N,Net-(P1-PadA5)*%
X151130000Y-55429022D02*
X151130000Y-54572500D01*
X151130000Y-54572500D02*
X151765000Y-53937500D01*
X150659022Y-55900000D02*
X151130000Y-55429022D01*
X149830000Y-55900000D02*
X150659022Y-55900000D01*
%TO.N,+1V1*%
X154813000Y-54677500D02*
X153983500Y-53848000D01*
X154813000Y-54991000D02*
X154813000Y-54677500D01*
X154432000Y-56642000D02*
X153983500Y-56642000D01*
X154940000Y-57150000D02*
X155013000Y-57223000D01*
X155013000Y-57223000D02*
X155820500Y-57223000D01*
%TO.N,/VBUS*%
X148884511Y-54950489D02*
X149629511Y-54950489D01*
X148590000Y-55245000D02*
X148884511Y-54950489D01*
X149629511Y-54950489D02*
X149830000Y-54750000D01*
X149830000Y-59550000D02*
X149629511Y-59349511D01*
D42*
%TO.N,+3V3*%
X156972000Y-59182000D02*
X156972000Y-56896000D01*
X156972000Y-56896000D02*
X156972000Y-56388000D01*
X156608480Y-59907514D02*
X156608480Y-60460500D01*
D41*
X160258000Y-52788500D02*
X160722500Y-52324000D01*
X160258000Y-59452000D02*
X160274000Y-59436000D01*
X160258000Y-53585500D02*
X160258000Y-52788500D01*
X156899000Y-56823000D02*
X156972000Y-56896000D01*
X155820500Y-56423000D02*
X156937000Y-56423000D01*
D42*
X156972000Y-56388000D02*
X156972000Y-54864000D01*
D41*
X161036000Y-59436000D02*
X161290000Y-59182000D01*
D42*
X155550480Y-62205480D02*
X155642500Y-62297500D01*
D41*
X160258000Y-61003500D02*
X160976500Y-61722000D01*
X154237500Y-52891500D02*
X155769000Y-54423000D01*
X162695500Y-56823000D02*
X163822141Y-56823000D01*
D42*
%TO.N,GND*%
X165420000Y-62480000D02*
X165420000Y-62980000D01*
%TO.N,+3V3*%
X160274000Y-59436000D02*
X157226000Y-59436000D01*
D41*
X156658000Y-52443500D02*
X156777500Y-52324000D01*
D42*
X156608480Y-52493020D02*
X156777500Y-52324000D01*
D41*
X160258000Y-60460500D02*
X160258000Y-59452000D01*
D42*
X157988000Y-52324000D02*
X156777500Y-52324000D01*
D41*
X165354000Y-55291141D02*
X165354000Y-55177500D01*
X160258000Y-60460500D02*
X160258000Y-61003500D01*
D42*
X155550480Y-62205480D02*
X155550480Y-60965514D01*
X156608480Y-54138486D02*
X156608480Y-52493020D01*
X155820500Y-54423000D02*
X156892994Y-54423000D01*
D41*
X154237500Y-52578000D02*
X154237500Y-52891500D01*
D42*
X157099000Y-59416994D02*
X156608480Y-59907514D01*
D41*
X163822141Y-56823000D02*
X165354000Y-55291141D01*
X161290000Y-59182000D02*
X161290000Y-57150000D01*
X155769000Y-54423000D02*
X155820500Y-54423000D01*
X161738500Y-61722000D02*
X160976500Y-61722000D01*
X155820500Y-56823000D02*
X156899000Y-56823000D01*
D42*
X155820500Y-54423000D02*
X155820500Y-54773480D01*
D41*
X160274000Y-59436000D02*
X161036000Y-59436000D01*
D42*
X157099000Y-59309000D02*
X156972000Y-59182000D01*
X155550480Y-60965514D02*
X156608480Y-59907514D01*
D41*
X156937000Y-56423000D02*
X156972000Y-56388000D01*
D42*
X155642500Y-62297500D02*
X156210000Y-62297500D01*
X157099000Y-59309000D02*
X157099000Y-59416994D01*
X157226000Y-59436000D02*
X157099000Y-59309000D01*
D41*
%TO.N,GND*%
X153658000Y-60210000D02*
X153670000Y-60198000D01*
D42*
X165100000Y-54296500D02*
X165354000Y-54042500D01*
D41*
X159123000Y-52324000D02*
X159766000Y-52324000D01*
X153658000Y-60763000D02*
X153658000Y-60210000D01*
%TO.N,QSPI_SS*%
X152158000Y-61267034D02*
X152379483Y-61488517D01*
X155820500Y-59623000D02*
X155318006Y-59623000D01*
X152379483Y-61488517D02*
X153158005Y-62267039D01*
X153886960Y-62267040D02*
X153632960Y-62267040D01*
X155318006Y-59623000D02*
X154977039Y-59963967D01*
X154157994Y-62267040D02*
X153886960Y-62267040D01*
X154977040Y-61447994D02*
X154157994Y-62267040D01*
X153580500Y-62319500D02*
X153580500Y-62865000D01*
X153632960Y-62267040D02*
X153158005Y-62267039D01*
X154977039Y-59963967D02*
X154977040Y-61447994D01*
X152158000Y-60763000D02*
X152158000Y-61267034D01*
X153632960Y-62267040D02*
X153580500Y-62319500D01*
%TO.N,QSPI_D1*%
X152658000Y-60763000D02*
X152658000Y-61202028D01*
X155153000Y-59223000D02*
X155820500Y-59223000D01*
X153992508Y-61867520D02*
X154577520Y-61282508D01*
X154577519Y-59798481D02*
X155153000Y-59223000D01*
X152658000Y-61202028D02*
X153323492Y-61867520D01*
X153323492Y-61867520D02*
X153992508Y-61867520D01*
X154577520Y-61282508D02*
X154577519Y-59798481D01*
%TO.N,QSPI_D2*%
X155820500Y-58823000D02*
X154918000Y-58823000D01*
X153158000Y-61137022D02*
X153158000Y-60763000D01*
X153827022Y-61468000D02*
X153488978Y-61468000D01*
X154178000Y-59563000D02*
X154178000Y-61117022D01*
X154178000Y-61117022D02*
X153827022Y-61468000D01*
X154918000Y-58823000D02*
X154178000Y-59563000D01*
X153488978Y-61468000D02*
X153158000Y-61137022D01*
%TO.N,QSPI_D0*%
X153673000Y-58423000D02*
X153658000Y-58408000D01*
X153658000Y-58408000D02*
X153658000Y-58363000D01*
X155820500Y-58423000D02*
X153673000Y-58423000D01*
%TO.N,QSPI_SCLK*%
X155820500Y-58023000D02*
X154543000Y-58023000D01*
X153158000Y-58043000D02*
X153158000Y-58363000D01*
X154178000Y-57658000D02*
X153543000Y-57658000D01*
X153543000Y-57658000D02*
X153158000Y-58043000D01*
X154543000Y-58023000D02*
X154178000Y-57658000D01*
%TO.N,QSPI_D3*%
X152658000Y-57977994D02*
X152658000Y-58363000D01*
X154708006Y-57623000D02*
X154343486Y-57258480D01*
X153377514Y-57258480D02*
X152658000Y-57977994D01*
X155820500Y-57623000D02*
X154708006Y-57623000D01*
X154343486Y-57258480D02*
X153377514Y-57258480D01*
%TO.N,Net-(C5-Pad1)*%
X163287000Y-57623000D02*
X163576000Y-57912000D01*
X162695500Y-57623000D02*
X163287000Y-57623000D01*
%TO.N,Net-(R4-Pad1)*%
X162695500Y-57223000D02*
X163992500Y-57223000D01*
X163992500Y-57223000D02*
X164338000Y-57568500D01*
%TO.N,+1V1*%
X155820500Y-55223000D02*
X155045000Y-55223000D01*
X155045000Y-55223000D02*
X154813000Y-54991000D01*
X164084000Y-55431500D02*
X164084000Y-55626000D01*
X163287000Y-56423000D02*
X162695500Y-56423000D01*
X164084000Y-55626000D02*
X163830000Y-55880000D01*
%TO.N,Net-(R6-Pad2)*%
X154235006Y-55118000D02*
X154740006Y-55623000D01*
X154740006Y-55623000D02*
X155820500Y-55623000D01*
X154013500Y-55118000D02*
X154235006Y-55118000D01*
%TO.N,Net-(R5-Pad2)*%
X154575000Y-56023000D02*
X154432000Y-55880000D01*
X155820500Y-56023000D02*
X154575000Y-56023000D01*
X153670000Y-55880000D02*
X153924000Y-55880000D01*
X153924000Y-55880000D02*
X154432000Y-55880000D01*
X151892000Y-55880000D02*
X153670000Y-55880000D01*
%TO.N,USB_DP*%
X151552500Y-56900000D02*
X149830000Y-56900000D01*
X151638000Y-56985500D02*
X151552500Y-56900000D01*
%TO.N,USB_DM*%
X152818500Y-55118000D02*
X152146000Y-55118000D01*
X152146000Y-55118000D02*
X151892000Y-54864000D01*
%TO.N,Net-(C6-Pad1)*%
X164338000Y-58502000D02*
X165774000Y-57066000D01*
%TO.N,Net-(D3-Pad2)*%
X162695500Y-54423000D02*
X162695500Y-54107500D01*
X162695500Y-54107500D02*
X164352000Y-52451000D01*
%TO.N,/M1A*%
X159458480Y-60460980D02*
X159458000Y-60460500D01*
X159458481Y-61333993D02*
X159458480Y-60460980D01*
%TO.N,Net-(R7-Pad2)*%
X157458000Y-62843000D02*
X157734000Y-63119000D01*
X157458000Y-60460500D02*
X157458000Y-62843000D01*
%TD*%
%TA.AperFunction,Conductor*%
%TO.N,GND*%
G36*
X174820621Y-51709502D02*
G01*
X174867114Y-51763158D01*
X174878500Y-51815500D01*
X174878500Y-51841562D01*
X174858498Y-51909683D01*
X174804842Y-51956176D01*
X174734568Y-51966280D01*
X174725948Y-51964639D01*
X174719448Y-51962202D01*
X174657756Y-51955500D01*
X173262244Y-51955500D01*
X173258848Y-51955869D01*
X173258847Y-51955869D01*
X173208403Y-51961349D01*
X173208402Y-51961349D01*
X173200552Y-51962202D01*
X173193159Y-51964974D01*
X173193157Y-51964974D01*
X173170278Y-51973551D01*
X173065236Y-52012929D01*
X173058057Y-52018309D01*
X173058054Y-52018311D01*
X172989086Y-52070000D01*
X172949596Y-52099596D01*
X172944215Y-52106776D01*
X172868311Y-52208054D01*
X172868309Y-52208057D01*
X172862929Y-52215236D01*
X172812202Y-52350552D01*
X172811349Y-52358402D01*
X172811349Y-52358403D01*
X172808799Y-52381879D01*
X172805500Y-52412244D01*
X172805500Y-53207756D01*
X172812202Y-53269448D01*
X172862929Y-53404764D01*
X172868309Y-53411943D01*
X172868311Y-53411946D01*
X172918952Y-53479516D01*
X172949596Y-53520404D01*
X172956776Y-53525785D01*
X173058054Y-53601689D01*
X173058057Y-53601691D01*
X173065236Y-53607071D01*
X173122863Y-53628674D01*
X173193157Y-53655026D01*
X173193159Y-53655026D01*
X173200552Y-53657798D01*
X173208402Y-53658651D01*
X173208403Y-53658651D01*
X173258847Y-53664131D01*
X173262244Y-53664500D01*
X174657756Y-53664500D01*
X174719448Y-53657798D01*
X174724475Y-53655913D01*
X174794255Y-53659558D01*
X174851898Y-53701004D01*
X174877983Y-53767035D01*
X174878500Y-53778438D01*
X174878500Y-55441562D01*
X174858498Y-55509683D01*
X174804842Y-55556176D01*
X174734568Y-55566280D01*
X174725948Y-55564639D01*
X174719448Y-55562202D01*
X174657756Y-55555500D01*
X173262244Y-55555500D01*
X173258848Y-55555869D01*
X173258847Y-55555869D01*
X173208403Y-55561349D01*
X173208402Y-55561349D01*
X173200552Y-55562202D01*
X173193159Y-55564974D01*
X173193157Y-55564974D01*
X173166237Y-55575066D01*
X173065236Y-55612929D01*
X173058057Y-55618309D01*
X173058054Y-55618311D01*
X172992583Y-55667379D01*
X172949596Y-55699596D01*
X172944215Y-55706776D01*
X172868311Y-55808054D01*
X172868309Y-55808057D01*
X172862929Y-55815236D01*
X172812202Y-55950552D01*
X172805500Y-56012244D01*
X172805500Y-56807756D01*
X172805869Y-56811152D01*
X172805869Y-56811153D01*
X172809334Y-56843044D01*
X172812202Y-56869448D01*
X172814974Y-56876841D01*
X172814974Y-56876843D01*
X172820636Y-56891946D01*
X172862929Y-57004764D01*
X172868309Y-57011943D01*
X172868311Y-57011946D01*
X172885742Y-57035204D01*
X172949596Y-57120404D01*
X172956776Y-57125785D01*
X173058054Y-57201689D01*
X173058057Y-57201691D01*
X173065236Y-57207071D01*
X173154954Y-57240704D01*
X173193157Y-57255026D01*
X173193159Y-57255026D01*
X173200552Y-57257798D01*
X173208402Y-57258651D01*
X173208403Y-57258651D01*
X173258847Y-57264131D01*
X173262244Y-57264500D01*
X174657756Y-57264500D01*
X174719448Y-57257798D01*
X174724475Y-57255913D01*
X174794255Y-57259558D01*
X174851898Y-57301004D01*
X174877983Y-57367035D01*
X174878500Y-57378438D01*
X174878500Y-58826562D01*
X174858498Y-58894683D01*
X174804842Y-58941176D01*
X174734568Y-58951280D01*
X174725948Y-58949639D01*
X174719448Y-58947202D01*
X174657756Y-58940500D01*
X173262244Y-58940500D01*
X173258848Y-58940869D01*
X173258847Y-58940869D01*
X173208403Y-58946349D01*
X173208402Y-58946349D01*
X173200552Y-58947202D01*
X173193159Y-58949974D01*
X173193157Y-58949974D01*
X173154954Y-58964296D01*
X173065236Y-58997929D01*
X173058057Y-59003309D01*
X173058054Y-59003311D01*
X173000425Y-59046502D01*
X172949596Y-59084596D01*
X172944215Y-59091776D01*
X172868311Y-59193054D01*
X172868309Y-59193057D01*
X172862929Y-59200236D01*
X172839453Y-59262860D01*
X172817309Y-59321930D01*
X172812202Y-59335552D01*
X172811349Y-59343402D01*
X172811349Y-59343403D01*
X172807822Y-59375872D01*
X172805500Y-59397244D01*
X172805500Y-60192756D01*
X172805869Y-60196152D01*
X172805869Y-60196153D01*
X172810876Y-60242238D01*
X172812202Y-60254448D01*
X172862929Y-60389764D01*
X172868309Y-60396943D01*
X172868311Y-60396946D01*
X172924011Y-60471266D01*
X172949596Y-60505404D01*
X172958828Y-60512323D01*
X173058054Y-60586689D01*
X173058057Y-60586691D01*
X173065236Y-60592071D01*
X173113100Y-60610014D01*
X173193157Y-60640026D01*
X173193159Y-60640026D01*
X173200552Y-60642798D01*
X173208402Y-60643651D01*
X173208403Y-60643651D01*
X173258847Y-60649131D01*
X173262244Y-60649500D01*
X174657756Y-60649500D01*
X174719448Y-60642798D01*
X174724475Y-60640913D01*
X174794255Y-60644558D01*
X174851898Y-60686004D01*
X174877983Y-60752035D01*
X174878500Y-60763438D01*
X174878500Y-62426562D01*
X174858498Y-62494683D01*
X174804842Y-62541176D01*
X174734568Y-62551280D01*
X174725948Y-62549639D01*
X174719448Y-62547202D01*
X174657756Y-62540500D01*
X173262244Y-62540500D01*
X173258848Y-62540869D01*
X173258847Y-62540869D01*
X173208403Y-62546349D01*
X173208402Y-62546349D01*
X173200552Y-62547202D01*
X173193159Y-62549974D01*
X173193157Y-62549974D01*
X173183685Y-62553525D01*
X173065236Y-62597929D01*
X173058057Y-62603309D01*
X173058054Y-62603311D01*
X172974948Y-62665596D01*
X172949596Y-62684596D01*
X172944215Y-62691776D01*
X172868311Y-62793054D01*
X172868309Y-62793057D01*
X172862929Y-62800236D01*
X172844973Y-62848135D01*
X172818220Y-62919500D01*
X172812202Y-62935552D01*
X172811349Y-62943402D01*
X172811349Y-62943403D01*
X172805926Y-62993319D01*
X172805500Y-62997244D01*
X172805500Y-63792756D01*
X172805869Y-63796152D01*
X172805869Y-63796153D01*
X172808466Y-63820054D01*
X172812202Y-63854448D01*
X172814974Y-63861841D01*
X172814974Y-63861843D01*
X172827041Y-63894032D01*
X172862929Y-63989764D01*
X172868309Y-63996943D01*
X172868311Y-63996946D01*
X172918940Y-64064500D01*
X172949596Y-64105404D01*
X172956776Y-64110785D01*
X173058054Y-64186689D01*
X173058057Y-64186691D01*
X173065236Y-64192071D01*
X173154954Y-64225704D01*
X173193157Y-64240026D01*
X173193159Y-64240026D01*
X173200552Y-64242798D01*
X173208402Y-64243651D01*
X173208403Y-64243651D01*
X173258847Y-64249131D01*
X173262244Y-64249500D01*
X174657756Y-64249500D01*
X174719448Y-64242798D01*
X174724475Y-64240913D01*
X174794255Y-64244558D01*
X174851898Y-64286004D01*
X174877983Y-64352035D01*
X174878500Y-64363438D01*
X174878500Y-65811562D01*
X174858498Y-65879683D01*
X174804842Y-65926176D01*
X174734568Y-65936280D01*
X174725948Y-65934639D01*
X174719448Y-65932202D01*
X174657756Y-65925500D01*
X173262244Y-65925500D01*
X173258848Y-65925869D01*
X173258847Y-65925869D01*
X173208403Y-65931349D01*
X173208402Y-65931349D01*
X173200552Y-65932202D01*
X173193159Y-65934974D01*
X173193157Y-65934974D01*
X173185515Y-65937839D01*
X173065236Y-65982929D01*
X173058057Y-65988309D01*
X173058054Y-65988311D01*
X173011809Y-66022970D01*
X172949596Y-66069596D01*
X172938730Y-66084095D01*
X172868311Y-66178054D01*
X172868309Y-66178057D01*
X172862929Y-66185236D01*
X172830190Y-66272568D01*
X172815246Y-66312433D01*
X172812202Y-66320552D01*
X172805500Y-66382244D01*
X172805500Y-67177756D01*
X172805869Y-67181152D01*
X172805869Y-67181153D01*
X172811205Y-67230266D01*
X172812202Y-67239448D01*
X172862929Y-67374764D01*
X172868309Y-67381943D01*
X172868311Y-67381946D01*
X172934287Y-67469977D01*
X172949596Y-67490404D01*
X172956776Y-67495785D01*
X173058054Y-67571689D01*
X173058057Y-67571691D01*
X173065236Y-67577071D01*
X173122863Y-67598674D01*
X173193157Y-67625026D01*
X173193159Y-67625026D01*
X173200552Y-67627798D01*
X173208402Y-67628651D01*
X173208403Y-67628651D01*
X173258847Y-67634131D01*
X173262244Y-67634500D01*
X174657756Y-67634500D01*
X174719448Y-67627798D01*
X174724475Y-67625913D01*
X174794255Y-67629558D01*
X174851898Y-67671004D01*
X174877983Y-67737035D01*
X174878500Y-67748438D01*
X174878500Y-69411562D01*
X174858498Y-69479683D01*
X174804842Y-69526176D01*
X174734568Y-69536280D01*
X174725948Y-69534639D01*
X174719448Y-69532202D01*
X174657756Y-69525500D01*
X173262244Y-69525500D01*
X173258848Y-69525869D01*
X173258847Y-69525869D01*
X173208403Y-69531349D01*
X173208402Y-69531349D01*
X173200552Y-69532202D01*
X173193159Y-69534974D01*
X173193157Y-69534974D01*
X173175013Y-69541776D01*
X173065236Y-69582929D01*
X173058057Y-69588309D01*
X173058054Y-69588311D01*
X172985011Y-69643054D01*
X172949596Y-69669596D01*
X172944215Y-69676776D01*
X172868311Y-69778054D01*
X172868309Y-69778057D01*
X172862929Y-69785236D01*
X172812202Y-69920552D01*
X172811349Y-69928402D01*
X172811349Y-69928403D01*
X172808716Y-69952641D01*
X172805500Y-69982244D01*
X172805500Y-70777756D01*
X172805869Y-70781152D01*
X172805869Y-70781153D01*
X172807428Y-70795499D01*
X172812202Y-70839448D01*
X172862929Y-70974764D01*
X172868309Y-70981943D01*
X172868311Y-70981946D01*
X172915733Y-71045221D01*
X172949596Y-71090404D01*
X172961733Y-71099500D01*
X173058054Y-71171689D01*
X173058057Y-71171691D01*
X173065236Y-71177071D01*
X173154954Y-71210704D01*
X173193157Y-71225026D01*
X173193159Y-71225026D01*
X173200552Y-71227798D01*
X173208402Y-71228651D01*
X173208403Y-71228651D01*
X173258847Y-71234131D01*
X173262244Y-71234500D01*
X174657756Y-71234500D01*
X174719448Y-71227798D01*
X174724475Y-71225913D01*
X174794255Y-71229558D01*
X174851898Y-71271004D01*
X174877983Y-71337035D01*
X174878500Y-71348438D01*
X174878500Y-71374500D01*
X174858498Y-71442621D01*
X174804842Y-71489114D01*
X174752500Y-71500500D01*
X142747500Y-71500500D01*
X142679379Y-71480498D01*
X142632886Y-71426842D01*
X142621500Y-71374500D01*
X142621500Y-71213438D01*
X142641502Y-71145317D01*
X142695158Y-71098824D01*
X142765432Y-71088720D01*
X142774052Y-71090361D01*
X142780552Y-71092798D01*
X142842244Y-71099500D01*
X144237756Y-71099500D01*
X144271953Y-71095785D01*
X144291597Y-71093651D01*
X144291598Y-71093651D01*
X144299448Y-71092798D01*
X144306841Y-71090026D01*
X144306843Y-71090026D01*
X144345046Y-71075704D01*
X144434764Y-71042071D01*
X144441943Y-71036691D01*
X144441946Y-71036689D01*
X144539703Y-70963424D01*
X144550404Y-70955404D01*
X144584826Y-70909475D01*
X144631689Y-70846946D01*
X144631691Y-70846943D01*
X144637071Y-70839764D01*
X144687798Y-70704448D01*
X144694500Y-70642756D01*
X144694500Y-69847244D01*
X144690369Y-69809216D01*
X144688651Y-69793403D01*
X144688651Y-69793402D01*
X144687798Y-69785552D01*
X144637071Y-69650236D01*
X144631691Y-69643057D01*
X144631689Y-69643054D01*
X144555785Y-69541776D01*
X144550404Y-69534596D01*
X144514046Y-69507347D01*
X144441946Y-69453311D01*
X144441943Y-69453309D01*
X144434764Y-69447929D01*
X144326398Y-69407305D01*
X144306843Y-69399974D01*
X144306841Y-69399974D01*
X144299448Y-69397202D01*
X144291598Y-69396349D01*
X144291597Y-69396349D01*
X144241153Y-69390869D01*
X144241152Y-69390869D01*
X144237756Y-69390500D01*
X142842244Y-69390500D01*
X142780552Y-69397202D01*
X142775525Y-69399087D01*
X142705745Y-69395442D01*
X142648102Y-69353996D01*
X142622017Y-69287965D01*
X142621500Y-69276562D01*
X142621500Y-66613438D01*
X142641502Y-66545317D01*
X142695158Y-66498824D01*
X142765432Y-66488720D01*
X142774052Y-66490361D01*
X142780552Y-66492798D01*
X142842244Y-66499500D01*
X144237756Y-66499500D01*
X144243979Y-66498824D01*
X144291597Y-66493651D01*
X144291598Y-66493651D01*
X144299448Y-66492798D01*
X144306841Y-66490026D01*
X144306843Y-66490026D01*
X144377644Y-66463484D01*
X144434764Y-66442071D01*
X144441943Y-66436691D01*
X144441946Y-66436689D01*
X144543224Y-66360785D01*
X144550404Y-66355404D01*
X144585608Y-66308431D01*
X144631689Y-66246946D01*
X144631691Y-66246943D01*
X144637071Y-66239764D01*
X144687798Y-66104448D01*
X144694500Y-66042756D01*
X144694500Y-65501126D01*
X148623071Y-65501126D01*
X148627475Y-65516124D01*
X148628865Y-65517329D01*
X148636548Y-65519000D01*
X149333885Y-65519000D01*
X149349124Y-65514525D01*
X149350329Y-65513135D01*
X149352000Y-65505452D01*
X149352000Y-64833115D01*
X149347525Y-64817876D01*
X149346135Y-64816671D01*
X149338452Y-64815000D01*
X149310562Y-64815000D01*
X149304047Y-64815337D01*
X149211943Y-64824894D01*
X149198544Y-64827788D01*
X149049893Y-64877381D01*
X149036714Y-64883555D01*
X148903827Y-64965788D01*
X148892426Y-64974824D01*
X148782014Y-65085429D01*
X148773002Y-65096840D01*
X148690996Y-65229880D01*
X148684849Y-65243061D01*
X148635509Y-65391814D01*
X148632642Y-65405190D01*
X148623328Y-65496097D01*
X148623071Y-65501126D01*
X144694500Y-65501126D01*
X144694500Y-65247244D01*
X144692046Y-65224658D01*
X144688651Y-65193403D01*
X144688651Y-65193402D01*
X144687798Y-65185552D01*
X144637071Y-65050236D01*
X144631691Y-65043057D01*
X144631689Y-65043054D01*
X144556848Y-64943194D01*
X144550404Y-64934596D01*
X144551094Y-64934079D01*
X144520683Y-64878388D01*
X144525748Y-64807573D01*
X144568295Y-64750737D01*
X144593770Y-64735965D01*
X144594226Y-64735768D01*
X144720405Y-64661146D01*
X144732841Y-64651499D01*
X144836499Y-64547841D01*
X144846143Y-64535408D01*
X144853557Y-64522872D01*
X144905450Y-64474420D01*
X144975300Y-64461715D01*
X145019212Y-64474745D01*
X145075784Y-64503569D01*
X145108138Y-64520054D01*
X145117927Y-64521604D01*
X145117929Y-64521605D01*
X145144421Y-64525801D01*
X145199347Y-64534500D01*
X145414956Y-64534500D01*
X145630652Y-64534499D01*
X145635546Y-64533724D01*
X145712064Y-64521606D01*
X145712066Y-64521605D01*
X145721862Y-64520054D01*
X145831796Y-64464040D01*
X145894431Y-64401405D01*
X145956743Y-64367379D01*
X145983526Y-64364500D01*
X146119648Y-64364500D01*
X146187769Y-64384502D01*
X146234262Y-64438158D01*
X146244366Y-64508432D01*
X146233703Y-64544048D01*
X146197583Y-64620982D01*
X146196203Y-64629846D01*
X146196202Y-64629849D01*
X146177380Y-64750737D01*
X146175350Y-64763773D01*
X146176514Y-64772675D01*
X146176514Y-64772678D01*
X146189383Y-64871084D01*
X146194088Y-64907065D01*
X146252289Y-65039339D01*
X146258063Y-65046208D01*
X146331268Y-65133295D01*
X146345276Y-65149960D01*
X146352747Y-65154933D01*
X146352748Y-65154934D01*
X146458101Y-65225063D01*
X146458103Y-65225064D01*
X146465574Y-65230037D01*
X146474138Y-65232713D01*
X146474141Y-65232714D01*
X146531586Y-65250661D01*
X146603510Y-65273132D01*
X146747998Y-65275780D01*
X146757711Y-65273132D01*
X146878763Y-65240130D01*
X146878765Y-65240129D01*
X146887422Y-65237769D01*
X147010572Y-65162154D01*
X147107551Y-65055014D01*
X147162935Y-64940700D01*
X147166645Y-64933043D01*
X147166645Y-64933042D01*
X147170560Y-64924962D01*
X147194536Y-64782453D01*
X147194688Y-64770000D01*
X147184347Y-64697796D01*
X147175474Y-64635835D01*
X147175473Y-64635833D01*
X147174201Y-64626948D01*
X147114388Y-64495395D01*
X147041508Y-64410814D01*
X147012195Y-64346154D01*
X147022494Y-64275908D01*
X147047866Y-64239473D01*
X147159120Y-64128219D01*
X147270934Y-64016404D01*
X147333246Y-63982379D01*
X147360030Y-63979499D01*
X147611066Y-63979499D01*
X147646818Y-63972388D01*
X147673126Y-63967156D01*
X147673128Y-63967155D01*
X147685301Y-63964734D01*
X147695621Y-63957839D01*
X147695622Y-63957838D01*
X147759168Y-63915377D01*
X147769484Y-63908484D01*
X147825734Y-63824301D01*
X147840500Y-63750067D01*
X147840499Y-63249934D01*
X147825734Y-63175699D01*
X147816624Y-63162064D01*
X147776377Y-63101832D01*
X147769484Y-63091516D01*
X147746496Y-63076156D01*
X147700970Y-63021679D01*
X147690500Y-62971392D01*
X147690500Y-62102180D01*
X147710502Y-62034059D01*
X147764158Y-61987566D01*
X147834432Y-61977462D01*
X147899012Y-62006956D01*
X147923587Y-62035784D01*
X147933710Y-62052111D01*
X147941460Y-62062174D01*
X148066408Y-62194303D01*
X148076026Y-62202605D01*
X148224987Y-62306908D01*
X148236081Y-62313108D01*
X148402980Y-62385332D01*
X148415083Y-62389171D01*
X148594600Y-62426675D01*
X148604152Y-62427915D01*
X148607384Y-62428000D01*
X148977885Y-62428000D01*
X148993124Y-62423525D01*
X148994329Y-62422135D01*
X148996000Y-62414452D01*
X148996000Y-60627120D01*
X149016002Y-60558999D01*
X149055237Y-60520796D01*
X149059946Y-60518758D01*
X149076437Y-60505404D01*
X149171339Y-60428555D01*
X149171341Y-60428553D01*
X149178013Y-60423150D01*
X149183002Y-60416131D01*
X149261044Y-60306315D01*
X149261044Y-60306314D01*
X149266020Y-60299313D01*
X149306160Y-60187819D01*
X149348054Y-60130501D01*
X149414287Y-60104932D01*
X149424711Y-60104500D01*
X149519722Y-60104500D01*
X149958001Y-60104499D01*
X150026121Y-60124501D01*
X150072614Y-60178156D01*
X150084000Y-60230499D01*
X150084000Y-60478000D01*
X150063998Y-60546121D01*
X150010342Y-60592614D01*
X149958000Y-60604000D01*
X149522115Y-60604000D01*
X149506876Y-60608475D01*
X149505671Y-60609865D01*
X149504000Y-60617548D01*
X149504000Y-62409885D01*
X149508475Y-62425124D01*
X149509865Y-62426329D01*
X149517548Y-62428000D01*
X149845447Y-62428000D01*
X149851822Y-62427677D01*
X149898528Y-62422933D01*
X149968322Y-62435949D01*
X150019999Y-62484632D01*
X150037152Y-62553525D01*
X150023528Y-62605491D01*
X149982946Y-62685138D01*
X149981396Y-62694927D01*
X149981395Y-62694929D01*
X149978077Y-62715882D01*
X149968500Y-62776347D01*
X149968500Y-62925198D01*
X149948498Y-62993319D01*
X149894842Y-63039812D01*
X149824568Y-63049916D01*
X149795146Y-63041844D01*
X149785301Y-63035266D01*
X149747495Y-63027746D01*
X149718535Y-63018225D01*
X149706518Y-63012583D01*
X149697644Y-63011201D01*
X149694417Y-63010215D01*
X149678634Y-63006075D01*
X149675356Y-63005354D01*
X149666948Y-63002202D01*
X149653191Y-63001180D01*
X149620143Y-62998724D01*
X149610096Y-62997570D01*
X149601614Y-62996249D01*
X149601611Y-62996249D01*
X149596803Y-62995500D01*
X149581438Y-62995500D01*
X149572101Y-62995154D01*
X149556019Y-62993959D01*
X149522833Y-62991493D01*
X149514058Y-62993366D01*
X149505362Y-62993959D01*
X149490762Y-62995500D01*
X149349774Y-62995500D01*
X149287437Y-63004428D01*
X149251835Y-63009526D01*
X149251833Y-63009527D01*
X149242948Y-63010799D01*
X149234775Y-63014515D01*
X149231626Y-63015436D01*
X149196261Y-63020501D01*
X149060934Y-63020501D01*
X149029963Y-63026661D01*
X148998874Y-63032844D01*
X148998872Y-63032845D01*
X148986699Y-63035266D01*
X148976379Y-63042161D01*
X148976378Y-63042162D01*
X148964774Y-63049916D01*
X148902516Y-63091516D01*
X148846266Y-63175699D01*
X148831500Y-63249933D01*
X148831501Y-63750066D01*
X148838153Y-63783510D01*
X148843292Y-63809346D01*
X148846266Y-63824301D01*
X148853161Y-63834620D01*
X148853162Y-63834622D01*
X148892249Y-63893118D01*
X148902516Y-63908484D01*
X148986699Y-63964734D01*
X149060933Y-63979500D01*
X149196609Y-63979500D01*
X149231098Y-63984654D01*
X149236982Y-63987417D01*
X149245850Y-63988798D01*
X149245854Y-63988799D01*
X149292401Y-63996046D01*
X149308235Y-63998511D01*
X149372467Y-64028755D01*
X149377945Y-64033916D01*
X149945105Y-64601076D01*
X149979131Y-64663388D01*
X149974066Y-64734203D01*
X149931519Y-64791039D01*
X149891509Y-64811067D01*
X149862876Y-64819475D01*
X149861671Y-64820865D01*
X149860000Y-64828548D01*
X149860000Y-65901000D01*
X149839998Y-65969121D01*
X149786342Y-66015614D01*
X149734000Y-66027000D01*
X148641115Y-66027000D01*
X148625876Y-66031475D01*
X148624671Y-66032865D01*
X148623000Y-66040548D01*
X148623000Y-66043438D01*
X148623337Y-66049953D01*
X148632894Y-66142057D01*
X148635788Y-66155456D01*
X148685381Y-66304107D01*
X148691555Y-66317286D01*
X148773788Y-66450173D01*
X148782824Y-66461574D01*
X148893429Y-66571986D01*
X148904840Y-66580998D01*
X148951102Y-66609514D01*
X148998595Y-66662286D01*
X149010019Y-66732358D01*
X148985812Y-66792339D01*
X148936468Y-66858179D01*
X148936466Y-66858182D01*
X148931083Y-66865365D01*
X148927933Y-66873769D01*
X148927932Y-66873770D01*
X148886798Y-66983499D01*
X148882870Y-66993976D01*
X148882017Y-67001826D01*
X148882017Y-67001827D01*
X148877416Y-67044175D01*
X148876500Y-67052611D01*
X148876501Y-67320070D01*
X148876501Y-67456241D01*
X148856499Y-67524361D01*
X148802844Y-67570855D01*
X148732570Y-67580959D01*
X148667989Y-67551466D01*
X148642047Y-67520380D01*
X148568089Y-67395323D01*
X148558449Y-67382896D01*
X148470466Y-67294913D01*
X148436440Y-67232601D01*
X148435112Y-67186107D01*
X148435460Y-67183910D01*
X148444500Y-67126834D01*
X148444500Y-66763166D01*
X148429498Y-66668445D01*
X148371326Y-66554277D01*
X148280723Y-66463674D01*
X148166555Y-66405502D01*
X148071834Y-66390500D01*
X146758166Y-66390500D01*
X146663445Y-66405502D01*
X146549277Y-66463674D01*
X146459356Y-66553595D01*
X146397044Y-66587621D01*
X146370261Y-66590500D01*
X145831257Y-66590500D01*
X145811463Y-66588394D01*
X145807110Y-66588189D01*
X145796930Y-66585997D01*
X145766260Y-66589627D01*
X145760917Y-66589942D01*
X145760928Y-66590072D01*
X145755748Y-66590500D01*
X145750549Y-66590500D01*
X145745425Y-66591353D01*
X145745412Y-66591354D01*
X145732959Y-66593427D01*
X145727084Y-66594264D01*
X145690071Y-66598645D01*
X145679730Y-66599869D01*
X145672022Y-66603570D01*
X145663583Y-66604975D01*
X145621599Y-66627629D01*
X145616336Y-66630310D01*
X145573342Y-66650955D01*
X145569350Y-66654311D01*
X145567403Y-66656258D01*
X145565778Y-66657748D01*
X145565346Y-66657981D01*
X145565313Y-66657945D01*
X145565155Y-66658084D01*
X145559720Y-66661017D01*
X145552651Y-66668664D01*
X145525654Y-66697869D01*
X145522226Y-66701435D01*
X145358297Y-66865365D01*
X145200578Y-67023084D01*
X145185098Y-67035586D01*
X145181868Y-67038525D01*
X145173118Y-67044175D01*
X145153991Y-67068438D01*
X145150441Y-67072433D01*
X145150540Y-67072517D01*
X145147182Y-67076480D01*
X145143506Y-67080156D01*
X145140483Y-67084385D01*
X145140483Y-67084386D01*
X145133146Y-67094652D01*
X145129585Y-67099395D01*
X145106503Y-67128675D01*
X145106501Y-67128679D01*
X145100054Y-67136857D01*
X145097221Y-67144925D01*
X145092247Y-67151885D01*
X145089263Y-67161863D01*
X145078580Y-67197586D01*
X145076744Y-67203235D01*
X145060950Y-67248208D01*
X145060500Y-67253404D01*
X145060500Y-67256109D01*
X145060403Y-67258365D01*
X145060260Y-67258841D01*
X145060214Y-67258839D01*
X145060201Y-67259038D01*
X145058432Y-67264955D01*
X145059279Y-67286516D01*
X145060403Y-67315124D01*
X145060500Y-67320070D01*
X145060500Y-69163743D01*
X145058394Y-69183537D01*
X145058189Y-69187890D01*
X145055997Y-69198070D01*
X145057618Y-69211762D01*
X145059627Y-69228737D01*
X145059942Y-69234083D01*
X145060072Y-69234072D01*
X145060500Y-69239252D01*
X145060500Y-69244451D01*
X145061353Y-69249575D01*
X145061354Y-69249588D01*
X145063427Y-69262041D01*
X145064264Y-69267916D01*
X145066637Y-69287965D01*
X145069869Y-69315270D01*
X145073570Y-69322978D01*
X145074975Y-69331417D01*
X145097629Y-69373401D01*
X145100310Y-69378664D01*
X145120955Y-69421658D01*
X145124311Y-69425650D01*
X145126258Y-69427597D01*
X145127748Y-69429222D01*
X145127981Y-69429654D01*
X145127945Y-69429687D01*
X145128084Y-69429845D01*
X145131017Y-69435280D01*
X145138664Y-69442349D01*
X145167881Y-69469357D01*
X145171447Y-69472786D01*
X146525084Y-70826423D01*
X146537592Y-70841909D01*
X146540526Y-70845134D01*
X146546175Y-70853882D01*
X146554352Y-70860328D01*
X146570430Y-70873003D01*
X146574431Y-70876559D01*
X146574516Y-70876459D01*
X146578473Y-70879812D01*
X146582155Y-70883494D01*
X146596691Y-70893882D01*
X146601378Y-70897401D01*
X146638857Y-70926946D01*
X146646925Y-70929779D01*
X146653885Y-70934753D01*
X146663863Y-70937737D01*
X146699586Y-70948420D01*
X146705235Y-70950256D01*
X146750208Y-70966050D01*
X146755404Y-70966500D01*
X146758109Y-70966500D01*
X146760365Y-70966597D01*
X146760841Y-70966740D01*
X146760839Y-70966786D01*
X146761038Y-70966799D01*
X146766955Y-70968568D01*
X146817124Y-70966597D01*
X146822070Y-70966500D01*
X155904743Y-70966500D01*
X155924537Y-70968606D01*
X155928890Y-70968811D01*
X155939070Y-70971003D01*
X155969740Y-70967373D01*
X155975083Y-70967058D01*
X155975072Y-70966928D01*
X155980252Y-70966500D01*
X155985451Y-70966500D01*
X155990575Y-70965647D01*
X155990588Y-70965646D01*
X156003041Y-70963573D01*
X156008916Y-70962736D01*
X156045929Y-70958355D01*
X156056270Y-70957131D01*
X156063978Y-70953430D01*
X156072417Y-70952025D01*
X156114401Y-70929371D01*
X156119664Y-70926690D01*
X156132557Y-70920499D01*
X156162658Y-70906045D01*
X156166650Y-70902689D01*
X156168597Y-70900742D01*
X156170222Y-70899252D01*
X156170654Y-70899019D01*
X156170687Y-70899055D01*
X156170845Y-70898916D01*
X156176280Y-70895983D01*
X156194236Y-70876559D01*
X156210357Y-70859119D01*
X156213786Y-70855553D01*
X156569564Y-70499775D01*
X163171937Y-70499775D01*
X163173688Y-70509359D01*
X163215357Y-70652784D01*
X163221604Y-70667220D01*
X163296876Y-70794499D01*
X163306516Y-70806926D01*
X163411074Y-70911484D01*
X163423501Y-70921124D01*
X163550780Y-70996396D01*
X163565216Y-71002643D01*
X163685605Y-71037619D01*
X163699705Y-71037579D01*
X163703000Y-71030309D01*
X163703000Y-70503115D01*
X163698525Y-70487876D01*
X163697135Y-70486671D01*
X163689452Y-70485000D01*
X163188576Y-70485000D01*
X163173781Y-70489344D01*
X163171937Y-70499775D01*
X156569564Y-70499775D01*
X157948423Y-69120916D01*
X157963909Y-69108408D01*
X157967134Y-69105474D01*
X157975882Y-69099825D01*
X157995003Y-69075570D01*
X157998561Y-69071567D01*
X157998461Y-69071482D01*
X158001814Y-69067525D01*
X158005495Y-69063844D01*
X158010115Y-69057379D01*
X158015864Y-69049335D01*
X158019426Y-69044591D01*
X158042497Y-69015325D01*
X158042499Y-69015321D01*
X158048946Y-69007143D01*
X158051779Y-68999075D01*
X158056753Y-68992115D01*
X158066369Y-68959960D01*
X158070420Y-68946414D01*
X158072256Y-68940765D01*
X158082941Y-68910339D01*
X158088050Y-68895792D01*
X158088500Y-68890596D01*
X158088500Y-68887891D01*
X158088597Y-68885635D01*
X158088740Y-68885159D01*
X158088786Y-68885161D01*
X158088799Y-68884962D01*
X158090568Y-68879045D01*
X158088597Y-68828876D01*
X158088500Y-68823930D01*
X158088500Y-64788083D01*
X158108502Y-64719962D01*
X158140438Y-64686148D01*
X158141960Y-64685042D01*
X158150796Y-64680540D01*
X158238040Y-64593296D01*
X158294054Y-64483362D01*
X158295635Y-64473384D01*
X158299801Y-64447079D01*
X158308500Y-64392153D01*
X158308499Y-64060848D01*
X158303855Y-64031522D01*
X158295606Y-63979436D01*
X158295605Y-63979434D01*
X158294054Y-63969638D01*
X158238040Y-63859704D01*
X158183931Y-63805595D01*
X158149905Y-63743283D01*
X158154970Y-63672468D01*
X158183931Y-63627405D01*
X158238040Y-63573296D01*
X158294054Y-63463362D01*
X158297534Y-63441394D01*
X158302696Y-63408796D01*
X158308500Y-63372153D01*
X158308500Y-63249565D01*
X158328502Y-63181444D01*
X158382158Y-63134951D01*
X158452432Y-63124847D01*
X158517012Y-63154341D01*
X158523595Y-63160470D01*
X160048105Y-64684980D01*
X160082131Y-64747292D01*
X160077066Y-64818107D01*
X160034519Y-64874943D01*
X159967999Y-64899754D01*
X159960385Y-64900003D01*
X159959803Y-64900083D01*
X159950827Y-64900028D01*
X159942196Y-64902495D01*
X159942194Y-64902495D01*
X159820509Y-64937272D01*
X159820505Y-64937274D01*
X159811879Y-64939739D01*
X159804292Y-64944526D01*
X159804290Y-64944527D01*
X159735211Y-64988113D01*
X159689661Y-65016853D01*
X159683718Y-65023582D01*
X159683717Y-65023583D01*
X159663095Y-65046933D01*
X159593999Y-65125170D01*
X159590185Y-65133293D01*
X159590184Y-65133295D01*
X159565650Y-65185552D01*
X159532583Y-65255982D01*
X159513996Y-65375359D01*
X159483752Y-65439591D01*
X159478592Y-65445069D01*
X158660578Y-66263084D01*
X158645098Y-66275586D01*
X158641868Y-66278525D01*
X158633118Y-66284175D01*
X158613991Y-66308438D01*
X158610441Y-66312433D01*
X158610540Y-66312517D01*
X158607182Y-66316480D01*
X158603506Y-66320156D01*
X158600483Y-66324385D01*
X158600483Y-66324386D01*
X158593146Y-66334652D01*
X158589585Y-66339395D01*
X158566503Y-66368675D01*
X158566501Y-66368679D01*
X158560054Y-66376857D01*
X158557221Y-66384925D01*
X158552247Y-66391885D01*
X158549263Y-66401863D01*
X158538580Y-66437586D01*
X158536744Y-66443235D01*
X158531396Y-66458463D01*
X158520950Y-66488208D01*
X158520500Y-66493404D01*
X158520500Y-66496109D01*
X158520403Y-66498365D01*
X158520260Y-66498841D01*
X158520214Y-66498839D01*
X158520201Y-66499038D01*
X158518432Y-66504955D01*
X158519593Y-66534499D01*
X158520403Y-66555124D01*
X158520500Y-66560070D01*
X158520500Y-68011474D01*
X158500498Y-68079595D01*
X158483595Y-68100569D01*
X158420960Y-68163204D01*
X158364946Y-68273138D01*
X158363396Y-68282927D01*
X158363395Y-68282929D01*
X158359443Y-68307885D01*
X158350500Y-68364347D01*
X158350501Y-68795652D01*
X158351276Y-68800545D01*
X158351276Y-68800546D01*
X158362682Y-68872564D01*
X158364946Y-68886862D01*
X158369449Y-68895699D01*
X158369449Y-68895700D01*
X158379937Y-68916283D01*
X158420960Y-68996796D01*
X158483595Y-69059431D01*
X158517621Y-69121743D01*
X158520500Y-69148526D01*
X158520500Y-69154474D01*
X158500498Y-69222595D01*
X158483595Y-69243569D01*
X158420960Y-69306204D01*
X158364946Y-69416138D01*
X158363396Y-69425927D01*
X158363395Y-69425929D01*
X158360155Y-69446386D01*
X158350500Y-69507347D01*
X158350501Y-69938652D01*
X158351276Y-69943545D01*
X158351276Y-69943546D01*
X158361003Y-70004962D01*
X158364946Y-70029862D01*
X158420960Y-70139796D01*
X158508204Y-70227040D01*
X158618138Y-70283054D01*
X158627927Y-70284604D01*
X158627929Y-70284605D01*
X158654421Y-70288801D01*
X158709347Y-70297500D01*
X158874966Y-70297500D01*
X159040652Y-70297499D01*
X159045546Y-70296724D01*
X159122064Y-70284606D01*
X159122066Y-70284605D01*
X159131862Y-70283054D01*
X159241796Y-70227040D01*
X159295905Y-70172931D01*
X159358217Y-70138905D01*
X159429032Y-70143970D01*
X159474095Y-70172931D01*
X159528204Y-70227040D01*
X159638138Y-70283054D01*
X159647927Y-70284604D01*
X159647929Y-70284605D01*
X159674421Y-70288801D01*
X159729347Y-70297500D01*
X159894966Y-70297500D01*
X160060652Y-70297499D01*
X160065546Y-70296724D01*
X160142064Y-70284606D01*
X160142066Y-70284605D01*
X160151862Y-70283054D01*
X160223935Y-70246331D01*
X160293712Y-70233227D01*
X160350957Y-70253711D01*
X160428101Y-70305063D01*
X160428103Y-70305064D01*
X160435574Y-70310037D01*
X160444138Y-70312713D01*
X160444141Y-70312714D01*
X160504542Y-70331584D01*
X160573510Y-70353132D01*
X160717998Y-70355780D01*
X160755764Y-70345484D01*
X160848763Y-70320130D01*
X160848765Y-70320129D01*
X160857422Y-70317769D01*
X160980572Y-70242154D01*
X160986595Y-70235500D01*
X160986599Y-70235497D01*
X161024475Y-70193653D01*
X161085019Y-70156572D01*
X161155999Y-70158110D01*
X161214879Y-70197779D01*
X161226343Y-70214071D01*
X161234874Y-70228496D01*
X161244516Y-70240926D01*
X161349074Y-70345484D01*
X161361501Y-70355124D01*
X161488780Y-70430396D01*
X161503216Y-70436643D01*
X161646641Y-70478312D01*
X161654609Y-70479768D01*
X161668031Y-70476948D01*
X161671000Y-70465487D01*
X161671000Y-70463424D01*
X162179000Y-70463424D01*
X162183344Y-70478219D01*
X162193775Y-70480063D01*
X162203359Y-70478312D01*
X162346784Y-70436643D01*
X162361220Y-70430396D01*
X162488499Y-70355124D01*
X162500926Y-70345484D01*
X162605484Y-70240926D01*
X162615124Y-70228499D01*
X162690396Y-70101220D01*
X162696643Y-70086784D01*
X162731619Y-69966395D01*
X162731579Y-69952295D01*
X162724309Y-69949000D01*
X162197115Y-69949000D01*
X162181876Y-69953475D01*
X162180671Y-69954865D01*
X162179000Y-69962548D01*
X162179000Y-70463424D01*
X161671000Y-70463424D01*
X161671000Y-69567000D01*
X161691002Y-69498879D01*
X161744658Y-69452386D01*
X161797000Y-69441000D01*
X162718558Y-69441000D01*
X162732089Y-69437027D01*
X162733224Y-69429129D01*
X162705925Y-69335164D01*
X162706128Y-69264167D01*
X162744682Y-69204551D01*
X162809347Y-69175243D01*
X162826922Y-69174011D01*
X162843481Y-69174011D01*
X162845789Y-69174032D01*
X162851144Y-69174130D01*
X162895451Y-69174942D01*
X162963194Y-69196189D01*
X163008696Y-69250687D01*
X163016720Y-69276333D01*
X163025266Y-69319301D01*
X163032161Y-69329621D01*
X163032162Y-69329622D01*
X163063149Y-69375996D01*
X163081516Y-69403484D01*
X163091832Y-69410377D01*
X163145723Y-69446386D01*
X163171174Y-69468904D01*
X163173023Y-69471049D01*
X163179944Y-69479082D01*
X163231193Y-69512300D01*
X163243545Y-69520306D01*
X163289829Y-69574142D01*
X163299659Y-69644455D01*
X163283466Y-69690177D01*
X163221604Y-69794780D01*
X163215357Y-69809216D01*
X163173688Y-69952641D01*
X163172232Y-69960609D01*
X163175052Y-69974031D01*
X163186513Y-69977000D01*
X164085000Y-69977000D01*
X164153121Y-69997002D01*
X164199614Y-70050658D01*
X164211000Y-70103000D01*
X164211000Y-71024558D01*
X164214973Y-71038089D01*
X164222871Y-71039224D01*
X164348784Y-71002643D01*
X164363220Y-70996396D01*
X164490499Y-70921124D01*
X164502926Y-70911484D01*
X164590884Y-70823526D01*
X164653196Y-70789500D01*
X164699689Y-70788172D01*
X164728548Y-70792743D01*
X164741067Y-70794726D01*
X164741069Y-70794726D01*
X164745955Y-70795500D01*
X164916965Y-70795500D01*
X165088044Y-70795499D01*
X165125923Y-70789500D01*
X165170629Y-70782420D01*
X165170631Y-70782419D01*
X165180427Y-70780868D01*
X165291771Y-70724135D01*
X165380135Y-70635771D01*
X165436868Y-70524427D01*
X165450119Y-70440764D01*
X165480532Y-70376611D01*
X165540800Y-70339084D01*
X165612142Y-70340208D01*
X165644940Y-70350455D01*
X165644943Y-70350456D01*
X165653510Y-70353132D01*
X165797998Y-70355780D01*
X165835764Y-70345484D01*
X165928763Y-70320130D01*
X165928765Y-70320129D01*
X165937422Y-70317769D01*
X166060572Y-70242154D01*
X166157551Y-70135014D01*
X166220560Y-70004962D01*
X166244536Y-69862453D01*
X166244688Y-69850000D01*
X166224201Y-69706948D01*
X166164388Y-69575395D01*
X166158530Y-69568596D01*
X166158527Y-69568592D01*
X166075916Y-69472718D01*
X166075913Y-69472716D01*
X166070056Y-69465918D01*
X165969502Y-69400742D01*
X165923218Y-69346906D01*
X165914455Y-69270428D01*
X165915192Y-69266726D01*
X165919500Y-69245067D01*
X165919500Y-69125500D01*
X165939502Y-69057379D01*
X165993158Y-69010886D01*
X166045500Y-68999500D01*
X168040259Y-68999500D01*
X168108380Y-69019502D01*
X168129354Y-69036404D01*
X168276488Y-69183537D01*
X168504277Y-69411326D01*
X168513108Y-69415826D01*
X168513110Y-69415827D01*
X168519088Y-69418873D01*
X168524158Y-69421456D01*
X168541017Y-69431787D01*
X168551050Y-69439077D01*
X168551052Y-69439078D01*
X168559072Y-69444905D01*
X168568501Y-69447969D01*
X168568506Y-69447971D01*
X168580300Y-69451803D01*
X168598568Y-69459370D01*
X168609607Y-69464995D01*
X168609609Y-69464996D01*
X168618445Y-69469498D01*
X168640313Y-69472961D01*
X168640487Y-69472989D01*
X168659713Y-69477605D01*
X168671500Y-69481435D01*
X168671502Y-69481435D01*
X168680934Y-69484500D01*
X169090261Y-69484500D01*
X169158382Y-69504502D01*
X169179356Y-69521405D01*
X169219277Y-69561326D01*
X169333445Y-69619498D01*
X169428166Y-69634500D01*
X170741834Y-69634500D01*
X170836555Y-69619498D01*
X170950723Y-69561326D01*
X171041326Y-69470723D01*
X171099498Y-69356555D01*
X171114500Y-69261834D01*
X171114500Y-68898166D01*
X171099498Y-68803445D01*
X171041326Y-68689277D01*
X171021144Y-68669095D01*
X170987118Y-68606783D01*
X170992183Y-68535968D01*
X171021144Y-68490905D01*
X171041326Y-68470723D01*
X171099498Y-68356555D01*
X171114500Y-68261834D01*
X171114500Y-67898166D01*
X171099498Y-67803445D01*
X171041326Y-67689277D01*
X170950723Y-67598674D01*
X170836555Y-67540502D01*
X170741834Y-67525500D01*
X169428166Y-67525500D01*
X169333445Y-67540502D01*
X169219277Y-67598674D01*
X169164356Y-67653595D01*
X169102044Y-67687621D01*
X169075261Y-67690500D01*
X167511206Y-67690500D01*
X167459194Y-67679264D01*
X167423308Y-67663000D01*
X166496000Y-67663000D01*
X166427879Y-67642998D01*
X166381386Y-67589342D01*
X166370000Y-67537000D01*
X166370000Y-67281000D01*
X166390002Y-67212879D01*
X166443658Y-67166386D01*
X166496000Y-67155000D01*
X167435673Y-67155000D01*
X167435673Y-67155802D01*
X167488492Y-67156257D01*
X167549940Y-67175455D01*
X167549943Y-67175456D01*
X167558510Y-67178132D01*
X167702998Y-67180780D01*
X167714090Y-67177756D01*
X167833763Y-67145130D01*
X167833765Y-67145129D01*
X167842422Y-67142769D01*
X167965572Y-67067154D01*
X167978968Y-67052355D01*
X168031810Y-66993976D01*
X168062551Y-66960014D01*
X168118982Y-66843540D01*
X168121645Y-66838043D01*
X168121645Y-66838042D01*
X168125560Y-66829962D01*
X168149536Y-66687453D01*
X168149688Y-66675000D01*
X168133369Y-66561051D01*
X168130474Y-66540835D01*
X168130473Y-66540833D01*
X168129201Y-66531948D01*
X168069388Y-66400395D01*
X168063530Y-66393596D01*
X168063527Y-66393592D01*
X167997776Y-66317286D01*
X167975056Y-66290918D01*
X167967522Y-66286035D01*
X167961120Y-66280450D01*
X167922935Y-66220597D01*
X167923170Y-66149601D01*
X167961752Y-66090002D01*
X168026430Y-66060724D01*
X168043948Y-66059500D01*
X168160493Y-66059500D01*
X168169925Y-66056435D01*
X168169927Y-66056435D01*
X168181714Y-66052605D01*
X168200940Y-66047989D01*
X168213189Y-66046049D01*
X168222982Y-66044498D01*
X168242866Y-66034366D01*
X168261132Y-66026801D01*
X168272923Y-66022970D01*
X168282356Y-66019905D01*
X168300416Y-66006784D01*
X168317273Y-65996454D01*
X168337150Y-65986326D01*
X168359938Y-65963538D01*
X168359942Y-65963535D01*
X169083055Y-65240422D01*
X169083058Y-65240418D01*
X169105846Y-65217630D01*
X169115977Y-65197747D01*
X169126307Y-65180890D01*
X169133596Y-65170857D01*
X169139424Y-65162836D01*
X169143608Y-65149960D01*
X169146321Y-65141612D01*
X169153885Y-65123350D01*
X169159515Y-65112301D01*
X169159516Y-65112297D01*
X169164018Y-65103462D01*
X169167508Y-65081424D01*
X169172125Y-65062193D01*
X169173280Y-65058640D01*
X169179020Y-65040973D01*
X169179020Y-62756115D01*
X169199022Y-62687994D01*
X169252678Y-62641501D01*
X169322952Y-62631397D01*
X169331060Y-62633283D01*
X169333445Y-62634498D01*
X169428166Y-62649500D01*
X170741834Y-62649500D01*
X170836555Y-62634498D01*
X170950723Y-62576326D01*
X171041326Y-62485723D01*
X171099498Y-62371555D01*
X171114500Y-62276834D01*
X171114500Y-61913166D01*
X171099498Y-61818445D01*
X171041326Y-61704277D01*
X171021144Y-61684095D01*
X170987118Y-61621783D01*
X170992183Y-61550968D01*
X171021144Y-61505905D01*
X171041326Y-61485723D01*
X171099498Y-61371555D01*
X171114500Y-61276834D01*
X171114500Y-60913166D01*
X171099498Y-60818445D01*
X171041326Y-60704277D01*
X170950723Y-60613674D01*
X170836555Y-60555502D01*
X170741834Y-60540500D01*
X169642168Y-60540500D01*
X169574047Y-60520498D01*
X169527554Y-60466842D01*
X169517450Y-60396568D01*
X169546944Y-60331988D01*
X169553073Y-60325405D01*
X169718054Y-60160424D01*
X169718057Y-60160420D01*
X169740845Y-60137632D01*
X169750976Y-60117749D01*
X169761306Y-60100892D01*
X169774423Y-60082838D01*
X169777488Y-60073406D01*
X169781320Y-60061614D01*
X169788884Y-60043352D01*
X169794514Y-60032303D01*
X169794515Y-60032299D01*
X169799017Y-60023464D01*
X169802507Y-60001426D01*
X169807124Y-59982195D01*
X169810954Y-59970408D01*
X169814019Y-59960975D01*
X169814019Y-59832843D01*
X169814020Y-59023167D01*
X169814020Y-56005220D01*
X169834022Y-55937099D01*
X169850925Y-55916125D01*
X170065645Y-55701405D01*
X170127957Y-55667379D01*
X170154740Y-55664500D01*
X170741834Y-55664500D01*
X170836555Y-55649498D01*
X170950723Y-55591326D01*
X171041326Y-55500723D01*
X171099498Y-55386555D01*
X171114500Y-55291834D01*
X171114500Y-54928166D01*
X171099498Y-54833445D01*
X171041326Y-54719277D01*
X171021144Y-54699095D01*
X170987118Y-54636783D01*
X170992183Y-54565968D01*
X171021144Y-54520905D01*
X171041326Y-54500723D01*
X171099498Y-54386555D01*
X171114500Y-54291834D01*
X171114500Y-53928166D01*
X171099498Y-53833445D01*
X171041326Y-53719277D01*
X170950723Y-53628674D01*
X170836555Y-53570502D01*
X170741834Y-53555500D01*
X169428166Y-53555500D01*
X169333445Y-53570502D01*
X169219277Y-53628674D01*
X169128674Y-53719277D01*
X169070502Y-53833445D01*
X169055500Y-53928166D01*
X169055500Y-54033833D01*
X169035498Y-54101954D01*
X169018595Y-54122929D01*
X168804759Y-54336764D01*
X168601465Y-54540058D01*
X168601452Y-54540072D01*
X168578674Y-54562850D01*
X168574059Y-54571907D01*
X168568546Y-54582727D01*
X168558216Y-54599584D01*
X168556215Y-54602338D01*
X168545095Y-54617644D01*
X168542030Y-54627077D01*
X168538199Y-54638868D01*
X168530634Y-54657134D01*
X168520502Y-54677018D01*
X168518951Y-54686811D01*
X168517011Y-54699060D01*
X168512395Y-54718286D01*
X168505500Y-54739507D01*
X168505500Y-55424953D01*
X168485498Y-55493074D01*
X168431842Y-55539567D01*
X168361568Y-55549671D01*
X168318993Y-55535474D01*
X168312059Y-55531678D01*
X168191606Y-55486522D01*
X168176351Y-55482895D01*
X168125486Y-55477369D01*
X168118672Y-55477000D01*
X167746115Y-55477000D01*
X167730876Y-55481475D01*
X167729671Y-55482865D01*
X167728000Y-55490548D01*
X167728000Y-56813000D01*
X167707998Y-56881121D01*
X167654342Y-56927614D01*
X167602000Y-56939000D01*
X167346000Y-56939000D01*
X167277879Y-56918998D01*
X167231386Y-56865342D01*
X167220000Y-56813000D01*
X167220000Y-55495116D01*
X167215525Y-55479877D01*
X167214135Y-55478672D01*
X167206452Y-55477001D01*
X167174823Y-55477001D01*
X167106702Y-55456999D01*
X167060209Y-55403343D01*
X167050374Y-55331290D01*
X167051841Y-55322026D01*
X167061500Y-55261045D01*
X167061499Y-54918956D01*
X167054171Y-54872688D01*
X167063271Y-54802280D01*
X167089525Y-54763885D01*
X167177484Y-54675926D01*
X167187124Y-54663499D01*
X167262396Y-54536220D01*
X167268643Y-54521784D01*
X167303619Y-54401395D01*
X167303579Y-54387295D01*
X167296309Y-54384000D01*
X164622000Y-54384000D01*
X164553879Y-54363998D01*
X164507386Y-54310342D01*
X164496000Y-54258000D01*
X164496000Y-54002000D01*
X164504055Y-53974566D01*
X167767000Y-53974566D01*
X167771344Y-53989361D01*
X167783003Y-53991421D01*
X167792977Y-53990637D01*
X167805564Y-53988338D01*
X167947783Y-53947019D01*
X167962222Y-53940770D01*
X168088405Y-53866146D01*
X168100841Y-53856499D01*
X168204499Y-53752841D01*
X168214146Y-53740405D01*
X168288770Y-53614222D01*
X168295019Y-53599783D01*
X168327961Y-53486395D01*
X168327921Y-53472295D01*
X168320651Y-53469000D01*
X167785115Y-53469000D01*
X167769876Y-53473475D01*
X167768671Y-53474865D01*
X167767000Y-53482548D01*
X167767000Y-53974566D01*
X164504055Y-53974566D01*
X164516002Y-53933879D01*
X164569658Y-53887386D01*
X164622000Y-53876000D01*
X165081885Y-53876000D01*
X165097124Y-53871525D01*
X165098329Y-53870135D01*
X165100000Y-53862452D01*
X165100000Y-53361576D01*
X165095656Y-53346781D01*
X165085225Y-53344937D01*
X165075641Y-53346688D01*
X164932216Y-53388357D01*
X164917780Y-53394604D01*
X164790501Y-53469876D01*
X164778074Y-53479516D01*
X164673516Y-53584074D01*
X164659013Y-53602770D01*
X164656788Y-53601044D01*
X164614728Y-53640320D01*
X164544878Y-53653029D01*
X164508121Y-53643368D01*
X164505787Y-53642358D01*
X164362359Y-53600688D01*
X164354391Y-53599232D01*
X164340969Y-53602052D01*
X164338000Y-53613513D01*
X164338000Y-54512000D01*
X164317998Y-54580121D01*
X164264342Y-54626614D01*
X164212000Y-54638000D01*
X163956000Y-54638000D01*
X163887879Y-54617998D01*
X163841386Y-54564342D01*
X163830000Y-54512000D01*
X163830000Y-53615576D01*
X163819004Y-53578127D01*
X163819004Y-53507130D01*
X163850805Y-53453534D01*
X164086934Y-53217405D01*
X164149246Y-53183379D01*
X164176029Y-53180500D01*
X164188293Y-53180500D01*
X164703052Y-53180499D01*
X164760919Y-53174214D01*
X164815755Y-53153657D01*
X164879449Y-53129779D01*
X164879452Y-53129778D01*
X164887853Y-53126628D01*
X164996330Y-53045330D01*
X165077628Y-52936853D01*
X165084777Y-52917785D01*
X165109018Y-52853121D01*
X165151660Y-52796357D01*
X165218221Y-52771657D01*
X165287570Y-52786865D01*
X165337688Y-52837151D01*
X165344982Y-52853121D01*
X165369224Y-52917785D01*
X165376372Y-52936853D01*
X165457670Y-53045330D01*
X165566147Y-53126628D01*
X165574553Y-53129779D01*
X165574556Y-53129781D01*
X165576401Y-53130473D01*
X165577964Y-53131647D01*
X165582426Y-53134090D01*
X165582073Y-53134734D01*
X165633164Y-53173116D01*
X165657861Y-53239679D01*
X165642651Y-53309027D01*
X165620626Y-53338180D01*
X165611091Y-53347580D01*
X165608000Y-53359513D01*
X165608000Y-53857885D01*
X165612475Y-53873124D01*
X165613865Y-53874329D01*
X165621548Y-53876000D01*
X166224885Y-53876000D01*
X166240124Y-53871525D01*
X166241329Y-53870135D01*
X166243000Y-53862452D01*
X166243000Y-53857885D01*
X166751000Y-53857885D01*
X166755475Y-53873124D01*
X166756865Y-53874329D01*
X166764548Y-53876000D01*
X167240885Y-53876000D01*
X167256124Y-53871525D01*
X167257329Y-53870135D01*
X167259000Y-53862452D01*
X167259000Y-53487115D01*
X167254525Y-53471876D01*
X167253135Y-53470671D01*
X167245452Y-53469000D01*
X166769115Y-53469000D01*
X166753876Y-53473475D01*
X166752671Y-53474865D01*
X166751000Y-53482548D01*
X166751000Y-53857885D01*
X166243000Y-53857885D01*
X166243000Y-53361576D01*
X166234761Y-53333517D01*
X166234761Y-53262521D01*
X166273144Y-53202795D01*
X166326513Y-53175436D01*
X166328065Y-53175067D01*
X166335919Y-53174214D01*
X166390755Y-53153657D01*
X166454449Y-53129779D01*
X166454452Y-53129778D01*
X166462853Y-53126628D01*
X166571330Y-53045330D01*
X166585726Y-53026121D01*
X166596733Y-53011435D01*
X166653592Y-52968920D01*
X166697559Y-52961000D01*
X168314900Y-52961000D01*
X168328431Y-52957027D01*
X168329566Y-52949129D01*
X168295019Y-52830217D01*
X168288770Y-52815778D01*
X168214146Y-52689595D01*
X168204499Y-52677159D01*
X168103405Y-52576065D01*
X168069379Y-52513753D01*
X168072412Y-52453121D01*
X168073054Y-52451862D01*
X168087500Y-52360653D01*
X168087499Y-52029348D01*
X168080551Y-51985475D01*
X168074606Y-51947936D01*
X168074605Y-51947934D01*
X168073054Y-51938138D01*
X168063558Y-51919500D01*
X168039713Y-51872703D01*
X168026609Y-51802926D01*
X168053309Y-51737142D01*
X168111336Y-51696235D01*
X168151980Y-51689500D01*
X174752500Y-51689500D01*
X174820621Y-51709502D01*
G37*
%TD.AperFunction*%
%TA.AperFunction,Conductor*%
G36*
X146165800Y-67319502D02*
G01*
X146212293Y-67373158D01*
X146222397Y-67443432D01*
X146206133Y-67489638D01*
X146185354Y-67524774D01*
X146179107Y-67539210D01*
X146140061Y-67673605D01*
X146140101Y-67687706D01*
X146147370Y-67691000D01*
X148676878Y-67691000D01*
X148692117Y-67686525D01*
X148695490Y-67682633D01*
X148755216Y-67644250D01*
X148826212Y-67644250D01*
X148885939Y-67682634D01*
X148908696Y-67720917D01*
X148931083Y-67780635D01*
X148936463Y-67787814D01*
X148936465Y-67787817D01*
X148998583Y-67870699D01*
X149013456Y-67890544D01*
X149020633Y-67895923D01*
X149031893Y-67904362D01*
X149074407Y-67961222D01*
X149079432Y-68032041D01*
X149045372Y-68094334D01*
X149016527Y-68114184D01*
X149016878Y-68114740D01*
X148996014Y-68127904D01*
X148992123Y-68130359D01*
X148977040Y-68138497D01*
X148965313Y-68143830D01*
X148950395Y-68150612D01*
X148943591Y-68156475D01*
X148943589Y-68156476D01*
X148931153Y-68167191D01*
X148916142Y-68178299D01*
X148902255Y-68187061D01*
X148902253Y-68187063D01*
X148894661Y-68191853D01*
X148888719Y-68198581D01*
X148888718Y-68198582D01*
X148883222Y-68204805D01*
X148823136Y-68242623D01*
X148752143Y-68241953D01*
X148695711Y-68204929D01*
X148682630Y-68199000D01*
X146153122Y-68199000D01*
X146139591Y-68202973D01*
X146138456Y-68210871D01*
X146179107Y-68350790D01*
X146185352Y-68365221D01*
X146261911Y-68494678D01*
X146271551Y-68507104D01*
X146359534Y-68595087D01*
X146393560Y-68657399D01*
X146394888Y-68703890D01*
X146393471Y-68712838D01*
X146381288Y-68750334D01*
X146380924Y-68751048D01*
X146375095Y-68759071D01*
X146358677Y-68809600D01*
X146344883Y-68852057D01*
X146335500Y-68880934D01*
X146335500Y-69009066D01*
X146338565Y-69018499D01*
X146338565Y-69018500D01*
X146350418Y-69054979D01*
X146375095Y-69130929D01*
X146380924Y-69138952D01*
X146381288Y-69139666D01*
X146393471Y-69177161D01*
X146398950Y-69211759D01*
X146398951Y-69211762D01*
X146400502Y-69221555D01*
X146458674Y-69335723D01*
X146549277Y-69426326D01*
X146663445Y-69484498D01*
X146673238Y-69486049D01*
X146673241Y-69486050D01*
X146675297Y-69486376D01*
X146677151Y-69487321D01*
X146682670Y-69489114D01*
X146682386Y-69489988D01*
X146744678Y-69521728D01*
X147090198Y-69867247D01*
X147265355Y-70042404D01*
X147299380Y-70104717D01*
X147294316Y-70175532D01*
X147251769Y-70232368D01*
X147185249Y-70257179D01*
X147176260Y-70257500D01*
X147011029Y-70257500D01*
X146942908Y-70237498D01*
X146921934Y-70220595D01*
X145806405Y-69105067D01*
X145772380Y-69042755D01*
X145769500Y-69015972D01*
X145769500Y-67509030D01*
X145789502Y-67440909D01*
X145806404Y-67419935D01*
X145889933Y-67336405D01*
X145952245Y-67302380D01*
X145979029Y-67299500D01*
X146097679Y-67299500D01*
X146165800Y-67319502D01*
G37*
%TD.AperFunction*%
%TA.AperFunction,Conductor*%
G36*
X154426960Y-64979502D02*
G01*
X154447934Y-64996405D01*
X154714033Y-65262504D01*
X154748059Y-65324816D01*
X154742920Y-65395827D01*
X154724870Y-65443976D01*
X154724017Y-65451826D01*
X154724017Y-65451827D01*
X154719624Y-65492267D01*
X154718500Y-65502611D01*
X154718501Y-65734500D01*
X154718501Y-65793531D01*
X154698499Y-65861651D01*
X154644844Y-65908144D01*
X154574570Y-65918249D01*
X154509989Y-65888756D01*
X154484048Y-65857670D01*
X154453093Y-65805328D01*
X154443449Y-65792896D01*
X154337104Y-65686551D01*
X154324678Y-65676911D01*
X154195221Y-65600352D01*
X154180790Y-65594107D01*
X154034935Y-65551731D01*
X154022333Y-65549430D01*
X153993916Y-65547193D01*
X153988986Y-65547000D01*
X153609615Y-65547000D01*
X153594376Y-65551475D01*
X153593171Y-65552865D01*
X153591500Y-65560548D01*
X153591500Y-66082885D01*
X153595975Y-66098124D01*
X153597365Y-66099329D01*
X153605048Y-66101000D01*
X154561876Y-66101000D01*
X154595991Y-66090983D01*
X154666988Y-66090983D01*
X154726714Y-66129366D01*
X154749470Y-66167646D01*
X154773083Y-66230635D01*
X154778463Y-66237814D01*
X154778465Y-66237817D01*
X154786092Y-66247993D01*
X154827273Y-66302939D01*
X154827837Y-66303692D01*
X154852685Y-66370198D01*
X154837633Y-66439581D01*
X154793314Y-66486402D01*
X154745827Y-66515788D01*
X154734426Y-66524824D01*
X154686129Y-66573206D01*
X154623846Y-66607286D01*
X154588144Y-66609881D01*
X154575576Y-66609000D01*
X153609615Y-66609000D01*
X153594376Y-66613475D01*
X153593171Y-66614865D01*
X153591500Y-66622548D01*
X153591500Y-67144884D01*
X153595975Y-67160123D01*
X153597365Y-67161328D01*
X153605048Y-67162999D01*
X153988984Y-67162999D01*
X153993920Y-67162805D01*
X154022336Y-67160570D01*
X154034931Y-67158270D01*
X154180790Y-67115893D01*
X154195225Y-67109646D01*
X154309991Y-67041775D01*
X154378807Y-67024316D01*
X154446138Y-67046833D01*
X154456641Y-67055004D01*
X154470865Y-67067329D01*
X154478548Y-67069000D01*
X155576000Y-67069000D01*
X155644121Y-67089002D01*
X155690614Y-67142658D01*
X155702000Y-67195000D01*
X155702000Y-68262885D01*
X155706475Y-68278124D01*
X155707865Y-68279329D01*
X155715548Y-68281000D01*
X155743438Y-68281000D01*
X155749953Y-68280663D01*
X155842057Y-68271106D01*
X155855456Y-68268212D01*
X156004107Y-68218619D01*
X156017286Y-68212445D01*
X156150173Y-68130212D01*
X156161574Y-68121176D01*
X156271986Y-68010571D01*
X156280998Y-67999160D01*
X156334240Y-67912785D01*
X156387012Y-67865292D01*
X156457084Y-67853868D01*
X156522208Y-67882142D01*
X156561707Y-67941136D01*
X156567500Y-67978901D01*
X156567500Y-68360260D01*
X156547498Y-68428381D01*
X156530595Y-68449355D01*
X155317355Y-69662595D01*
X155255043Y-69696621D01*
X155228260Y-69699500D01*
X148269418Y-69699500D01*
X148201297Y-69679498D01*
X148154804Y-69625842D01*
X148144700Y-69555568D01*
X148174194Y-69490988D01*
X148212215Y-69461233D01*
X148271890Y-69430827D01*
X148271891Y-69430826D01*
X148280723Y-69426326D01*
X148371326Y-69335723D01*
X148429498Y-69221555D01*
X148444500Y-69126834D01*
X148444500Y-68763166D01*
X148435112Y-68703890D01*
X148444212Y-68633482D01*
X148470466Y-68595087D01*
X148505093Y-68560460D01*
X148567405Y-68526434D01*
X148638220Y-68531499D01*
X148695056Y-68574046D01*
X148719022Y-68632454D01*
X148720083Y-68640197D01*
X148720028Y-68649173D01*
X148722495Y-68657804D01*
X148722495Y-68657806D01*
X148727008Y-68673597D01*
X148730795Y-68691883D01*
X148734088Y-68717065D01*
X148737702Y-68725279D01*
X148737704Y-68725285D01*
X148745874Y-68743852D01*
X148751694Y-68759974D01*
X148757271Y-68779489D01*
X148757274Y-68779496D01*
X148759739Y-68788121D01*
X148764527Y-68795709D01*
X148764528Y-68795712D01*
X148773291Y-68809600D01*
X148782059Y-68826089D01*
X148792289Y-68849339D01*
X148798063Y-68856209D01*
X148798065Y-68856211D01*
X148811128Y-68871752D01*
X148821236Y-68885587D01*
X148836853Y-68910339D01*
X148855888Y-68927150D01*
X148868926Y-68940510D01*
X148879503Y-68953093D01*
X148879506Y-68953095D01*
X148885276Y-68959960D01*
X148909650Y-68976185D01*
X148923225Y-68986620D01*
X148945170Y-69006001D01*
X148968165Y-69016797D01*
X148984431Y-69025963D01*
X149005574Y-69040037D01*
X149030050Y-69047684D01*
X149033516Y-69048767D01*
X149049482Y-69054976D01*
X149075982Y-69067417D01*
X149084845Y-69068797D01*
X149084851Y-69068799D01*
X149101078Y-69071326D01*
X149119258Y-69075557D01*
X149134940Y-69080456D01*
X149134949Y-69080457D01*
X149143510Y-69083132D01*
X149152476Y-69083296D01*
X149152480Y-69083297D01*
X149178294Y-69083770D01*
X149182211Y-69083957D01*
X149185697Y-69084500D01*
X149216992Y-69084500D01*
X149219301Y-69084521D01*
X149287998Y-69085780D01*
X149291779Y-69084749D01*
X149295796Y-69084500D01*
X149851992Y-69084500D01*
X149854301Y-69084521D01*
X149922998Y-69085780D01*
X149926779Y-69084749D01*
X149930796Y-69084500D01*
X150771376Y-69084500D01*
X150783381Y-69085841D01*
X150783421Y-69085345D01*
X150792368Y-69086065D01*
X150801124Y-69088046D01*
X150854382Y-69084742D01*
X150862184Y-69084500D01*
X150878226Y-69084500D01*
X150882657Y-69083865D01*
X150882662Y-69083865D01*
X150886687Y-69083288D01*
X150888457Y-69083035D01*
X150898514Y-69082004D01*
X150920976Y-69080611D01*
X150936400Y-69079654D01*
X150936402Y-69079654D01*
X150945359Y-69079098D01*
X150953799Y-69076051D01*
X150957089Y-69075370D01*
X150972938Y-69071418D01*
X150976168Y-69070473D01*
X150985052Y-69069201D01*
X151006147Y-69059610D01*
X151027763Y-69049782D01*
X151037128Y-69045970D01*
X151072837Y-69033078D01*
X151072840Y-69033076D01*
X151081284Y-69030028D01*
X151088533Y-69024732D01*
X151091490Y-69023160D01*
X151105614Y-69014907D01*
X151108437Y-69013102D01*
X151116605Y-69009388D01*
X151123402Y-69003531D01*
X151123404Y-69003530D01*
X151152153Y-68978757D01*
X151160064Y-68972475D01*
X151170944Y-68964527D01*
X151181806Y-68953665D01*
X151188653Y-68947307D01*
X151219282Y-68920915D01*
X151226082Y-68915056D01*
X151230966Y-68907521D01*
X151236699Y-68900949D01*
X151245926Y-68889545D01*
X151293067Y-68842404D01*
X151355379Y-68808378D01*
X151382162Y-68805499D01*
X151421066Y-68805499D01*
X151456818Y-68798388D01*
X151483126Y-68793156D01*
X151483128Y-68793155D01*
X151495301Y-68790734D01*
X151505621Y-68783839D01*
X151505622Y-68783838D01*
X151569168Y-68741377D01*
X151579484Y-68734484D01*
X151635734Y-68650301D01*
X151650500Y-68576067D01*
X151650499Y-68213160D01*
X151670501Y-68145041D01*
X151724156Y-68098548D01*
X151794430Y-68088443D01*
X151859011Y-68117936D01*
X151865594Y-68124065D01*
X152374324Y-68632794D01*
X152381867Y-68642235D01*
X152382246Y-68641912D01*
X152388062Y-68648745D01*
X152392853Y-68656339D01*
X152399583Y-68662283D01*
X152399585Y-68662285D01*
X152432866Y-68691678D01*
X152438554Y-68697024D01*
X152449881Y-68708351D01*
X152453464Y-68711036D01*
X152453466Y-68711038D01*
X152458152Y-68714550D01*
X152465995Y-68720935D01*
X152501170Y-68752001D01*
X152509297Y-68755816D01*
X152512117Y-68757669D01*
X152526094Y-68766067D01*
X152529051Y-68767686D01*
X152536236Y-68773071D01*
X152544646Y-68776224D01*
X152544648Y-68776225D01*
X152580193Y-68789551D01*
X152589506Y-68793475D01*
X152631982Y-68813417D01*
X152640854Y-68814798D01*
X152644084Y-68815786D01*
X152659855Y-68819924D01*
X152663144Y-68820647D01*
X152671552Y-68823799D01*
X152706652Y-68826407D01*
X152718359Y-68827277D01*
X152728407Y-68828431D01*
X152736880Y-68829750D01*
X152736881Y-68829750D01*
X152741697Y-68830500D01*
X152757049Y-68830500D01*
X152766386Y-68830846D01*
X152815667Y-68834508D01*
X152824444Y-68832634D01*
X152833133Y-68832042D01*
X152847742Y-68830500D01*
X152978226Y-68830500D01*
X153085052Y-68815201D01*
X153093227Y-68811484D01*
X153096374Y-68810564D01*
X153131737Y-68805500D01*
X153439687Y-68805499D01*
X153521066Y-68805499D01*
X153556818Y-68798388D01*
X153583126Y-68793156D01*
X153583128Y-68793155D01*
X153595301Y-68790734D01*
X153605621Y-68783839D01*
X153605622Y-68783838D01*
X153669168Y-68741377D01*
X153679484Y-68734484D01*
X153735734Y-68650301D01*
X153750500Y-68576067D01*
X153750499Y-68075934D01*
X153735734Y-68001699D01*
X153679484Y-67917516D01*
X153595301Y-67861266D01*
X153521067Y-67846500D01*
X153434991Y-67846500D01*
X153131394Y-67846501D01*
X153096903Y-67841346D01*
X153091018Y-67838583D01*
X153051217Y-67832386D01*
X153032201Y-67829425D01*
X152967969Y-67799181D01*
X152962491Y-67794020D01*
X152761909Y-67593438D01*
X154465000Y-67593438D01*
X154465337Y-67599953D01*
X154474894Y-67692057D01*
X154477788Y-67705456D01*
X154527381Y-67854107D01*
X154533555Y-67867286D01*
X154615788Y-68000173D01*
X154624824Y-68011574D01*
X154735429Y-68121986D01*
X154746840Y-68130998D01*
X154879880Y-68213004D01*
X154893061Y-68219151D01*
X155041814Y-68268491D01*
X155055190Y-68271358D01*
X155146097Y-68280672D01*
X155152513Y-68281000D01*
X155175885Y-68281000D01*
X155191124Y-68276525D01*
X155192329Y-68275135D01*
X155194000Y-68267452D01*
X155194000Y-67595115D01*
X155189525Y-67579876D01*
X155188135Y-67578671D01*
X155180452Y-67577000D01*
X154483115Y-67577000D01*
X154467876Y-67581475D01*
X154466671Y-67582865D01*
X154465000Y-67590548D01*
X154465000Y-67593438D01*
X152761909Y-67593438D01*
X152542344Y-67373873D01*
X152508318Y-67311561D01*
X152513383Y-67240746D01*
X152555930Y-67183910D01*
X152622450Y-67159099D01*
X152646222Y-67160398D01*
X152646248Y-67160065D01*
X152681084Y-67162807D01*
X152686014Y-67163000D01*
X153065385Y-67163000D01*
X153080624Y-67158525D01*
X153081829Y-67157135D01*
X153083500Y-67149452D01*
X153083500Y-65565116D01*
X153079025Y-65549877D01*
X153077635Y-65548672D01*
X153069952Y-65547001D01*
X152686017Y-65547001D01*
X152681080Y-65547195D01*
X152652664Y-65549430D01*
X152640063Y-65551731D01*
X152615655Y-65558823D01*
X152544659Y-65558622D01*
X152485042Y-65520069D01*
X152455732Y-65455405D01*
X152454500Y-65437827D01*
X152454500Y-65223166D01*
X152439498Y-65128445D01*
X152442435Y-65127980D01*
X152440867Y-65072931D01*
X152477535Y-65012136D01*
X152541250Y-64980817D01*
X152604794Y-64988113D01*
X152605178Y-64986932D01*
X152611012Y-64988827D01*
X152611783Y-64988916D01*
X152612937Y-64989453D01*
X152614611Y-64989997D01*
X152623445Y-64994498D01*
X152718166Y-65009500D01*
X153956834Y-65009500D01*
X154051555Y-64994498D01*
X154060389Y-64989997D01*
X154093290Y-64973233D01*
X154150493Y-64959500D01*
X154358839Y-64959500D01*
X154426960Y-64979502D01*
G37*
%TD.AperFunction*%
%TA.AperFunction,Conductor*%
G36*
X160480265Y-65800886D02*
G01*
X160525646Y-65855485D01*
X160535981Y-65905462D01*
X160535981Y-66789230D01*
X160533875Y-66809024D01*
X160533670Y-66813377D01*
X160531478Y-66823557D01*
X160535022Y-66853500D01*
X160535108Y-66854224D01*
X160535423Y-66859570D01*
X160535553Y-66859559D01*
X160535981Y-66864739D01*
X160535981Y-66869938D01*
X160536834Y-66875062D01*
X160536835Y-66875075D01*
X160538908Y-66887528D01*
X160539745Y-66893403D01*
X160545350Y-66940757D01*
X160549051Y-66948465D01*
X160550456Y-66956904D01*
X160573110Y-66998888D01*
X160575791Y-67004151D01*
X160596436Y-67047145D01*
X160599792Y-67051137D01*
X160601739Y-67053084D01*
X160603229Y-67054709D01*
X160603462Y-67055141D01*
X160603426Y-67055174D01*
X160603565Y-67055332D01*
X160606498Y-67060767D01*
X160614145Y-67067836D01*
X160643362Y-67094844D01*
X160646928Y-67098273D01*
X161596530Y-68047875D01*
X161630556Y-68110187D01*
X161625491Y-68181002D01*
X161582944Y-68237838D01*
X161564639Y-68249236D01*
X161529064Y-68267363D01*
X161529063Y-68267364D01*
X161520229Y-68271865D01*
X161431865Y-68360229D01*
X161375132Y-68471573D01*
X161360500Y-68563955D01*
X161360501Y-68906044D01*
X161367829Y-68952312D01*
X161358729Y-69022720D01*
X161332475Y-69061115D01*
X161244516Y-69149074D01*
X161234876Y-69161501D01*
X161159604Y-69288780D01*
X161153358Y-69303214D01*
X161134990Y-69366435D01*
X161096776Y-69426270D01*
X161032280Y-69455947D01*
X160961977Y-69446043D01*
X160945468Y-69437017D01*
X160868790Y-69387317D01*
X160795466Y-69365388D01*
X160738938Y-69348482D01*
X160738936Y-69348482D01*
X160730337Y-69345910D01*
X160721363Y-69345855D01*
X160721361Y-69345855D01*
X160653887Y-69345443D01*
X160585890Y-69325025D01*
X160539726Y-69271086D01*
X160530051Y-69200752D01*
X160546204Y-69155306D01*
X160620770Y-69029222D01*
X160627019Y-69014783D01*
X160668338Y-68872564D01*
X160670637Y-68859977D01*
X160671260Y-68852057D01*
X160668090Y-68836970D01*
X160656626Y-68834000D01*
X159767000Y-68834000D01*
X159698879Y-68813998D01*
X159652386Y-68760342D01*
X159641000Y-68708000D01*
X159641000Y-68307885D01*
X160149000Y-68307885D01*
X160153475Y-68323124D01*
X160154865Y-68324329D01*
X160162548Y-68326000D01*
X160654566Y-68326000D01*
X160669361Y-68321656D01*
X160671421Y-68309997D01*
X160670637Y-68300023D01*
X160668338Y-68287436D01*
X160627019Y-68145217D01*
X160620770Y-68130778D01*
X160546146Y-68004595D01*
X160536499Y-67992159D01*
X160432841Y-67888501D01*
X160420405Y-67878854D01*
X160294222Y-67804230D01*
X160279783Y-67797981D01*
X160166395Y-67765039D01*
X160152295Y-67765079D01*
X160149000Y-67772349D01*
X160149000Y-68307885D01*
X159641000Y-68307885D01*
X159641000Y-67778100D01*
X159637027Y-67764569D01*
X159629129Y-67763434D01*
X159510217Y-67797981D01*
X159495784Y-67804227D01*
X159419639Y-67849259D01*
X159350823Y-67866718D01*
X159283491Y-67844201D01*
X159239022Y-67788856D01*
X159229500Y-67740805D01*
X159229500Y-66749029D01*
X159249502Y-66680908D01*
X159266405Y-66659934D01*
X159978908Y-65947431D01*
X160041220Y-65913405D01*
X160070312Y-65910547D01*
X160082998Y-65910780D01*
X160092667Y-65908144D01*
X160213763Y-65875130D01*
X160213765Y-65875129D01*
X160222422Y-65872769D01*
X160344053Y-65798087D01*
X160412569Y-65779489D01*
X160480265Y-65800886D01*
G37*
%TD.AperFunction*%
%TA.AperFunction,Conductor*%
G36*
X164661121Y-65171002D02*
G01*
X164707614Y-65224658D01*
X164719000Y-65277000D01*
X164719000Y-66694884D01*
X164723475Y-66710123D01*
X164724865Y-66711328D01*
X164732548Y-66712999D01*
X164959669Y-66712999D01*
X164966490Y-66712629D01*
X165017352Y-66707105D01*
X165032604Y-66703479D01*
X165153054Y-66658324D01*
X165168648Y-66649786D01*
X165177886Y-66642863D01*
X165244393Y-66618016D01*
X165313775Y-66633070D01*
X165342545Y-66654595D01*
X165434856Y-66746906D01*
X165468882Y-66809218D01*
X165463817Y-66880033D01*
X165421270Y-66936869D01*
X165354750Y-66961680D01*
X165345761Y-66962001D01*
X165120331Y-66962001D01*
X165113510Y-66962371D01*
X165062648Y-66967895D01*
X165047396Y-66971521D01*
X164926942Y-67016677D01*
X164918097Y-67021520D01*
X164857588Y-67037000D01*
X164737115Y-67037000D01*
X164721876Y-67041475D01*
X164720671Y-67042865D01*
X164719000Y-67050548D01*
X164719000Y-68473000D01*
X164698998Y-68541121D01*
X164645342Y-68587614D01*
X164593000Y-68599000D01*
X164337000Y-68599000D01*
X164268879Y-68578998D01*
X164222386Y-68525342D01*
X164211000Y-68473000D01*
X164211000Y-67055116D01*
X164206525Y-67039877D01*
X164205135Y-67038672D01*
X164197452Y-67037001D01*
X163970331Y-67037001D01*
X163963510Y-67037371D01*
X163912648Y-67042895D01*
X163897396Y-67046521D01*
X163776946Y-67091676D01*
X163761351Y-67100214D01*
X163659276Y-67176715D01*
X163657396Y-67178595D01*
X163655080Y-67179860D01*
X163652096Y-67182096D01*
X163651773Y-67181665D01*
X163595084Y-67212621D01*
X163568301Y-67215500D01*
X163254870Y-67215501D01*
X163239934Y-67215501D01*
X163196090Y-67224221D01*
X163177870Y-67227845D01*
X163177869Y-67227845D01*
X163165699Y-67230266D01*
X163162305Y-67232534D01*
X163122257Y-67240500D01*
X162409028Y-67240500D01*
X162340907Y-67220498D01*
X162319933Y-67203595D01*
X162004932Y-66888594D01*
X161970906Y-66826282D01*
X161975971Y-66755467D01*
X162018518Y-66698631D01*
X162085038Y-66673820D01*
X162094024Y-66673499D01*
X162126044Y-66673499D01*
X162164207Y-66667455D01*
X162208629Y-66660420D01*
X162208631Y-66660419D01*
X162218427Y-66658868D01*
X162236252Y-66649786D01*
X162261090Y-66637130D01*
X162329771Y-66602135D01*
X162347657Y-66584249D01*
X162409969Y-66550223D01*
X162480784Y-66555288D01*
X162506569Y-66568456D01*
X162538374Y-66589627D01*
X162587101Y-66622063D01*
X162587103Y-66622064D01*
X162594574Y-66627037D01*
X162603138Y-66629713D01*
X162603141Y-66629714D01*
X162645229Y-66642863D01*
X162732510Y-66670132D01*
X162876998Y-66672780D01*
X162886711Y-66670132D01*
X163007763Y-66637130D01*
X163007765Y-66637129D01*
X163016422Y-66634769D01*
X163051102Y-66613475D01*
X163108675Y-66578125D01*
X163174604Y-66559500D01*
X163473248Y-66559500D01*
X163492958Y-66561051D01*
X163515000Y-66564542D01*
X163537042Y-66561051D01*
X163546834Y-66559500D01*
X163546834Y-66559501D01*
X163559630Y-66557474D01*
X163571839Y-66555540D01*
X163576517Y-66556144D01*
X163579342Y-66555922D01*
X163579344Y-66555922D01*
X163579344Y-66556510D01*
X163642251Y-66564637D01*
X163667118Y-66579162D01*
X163761352Y-66649786D01*
X163776946Y-66658324D01*
X163897394Y-66703478D01*
X163912649Y-66707105D01*
X163963514Y-66712631D01*
X163970328Y-66713000D01*
X164192885Y-66713000D01*
X164208124Y-66708525D01*
X164209329Y-66707135D01*
X164211000Y-66699452D01*
X164211000Y-65277000D01*
X164231002Y-65208879D01*
X164284658Y-65162386D01*
X164337000Y-65151000D01*
X164593000Y-65151000D01*
X164661121Y-65171002D01*
G37*
%TD.AperFunction*%
%TA.AperFunction,Conductor*%
G36*
X150748445Y-65944498D02*
G01*
X150766964Y-65947431D01*
X150838276Y-65958726D01*
X150838282Y-65958726D01*
X150843166Y-65959500D01*
X150843168Y-65959500D01*
X150908222Y-65984291D01*
X150950365Y-66041427D01*
X150958000Y-66084621D01*
X150958000Y-66692500D01*
X150937998Y-66760621D01*
X150884342Y-66807114D01*
X150832000Y-66818500D01*
X150366163Y-66818500D01*
X150298042Y-66798498D01*
X150251549Y-66744842D01*
X150241445Y-66674568D01*
X150270939Y-66609988D01*
X150299861Y-66585355D01*
X150308176Y-66580210D01*
X150319574Y-66571176D01*
X150429986Y-66460571D01*
X150438998Y-66449160D01*
X150521004Y-66316120D01*
X150527151Y-66302939D01*
X150576491Y-66154186D01*
X150579358Y-66140810D01*
X150588531Y-66051277D01*
X150615372Y-65985550D01*
X150673486Y-65944768D01*
X150743386Y-65941920D01*
X150748445Y-65944498D01*
G37*
%TD.AperFunction*%
%TA.AperFunction,Conductor*%
G36*
X156406121Y-63111002D02*
G01*
X156452614Y-63164658D01*
X156464000Y-63217000D01*
X156464000Y-64113424D01*
X156468344Y-64128219D01*
X156478775Y-64130063D01*
X156488359Y-64128312D01*
X156631784Y-64086643D01*
X156646220Y-64080396D01*
X156780320Y-64001090D01*
X156781547Y-64003165D01*
X156836450Y-63981610D01*
X156906072Y-63995512D01*
X156936683Y-64018022D01*
X157122596Y-64203935D01*
X157156622Y-64266247D01*
X157159501Y-64293030D01*
X157159501Y-64392152D01*
X157160276Y-64397043D01*
X157160276Y-64397046D01*
X157172366Y-64473384D01*
X157173946Y-64483362D01*
X157178447Y-64492195D01*
X157178449Y-64492200D01*
X157200002Y-64534500D01*
X157229960Y-64593296D01*
X157317204Y-64680540D01*
X157326040Y-64685042D01*
X157327562Y-64686148D01*
X157370915Y-64742370D01*
X157379500Y-64788083D01*
X157379500Y-65937839D01*
X157359498Y-66005960D01*
X157305842Y-66052453D01*
X157235568Y-66062557D01*
X157170988Y-66033063D01*
X157164405Y-66026934D01*
X156603677Y-65466206D01*
X156596135Y-65456766D01*
X156595755Y-65457089D01*
X156589937Y-65450253D01*
X156585147Y-65442661D01*
X156545140Y-65407328D01*
X156539454Y-65401983D01*
X156528120Y-65390649D01*
X156519845Y-65384447D01*
X156512000Y-65378060D01*
X156483557Y-65352940D01*
X156476830Y-65346999D01*
X156468708Y-65343186D01*
X156465907Y-65341346D01*
X156451912Y-65332937D01*
X156448949Y-65331315D01*
X156441764Y-65325930D01*
X156433354Y-65322777D01*
X156433352Y-65322776D01*
X156397818Y-65309454D01*
X156388502Y-65305529D01*
X156387516Y-65305066D01*
X156346018Y-65285583D01*
X156337144Y-65284201D01*
X156333917Y-65283215D01*
X156318134Y-65279075D01*
X156314856Y-65278354D01*
X156306448Y-65275202D01*
X156292691Y-65274180D01*
X156259643Y-65271724D01*
X156249596Y-65270570D01*
X156241114Y-65269249D01*
X156241111Y-65269249D01*
X156236303Y-65268500D01*
X156220938Y-65268500D01*
X156211601Y-65268154D01*
X156209104Y-65267968D01*
X156162333Y-65264493D01*
X156156377Y-65265764D01*
X156088468Y-65250754D01*
X156048398Y-65215935D01*
X156045929Y-65212641D01*
X156040544Y-65205456D01*
X155978632Y-65159055D01*
X155955365Y-65141617D01*
X155912417Y-65083575D01*
X155911641Y-65081425D01*
X155898028Y-65043716D01*
X155892731Y-65036466D01*
X155891154Y-65033499D01*
X155882907Y-65019386D01*
X155881102Y-65016563D01*
X155877388Y-65008395D01*
X155865414Y-64994498D01*
X155846757Y-64972847D01*
X155840475Y-64964936D01*
X155832527Y-64954056D01*
X155821665Y-64943194D01*
X155815307Y-64936347D01*
X155804387Y-64923674D01*
X155783056Y-64898918D01*
X155775521Y-64894034D01*
X155768949Y-64888301D01*
X155757545Y-64879074D01*
X155351855Y-64473384D01*
X155317829Y-64411072D01*
X155322894Y-64340257D01*
X155351855Y-64295194D01*
X155574517Y-64072532D01*
X155636829Y-64038506D01*
X155707644Y-64043571D01*
X155727752Y-64053174D01*
X155773781Y-64080396D01*
X155788216Y-64086643D01*
X155931641Y-64128312D01*
X155939609Y-64129768D01*
X155953031Y-64126948D01*
X155956000Y-64115487D01*
X155956000Y-63217000D01*
X155976002Y-63148879D01*
X156029658Y-63102386D01*
X156082000Y-63091000D01*
X156338000Y-63091000D01*
X156406121Y-63111002D01*
G37*
%TD.AperFunction*%
%TA.AperFunction,Conductor*%
G36*
X151709121Y-62758002D02*
G01*
X151755614Y-62811658D01*
X151767000Y-62864000D01*
X151767000Y-63793900D01*
X151770973Y-63807431D01*
X151778871Y-63808566D01*
X151865814Y-63783307D01*
X151936811Y-63783510D01*
X151996416Y-63822052D01*
X152001240Y-63827650D01*
X152007525Y-63835564D01*
X152015473Y-63846444D01*
X152026335Y-63857306D01*
X152032693Y-63864152D01*
X152064944Y-63901582D01*
X152072479Y-63906466D01*
X152079051Y-63912199D01*
X152090455Y-63921426D01*
X152313324Y-64144295D01*
X152347350Y-64206607D01*
X152348678Y-64253101D01*
X152345500Y-64273166D01*
X152345500Y-64636834D01*
X152353310Y-64686148D01*
X152360502Y-64731555D01*
X152357565Y-64732020D01*
X152359133Y-64787069D01*
X152322465Y-64847864D01*
X152258750Y-64879183D01*
X152195206Y-64871887D01*
X152194822Y-64873068D01*
X152188988Y-64871173D01*
X152188217Y-64871084D01*
X152187063Y-64870547D01*
X152185389Y-64870003D01*
X152176555Y-64865502D01*
X152081834Y-64850500D01*
X151673661Y-64850500D01*
X151605540Y-64830498D01*
X151584566Y-64813595D01*
X150552565Y-63781594D01*
X150518539Y-63719282D01*
X150523604Y-63648467D01*
X150566151Y-63591631D01*
X150632671Y-63566820D01*
X150641659Y-63566499D01*
X150658652Y-63566499D01*
X150722711Y-63556354D01*
X150740069Y-63553605D01*
X150749862Y-63552054D01*
X150750896Y-63551527D01*
X150817005Y-63549640D01*
X150874065Y-63582405D01*
X150975159Y-63683499D01*
X150987595Y-63693146D01*
X151113778Y-63767770D01*
X151128217Y-63774019D01*
X151241605Y-63806961D01*
X151255705Y-63806921D01*
X151259000Y-63799651D01*
X151259000Y-62864000D01*
X151279002Y-62795879D01*
X151332658Y-62749386D01*
X151385000Y-62738000D01*
X151641000Y-62738000D01*
X151709121Y-62758002D01*
G37*
%TD.AperFunction*%
%TA.AperFunction,Conductor*%
G36*
X144341121Y-63776002D02*
G01*
X144387614Y-63829658D01*
X144399000Y-63882000D01*
X144399000Y-64138000D01*
X144378998Y-64206121D01*
X144325342Y-64252614D01*
X144273000Y-64264000D01*
X143343100Y-64264000D01*
X143329569Y-64267973D01*
X143328434Y-64275871D01*
X143362981Y-64394783D01*
X143369230Y-64409222D01*
X143443854Y-64535405D01*
X143453501Y-64547841D01*
X143481065Y-64575405D01*
X143515091Y-64637717D01*
X143510026Y-64708532D01*
X143467479Y-64765368D01*
X143400959Y-64790179D01*
X143391970Y-64790500D01*
X142842244Y-64790500D01*
X142780552Y-64797202D01*
X142775525Y-64799087D01*
X142705745Y-64795442D01*
X142648102Y-64753996D01*
X142622017Y-64687965D01*
X142621500Y-64676562D01*
X142621500Y-64120764D01*
X142641502Y-64052643D01*
X142695158Y-64006150D01*
X142765432Y-63996046D01*
X142784760Y-64000426D01*
X142784944Y-64000456D01*
X142793510Y-64003132D01*
X142937998Y-64005780D01*
X142955201Y-64001090D01*
X143068763Y-63970130D01*
X143068765Y-63970129D01*
X143077422Y-63967769D01*
X143200572Y-63892154D01*
X143225908Y-63864163D01*
X143286300Y-63797444D01*
X143346844Y-63760363D01*
X143379715Y-63756000D01*
X144273000Y-63756000D01*
X144341121Y-63776002D01*
G37*
%TD.AperFunction*%
%TA.AperFunction,Conductor*%
G36*
X167952381Y-59859501D02*
G01*
X167998875Y-59913156D01*
X168008979Y-59983430D01*
X167979486Y-60048011D01*
X167973356Y-60054594D01*
X167260038Y-60767912D01*
X167260035Y-60767916D01*
X167237247Y-60790704D01*
X167232744Y-60799542D01*
X167227119Y-60810581D01*
X167216789Y-60827438D01*
X167203668Y-60845498D01*
X167203431Y-60846227D01*
X167158173Y-60894149D01*
X167089258Y-60911217D01*
X167050422Y-60903314D01*
X166925605Y-60856522D01*
X166910351Y-60852895D01*
X166859486Y-60847369D01*
X166852672Y-60847000D01*
X166263331Y-60847001D01*
X166256510Y-60847371D01*
X166205648Y-60852895D01*
X166190396Y-60856521D01*
X166069942Y-60901677D01*
X166061097Y-60906520D01*
X166000588Y-60922000D01*
X165880115Y-60922000D01*
X165864876Y-60926475D01*
X165863671Y-60927865D01*
X165862000Y-60935548D01*
X165862000Y-63519884D01*
X165866474Y-63535122D01*
X165884630Y-63550854D01*
X165923014Y-63610580D01*
X165923014Y-63681576D01*
X165917756Y-63696119D01*
X165910356Y-63713219D01*
X165868688Y-63856641D01*
X165866386Y-63869244D01*
X165864194Y-63897099D01*
X165863965Y-63902919D01*
X165841304Y-63970202D01*
X165785864Y-64014552D01*
X165724450Y-64023235D01*
X165716476Y-64022368D01*
X165709672Y-64022000D01*
X165120331Y-64022001D01*
X165113510Y-64022371D01*
X165062648Y-64027895D01*
X165047394Y-64031522D01*
X164953552Y-64066701D01*
X164882745Y-64071884D01*
X164820376Y-64037963D01*
X164786247Y-63975708D01*
X164791194Y-63904883D01*
X164815908Y-63864163D01*
X164816423Y-63863595D01*
X164887551Y-63785014D01*
X164932060Y-63693146D01*
X164946645Y-63663043D01*
X164946645Y-63663042D01*
X164950560Y-63654962D01*
X164952049Y-63646113D01*
X164952050Y-63646109D01*
X164953028Y-63640293D01*
X164984054Y-63576435D01*
X165044680Y-63539488D01*
X165090888Y-63535934D01*
X165106509Y-63537631D01*
X165113328Y-63538000D01*
X165335885Y-63538000D01*
X165351124Y-63533525D01*
X165352329Y-63532135D01*
X165354000Y-63524452D01*
X165354000Y-60940116D01*
X165349525Y-60924877D01*
X165348135Y-60923672D01*
X165340452Y-60922001D01*
X165113331Y-60922001D01*
X165106510Y-60922371D01*
X165055648Y-60927895D01*
X165040396Y-60931521D01*
X165030679Y-60935164D01*
X164959872Y-60940349D01*
X164897503Y-60906429D01*
X164863372Y-60844175D01*
X164865450Y-60782030D01*
X164897312Y-60672360D01*
X164899614Y-60659756D01*
X164901807Y-60631898D01*
X164902000Y-60626969D01*
X164902000Y-60551500D01*
X164922002Y-60483379D01*
X164975658Y-60436886D01*
X165028000Y-60425500D01*
X166617743Y-60425500D01*
X166637537Y-60427606D01*
X166641890Y-60427811D01*
X166652070Y-60430003D01*
X166682740Y-60426373D01*
X166688083Y-60426058D01*
X166688072Y-60425928D01*
X166693252Y-60425500D01*
X166698451Y-60425500D01*
X166703575Y-60424647D01*
X166703588Y-60424646D01*
X166716041Y-60422573D01*
X166721916Y-60421736D01*
X166758929Y-60417355D01*
X166769270Y-60416131D01*
X166776978Y-60412430D01*
X166785417Y-60411025D01*
X166827401Y-60388371D01*
X166832664Y-60385690D01*
X166844176Y-60380162D01*
X166875658Y-60365045D01*
X166879650Y-60361689D01*
X166881597Y-60359742D01*
X166883222Y-60358252D01*
X166883654Y-60358019D01*
X166883687Y-60358055D01*
X166883845Y-60357916D01*
X166889280Y-60354983D01*
X166923357Y-60318119D01*
X166926786Y-60314553D01*
X167364934Y-59876405D01*
X167427246Y-59842379D01*
X167454029Y-59839500D01*
X167538127Y-59839500D01*
X167884262Y-59839499D01*
X167952381Y-59859501D01*
G37*
%TD.AperFunction*%
%TA.AperFunction,Conductor*%
G36*
X144360434Y-51709502D02*
G01*
X144406927Y-51763158D01*
X144417031Y-51833432D01*
X144387537Y-51898012D01*
X144329992Y-51935734D01*
X144306756Y-51943016D01*
X144295068Y-51948025D01*
X144136021Y-52036187D01*
X144125588Y-52043438D01*
X143987509Y-52161785D01*
X143978756Y-52170976D01*
X143867289Y-52314680D01*
X143860565Y-52325440D01*
X143780268Y-52488625D01*
X143775845Y-52500519D01*
X143760749Y-52558470D01*
X143761183Y-52572564D01*
X143769364Y-52576000D01*
X146389229Y-52576000D01*
X146402760Y-52572027D01*
X146403637Y-52565925D01*
X146347690Y-52413864D01*
X146342123Y-52402451D01*
X146246292Y-52247892D01*
X146238540Y-52237826D01*
X146113592Y-52105697D01*
X146103974Y-52097395D01*
X145955013Y-51993092D01*
X145943916Y-51986890D01*
X145815078Y-51931137D01*
X145760503Y-51885726D01*
X145739143Y-51818019D01*
X145757779Y-51749512D01*
X145810495Y-51701956D01*
X145865118Y-51689500D01*
X148312313Y-51689500D01*
X148380434Y-51709502D01*
X148426927Y-51763158D01*
X148437031Y-51833432D01*
X148407537Y-51898012D01*
X148349992Y-51935734D01*
X148326756Y-51943016D01*
X148315068Y-51948025D01*
X148156021Y-52036187D01*
X148145588Y-52043438D01*
X148007509Y-52161785D01*
X147998756Y-52170976D01*
X147887289Y-52314680D01*
X147880565Y-52325440D01*
X147800268Y-52488625D01*
X147795845Y-52500519D01*
X147780749Y-52558470D01*
X147781183Y-52572564D01*
X147789364Y-52576000D01*
X149378000Y-52576000D01*
X149446121Y-52596002D01*
X149492614Y-52649658D01*
X149504000Y-52702000D01*
X149504000Y-53677885D01*
X149508475Y-53693124D01*
X149509865Y-53694329D01*
X149517548Y-53696000D01*
X149557885Y-53696000D01*
X149573124Y-53691525D01*
X149574329Y-53690135D01*
X149576000Y-53682452D01*
X149576000Y-53228000D01*
X149596002Y-53159879D01*
X149649658Y-53113386D01*
X149702000Y-53102000D01*
X149958000Y-53102000D01*
X150026121Y-53122002D01*
X150072614Y-53175658D01*
X150084000Y-53228000D01*
X150084000Y-53677885D01*
X150088475Y-53693124D01*
X150089865Y-53694329D01*
X150097548Y-53696000D01*
X150899884Y-53696000D01*
X150915123Y-53691525D01*
X150916328Y-53690135D01*
X150917999Y-53682452D01*
X150917999Y-53605331D01*
X150917629Y-53598510D01*
X150912105Y-53547648D01*
X150908585Y-53532842D01*
X150912288Y-53461942D01*
X150953735Y-53404299D01*
X151019766Y-53378215D01*
X151089417Y-53391971D01*
X151120263Y-53414603D01*
X151174595Y-53468935D01*
X151208621Y-53531247D01*
X151205588Y-53591879D01*
X151204946Y-53593138D01*
X151190500Y-53684347D01*
X151190501Y-53843238D01*
X151190501Y-53958471D01*
X151170499Y-54026591D01*
X151153596Y-54047566D01*
X151029248Y-54171914D01*
X150966936Y-54205940D01*
X150913370Y-54205940D01*
X150904452Y-54204000D01*
X150490210Y-54204000D01*
X150465629Y-54201579D01*
X150441135Y-54196707D01*
X150435067Y-54195500D01*
X150372110Y-54195500D01*
X149425820Y-54195501D01*
X149357699Y-54175499D01*
X149311206Y-54121843D01*
X149302306Y-54094408D01*
X149300278Y-54084349D01*
X149300277Y-54084347D01*
X149298580Y-54075929D01*
X149273441Y-54026591D01*
X149233508Y-53948217D01*
X149233506Y-53948214D01*
X149229608Y-53940564D01*
X149218208Y-53928166D01*
X149132584Y-53835052D01*
X149132583Y-53835051D01*
X149126774Y-53828734D01*
X149113627Y-53820582D01*
X149058382Y-53786329D01*
X149055603Y-53784606D01*
X149008248Y-53731710D01*
X148996000Y-53677520D01*
X148996000Y-53102115D01*
X148991525Y-53086876D01*
X148990135Y-53085671D01*
X148982452Y-53084000D01*
X147790771Y-53084000D01*
X147777240Y-53087973D01*
X147776363Y-53094075D01*
X147832310Y-53246136D01*
X147837877Y-53257549D01*
X147933708Y-53412108D01*
X147941460Y-53422174D01*
X148066408Y-53554303D01*
X148076026Y-53562605D01*
X148224987Y-53666908D01*
X148236081Y-53673108D01*
X148300311Y-53700903D01*
X148354885Y-53746314D01*
X148376245Y-53814021D01*
X148357609Y-53882528D01*
X148352980Y-53889524D01*
X148273980Y-54000687D01*
X148222518Y-54143629D01*
X148221889Y-54152189D01*
X148221889Y-54152191D01*
X148218709Y-54195500D01*
X148211391Y-54295145D01*
X148241420Y-54444071D01*
X148245320Y-54451725D01*
X148306492Y-54571783D01*
X148306494Y-54571786D01*
X148310392Y-54579436D01*
X148316205Y-54585757D01*
X148316206Y-54585759D01*
X148402538Y-54679643D01*
X148413226Y-54691266D01*
X148420522Y-54695789D01*
X148427143Y-54701267D01*
X148426117Y-54702507D01*
X148466936Y-54748108D01*
X148478171Y-54818210D01*
X148449723Y-54883258D01*
X148442276Y-54891386D01*
X148375580Y-54958082D01*
X148360098Y-54970587D01*
X148356871Y-54973523D01*
X148348118Y-54979175D01*
X148328991Y-55003438D01*
X148325441Y-55007433D01*
X148325540Y-55007517D01*
X148322182Y-55011480D01*
X148318506Y-55015156D01*
X148315483Y-55019385D01*
X148315483Y-55019386D01*
X148308146Y-55029652D01*
X148304585Y-55034395D01*
X148281503Y-55063675D01*
X148281501Y-55063679D01*
X148275054Y-55071857D01*
X148272221Y-55079925D01*
X148267247Y-55086885D01*
X148264263Y-55096863D01*
X148253580Y-55132586D01*
X148251744Y-55138235D01*
X148235950Y-55183208D01*
X148235500Y-55188404D01*
X148235500Y-55191109D01*
X148235403Y-55193365D01*
X148235260Y-55193841D01*
X148235214Y-55193839D01*
X148235201Y-55194038D01*
X148233432Y-55199955D01*
X148235161Y-55243960D01*
X148235403Y-55250124D01*
X148235500Y-55255070D01*
X148235500Y-58785261D01*
X148215498Y-58853382D01*
X148198595Y-58874356D01*
X146977465Y-60095485D01*
X146977462Y-60095489D01*
X146954674Y-60118277D01*
X146944812Y-60137632D01*
X146944546Y-60138154D01*
X146934216Y-60155011D01*
X146921095Y-60173071D01*
X146918030Y-60182504D01*
X146914199Y-60194295D01*
X146906634Y-60212561D01*
X146896502Y-60232445D01*
X146894951Y-60242238D01*
X146893011Y-60254487D01*
X146888395Y-60273713D01*
X146881500Y-60294934D01*
X146881500Y-62234878D01*
X146861498Y-62302999D01*
X146807842Y-62349492D01*
X146754732Y-62360876D01*
X146615827Y-62360028D01*
X146607196Y-62362495D01*
X146607194Y-62362495D01*
X146485509Y-62397272D01*
X146485505Y-62397274D01*
X146476879Y-62399739D01*
X146469292Y-62404526D01*
X146469290Y-62404527D01*
X146378661Y-62461710D01*
X146354661Y-62476853D01*
X146348718Y-62483582D01*
X146348717Y-62483583D01*
X146286947Y-62553525D01*
X146258999Y-62585170D01*
X146258088Y-62584365D01*
X146210668Y-62624631D01*
X146159475Y-62635500D01*
X145983526Y-62635500D01*
X145915405Y-62615498D01*
X145894431Y-62598595D01*
X145843476Y-62547640D01*
X145809450Y-62485328D01*
X145814515Y-62414513D01*
X145857062Y-62357677D01*
X145871484Y-62348343D01*
X146023983Y-62263811D01*
X146034412Y-62256562D01*
X146172491Y-62138215D01*
X146181244Y-62129024D01*
X146292711Y-61985320D01*
X146299435Y-61974560D01*
X146379732Y-61811375D01*
X146384155Y-61799481D01*
X146399251Y-61741530D01*
X146398817Y-61727436D01*
X146390636Y-61724000D01*
X143770771Y-61724000D01*
X143757240Y-61727973D01*
X143756363Y-61734075D01*
X143812310Y-61886136D01*
X143817877Y-61897549D01*
X143913708Y-62052108D01*
X143921460Y-62062174D01*
X144046408Y-62194303D01*
X144056026Y-62202605D01*
X144104131Y-62236288D01*
X144148460Y-62291745D01*
X144155769Y-62362364D01*
X144123739Y-62425724D01*
X144062538Y-62461710D01*
X144031863Y-62465501D01*
X143929348Y-62465501D01*
X143924455Y-62466276D01*
X143924454Y-62466276D01*
X143847936Y-62478394D01*
X143847934Y-62478395D01*
X143838138Y-62479946D01*
X143829301Y-62484449D01*
X143829300Y-62484449D01*
X143813040Y-62492734D01*
X143728204Y-62535960D01*
X143640960Y-62623204D01*
X143584946Y-62733138D01*
X143583396Y-62742927D01*
X143583395Y-62742929D01*
X143581907Y-62752324D01*
X143570500Y-62824347D01*
X143570501Y-63155652D01*
X143571276Y-63160545D01*
X143571276Y-63160546D01*
X143584398Y-63243403D01*
X143575298Y-63313814D01*
X143529575Y-63368127D01*
X143461746Y-63389099D01*
X143393347Y-63370071D01*
X143345248Y-63315263D01*
X143337791Y-63298862D01*
X143304388Y-63225395D01*
X143298530Y-63218596D01*
X143298527Y-63218592D01*
X143215916Y-63122718D01*
X143215913Y-63122716D01*
X143210056Y-63115918D01*
X143108228Y-63049916D01*
X143096324Y-63042200D01*
X143096322Y-63042199D01*
X143088790Y-63037317D01*
X143073834Y-63032844D01*
X142958938Y-62998482D01*
X142958936Y-62998482D01*
X142950337Y-62995910D01*
X142941363Y-62995855D01*
X142941361Y-62995855D01*
X142878082Y-62995469D01*
X142805827Y-62995028D01*
X142782121Y-63001803D01*
X142711128Y-63001289D01*
X142651681Y-62962475D01*
X142622656Y-62897682D01*
X142621500Y-62880653D01*
X142621500Y-61198470D01*
X143760749Y-61198470D01*
X143761183Y-61212564D01*
X143769364Y-61216000D01*
X144807885Y-61216000D01*
X144823124Y-61211525D01*
X144824329Y-61210135D01*
X144826000Y-61202452D01*
X144826000Y-61197885D01*
X145334000Y-61197885D01*
X145338475Y-61213124D01*
X145339865Y-61214329D01*
X145347548Y-61216000D01*
X146389229Y-61216000D01*
X146402760Y-61212027D01*
X146403637Y-61205925D01*
X146347690Y-61053864D01*
X146342123Y-61042451D01*
X146246292Y-60887892D01*
X146238540Y-60877826D01*
X146113592Y-60745697D01*
X146103974Y-60737395D01*
X145955013Y-60633092D01*
X145943919Y-60626892D01*
X145777020Y-60554668D01*
X145764917Y-60550829D01*
X145585400Y-60513325D01*
X145575848Y-60512085D01*
X145572616Y-60512000D01*
X145352115Y-60512000D01*
X145336876Y-60516475D01*
X145335671Y-60517865D01*
X145334000Y-60525548D01*
X145334000Y-61197885D01*
X144826000Y-61197885D01*
X144826000Y-60530115D01*
X144821525Y-60514876D01*
X144820135Y-60513671D01*
X144812452Y-60512000D01*
X144634553Y-60512000D01*
X144628178Y-60512323D01*
X144492723Y-60526082D01*
X144480283Y-60528636D01*
X144306756Y-60583016D01*
X144295068Y-60588025D01*
X144136021Y-60676187D01*
X144125588Y-60683438D01*
X143987509Y-60801785D01*
X143978756Y-60810976D01*
X143867289Y-60954680D01*
X143860565Y-60965440D01*
X143780268Y-61128625D01*
X143775845Y-61140519D01*
X143760749Y-61198470D01*
X142621500Y-61198470D01*
X142621500Y-53094075D01*
X143756363Y-53094075D01*
X143812310Y-53246136D01*
X143817877Y-53257549D01*
X143913708Y-53412108D01*
X143921460Y-53422174D01*
X144046408Y-53554303D01*
X144056026Y-53562605D01*
X144204987Y-53666908D01*
X144216081Y-53673108D01*
X144382980Y-53745332D01*
X144395083Y-53749171D01*
X144574600Y-53786675D01*
X144584152Y-53787915D01*
X144587384Y-53788000D01*
X144807885Y-53788000D01*
X144823124Y-53783525D01*
X144824329Y-53782135D01*
X144826000Y-53774452D01*
X144826000Y-53769885D01*
X145334000Y-53769885D01*
X145338475Y-53785124D01*
X145339865Y-53786329D01*
X145347548Y-53788000D01*
X145525447Y-53788000D01*
X145531822Y-53787677D01*
X145667277Y-53773918D01*
X145679717Y-53771364D01*
X145853244Y-53716984D01*
X145864932Y-53711975D01*
X146023979Y-53623813D01*
X146034412Y-53616562D01*
X146172491Y-53498215D01*
X146181244Y-53489024D01*
X146292711Y-53345320D01*
X146299435Y-53334560D01*
X146379732Y-53171375D01*
X146384155Y-53159481D01*
X146399251Y-53101530D01*
X146398817Y-53087436D01*
X146390636Y-53084000D01*
X145352115Y-53084000D01*
X145336876Y-53088475D01*
X145335671Y-53089865D01*
X145334000Y-53097548D01*
X145334000Y-53769885D01*
X144826000Y-53769885D01*
X144826000Y-53102115D01*
X144821525Y-53086876D01*
X144820135Y-53085671D01*
X144812452Y-53084000D01*
X143770771Y-53084000D01*
X143757240Y-53087973D01*
X143756363Y-53094075D01*
X142621500Y-53094075D01*
X142621500Y-51815500D01*
X142641502Y-51747379D01*
X142695158Y-51700886D01*
X142747500Y-51689500D01*
X144292313Y-51689500D01*
X144360434Y-51709502D01*
G37*
%TD.AperFunction*%
%TA.AperFunction,Conductor*%
G36*
X153433680Y-58752828D02*
G01*
X153433699Y-58752734D01*
X153507933Y-58767500D01*
X153562532Y-58767500D01*
X153595885Y-58773187D01*
X153595978Y-58772755D01*
X153603730Y-58774424D01*
X153611208Y-58777050D01*
X153616404Y-58777500D01*
X153619111Y-58777500D01*
X153621365Y-58777597D01*
X153621841Y-58777740D01*
X153621839Y-58777786D01*
X153622038Y-58777799D01*
X153627955Y-58779568D01*
X153678124Y-58777597D01*
X153683070Y-58777500D01*
X154157970Y-58777500D01*
X154226091Y-58797502D01*
X154272584Y-58851158D01*
X154282688Y-58921432D01*
X154253194Y-58986012D01*
X154247066Y-58992595D01*
X154005763Y-59233899D01*
X153943450Y-59267924D01*
X153872635Y-59262860D01*
X153846664Y-59249568D01*
X153817621Y-59230161D01*
X153817618Y-59230160D01*
X153807301Y-59223266D01*
X153733067Y-59208500D01*
X152908134Y-59208500D01*
X152082934Y-59208501D01*
X152008699Y-59223266D01*
X152008557Y-59222554D01*
X151949027Y-59228951D01*
X151922424Y-59215634D01*
X151927278Y-59255141D01*
X151907721Y-59304651D01*
X151868266Y-59363699D01*
X151853500Y-59437933D01*
X151853501Y-59688066D01*
X151854709Y-59694138D01*
X151865521Y-59748498D01*
X151868266Y-59762301D01*
X151875161Y-59772621D01*
X151875162Y-59772622D01*
X151882568Y-59783705D01*
X151924516Y-59846484D01*
X152008699Y-59902734D01*
X152082933Y-59917500D01*
X152103627Y-59917500D01*
X153245901Y-59917499D01*
X153314021Y-59937501D01*
X153360514Y-59991157D01*
X153370618Y-60061431D01*
X153341125Y-60126011D01*
X153301744Y-60153405D01*
X153302818Y-60155366D01*
X153279351Y-60168214D01*
X153177276Y-60244715D01*
X153164718Y-60257273D01*
X153126651Y-60308066D01*
X153069791Y-60350581D01*
X153025824Y-60358501D01*
X153007934Y-60358501D01*
X152933699Y-60373266D01*
X152932864Y-60369066D01*
X152885676Y-60374157D01*
X152882320Y-60373172D01*
X152882301Y-60373266D01*
X152814135Y-60359707D01*
X152808067Y-60358500D01*
X152658025Y-60358500D01*
X152507934Y-60358501D01*
X152433699Y-60373266D01*
X152432864Y-60369066D01*
X152385676Y-60374157D01*
X152382320Y-60373172D01*
X152382301Y-60373266D01*
X152314135Y-60359707D01*
X152308067Y-60358500D01*
X152158025Y-60358500D01*
X152007934Y-60358501D01*
X151972182Y-60365612D01*
X151945874Y-60370844D01*
X151945872Y-60370845D01*
X151933699Y-60373266D01*
X151923379Y-60380161D01*
X151923378Y-60380162D01*
X151877842Y-60410589D01*
X151849516Y-60429516D01*
X151793266Y-60513699D01*
X151778500Y-60587933D01*
X151778501Y-60938066D01*
X151783777Y-60964591D01*
X151777449Y-61035301D01*
X151733895Y-61091369D01*
X151677302Y-61114003D01*
X151675910Y-61114194D01*
X151666935Y-61114139D01*
X151600877Y-61133018D01*
X151592569Y-61135090D01*
X151558529Y-61142356D01*
X151550632Y-61146617D01*
X151545750Y-61148413D01*
X151536875Y-61151310D01*
X151527987Y-61153850D01*
X151498426Y-61172502D01*
X151477063Y-61185981D01*
X151469660Y-61190307D01*
X151431349Y-61210978D01*
X151428859Y-61213438D01*
X151364787Y-61236929D01*
X151295498Y-61221451D01*
X151245577Y-61170969D01*
X151230500Y-61111202D01*
X151230500Y-59286328D01*
X151250502Y-59218207D01*
X151304158Y-59171714D01*
X151374432Y-59161610D01*
X151394073Y-59166061D01*
X151429510Y-59177132D01*
X151573998Y-59179780D01*
X151603584Y-59171714D01*
X151704763Y-59144130D01*
X151704765Y-59144129D01*
X151713422Y-59141769D01*
X151737026Y-59127276D01*
X151805543Y-59108678D01*
X151849797Y-59122665D01*
X151851852Y-59065159D01*
X151877987Y-59020400D01*
X151933551Y-58959014D01*
X151991909Y-58838562D01*
X152039611Y-58785979D01*
X152105301Y-58767500D01*
X152189834Y-58767500D01*
X152189837Y-58767499D01*
X152308066Y-58767499D01*
X152382301Y-58752734D01*
X152383136Y-58756934D01*
X152430324Y-58751843D01*
X152433680Y-58752828D01*
X152433699Y-58752734D01*
X152507933Y-58767500D01*
X152657975Y-58767500D01*
X152808066Y-58767499D01*
X152882301Y-58752734D01*
X152883136Y-58756934D01*
X152930324Y-58751843D01*
X152933680Y-58752828D01*
X152933699Y-58752734D01*
X153007933Y-58767500D01*
X153157975Y-58767500D01*
X153308066Y-58767499D01*
X153382301Y-58752734D01*
X153383136Y-58756934D01*
X153430324Y-58751843D01*
X153433680Y-58752828D01*
G37*
%TD.AperFunction*%
%TA.AperFunction,Conductor*%
G36*
X161853012Y-58401031D02*
G01*
X161870863Y-58420075D01*
X161904535Y-58464437D01*
X161916569Y-58476470D01*
X161979163Y-58523982D01*
X162021330Y-58581100D01*
X162025923Y-58651948D01*
X162018225Y-58675292D01*
X162017871Y-58676094D01*
X162006534Y-58701737D01*
X162003500Y-58727762D01*
X162003500Y-58918238D01*
X162006659Y-58944789D01*
X162018705Y-58971909D01*
X162028079Y-59042282D01*
X162018795Y-59074003D01*
X162010938Y-59091776D01*
X162006534Y-59101737D01*
X162003500Y-59127762D01*
X162003500Y-59318238D01*
X162003939Y-59321926D01*
X162003939Y-59321930D01*
X162005542Y-59335403D01*
X162006659Y-59344789D01*
X162018705Y-59371909D01*
X162028079Y-59442282D01*
X162018795Y-59474003D01*
X162006534Y-59501737D01*
X162003500Y-59527762D01*
X162003500Y-59642500D01*
X161983498Y-59710621D01*
X161929842Y-59757114D01*
X161877500Y-59768500D01*
X161762762Y-59768500D01*
X161759074Y-59768939D01*
X161759070Y-59768939D01*
X161745597Y-59770542D01*
X161745595Y-59770542D01*
X161736211Y-59771659D01*
X161709091Y-59783705D01*
X161638718Y-59793079D01*
X161606997Y-59783795D01*
X161587927Y-59775364D01*
X161587925Y-59775364D01*
X161579263Y-59771534D01*
X161553238Y-59768500D01*
X161509029Y-59768500D01*
X161440908Y-59748498D01*
X161394415Y-59694842D01*
X161384311Y-59624568D01*
X161413805Y-59559988D01*
X161419934Y-59553405D01*
X161504423Y-59468916D01*
X161519909Y-59456408D01*
X161523134Y-59453474D01*
X161531882Y-59447825D01*
X161551003Y-59423570D01*
X161554559Y-59419569D01*
X161554459Y-59419484D01*
X161557812Y-59415527D01*
X161561494Y-59411845D01*
X161571882Y-59397309D01*
X161575401Y-59392622D01*
X161604946Y-59355143D01*
X161607779Y-59347075D01*
X161612753Y-59340115D01*
X161626420Y-59294414D01*
X161628256Y-59288765D01*
X161641424Y-59251269D01*
X161644050Y-59243792D01*
X161644500Y-59238596D01*
X161644500Y-59235891D01*
X161644597Y-59233635D01*
X161644740Y-59233159D01*
X161644786Y-59233161D01*
X161644799Y-59232962D01*
X161646568Y-59227045D01*
X161644597Y-59176876D01*
X161644500Y-59171930D01*
X161644500Y-58496255D01*
X161664502Y-58428134D01*
X161718158Y-58381641D01*
X161788432Y-58371537D01*
X161853012Y-58401031D01*
G37*
%TD.AperFunction*%
%TA.AperFunction,Conductor*%
G36*
X152421012Y-57031958D02*
G01*
X152450120Y-57071662D01*
X152450569Y-57071397D01*
X152453254Y-57075937D01*
X152454138Y-57077143D01*
X152454604Y-57078220D01*
X152529876Y-57205499D01*
X152539516Y-57217926D01*
X152639028Y-57317438D01*
X152673054Y-57379750D01*
X152667989Y-57450565D01*
X152639028Y-57495628D01*
X152443580Y-57691076D01*
X152428098Y-57703581D01*
X152424871Y-57706517D01*
X152416118Y-57712169D01*
X152396991Y-57736432D01*
X152393441Y-57740427D01*
X152393540Y-57740511D01*
X152390182Y-57744474D01*
X152386506Y-57748150D01*
X152383483Y-57752379D01*
X152383483Y-57752380D01*
X152376146Y-57762646D01*
X152372585Y-57767389D01*
X152349503Y-57796669D01*
X152349501Y-57796673D01*
X152343054Y-57804851D01*
X152340221Y-57812919D01*
X152335247Y-57819879D01*
X152332263Y-57829857D01*
X152321580Y-57865580D01*
X152319743Y-57871231D01*
X152318682Y-57874252D01*
X152277237Y-57931896D01*
X152211207Y-57957983D01*
X152199801Y-57958500D01*
X152113348Y-57958500D01*
X152045227Y-57938498D01*
X151998734Y-57884842D01*
X151988621Y-57850362D01*
X151972143Y-57735301D01*
X151972142Y-57735299D01*
X151970870Y-57726414D01*
X151965865Y-57715406D01*
X151945218Y-57669993D01*
X151935232Y-57599702D01*
X151964833Y-57535171D01*
X152002716Y-57505576D01*
X152022240Y-57495628D01*
X152054796Y-57479040D01*
X152142040Y-57391796D01*
X152198054Y-57281862D01*
X152200628Y-57265614D01*
X152205416Y-57235379D01*
X152212500Y-57190653D01*
X152212500Y-57127182D01*
X152232502Y-57059061D01*
X152286158Y-57012568D01*
X152356432Y-57002464D01*
X152421012Y-57031958D01*
G37*
%TD.AperFunction*%
%TA.AperFunction,Conductor*%
G36*
X159709003Y-54262205D02*
G01*
X159728073Y-54270636D01*
X159728075Y-54270636D01*
X159736737Y-54274466D01*
X159762762Y-54277500D01*
X159775291Y-54277500D01*
X159843412Y-54297502D01*
X159889905Y-54351158D01*
X159900433Y-54391802D01*
X159899706Y-54400198D01*
X159907179Y-54430283D01*
X159909380Y-54439144D01*
X159911385Y-54448827D01*
X159913731Y-54462922D01*
X159917975Y-54488417D01*
X159922919Y-54497581D01*
X159924144Y-54501158D01*
X159925646Y-54504629D01*
X159928157Y-54514736D01*
X159933806Y-54523485D01*
X159933807Y-54523487D01*
X159949929Y-54548456D01*
X159954960Y-54556961D01*
X159974017Y-54592280D01*
X159981664Y-54599349D01*
X159983983Y-54602338D01*
X159986526Y-54605133D01*
X159992175Y-54613882D01*
X160000354Y-54620330D01*
X160000356Y-54620332D01*
X160023686Y-54638724D01*
X160031207Y-54645147D01*
X160035675Y-54649277D01*
X160060680Y-54672391D01*
X160070207Y-54676603D01*
X160074835Y-54679643D01*
X160076068Y-54680532D01*
X160077485Y-54681385D01*
X160078898Y-54682313D01*
X160078783Y-54682488D01*
X160083683Y-54686020D01*
X160084686Y-54686811D01*
X160084885Y-54686968D01*
X160083400Y-54688850D01*
X160123249Y-54728917D01*
X160138151Y-54798332D01*
X160113158Y-54864784D01*
X160056207Y-54907176D01*
X160012497Y-54915000D01*
X159530115Y-54915000D01*
X159514876Y-54919475D01*
X159513671Y-54920865D01*
X159512000Y-54928548D01*
X159512000Y-57151000D01*
X159491998Y-57219121D01*
X159438342Y-57265614D01*
X159386000Y-57277000D01*
X159130000Y-57277000D01*
X159061879Y-57256998D01*
X159015386Y-57203342D01*
X159004000Y-57151000D01*
X159004000Y-54933115D01*
X158999525Y-54917876D01*
X158998135Y-54916671D01*
X158990452Y-54915000D01*
X158940330Y-54915000D01*
X158872209Y-54894998D01*
X158825716Y-54841342D01*
X158815420Y-54800467D01*
X158815188Y-54800500D01*
X158815183Y-54800467D01*
X158811654Y-54775824D01*
X158795974Y-54666335D01*
X158795973Y-54666333D01*
X158794701Y-54657448D01*
X158787806Y-54642282D01*
X158779010Y-54622937D01*
X158734888Y-54525895D01*
X158729030Y-54519096D01*
X158729027Y-54519092D01*
X158697037Y-54481967D01*
X158667723Y-54417305D01*
X158678022Y-54347059D01*
X158724664Y-54293533D01*
X158761900Y-54280217D01*
X158761281Y-54277965D01*
X158770404Y-54275458D01*
X158779789Y-54274341D01*
X158806909Y-54262295D01*
X158877282Y-54252921D01*
X158909003Y-54262205D01*
X158928073Y-54270636D01*
X158928075Y-54270636D01*
X158936737Y-54274466D01*
X158962762Y-54277500D01*
X159153238Y-54277500D01*
X159156926Y-54277061D01*
X159156930Y-54277061D01*
X159170403Y-54275458D01*
X159170405Y-54275458D01*
X159179789Y-54274341D01*
X159206909Y-54262295D01*
X159277282Y-54252921D01*
X159309003Y-54262205D01*
X159328073Y-54270636D01*
X159328075Y-54270636D01*
X159336737Y-54274466D01*
X159362762Y-54277500D01*
X159553238Y-54277500D01*
X159556926Y-54277061D01*
X159556930Y-54277061D01*
X159570403Y-54275458D01*
X159570405Y-54275458D01*
X159579789Y-54274341D01*
X159606909Y-54262295D01*
X159677282Y-54252921D01*
X159709003Y-54262205D01*
G37*
%TD.AperFunction*%
%TA.AperFunction,Conductor*%
G36*
X152351143Y-56278446D02*
G01*
X152395295Y-56334043D01*
X152401853Y-56355524D01*
X152408052Y-56385031D01*
X152419513Y-56388000D01*
X153318000Y-56388000D01*
X153386121Y-56408002D01*
X153432614Y-56461658D01*
X153444000Y-56514000D01*
X153444000Y-56770000D01*
X153423998Y-56838121D01*
X153370342Y-56884614D01*
X153318000Y-56896000D01*
X152421576Y-56896000D01*
X152378581Y-56908624D01*
X152365546Y-56917001D01*
X152294550Y-56916998D01*
X152234825Y-56878611D01*
X152205604Y-56815812D01*
X152199606Y-56777935D01*
X152199605Y-56777932D01*
X152198054Y-56768138D01*
X152142040Y-56658204D01*
X152087931Y-56604095D01*
X152053905Y-56541783D01*
X152058970Y-56470968D01*
X152087931Y-56425905D01*
X152142040Y-56371796D01*
X152166278Y-56324226D01*
X152215026Y-56272611D01*
X152283941Y-56255545D01*
X152351143Y-56278446D01*
G37*
%TD.AperFunction*%
%TA.AperFunction,Conductor*%
G36*
X153132121Y-53010002D02*
G01*
X153178614Y-53063658D01*
X153190000Y-53116000D01*
X153190000Y-53976000D01*
X153169998Y-54044121D01*
X153116342Y-54090614D01*
X153064000Y-54102000D01*
X152808000Y-54102000D01*
X152739879Y-54081998D01*
X152693386Y-54028342D01*
X152682000Y-53976000D01*
X152682000Y-53116000D01*
X152702002Y-53047879D01*
X152755658Y-53001386D01*
X152808000Y-52990000D01*
X153064000Y-52990000D01*
X153132121Y-53010002D01*
G37*
%TD.AperFunction*%
%TA.AperFunction,Conductor*%
G36*
X154959086Y-51709502D02*
G01*
X155005579Y-51763158D01*
X155015683Y-51833432D01*
X154999417Y-51879641D01*
X154994606Y-51887776D01*
X154988357Y-51902216D01*
X154946688Y-52045641D01*
X154945232Y-52053609D01*
X154948052Y-52067031D01*
X154959513Y-52070000D01*
X155858000Y-52070000D01*
X155926121Y-52090002D01*
X155972614Y-52143658D01*
X155984000Y-52196000D01*
X155984000Y-53117558D01*
X155987973Y-53131089D01*
X155995871Y-53132224D01*
X156042827Y-53118582D01*
X156113823Y-53118785D01*
X156173439Y-53157339D01*
X156202748Y-53222003D01*
X156203980Y-53239579D01*
X156203980Y-53892500D01*
X156183978Y-53960621D01*
X156130322Y-54007114D01*
X156077980Y-54018500D01*
X155918029Y-54018500D01*
X155849908Y-53998498D01*
X155828934Y-53981595D01*
X155081799Y-53234460D01*
X155047773Y-53172148D01*
X155052838Y-53101333D01*
X155095385Y-53044497D01*
X155161905Y-53019686D01*
X155235033Y-53036912D01*
X155323774Y-53089393D01*
X155338216Y-53095643D01*
X155458605Y-53130619D01*
X155472705Y-53130579D01*
X155476000Y-53123309D01*
X155476000Y-52596115D01*
X155471525Y-52580876D01*
X155470135Y-52579671D01*
X155462452Y-52578000D01*
X154961576Y-52578000D01*
X154946781Y-52582344D01*
X154944937Y-52592775D01*
X154946688Y-52602359D01*
X154988357Y-52745784D01*
X154994604Y-52760220D01*
X155047089Y-52848968D01*
X155064548Y-52917785D01*
X155042031Y-52985116D01*
X154986686Y-53029585D01*
X154916086Y-53037073D01*
X154849540Y-53002202D01*
X154720973Y-52873635D01*
X154686947Y-52811323D01*
X154684754Y-52779045D01*
X154684500Y-52779045D01*
X154684500Y-52775312D01*
X154684499Y-52376956D01*
X154679146Y-52343157D01*
X154671420Y-52294371D01*
X154671419Y-52294369D01*
X154669868Y-52284573D01*
X154613135Y-52173229D01*
X154524771Y-52084865D01*
X154413427Y-52028132D01*
X154403637Y-52026581D01*
X154403636Y-52026581D01*
X154373070Y-52021740D01*
X154321045Y-52013500D01*
X154150035Y-52013500D01*
X153978956Y-52013501D01*
X153932688Y-52020829D01*
X153862280Y-52011729D01*
X153823885Y-51985475D01*
X153743005Y-51904595D01*
X153708979Y-51842283D01*
X153714044Y-51771468D01*
X153756591Y-51714632D01*
X153823111Y-51689821D01*
X153832100Y-51689500D01*
X154890965Y-51689500D01*
X154959086Y-51709502D01*
G37*
%TD.AperFunction*%
%TA.AperFunction,Conductor*%
G36*
X163824187Y-51709502D02*
G01*
X163870680Y-51763158D01*
X163880784Y-51833432D01*
X163856893Y-51891064D01*
X163814204Y-51948025D01*
X163801372Y-51965147D01*
X163798222Y-51973548D01*
X163798221Y-51973551D01*
X163776790Y-52030718D01*
X163753786Y-52092081D01*
X163752933Y-52099934D01*
X163752932Y-52099938D01*
X163748183Y-52143658D01*
X163747500Y-52149947D01*
X163747501Y-52350552D01*
X163747501Y-52501971D01*
X163727499Y-52570091D01*
X163710596Y-52591066D01*
X162481080Y-53820582D01*
X162465598Y-53833087D01*
X162462371Y-53836023D01*
X162453618Y-53841675D01*
X162437449Y-53862186D01*
X162379569Y-53903298D01*
X162308649Y-53906592D01*
X162247206Y-53871020D01*
X162214749Y-53807877D01*
X162212500Y-53784179D01*
X162212500Y-53152762D01*
X162212060Y-53149064D01*
X162211979Y-53147696D01*
X162227920Y-53078512D01*
X162273620Y-53031794D01*
X162303500Y-53014124D01*
X162315926Y-53004484D01*
X162420484Y-52899926D01*
X162430124Y-52887499D01*
X162505396Y-52760220D01*
X162511643Y-52745784D01*
X162553312Y-52602359D01*
X162554768Y-52594391D01*
X162551948Y-52580969D01*
X162540487Y-52578000D01*
X161642000Y-52578000D01*
X161573879Y-52557998D01*
X161527386Y-52504342D01*
X161516000Y-52452000D01*
X161516000Y-52196000D01*
X161536002Y-52127879D01*
X161589658Y-52081386D01*
X161642000Y-52070000D01*
X162538424Y-52070000D01*
X162553219Y-52065656D01*
X162555063Y-52055225D01*
X162553312Y-52045641D01*
X162511643Y-51902216D01*
X162505394Y-51887776D01*
X162500583Y-51879641D01*
X162483122Y-51810825D01*
X162505638Y-51743493D01*
X162560981Y-51699023D01*
X162609035Y-51689500D01*
X163756066Y-51689500D01*
X163824187Y-51709502D01*
G37*
%TD.AperFunction*%
%TA.AperFunction,Conductor*%
G36*
X152616021Y-51709502D02*
G01*
X152662514Y-51763158D01*
X152672618Y-51833432D01*
X152643124Y-51898012D01*
X152636995Y-51904595D01*
X152539516Y-52002074D01*
X152529876Y-52014501D01*
X152472907Y-52110831D01*
X152421014Y-52159284D01*
X152351163Y-52171989D01*
X152300313Y-52155145D01*
X152214218Y-52104228D01*
X152199783Y-52097981D01*
X152057564Y-52056662D01*
X152044977Y-52054363D01*
X152037057Y-52053740D01*
X152021970Y-52056910D01*
X152019000Y-52068374D01*
X152019000Y-52557885D01*
X152023475Y-52573124D01*
X152024865Y-52574329D01*
X152032548Y-52576000D01*
X152343885Y-52576000D01*
X152359124Y-52571525D01*
X152360329Y-52570135D01*
X152362000Y-52562452D01*
X152362000Y-52450000D01*
X152382002Y-52381879D01*
X152435658Y-52335386D01*
X152488000Y-52324000D01*
X153318000Y-52324000D01*
X153386121Y-52344002D01*
X153432614Y-52397658D01*
X153444000Y-52450000D01*
X153444000Y-52706000D01*
X153423998Y-52774121D01*
X153370342Y-52820614D01*
X153318000Y-52832000D01*
X152651115Y-52832000D01*
X152635876Y-52836475D01*
X152634671Y-52837865D01*
X152633000Y-52845548D01*
X152633000Y-52958000D01*
X152612998Y-53026121D01*
X152559342Y-53072614D01*
X152507000Y-53084000D01*
X151637000Y-53084000D01*
X151568879Y-53063998D01*
X151522386Y-53010342D01*
X151511000Y-52958000D01*
X151511000Y-52070434D01*
X151506656Y-52055639D01*
X151494997Y-52053579D01*
X151485023Y-52054363D01*
X151472436Y-52056662D01*
X151330217Y-52097981D01*
X151315778Y-52104230D01*
X151189595Y-52178854D01*
X151177159Y-52188501D01*
X151073501Y-52292159D01*
X151063854Y-52304595D01*
X150989230Y-52430778D01*
X150982981Y-52445217D01*
X150955874Y-52538519D01*
X150917661Y-52598355D01*
X150853164Y-52628032D01*
X150782862Y-52618128D01*
X150729074Y-52571789D01*
X150716627Y-52546873D01*
X150667690Y-52413863D01*
X150662123Y-52402451D01*
X150566292Y-52247892D01*
X150558540Y-52237826D01*
X150433592Y-52105697D01*
X150423974Y-52097395D01*
X150275013Y-51993092D01*
X150263916Y-51986890D01*
X150135078Y-51931137D01*
X150080503Y-51885726D01*
X150059143Y-51818019D01*
X150077779Y-51749512D01*
X150130495Y-51701956D01*
X150185118Y-51689500D01*
X152547900Y-51689500D01*
X152616021Y-51709502D01*
G37*
%TD.AperFunction*%
%TA.AperFunction,Conductor*%
G36*
X160340525Y-51709502D02*
G01*
X160387018Y-51763158D01*
X160397122Y-51833432D01*
X160367628Y-51898012D01*
X160361499Y-51904595D01*
X160346865Y-51919229D01*
X160290132Y-52030573D01*
X160288581Y-52040363D01*
X160288581Y-52040364D01*
X160286488Y-52053579D01*
X160275500Y-52122955D01*
X160275500Y-52217470D01*
X160255498Y-52285591D01*
X160238596Y-52306565D01*
X160043578Y-52501584D01*
X160028098Y-52514086D01*
X160024868Y-52517025D01*
X160016118Y-52522675D01*
X159996991Y-52546938D01*
X159993443Y-52550930D01*
X159993543Y-52551014D01*
X159990186Y-52554976D01*
X159986506Y-52558656D01*
X159986495Y-52558672D01*
X159928464Y-52596881D01*
X159857471Y-52597667D01*
X159838381Y-52586391D01*
X159805987Y-52578000D01*
X158907500Y-52578000D01*
X158839379Y-52557998D01*
X158792886Y-52504342D01*
X158781500Y-52452000D01*
X158781500Y-52196000D01*
X158801502Y-52127879D01*
X158855158Y-52081386D01*
X158907500Y-52070000D01*
X159803924Y-52070000D01*
X159818719Y-52065656D01*
X159820563Y-52055225D01*
X159818812Y-52045641D01*
X159777143Y-51902216D01*
X159770894Y-51887776D01*
X159766083Y-51879641D01*
X159748622Y-51810825D01*
X159771138Y-51743493D01*
X159826481Y-51699023D01*
X159874535Y-51689500D01*
X160272404Y-51689500D01*
X160340525Y-51709502D01*
G37*
%TD.AperFunction*%
%TD*%
M02*
